<?xml version="1.0" encoding="UTF-8"?>
<COLLADA xmlns="http://www.collada.org/2005/11/COLLADASchema" version="1.4.1">
<!--
# File generated by ImageToStl.com - Free Image and 3D model conversion tools
-->
  <asset>
    <contributor>
      <author>ImageToStl.com</author>
      <authoring_tool>ImageToStl.com</authoring_tool>
    </contributor>
    <created>2025-07-02T08:54:05</created>
    <modified>2025-07-02T08:54:05</modified>
    <up_axis>Z_UP</up_axis>
  </asset>
  <library_effects>
    <effect id="effect_0">
        <profile_COMMON>
          <technique sid="common">
            <phong>
              <diffuse>
                <color>0.85 0.85 0.85 1</color>
              </diffuse>
              <specular>
                <color>0.05 0.05 0.05 1</color>
              </specular>
              <shininess>
                <float>64</float>
              </shininess>
            </phong>
          </technique>
        </profile_COMMON>
    </effect>
  </library_effects>
  <library_materials>
    <material id="mat_0">
      <instance_effect url="#effect_0"/>
    </material>
  </library_materials>
  <library_geometries>
    <geometry id="geometry_db72ff61_0e62_476b_afbf_c9c75e2045c9">
      <mesh>
        <source id="pos_0">
          <float_array id="pos_0-array" count="2373">0 45.04999924 4.55166626 0 45.04999924 4.0999999 5.1500001 45.04999924 4.55166626 5.1500001 45.04999924 4.0999999 5.1500001 59.25 35.25 5.1500001 62.59884262 33.98661804 5.1500001 64.00075531 35.25 5.1500001 63.65258789 34.1724205 5.1500001 64.16868591 34.29763031 5.1500001 63.69987488 33.9042511 5.1500001 59.25 29.85000038 5.1500001 63.69717026 27.7577076 5.1500001 59.23297501 29.66625023 5.1500001 59.18247223 29.48875809 5.1500001 59.10021591 29.32356834 5.1500001 58.98900986 29.17630386 5.1500001 58.85263443 29.05198288 5.1500001 58.69573975 28.95483589 5.1500001 58.52366257 28.88817406 5.1500001 65.25 23.20000076 5.1500001 64.75091553 27.94351196 5.1500001 65.25 28.01281929 5.1500001 64.70362854 28.21168327 5.1500001 64.45264435 20.86613464 5.1500001 58.38815689 28.85958862 5.1500001 58.25 28.85000038 5.1500001 57.65000153 28.85000038 5.1500001 57.51184464 28.85958862 5.1500001 64.04850006 18.43315697 5.1500001 57.37633514 28.88817406 5.1500001 57.20426178 28.95483589 5.1500001 56.65000153 35.25 5.1500001 49.04999924 35.25 5.1500001 56.65000153 29.85000038 5.1500001 49.04999924 29.85000038 5.1500001 56.66702652 29.66625023 5.1500001 49.03297424 29.66625023 5.1500001 56.7175293 29.48875809 5.1500001 48.98247147 29.48875809 5.1500001 56.7997818 29.32356834 5.1500001 48.90021896 29.32356834 5.1500001 56.91099167 29.17630386 5.1500001 48.78900909 29.17630386 5.1500001 57.0473671 29.05198288 5.1500001 48.65263367 29.05198288 5.1500001 48.49573898 28.95483589 5.1500001 48.3236618 28.88817406 5.1500001 64.04850006 15.96684265 5.1500001 46.34999847 6 5.1500001 64.45264435 13.53386593 5.1500001 65.25 9.19999981 5.1500001 65.25 11.19999981 5.1500001 48.18815613 28.85958862 5.1500001 48.04999924 28.85000038 5.1500001 47.45000076 28.85000038 5.1500001 47.31184387 28.85958862 5.1500001 47.1763382 28.88817406 5.1500001 47.00426102 28.95483589 5.1500001 46.84736633 29.05198288 5.1500001 37.27500153 32.04999924 5.1500001 28.14999962 29.25 5.1500001 30.92499924 32.04999924 5.1500001 28.14999962 33.54999924 5.1500001 29.20000076 33.79999924 5.1500001 28.86849976 35.25 5.1500001 29.20000076 35.25 5.1500001 46.71099091 29.17630386 5.1500001 46.59978104 29.32356834 5.1500001 46.51752853 29.48875809 5.1500001 46.46702576 29.66625023 5.1500001 46.45000076 29.85000038 5.1500001 39 33.79999924 5.1500001 46.45000076 35.25 5.1500001 39 35.25 5.1500001 38.09041595 33.79999924 5.1500001 37.27500153 33.09999847 5.1500001 38.08019257 33.8776474 5.1500001 38.0502243 33.95000076 5.1500001 37.57828522 34.01213074 5.1500001 36.66615295 33.09999847 5.1500001 38.00254822 34.01213074 5.1500001 37.64041519 34.05980682 5.1500001 37.94041443 34.05980682 5.1500001 37.71277237 34.0897789 5.1500001 37.86806107 34.0897789 5.1500001 37.79041672 34.09999847 5.1500001 30.1095829 33.79999924 5.1500001 30.92499924 33.09999847 5.1500001 30.62171555 34.01213074 5.1500001 31.53384781 33.09999847 5.1500001 30.4872303 34.0897789 5.1500001 30.33193779 34.0897789 5.1500001 30.55958366 34.05980682 5.1500001 30.25958443 34.05980682 5.1500001 30.19745255 34.01213074 5.1500001 30.14977646 33.95000076 5.1500001 30.11980629 33.8776474 5.1500001 30.40958405 34.09999847 5.1500001 14.41245079 12.51228237 5.1500001 14.54672432 12.42551041 5.1500001 20.14999962 29.25 5.1500001 14.65780735 12.31053638 5.1500001 14.73990726 12.17335606 5.1500001 14.78874111 12.02112579 5.1500001 20.14999962 33.54999924 5.1500001 16.20000076 35.25 5.1500001 5.9820509 23.61534691 5.1500001 6.18185186 23.13298416 5.1500001 19.43149948 35.25 5.1500001 16.20000076 41.25 5.1500001 10.28578663 41.25 5.1500001 6.78578663 37.75 5.1500001 5.25 24.34739685 5.1500001 3.23899651 35.34062958 5.1500001 1.60196614 29.23114967 5.1500001 2.22814345 37.75 5.1500001 2.20545602 35.61756516 5.1500001 1.70223439 35.78728104 5.1500001 2.13497758 35.35453796 5.1500001 0.63890386 29.77111435 5.1500001 0 29.59992027 5.1500001 0.56842548 29.50808525 5.1500001 0 25.82468224 5.1500001 4.76763821 24.54719734 5.1500001 5.66421366 24.02956009 5.1500001 6.25 22.61534691 5.1500001 6.25 22.58465385 5.1500001 14.08235931 12.59843349 5.1500001 6.18185186 22.0670166 5.1500001 13.9001236 12.5890007 5.1500001 5.9820509 21.58465385 5.1500001 13.72476673 12.538517 5.1500001 13.56541252 12.4496088 5.1500001 5.66421366 21.17044067 5.1500001 13.4303503 12.32690144 5.1500001 5.25 20.85260391 5.1500001 3.50177479 12.60000038 5.1500001 13.32660866 12.17677975 5.1500001 13.25958538 12.00705528 5.1500001 4.76763821 20.65280151 5.1500001 0.66059327 17.74677277 5.1500001 0.43731776 15.95345402 5.1500001 0.6665858 19.55392838 5.1500001 -0 14.19999981 5.1500001 -0 12.60000038 5.1500001 3.5999999 10.10000038 5.1500001 11.64999962 6 5.1500001 3.5999999 1.5 5.1500001 11.64999962 4.9000001 5.1500001 1.64676714 2.59766674 5.1500001 1.74750352 2.79711747 5.1500001 1.5 2.42917967 5.1500001 0 3.0999999 5.1500001 1.5 1.5 5.1500001 0 0 5.1500001 11.29105663 0 5.1500001 12.0566988 1.27407682 5.1500001 12.61423016 2.65198803 5.1500001 1.79599965 3.01523805 5.1500001 0.02773804 3.32171845 5.1500001 1.78926635 3.23858333 5.1500001 0.10924238 3.52977014 5.1500001 1.72771859 3.45338655 5.1500001 0.23948909 3.71133089 5.1500001 1.61515009 3.64640665 5.1500001 0.41044974 3.85520887 5.1500001 1.45849979 3.80574632 5.1500001 0.61158633 3.95253587 5.1500001 1.26742351 3.92158389 5.1500001 0.83050078 3.99731255 5.1500001 1.05369914 3.98677874 5.1500001 12.94999981 4.0999999 5.1500001 12.94999981 4.55166626 5.1500001 14.2619915 12.56632519 5.1500001 14.80176067 11.86178589 5.1500001 14.77828789 11.70364761 5.1500001 13.25 6 5.1500001 48.66764069 -0 5.1500001 46.34999847 4.9000001 5.1500001 45.94330215 1.27407682 5.1500001 45.38576889 2.65198803 5.1500001 46.70894241 -0 0 13.25 6 0 14.77828789 11.70364761 0 46.34999847 6 -0 14.80176067 11.86178589 0 28.14999962 29.25 -0 14.78874111 12.02112579 -0 14.73990726 12.17335606 -0 14.65780735 12.31053638 0 20.14999962 29.25 -0 14.54672432 12.42551041 -0 14.41245079 12.51228237 0 14.2619915 12.56632519 0 14.08235931 12.59843349 0 13.9001236 12.5890007 0 0.61361378 20.22084618 0 13.72476673 12.538517 0 13.56541252 12.4496088 0 3.50177479 12.60000038 0 13.4303503 12.32690144 0 13.32660866 12.17677975 0 13.25958538 12.00705528 0 3.5999999 10.10000038 0 11.64999962 6 0 3.5999999 4 0 11.64999962 4.9000001 0 11.29105663 0 0 0 0 0 12.94999981 4.55166626 0 12.94999981 4.0999999 0 12.61423016 2.65198803 0 12.0566988 1.27407682 0 0 3.0999999 0 0.89999998 4 0 0.03066676 3.33293724 0 0.12057713 3.54999995 0 0.2636039 3.73639607 0 0.44999999 3.8794229 0 0.66706288 3.96933317 0 -0 12.60000038 0 -0 14.19999981 0 0.61361378 17.17915535 0 1.60196614 29.23114967 0 0 23.20000076 0 0.56842548 29.50808525 0 0 29.59992027 0 0.63890386 29.77111435 0 2.13497758 35.35453796 0 1.70223439 35.78728104 0 2.20545602 35.61756516 0 2.22814345 37.75 0 3.23899651 35.34062958 0 6.78578663 37.75 0 16.20000076 35.25 0 20.14999962 33.54999924 0 10.28578663 41.25 0 16.20000076 41.25 0 19.43149948 35.25 0 29.20000076 34.59999847 0 29.20000076 33.79999924 0 28.14999962 33.54999924 0 30.92499924 32.04999924 0 37.27500153 32.04999924 -0 64.04850006 18.43315697 -0 64.04850006 15.96684265 0 28.86849976 35.25 0 29.30143166 35.25 0 29.756567 34.59999847 0 30.1095829 33.79999924 0 30.92499924 33.09999847 0 30.62171555 34.01213074 0 30.11980629 33.8776474 0 30.14977646 33.95000076 0 30.19745255 34.01213074 0 30.25958443 34.05980682 0 30.55958366 34.05980682 0 30.33193779 34.0897789 0 30.4872303 34.0897789 0 30.40958405 34.09999847 0 31.53384781 33.09999847 0 36.66615295 33.09999847 0 37.57828522 34.01213074 0 37.27500153 33.09999847 0 38.09041595 33.79999924 0 39 33.79999924 -0 64.45264435 20.86613464 0 37.79041672 34.09999847 0 37.86806107 34.0897789 0 37.71277237 34.0897789 0 37.94041443 34.05980682 0 37.64041519 34.05980682 0 38.00254822 34.01213074 0 38.0502243 33.95000076 0 38.08019257 33.8776474 0 38.44343185 34.59999847 0 38.8985672 35.25 0 39 34.59999847 0 62.59884262 33.98661804 0 63.69717026 27.7577076 -0 65.25 23.20000076 0 64.00075531 35.25 0 63.65258789 34.1724205 0 64.16868591 34.29763031 0 63.69987488 33.9042511 0 64.75091553 27.94351196 0 65.25 28.01281929 0 64.70362854 28.21168327 -0 64.45264435 13.53386593 0 65.25 9.19999981 0 48.66764069 -0 0 65.25 11.19999981 0 46.70894241 -0 0 45.94330215 1.27407682 0 46.34999847 4.9000001 0 45.38576889 2.65198803 0.80000001 29.30143166 35.25 0.80000001 29.20000076 35.25 0.57499999 28.14999962 29.25 4.57499981 28.14999962 29.25 0.57499999 28.14999962 17.04999924 4.57499981 28.14999962 17.04999924 0.80000001 29.20000076 34.59999847 4.93174219 59.25 35.25 4.62173891 59.75219727 35.25 4.19855309 60.16355515 35.25 3.6877737 60.45920181 35.25 1.42535985 60.25133133 35.25 1.95381331 60.51408768 35.25 2.53041172 60.63993454 35.25 3.12028813 60.6212616 35.25 0.42256314 46.8643074 35.25 0.34999999 47.45000076 35.25 0.34999999 48.04999924 35.25 0.34999999 57.65000153 35.25 0.34999999 58.25 35.25 0.80000001 38.8985672 35.25 0.80000001 39 35.25 0.75 40.70000076 35.25 0.75 44.5 35.25 4.55000019 44.5 35.25 4.55000019 40.70000076 35.25 3.6500001 40.70000076 35.25 1.64999998 40.70000076 35.25 4.62173891 45.9478035 35.25 4.19855309 45.53644562 35.25 4.93174219 46.45000076 35.25 3.6877737 45.24079514 35.25 3.12028813 45.07873917 35.25 2.53041172 45.06006622 35.25 1.95381331 45.18591309 35.25 1.42535985 45.44866943 35.25 0.97700649 45.83244324 35.25 0.63586468 46.31402969 35.25 0.42256314 57.06430435 35.25 0.42256314 48.6356926 35.25 0.75 54.70000076 35.25 0.75 50.90000153 35.25 0.63586468 49.18597031 35.25 0.97700649 49.66755676 35.25 1.42535985 50.05133057 35.25 1.64999998 50.90000153 35.25 1.95381331 50.31408691 35.25 2.53041172 50.43993378 35.25 4.19855309 49.96355438 35.25 4.55000019 50.90000153 35.25 3.6877737 50.25920486 35.25 3.6500001 50.90000153 35.25 3.12028813 50.42126083 35.25 3.25 51.29999924 35.25 2.04999995 51.29999924 35.25 4.62173891 49.5521965 35.25 4.55000019 54.70000076 35.25 4.62173891 56.14780426 35.25 4.93174219 56.65000153 35.25 4.93174219 49.04999924 35.25 4.19855309 55.73644638 35.25 3.6877737 55.4407959 35.25 3.12028813 55.27873611 35.25 2.53041172 55.26006699 35.25 1.95381331 55.38591385 35.25 1.42535985 55.6486702 35.25 0.97700649 56.03244019 35.25 0.63586468 56.51402664 35.25 0.42256314 58.83569336 35.25 0.63586468 59.38597107 35.25 0.97700649 59.86755753 35.25 3.25 41.09999847 35.25 2.04999995 41.09999847 35.25 0.80000001 39 34.59999847 4.57499981 25 29.25 4.57499981 25 17.04999924 0.57499999 25 29.25 0.57499999 25 17.04999924 0.57499999 23.29999924 29.25 0.57499999 20.14999962 29.25 4.57499981 23.29999924 29.25 4.57499981 20.14999962 29.25 4.5999999 0 25.82468224 4.5999999 0 28.10000038 0.55000001 0 28.10000038 0.55000001 0 23.20000076 0.55000001 0.54297358 20.80149078 0.55000001 0.68674594 18.34649849 0.55000001 0.42745262 15.90100574 4.5999999 0.42745262 15.90100574 4.5999999 0.60648775 17.11078644 4.5999999 0.68637586 18.33113098 4.5999999 0.6665858 19.55392838 4.5999999 4.76763821 20.65280151 4.5999999 5.25 20.85260391 4.5999999 7.81694174 19.34678078 4.5999999 5.66421366 21.17044067 4.5999999 7.84503508 19.40707397 4.5999999 5.9820509 21.58465385 4.5999999 6.18185186 22.0670166 4.5999999 6.25 22.58465385 4.5999999 7.84503508 24.99059296 4.5999999 6.25 22.61534691 4.5999999 6.18185186 23.13298416 4.5999999 5.9820509 23.61534691 4.5999999 5.66421366 24.02956009 4.5999999 5.25 24.34739685 4.5999999 4.80637884 28.10000038 4.5999999 4.76763821 24.54719734 0.55000001 7.47882509 19.18911362 2.29999995 9.32499981 20.04999924 3.5 9.32499981 20.04999924 0.55000001 7.5063467 19.22803497 0.55000001 7.5063467 25.33716774 0.55000001 4.80637884 28.10000038 1.23915613 8.69999981 24.11572266 4.2758317 8.69999981 24.11572266 4.19999981 8.89999962 20.75 4.19999981 8.89999962 24.10523987 4.19999981 9.29020882 24.08479118 4.19999981 9.67500019 23.70000076 4.19999981 10.52499962 23.70000076 4.19999981 10.52499962 20.75 1.60000002 9.32499981 20.75 1.60000002 9.32499981 24.04999924 1.5799135 9.29020882 24.08479118 1.60000002 9.67500019 23.70000076 1.60000002 10.52499962 20.75 1.60000002 10.52499962 23.70000076 2.29999995 10.52499962 20.04999924 1.60000002 16.72500038 23.70000076 1.60000002 16.72500038 20.75 4.19999981 16.72500038 20.75 2.29999995 16.72500038 20.04999924 3.5 16.72500038 20.04999924 4.19999981 16.72500038 23.70000076 3.5 10.52499962 20.04999924 1 1.5 2.42917967 1 1.64286196 2.59190941 1 1.74272001 2.78405213 1 1.79379332 2.9944849 1 1.79312551 3.21102595 1 1.74075508 3.42113996 1 1.63971388 3.61266303 1 1.49585092 3.77450848 1 1.31749439 3.89730692 1 1.11496949 3.97394967 1 0.89999998 4 1 3.5999999 4 1 1.5 1.5 1 3.5999999 1.5 1.96915424 15.09074402 41.25 2.48610711 15.26025581 41.25 3.02895522 15.29617405 41.25 3.56373549 15.19625092 41.25 4.05698872 14.9667387 41.25 0.87708879 12.32596588 41.25 0.74207705 12.85298252 41.25 0.74207705 13.39701748 41.25 0.87708879 13.92403412 41.25 1.13866508 14.4010582 41.25 4.05698872 11.2832613 41.25 3.56373549 11.05374908 41.25 3.02895522 10.95382595 41.25 2.48610711 10.98974419 41.25 1.96915424 11.15925598 41.25 4.47785378 14.62199783 41.25 4.80000019 14.18359566 41.25 4.80000019 12.06640434 41.25 4.47785378 11.62800217 41.25 1.51044035 11.45175457 41.25 1.13866508 11.8489418 41.25 1.51044035 14.79824543 41.25 4.66540146 11.85457325 34.75 1.62957346 14.89040089 34.75 4.66540146 11.85457325 33.75 1.62957346 14.89040089 33.75 4.80000019 12.06640434 34.75 4.80000019 14.18359566 34.75 4.71297455 11.92343903 34.75 4.75786304 11.99408436 34.75 4.492589 14.6063118 34.75 4.09320641 14.94348335 34.75 2.08742857 15.14251137 34.75 3.62491727 15.17563915 34.75 2.5922091 15.27811146 34.75 3.11476445 15.28937054 34.75 4.51854181 11.67209053 33.75 4.35291004 11.50645828 33.75 4.17042637 11.35959911 34.75 3.68156838 11.09527683 34.75 3.14168382 10.96346951 34.75 2.58602071 10.97278214 34.75 2.05085611 11.12260628 34.75 1.57112968 11.40316105 34.75 1.17816126 11.79612923 34.75 0.89760649 12.27585602 34.75 0.74778211 12.81102085 34.75 0.73846954 13.36668396 34.75 0.87027687 13.90656853 34.75 1.13459873 14.39542675 34.75 4.17042637 11.35959911 33.75 1.13459873 14.39542675 33.75 1.28145814 14.57790947 33.75 1.44709003 14.74354172 33.75 4.57499981 20.14999962 17.45000076 0.57499999 20.14999962 17.45000076 0.57499999 23.29999924 17.45000076 4.57499981 23.29999924 17.45000076 0.80000001 29.756567 34.59999847 0.80000001 38.44343185 34.59999847 5.14437008 56.65000153 29.77587128 5.12846231 56.65000153 29.70323181 5.07497454 56.65000153 29.56453133 4.93174219 56.65000153 29.30373001 5.14437008 46.45000076 29.77587128 5.12846231 46.45000076 29.70323181 5.07497454 46.45000076 29.56453133 4.93174219 46.45000076 29.30373001 1.10000002 57.65000153 27.55096245 0.34999999 57.65000153 28.85000038 1.10000002 57.46642685 27.56859589 0.43177801 57.0288353 28.85000038 1.10000002 57.28885269 27.61861801 1.10000002 56.96220779 27.78931236 0.67153901 56.45000076 28.85000038 1.10000002 56.54999924 28.12782669 1.05294371 55.95294189 28.85000038 1.77405155 56.54999924 27.24011993 1.54999995 55.57154083 28.85000038 2.16913533 56.54999924 26.84765816 2.12883425 55.33177948 28.85000038 2.4001677 56.54999924 26.69236565 2.52784991 56.54999924 26.63679886 2.75 55.25 28.85000038 2.66313863 56.54999924 26.60426521 2.80219388 56.54999924 26.60047722 2.93894839 56.54999924 26.62623787 3.37116575 55.33177948 28.85000038 3.06872463 56.54999924 26.67670059 3.19004416 56.54999924 26.74513054 3.95000005 55.57154083 28.85000038 3.60925007 56.54999924 27.11070633 4.44705629 55.95294189 28.85000038 4.30000019 56.54999924 27.98511314 4.82846117 56.45000076 28.85000038 4.27950621 57.04289246 27.54332542 5.06822205 57.0288353 28.85000038 4.26756048 57.33018875 27.37930298 4.2610507 57.48675156 27.32552338 4.25426292 57.65000153 27.29853821 1.10000002 56.54999924 17.04999924 4.30000019 56.54999924 17.04999924 1.10000002 59 17.04999924 4.19813108 59 17.04999924 4.44705629 59.94705582 27.63246536 4.17026186 59.67026138 27.15304375 4.74552727 59.58337021 28.14943314 4.96731091 59.16844177 28.53357315 5.04665661 58.94668198 28.67100525 5.13844347 58.48524094 28.82998276 5.1038847 58.71821594 28.77012634 5.13295364 58.53553772 28.8828392 5.08526182 58.80367279 28.97670174 5.01511908 59.04324341 29.12080765 4.93174219 59.25 29.30373001 4.08336878 60.24552536 28.14943314 3.66844034 60.46731186 28.53357315 3.44668317 60.54665756 28.67100525 3.21821666 60.60388565 28.77012634 2.2817831 60.60388565 28.77012634 2.51475883 60.63844299 28.82998276 2.75 60.65000153 28.85000038 2.98524117 60.63844299 28.82998276 2.05331683 60.54665756 28.67100525 1.83155978 60.46731186 28.53357315 1.41663146 60.24552536 28.14943314 1.05294371 59.94705582 27.63246536 0.75447291 59.58337021 28.14943314 0.53268909 59.16844177 28.53357315 0.45334318 58.94668198 28.67100525 0.36155665 58.48524094 28.82998276 0.39611533 58.71821594 28.77012634 0.34999999 58.25 28.85000038 5.01511908 46.65675735 29.12080765 5.08526182 46.89632797 28.97670174 5.13295364 47.16446304 28.8828392 1.10000002 59.90000153 27.55096245 1.10000002 59.40000153 26.68493652 4.18149948 59.40000153 26.68493652 1.10000002 59.25 25.28038406 1.10000002 59.40000153 25.54019165 1.10000002 59.25 24.53301239 1.10000002 59 23.60000038 4.18773603 59.25 24.53301239 4.18773603 59.25 25.28038406 4.18149948 59.40000153 25.54019165 4.19813108 59 23.60000038 2.04999995 41.09999847 35.15000153 1.64999998 40.70000076 35.15000153 5.01511908 56.8567543 29.12080765 5.08526182 57.09632874 28.97670174 5.13295364 57.36446381 28.8828392 5.07497454 59.25 29.56453133 5.12846231 59.25 29.70323181 5.14437008 59.25 29.77587128 0.75 53.29999924 34.75 0.75 52.5 34.75 1.73348486 53.29999924 34.75 1.73348486 52.5 34.75 3.56651521 53.29999924 34.75 3.56651521 52.5 34.75 4.55000019 53.29999924 34.75 4.55000019 52.5 34.75 1.86564112 52.2796936 34.75 3.43435884 52.2796936 34.75 2.04956555 52.10032654 34.75 3.2504344 52.10032654 34.75 2.27311921 51.97373962 34.75 3.02688074 51.97373962 34.75 2.52154708 51.90828323 34.75 2.77845287 51.90828323 34.75 3.43435884 53.52030563 34.75 1.86564112 53.52030563 34.75 3.2504344 53.6996727 34.75 2.04956555 53.6996727 34.75 3.02688074 53.82626343 34.75 2.27311921 53.82626343 34.75 2.77845287 53.891716 34.75 2.52154708 53.891716 34.75 1.73348486 53.29999924 35.15000153 1.86564112 53.52030563 35.15000153 2.04956555 53.6996727 35.15000153 2.27311921 53.82626343 35.15000153 2.52154708 53.891716 35.15000153 2.77845287 53.891716 35.15000153 3.02688074 53.82626343 35.15000153 3.2504344 53.6996727 35.15000153 3.43435884 53.52030563 35.15000153 3.56651521 53.29999924 35.15000153 4.55000019 53.29999924 35.15000153 0.75 53.29999924 35.15000153 0.75 52.5 35.15000153 1.73348486 52.5 35.15000153 1.86564112 52.2796936 35.15000153 2.04956555 52.10032654 35.15000153 2.27311921 51.97373962 35.15000153 2.52154708 51.90828323 35.15000153 2.77845287 51.90828323 35.15000153 3.02688074 51.97373962 35.15000153 3.2504344 52.10032654 35.15000153 3.43435884 52.2796936 35.15000153 3.56651521 52.5 35.15000153 4.55000019 52.5 35.15000153 4.55000019 50.90000153 35.15000153 3.25 51.29999924 35.15000153 3.6500001 50.90000153 35.15000153 2.04999995 51.29999924 35.15000153 1.64999998 50.90000153 35.15000153 0.75 50.90000153 35.15000153 0.75 54.70000076 35.15000153 4.55000019 54.70000076 35.15000153 4.55000019 40.70000076 35.15000153 3.6500001 40.70000076 35.15000153 3.25 41.09999847 35.15000153 1.10000002 47.45000076 27.55096245 0.34999999 47.45000076 28.85000038 1.10000002 47.26642609 27.56859589 0.43177801 46.82883453 28.85000038 1.10000002 47.08885193 27.61861801 1.10000002 46.76220703 27.78931236 0.67153901 46.25 28.85000038 1.10000002 46.34999847 28.12782669 1.05294371 45.75294495 28.85000038 1.77405155 46.34999847 27.24011993 1.54999995 45.37154007 28.85000038 2.16913533 46.34999847 26.84765816 2.12883425 45.13177872 28.85000038 2.4001677 46.34999847 26.69236565 2.52784991 46.34999847 26.63679886 2.75 45.04999924 28.85000038 2.66313863 46.34999847 26.60426521 2.80219388 46.34999847 26.60047722 2.93894839 46.34999847 26.62623787 3.37116575 45.13177872 28.85000038 3.06872463 46.34999847 26.67670059 3.19004416 46.34999847 26.74513054 3.95000005 45.37154007 28.85000038 3.60925007 46.34999847 27.11070633 4.44705629 45.75294495 28.85000038 4.30000019 46.34999847 27.98511314 4.82846117 46.25 28.85000038 4.27950621 46.84289169 27.54332542 5.06822205 46.82883453 28.85000038 4.26756048 47.1301918 27.37930298 4.2610507 47.28675461 27.32552338 4.25426292 47.45000076 27.29853821 1.10000002 46.34999847 17.04999924 4.30000019 46.34999847 17.04999924 1.10000002 48.79999924 17.04999924 4.19813108 48.79999924 17.04999924 4.44705629 49.74705505 27.63246536 4.17026186 49.47026062 27.15304375 4.74552727 49.38336945 28.14943314 4.96731091 48.96844101 28.53357315 5.04665661 48.74668503 28.67100525 5.13844347 48.28524017 28.82998276 5.1038847 48.51821518 28.77012634 4.93174219 49.04999924 29.30373001 5.07497454 49.04999924 29.56453133 5.12846231 49.04999924 29.70323181 5.14437008 49.04999924 29.77587128 0.34999999 48.04999924 28.85000038 1.05294371 49.74705505 27.63246536 0.75447291 49.38336945 28.14943314 1.10000002 49.70000076 27.55096245 0.53268909 48.96844101 28.53357315 0.45334318 48.74668503 28.67100525 0.39611533 48.51821518 28.77012634 0.36155665 48.28524017 28.82998276 4.08336878 50.04552841 28.14943314 3.66844034 50.2673111 28.53357315 1.83155978 50.2673111 28.53357315 3.44668317 50.3466568 28.67100525 2.05331683 50.3466568 28.67100525 3.21821666 50.40388489 28.77012634 2.2817831 50.40388489 28.77012634 2.51475883 50.43844223 28.82998276 2.98524117 50.43844223 28.82998276 2.75 50.45000076 28.85000038 1.41663146 50.04552841 28.14943314 1.10000002 49.20000076 26.68493652 4.18149948 49.20000076 26.68493652 1.10000002 49.04999924 25.28038406 1.10000002 49.20000076 25.54019165 1.10000002 49.04999924 24.53301239 1.10000002 48.79999924 23.60000038 4.18773603 49.04999924 24.53301239 4.18773603 49.04999924 25.28038406 4.18149948 49.20000076 25.54019165 4.19813108 48.79999924 23.60000038 5.13295364 48.33553696 28.8828392 5.08526182 48.60367203 28.97670174 5.01511908 48.84324265 29.12080765 0.75 43.09999847 34.75 0.75 42.29999924 34.75 1.73348486 43.09999847 34.75 1.73348486 42.29999924 34.75 3.56651521 43.09999847 34.75 3.56651521 42.29999924 34.75 4.55000019 43.09999847 34.75 4.55000019 42.29999924 34.75 1.86564112 42.07969284 34.75 3.43435884 42.07969284 34.75 2.04956555 41.90032578 34.75 3.2504344 41.90032578 34.75 2.27311921 41.77373886 34.75 3.02688074 41.77373886 34.75 2.52154708 41.70828629 34.75 2.77845287 41.70828629 34.75 3.43435884 43.32030869 34.75 1.86564112 43.32030869 34.75 3.2504344 43.49967575 34.75 2.04956555 43.49967575 34.75 3.02688074 43.62626266 34.75 2.27311921 43.62626266 34.75 2.77845287 43.69171524 34.75 2.52154708 43.69171524 34.75 1.73348486 43.09999847 35.15000153 1.86564112 43.32030869 35.15000153 2.04956555 43.49967575 35.15000153 2.27311921 43.62626266 35.15000153 2.52154708 43.69171524 35.15000153 2.77845287 43.69171524 35.15000153 3.02688074 43.62626266 35.15000153 3.2504344 43.49967575 35.15000153 3.43435884 43.32030869 35.15000153 3.56651521 43.09999847 35.15000153 4.55000019 43.09999847 35.15000153 0.75 43.09999847 35.15000153 0.75 42.29999924 35.15000153 1.73348486 42.29999924 35.15000153 1.86564112 42.07969284 35.15000153 2.04956555 41.90032578 35.15000153 2.27311921 41.77373886 35.15000153 2.52154708 41.70828629 35.15000153 2.77845287 41.70828629 35.15000153 3.02688074 41.77373886 35.15000153 3.2504344 41.90032578 35.15000153 3.43435884 42.07969284 35.15000153 3.56651521 42.29999924 35.15000153 4.55000019 42.29999924 35.15000153 0.75 40.70000076 35.15000153 0.75 44.5 35.15000153 4.55000019 44.5 35.15000153</float_array>
          <technique_common>
            <accessor source="#pos_0-array" count="2373" stride="3">
              <param name="X" type="float"/>
              <param name="Y" type="float"/>
              <param name="Z" type="float"/>
            </accessor>
          </technique_common>
        </source>
        <source id="norm_0">
          <float_array id="norm_0-array" count="4164">0 -1 0 1 0 0 1 -0 0 1 0 0 1 -0 0 1 0 0 1 0 0 1 -0 0 1 -0 0 1 -0 0 1 -0 0 1 -0 0 1 -0 0 1 -0 0 1 -0 0 1 -0 0 1 -0 0 1 -0 0 1 -0 0 1 -0 0 1 0 0 1 0 0 1 -0 -0 1 -0 0 1 0 0 1 0 0 1 0 0 1 -0 0 1 -0 0 1 0 0 1 0 0 1 0 0 1 0 0 1 0 0 1 0 -0 1 0 0 1 0 -0 1 0 -0 1 0 -0 1 0 -0 1 0 0 1 -0 0 1 -0 0 1 -0 0 1 0 0 1 -0 0 1 -0 0 1 -0 0 1 0 0 1 0 0 1 -0 0 1 0 0 1 0 0 1 0 0 1 0 0 1 0 0 1 0 0 1 0 0 1 0 0 1 0 0 1 0 0 1 -0 -0 1 -0 -0 1 -0 -0 1 -0 -0 1 -0 -0 1 0 0 1 0 0 1 0 0 1 -0 0 1 0 0 1 -0 -0 1 -0 -0 1 0 0 1 -0 0 1 -0 -0 1 -0 -0 1 0 0 1 0 0 1 0 0 1 0 0 1 0 0 1 0 0 1 -0 0 1 -0 0 1 0 -0 1 0 -0 1 0 -0 1 0 -0 1 0 -0 1 0 0 1 0 0 1 -0 0 1 -0 0 1 -0 0 1 0 0 1 0 0 1 0 0 1 0 0 1 0 0 1 -0 0 1 0 0 1 -0 0 1 -0 0 1 0 0 1 -0 0 1 -0 0 1 0 0 1 0 0 1 0 0 1 -0 0 1 0 0 1 -0 -0 1 0 0 1 0 0 1 0 -0 1 0 0 1 -0 0 1 0 0 1 0 0 1 0 -0 1 0 0 1 0 0 1 0 -0 1 0 0 1 0 -0 1 -0 -0 1 -0 0 1 -0 -0 1 -0 0 1 0 0 1 0 -0 1 -0 0 1 -0 -0 1 -0 0 1 -0 0 1 -0 0 1 0 0 1 0 0 1 -0 0 1 -0 -0 1 0 0 1 0 0 1 -0 0 1 -0 0 1 0 0 1 -0 0 1 -0 0 1 -0 0 1 -0 -0 1 0 0 1 0 0 1 0 0 1 0 0 1 0 0 1 0 0 1 0 0 1 0 0 1 0 0 1 0 0 1 0 0 1 0 0 1 -0 0 1 0 -0 1 0 -0 1 -0 0 1 -0 0 1 0 0 1 0 0 1 0 0 1 -0 0 1 0 0 1 0 0 1 0 -0 1 -0 0 1 -0 -0 -1 -0 -0 -1 -0 -0 -1 0 0 -1 0 -0 -1 0 -0 -1 0 -0 -1 -0 0 -1 0 0 -1 0 0 -1 -0 0 -1 0 -0 -1 -0 0 -1 -0 0 -1 -0 -0 -1 -0 -0 -1 -0 -0 -1 -0 -0 -1 -0 -0 -1 -0 -0 -1 -0 -0 -1 -0 -0 -1 -0 -0 -1 -0 -0 -1 -0 -0 -1 -0 -0 -1 -0 -0 -1 0 0 -1 -0 0 -1 -0 0 -1 -0 -0 -1 -0 -0 -1 -0 -0 -1 -0 -0 -1 -0 -0 -1 -0 -0 -1 -0 -0 -1 -0 -0 -1 -0 -0 -1 0 -0 -1 -0 0 -1 -0 0 -1 -0 -0 -1 -0 -0 -1 -0 -0 -1 -0 -0 -1 -0 -0 -1 -0 -0 -1 -0 -0 -1 -0 -0 -1 -0 -0 -1 -0 -0 -1 -0 -0 -1 -0 -0 -1 -0 -0 -1 -0 -0 -1 -0 -0 -1 -0 -0 -1 -0 -0 -1 -0 -0 -1 -0 -0 -1 -0 -0 -1 -0 -0 -1 -0 -0 -1 -0 -0 -1 -0 -0 -1 -0 -0 -1 -0 -0 -1 -0 -0 -1 -0 -0 -1 -0 -0 -1 -0 -0 -1 -0 -0 -1 -0 -0 -1 -0 -0 -1 -0 -0 -1 -0 -0 -1 -0 -0 -1 -0 -0 -1 -0 -0 -1 -0 0 -1 -0 -0 -1 -0 -0 -1 -0 -0 -1 -0 -0 -1 -0 -0 -1 -0 -0 -1 -0 -0 -1 -0 -0 -1 -0 -0 -1 0 0 -1 0 0 -1 -0 -0 -1 -0 -0 -1 -0 -0 -1 -0 -0 -1 -0 0 -1 -0 0 -1 -0 -0 -1 -0 -0 -1 0 -0 -1 -0 -0 -1 0 0 -1 -0 -0 -1 -0 -0 -1 -0 -0 -1 -0 -0 -1 -0 -0 -1 -0 -0 0 -0.97415 -0.22589 0 -0.97415 -0.22589 0 -0.92699 -0.37508 0 -0.85714 -0.51509 0 -0 -1 0 -0 -1 0 -0.96593 0.25882 0 -0.96593 0.25882 0 -0 -1 0 -0 -1 -0 0 1 -0 0 1 -0 0 1 -0 0 1 0 -1 -0 0 -1 0 0 -1 -0 0 -1 -0 0 -1 0 -0 -0.92111 0.3893 -0 -0.92111 0.3893 -0 1 0 -0 1 0 -0 1 0 0 1 0 -0 0 1 -0 -0 1 0 -0 -1 0 -0 -1 -0 -0.70711 0.70711 -0 -0.70711 0.70711 -0 -0 1 -0 -0 1 0 0 1 0 0 1 -0 0 1 -0 0 1 -0 0 1 -0 0 1 -0 0 1 -0 0 1 0 0 1 -0 0 1 -0 0 1 -0 0 1 -0 0 1 -0 0 1 -0 0 1 -0 0 1 -0 0 1 -0 0 1 -0 0 1 -0 0 1 -0 0 1 -0 0 1 0 0 1 -0 0 1 -0 0 1 -0 0 1 -0 0 1 -0 0 1 -0 0 1 -0 0 1 -0 0 1 0 0 1 0 0 1 0 0 1 0 0 1 0 0 1 -0 0 1 -0 0 1 -0 0 1 -0 0 1 -0 0 1 -0 0 1 -0 0 1 -0 0 1 0 0 1 -0 0 1 0 0 1 0 0 1 -0 0 1 -0 0 1 -0 0 1 0 0 1 0 0 1 -0 0 1 -0 0 1 0 0 1 -0 0 1 -0 -0 1 -0 0 1 -0 0 1 -0 0 1 -0 0 1 -0 0 1 -0 0 1 -0 0 1 0 0 1 0 0 1 0 0 1 0 0 1 -0 0 1 -0 0 1 -0 0 1 -0 0 1 -0 0 1 -0 0 1 -0 0.98481 0.17365 -0 0.98481 0.17365 0 -0.98481 -0.17365 0 -0.98481 -0.17365 -0 0.98481 0.17365 -0 0.98481 0.17365 -0 0.34202 0.93969 -0 0.34202 0.93969 -0 0.9463 0.3233 -0 0.9463 0.3233 -0 0.98648 0.16386 -0 0.98648 0.16386 0 1 -0 0 0.98648 -0.16386 0 0.98648 -0.16386 0 0.9463 -0.3233 0 0.9463 -0.3233 -0 1 -0 -0 1 -0 0 1 -0 0 1 -0 0 -0.98481 -0.17365 0 -0.98481 -0.17365 -0 -0.17365 0.98481 -0 -0.17365 0.98481 0 0.17365 -0.98481 0 0.17365 -0.98481 0 0.64279 -0.76604 0 0.64279 -0.76604 -0 -1 0 0 -1 0 0 -1 0 0 -1 0 -0 0.99144 0.13053 -0 0.99144 0.13053 -0 0.92388 0.38268 -0 0.92388 0.38268 -0 0.79335 0.60876 -0 0.79335 0.60876 -0 0.60876 0.79335 -0 0.60876 0.79335 -0 0.38268 0.92388 -0 0.38268 0.92388 -0 0.13053 0.99144 -0 0.13053 0.99144 -0 -0.13053 0.99144 -0 -0.13053 0.99144 -0 -0.38268 0.92388 -0 -0.38268 0.92388 -0 -0.60876 0.79335 -0 -0.60876 0.79335 0 0 -1 0 -1 0 -0 0 1 -0 0 1 -0 1 -0 -0 1 0 -0 0.70711 0.70711 -0 0.70711 0.70711 -0 0.60876 0.79335 -0 0.60876 0.79335 -0 0.38268 0.92388 -0 0.38268 0.92388 -0 0.13053 0.99144 -0 0.13053 0.99144 -0 -0.13053 0.99144 -0 -0.13053 0.99144 -0 -0.38268 0.92388 -0 -0.38268 0.92388 -0 -0.60876 0.79335 -0 -0.60876 0.79335 -0 -0.79335 0.60876 -0 -0.79335 0.60876 -0 -0.92388 0.38268 -0 -0.92388 0.38268 -0 -0.99144 0.13053 -0 -0.99144 0.13053 -1 0 -0 -1 -0 -0 0 1 -0 0 1 -0 -0 0 1 -0 0 1 1 0 0 1 0 0 -0 -0 1 -0 -0 1 -0 0 1 -0 -0 1 -0 0 1 -0 0 1 -0 -0 1 -0 0 1 -0 -0 1 -0 -0 1 -0 0 1 -0 1 -0 -0 1 -0 -0 -0.25882 0.96593 -0 -0.25882 0.96593 -0 -0.96593 0.25882 -0 -0.96593 0.25882 0 -0.70711 -0.70711 0 -0.70711 -0.70711 -0 0 1 -0 0 1 -0 -0.70711 0.70711 -0 -0.70711 0.70711 -0 -0.96593 0.25882 -0 -0.96593 0.25882 0 0.96593 -0.25882 0 0.96593 -0.25882 0 -0.25882 -0.96593 0 -0.25882 -0.96593 -0 0.25882 0.96593 -0 0.25882 0.96593 0 0.96593 -0.25882 0 0.96593 -0.25882 0 -1 0 0 -1 0 0 -1 0 0 -1 0 0 -1 0 -0 -1 0 0 -0.97532 -0.22079 0.08685 -0.97574 -0.20097 -0.06635 -0.99609 -0.05833 0.13181 -0.99128 0 -0.09118 -0.99028 0.105 0.13602 -0.97034 0.19986 -0 -0.96985 0.24372 -0 -0.96985 0.24372 -0.00567 -0.97026 0.24199 0.00378 -0.98922 0.14639 -0.0452 -0.99132 0.12342 0.02262 -0.99761 0.06531 -0.04331 -0.99906 0.00331 0 -0.99987 -0.01618 0 -0.25882 0.96593 -0 -0.25882 0.96593 -1 0 -0 -1 0 -0 -1 0 -0 -1 0 -0 -1 0 -0 -1 0 -0 -1 0 0 -1 0 -0 -1 0 -0 -1 0 -0 -1 0 -0 -1 -0 0 -1 0 -0 -1 0 0 -1 0 0 -1 0 0 -1 0 0 -1 -0 -0 -1 0 -0 -1 0 -0 -0 -0.42262 0.90631 -0 -0.42262 0.90631 -0 -0.42262 0.90631 -0 -0.42262 0.90631 1 -0 0 1 -0 -0 1 -0 -0 1 -0 0 1 -0 0 1 -0 0 1 -0 0 -0 -0.7152 -0.69892 -0 -0.7152 -0.69892 -0 -0.7152 -0.69892 -0 -0.7152 -0.69892 -0.93504 -0.35453 -0 -0.93504 -0.35453 -0 -0.93504 -0.35453 -0 -1 -0 -0 -1 -0 -0 -1 -0 -0 -1 -0 -0 0.86603 -0.5 -0 0.86603 -0.5 0 0.86603 -0.5 0 0.86603 -0.5 0 0 -0.05234 -0.99863 0 -0.05234 -0.99863 0 -0.05234 -0.99863 1 -0 -0 1 -0 0 1 -0 0 0.5 -0.70711 0.5 0.70711 -0 0.70711 0.70711 -0 0.70711 -0 -1 0 -0 -1 0 -0 -1 0 -0 -1 0 -0.70711 0 0.70711 -0.70711 0 0.70711 -0 0 1 0 0 1 -0 -0 -1 0 -0 -1 -0.69725 -0.64976 0.30275 -0 -0.25882 -0.96593 -0 -0.25882 -0.96593 0 -0.99144 -0.13053 0 -0.99144 -0.13053 0 -0.92388 -0.38268 0 -0.92388 -0.38268 0 -0.79335 -0.60876 -0 -0.79335 -0.60876 -0 -0.60876 -0.79335 -0 -0.60876 -0.79335 -0 -0.38268 -0.92388 -0 -0.38268 -0.92388 0 -1 0 0 -1 0 -0 -0.38268 0.92388 -0 -0.38268 0.92388 -0 -0.60876 0.79335 -0 -0.60876 0.79335 -0 -0.79335 0.60876 -0 -0.79335 0.60876 0 -0.92388 0.38268 0 -0.92388 0.38268 0 -0.99144 0.13053 0 -0.99144 0.13053 0 -1 0 0 -1 0 -0 0.96593 -0.25882 -0 0.96593 -0.25882 -0 1 -0 0 0 -1 0 0 -1 0 0.75404 -0.65683 0.00021 0.75149 -0.65974 -0.0002 0.88732 -0.46115 0.00039 0.89261 -0.45083 -0.00038 0.97179 -0.23586 0.00057 0.97616 -0.21704 -0.00055 1 0.00308 0.00073 0.99955 0.03013 -0.0007 0.97031 0.24185 0.00088 0.96132 0.27545 -0.00085 0.88446 0.46661 0.00102 0.86383 0.50378 -0.00098 0.74741 0.66436 0.00114 0.7131 0.70106 -0.0011 0.56709 0.82366 0.00125 0.51841 0.85513 -0.0012 0.35394 0.93527 0.00135 0.29177 0.95649 -0.00129 0.1203 0.99274 0.00144 0.04714 0.99889 -0.00144 -0.12444 0.99223 0.00104 -0.20039 0.97972 -0.00111 -0.38268 0.92388 0.00089 -0.43557 0.90015 -0.00094 -0.60876 0.79335 0.00071 -0.6439 0.76511 -0.00075 -0.79335 0.60876 0.0005 -0.81255 0.5829 -0.00053 -0.92388 0.38268 0.00027 -0.9311 0.36476 -0.00028 -0.99144 0.13053 -0 -0.99227 0.12414 -0 -0.13053 0.99144 0 -1 0 -0 -0 1 -0 -0 1 -0 1 0 -0 1 0 -0 -0 1 0 -1 -0 0 -1 0 0 -1 -0 0 -1 -0 0 -0.99923 -0.03926 0 -0.99923 -0.03926 1 -0 -0 1 -0 -0 1 -0 0 1 -0 0 1 -0 0 1 -0 0 1 -0 0 1 0 0 1 0 0 1 0 0 1 -0 -0 1 0 -0 -0 0.85714 -0.51509 -0 0.85714 -0.51509 -0 0.92699 -0.37508 -0 0.97415 -0.22589 -0 0.97415 -0.22589 -0 0.92699 -0.37508 -0 0.25882 0.96593 -0 0.25882 0.96593 -0 1 -0 -0 1 -0 0 0 -1 0 0 -1 -0 0 1 -0 0 1 -0 -0 1 -0 -0 1 -0 -0 1 -0 -0 1 -0 0 1 -0 0 1 -0 0 1 -0 0 1 -0 0 1 -0 0 1 -0 0 1 -0 -0 1 -0 -0 1 -0 -0 1 -0 0 1 -0 0 1 -0 -0 1 -0 -0 1 -0 0 1 -0 -0 1 -0 -0 1 -0 -0 1 -0 0 1 -0 0 1 -0.70711 -0.70711 0 -0.70711 -0.70711 0 -1 -0 -0 -1 -0 -0 -0 0 1 -0 0 1 0 0 1 -0 0 1 -0 0 1 -0 -0 1 0 0 1 0 0 1 -0.86404 0.50343 -0 -0.84403 0.5363 -0.0005 -0.82277 0.56838 -0.00149 -0.77905 0.62696 -0 -0.77765 0.6287 -0.00052 -0.80583 0.59214 -0.00261 -0.70711 0.70711 0.00032 -0.63354 0.77371 -0.00198 -0.63367 0.7736 -0.00197 -0.47562 0.87965 0.00203 -0.42187 0.90666 -0.00186 -0.23717 0.97147 0.00191 -0.18367 0.98299 -0.00173 0.01676 0.99986 0.00177 0.06602 0.99782 -0.00159 0.26959 0.96297 0.00163 0.31158 0.95022 -0.00144 0.50483 0.86322 0.00148 0.53765 0.84317 -0.00128 0.70711 0.70711 0.00132 0.73008 0.68337 -0.00112 0.86322 0.50483 0.00114 0.87683 0.48081 -0.00094 0.96297 0.26959 0.00096 0.96872 0.24817 -0.00075 0.99986 0.01676 0.00077 1 0 -0.00056 0.97147 -0.23717 0.00057 0.96872 -0.24817 -0.00035 0.87965 -0.47562 0.00036 0.87683 -0.48081 -0.00013 0.73008 -0.68337 0.00014 -0.62696 0.77905 -0 0.77905 -0.62696 -0 0.76672 -0.64197 -0.00455 0.70711 -0.70711 -0.00082 0.62561 -0.78013 0.00041 0.53765 -0.84317 -0.0021 0.48234 -0.87598 0.0018 0.31158 -0.95022 -0.0019 0.25943 -0.96576 0.00158 0.06602 -0.99782 -0.00166 0.02154 -0.99977 0.00133 -0.18367 -0.98299 -0.0014 -0.2176 -0.97604 0.00105 -0.42187 -0.90666 -0.0011 -0.44417 -0.89594 0.00073 -0.64509 -0.76411 -0.00086 0.62696 -0.77905 0 -0.80875 -0.58815 0 -0.80583 -0.59214 -0.0004 -0.63367 -0.7736 0.00043 -0 -0 1 0 0 1 0 0 1 -0 -0 1 -0 0 1 -0 0 1 0.70711 0.70711 -0 0.70711 0.70711 -0 0 0 1 0 0 1 0 0 1 0 0 1 0 0 1 0 0 1 0 0 1 0 0 1 0 0 1 -0 1 0 -0 1 0 -0 1 0 -0 1 0 -0 1 0 -0 1 0 -0 0.92111 0.3893 -0 0.92111 0.3893 0 0 1 0 0 1 -1 0 -0 -1 0 -0 -0 -1 0 -0 -1 0 1 0 0 1 0 0 -0 0.81915 0.57358 -0 0.81915 0.57358 0 -0 -1 0 -0 -1 1 0 0 1 0 0 1 0 0 1 0 0 0 -0 -1 0 0 -1 -0 -0.81915 0.57358 0 0.48514 -0.87444 0 0.48514 -0.87444 0 -0.98916 0.14682 -0 -0.98916 0.14682 0 -0.99668 -0.08144 0 -0.99668 -0.08144 0 -0.95221 -0.30546 0 -0.95221 -0.30546 0 -0.85807 -0.51354 0 -0.85807 -0.51354 0 -0.71917 -0.69483 0 -0.71917 -0.69483 0 -0.54276 -0.83989 0 -0.54276 -0.83989 0 -0.33804 -0.94113 0 -0.33804 -0.94113 0 -0.17596 -0.9844 0 -0.17596 -0.9844 0 0.05169 -0.99866 0 0.05169 -0.99866 0 0.27666 -0.96097 0 0.27666 -0.96097 0 0.48723 -0.87328 0 0.48723 -0.87328 0 0.67244 -0.74015 0 0.67244 -0.74015 0 0.82268 -0.56851 0 0.82268 -0.56851 0 0.93011 -0.36729 0 0.93011 -0.36729 0 -1 0 0 -1 0 -0 -0.25882 0.96593 -0 -0.25882 0.96593 0 1 -0 0 1 -0 0 1 -0 -0 1 -0 0 1 0 0 1 -0 -0 1 -0 0 1 -0 0 1 -0 0 1 -0 0.86503 0.04797 0.49942 0.86446 0.11381 0.48966 0.85771 0.13941 0.49488 0.82376 0.26258 0.50247 0.80678 0.33418 0.48727 0.75586 0.41552 0.50598 0.69368 0.53228 0.48526 0.66204 0.55587 0.5027 0.52958 0.69016 0.49317 0.49686 0.70918 0.50018 0.3325 0.80272 0.49506 0.33274 0.80264 0.49502 0.2178 0.8379 0.50048 0.11343 0.86162 0.49472 0.1188 0.86131 0.494 0.01363 0.8656 0.50055 -0.09353 0.86296 0.49654 -0.11347 0.8619 0.49422 -0.19445 0.84386 0.50008 -0.28129 0.81986 0.49871 -0.3328 0.80346 0.49365 -0.43974 0.74321 0.50425 -0.52988 0.69056 0.49229 -0.64143 0.57603 0.50671 -0.69364 0.53225 0.48536 -0.75034 0.42364 0.50746 -0.80548 0.33364 0.48978 -0.82725 0.25223 0.50204 -0.85851 0.1343 0.4949 -0.86351 0.11368 0.49135 -0.86508 0.04659 0.49946 0 1 -0 0 1 -0 0 1 -0 -0 1 -0 0 1 -0 -0 1 -0 0 1 -0 0 1 -0 0 1 -0 0 1 -0 0 1 -0 0 1 -0 -0 0 1 -0 0 1 -0.86603 0 0.5 -0.86603 0 0.5 -0.86603 0 0.5 -0.86603 0 0.5 -0.86603 0 0.5 -0.86603 0 0.5 -0.86603 0 0.5 -0.86603 0 0.5 -0.98982 -0.13921 0.02966 -0.9855 -0.1686 -0.0191 -0.9711 -0.23844 0.01109 -0.96097 -0.27654 -0.00801 -0.94262 -0.33382 0.00557 -0.92851 -0.37128 -0.00356 -0.8851 -0.46532 0.0084 -0.86807 -0.49643 -0.00333 -0.77409 -0.63307 0.00156 -0.69701 -0.71705 -0.00236 -0.63326 -0.77394 0.00134 -0.50095 -0.86547 -0.00186 -0.47119 -0.88203 0.00029 -0.33698 -0.94151 -0.00017 -0.99718 -0.05347 -0.05269 -0.85093 -0.52528 0 -0.2746 -0.96156 -0.00272 -0.24342 -0.96992 -0.00108 0.14676 -0.98917 -0.00013 0.04906 -0.9988 0.00011 -0.03164 -0.9995 -0.00266 -0.04921 -0.99879 -0.00164 -0.14662 -0.98919 0.00044 0.21324 -0.977 -0.00275 0.24344 -0.96992 -0.00112 0.33665 -0.94163 0.00043 0.44522 -0.89542 -0.00187 0.47129 -0.88198 0.00014 0.63452 -0.77291 -0.00015 0.65027 -0.7597 -0.00145 0.77378 -0.63346 0.0011 0.81601 -0.57804 -0.00244 0.88256 -0.47019 0.00167 0.9324 -0.36142 -0.00262 0.94129 -0.3376 -0.00129 0.99241 -0.12295 -0.00272 0.98912 -0.14707 -0.00137 0.97008 -0.2428 0.00044 0.9988 -0.04907 0 -0.42374 0.89092 0.16341 -0.50771 0.82864 0.23577 -0.48308 0.83442 0.26531 -0.54783 0.74889 0.3729 -0.51193 0.67571 0.53041 -0.49444 0.69365 0.52382 -0.49844 0.58404 0.64066 -0.49522 0.86197 0.10845 -0.77209 0.6328 0.05864 -0.41712 0.55503 0.71969 -0.50849 0.45329 0.73209 -0.30751 0.36265 0.87973 -0.47752 0.3174 0.81929 -0.41038 0.18822 0.89228 0.60607 0.05508 0.7935 0.86603 -0 0.5 0.86603 -0 0.5 0.86603 -0 0.5 0.86603 -0 0.5 0.86603 -0 0.5 0.86603 -0 0.5 0.86603 -0 0.5 0.86603 -0 0.5 -0 -0.86603 0.5 -0 -0.86603 0.5 -0 -0.86603 0.5 -0 -0.86603 0.5 -0 -0.86603 0.5 -0 -0.86603 0.5 -0 -0.86603 0.5 -0 -0.86603 0.5 -0 -0.86603 0.5 -0 -0.86603 0.5 -0 -0.86603 0.5 -0 -0.86603 0.5 -0 -0.86603 0.5 -0 -0.86603 0.5 -0 -0.86603 0.5 1 -0 0 1 0 0 1 0 0 1 0 0 1 -0 0 1 -0 0 1 -0 0 1 0 0 1 -0 0 1 0 0 1 0 0 -0.99914 -0.04154 -0 -0.99914 -0.04154 0 -0.99914 -0.04154 -0 -0.99914 -0.04154 -0 -0.99914 -0.04154 -0 -0.99914 -0.04154 -0 -0.99914 -0.04154 -0 -0.99914 -0.04154 -0 -0.99914 -0.04154 -0 -0.99914 -0.04154 -0 -0.99914 -0.04154 -0 -0 -1 0 -0 -1 0 0 -1 0 0 -0.86603 0.5 0 -0.86603 0.5 0 -1 0 0 -1 0 -0.70711 0.70711 -0 -0.70711 0.70711 -0 0 -0.96593 0.25882 0 -0.96593 0.25882 1 -0 0 1 -0 0 -0.88852 0.45884 -0 -0.9165 0.39868 0.03288 -0.92211 0.38195 0.06188 -0.96209 0.27227 -0.01565 -0.98197 0.18617 0.03289 -0.84253 0.11092 0.52711 -0.85093 0.52527 -0.00268 -0.79335 0.60876 0.00312 -0.69701 0.71705 -0.00281 -0.60876 0.79335 0.0032 -0.50095 0.86547 -0.00285 -0.38268 0.92387 0.00319 -0.2746 0.96156 -0.0028 -0.13053 0.99144 0.0031 -0.03164 0.9995 -0.00266 0.13053 0.99144 0.00292 0.21324 0.977 -0.00243 0.38268 0.92388 0.00265 0.44522 0.89542 -0.00212 0.60876 0.79335 0.00229 0.65027 0.7597 -0.00172 0.79335 0.60876 0.00185 0.81601 0.57804 -0.00123 0.92388 0.38268 0.00132 0.9324 0.36142 -0.00066 0.99241 0.12295 0.00075 0.99144 0.13053 0 -0 -1 0 -0 -1 0 -0 -1 0 0 -1 0 -0 -1 0 -0 0 1 -0 0 1 -0 0 1 -0 0 1 -0 0 1 -0 0 1 -0 0 1 -0 0 1 -0 0 1 -0 0 1 -0 0 1 -0 0 1 -0 0 1 -0 0 1 -0 0 1 -0 0 1 0.85754 -0.51442 0 0.85754 -0.51442 0 0.69818 -0.71592 0 0.69818 -0.71592 0 0.49274 -0.87018 0 0.49274 -0.87018 0 0.25478 -0.967 0 0.25478 -0.967 0 -0 -1 0 -0 -1 0 -0.25478 -0.967 0 -0.25478 -0.967 0 -0.49274 -0.87018 0 -0.49274 -0.87018 0 -0.69818 -0.71592 0 -0.69818 -0.71592 0 -0.85754 -0.51442 0 -0.85754 -0.51442 0 -0 -1 0 -0 -1 0 -0 -1 0 -0 -1 0 0 1 -0 0 1 -0 0.85754 0.51442 -0 0.85754 0.51442 0 0.69818 0.71592 -0 0.69818 0.71592 0 0.49274 0.87018 0 0.49274 0.87018 0 0.25478 0.967 0 0 1 0 0.25478 0.967 0 -0.25478 0.967 0 -0.25478 0.967 0 -0.49274 0.87018 0 -0.49274 0.87018 0 -0.69818 0.71592 0 -0.69818 0.71592 0 -0.85754 0.51442 0 -0.85754 0.51442 -0 -0 -0 1 -0 0 1 -0 0 1 0 0 1 -0 0 1 -0 0 1 -0 0 1 -0 0 1 0 0 1 0 0 1 0 0 1 0 0 1 -0 -0 1 -0 -0 1 -0 -0 1 -0 0 1 1 -0 0 1 -0 0 1 -0 0 1 -0 0 1 -0 0 1 -0 0 -0 0 1 -0 0 1 -0 0 1 -0 0 1 -0 0 1 -0 0 1 -0 0 1 -0 0 1 -0 0 1 -0 0 1 -0 0 1 -0 0 1 -1 0 -0 -1 0 -0 -1 0 -0 -1 0 -0 -1 0 -0 0 1 -0 0 1 -0 -0 -1 0 0 1 -0 0 1 -0 0 1 -0 0 1 -0 -0.70711 0.70711 -0 -0.70711 0.70711 -0 0 1 -0 0 1 -0 0.70711 0.70711 -0 0.70711 0.70711 -0 0 1 -0 0 1 -0 0.70711 0.70711 -0 0.70711 0.70711 -0 0 1 -0 0 1 -0 0 1 -0 -0 1 -0 0 1 -0 -0 1 -0 0 1 -0 0 1 -0 0 1 -0 0 1 -0 0 1 -0 0 1 -0 -0 0 1 -0 0 1 -0.86603 0 0.5 -0.86603 0 0.5 -0.86603 0 0.5 -0.86603 0 0.5 -0.86603 0 0.5 -0.86603 0 0.5 -0.86603 0 0.5 0 -1 0 0 -1 -0 -0 -1 0 0 -1 0 0 -1 0 -0.88852 0.45884 -0 0.99144 0.13053 0 -0.77209 0.6328 0.05864 1 -0 0 0.86603 -0 0.5 0.86603 -0 0.5 0.86603 -0 0.5 0.86603 -0 0.5 0.86603 -0 0.5 0.86603 -0 0.5 0.86603 -0 0.5 -0 -0.86603 0.5 -0 -0.86603 0.5 -0 -0.86603 0.5 -0 -0.86603 0.5 -0 -0.86603 0.5 -0 -0.86603 0.5 -0 -0.86603 0.5 -0 -0.86603 0.5 -0 -0.86603 0.5 -0 -0.86603 0.5 -0 -0.86603 0.5 -0 -0.86603 0.5 -0 -0.86603 0.5 -0 -0.86603 0.5 -0 -0.86603 0.5 1 -0 0 1 0 0 1 -0 0 1 -0 0 1 -0 0 1 -0 0 -0.99914 -0.04154 0 -0.99914 -0.04154 -0 -0.99914 -0.04154 -0 -0.99914 -0.04154 -0 -0.99914 -0.04154 -0 -0.99914 -0.04154 -0 -0.99914 -0.04154 -0 -0.99914 -0.04154 -0 -0.99914 -0.04154 -0 -0.99914 -0.04154 -0 -0 -1 0 -0 -1 0 0 -1 0 0 -1 0 0 -0.86603 0.5 0 -0.86603 0.5 0 -1 0 0 -1 0 0 1 -0 0 1 -0 0 -0.96593 0.25882 0 -0.96593 0.25882 -0.85093 -0.52528 0 0.9988 -0.04907 0 -0.77209 -0.6328 0.05864 -0.49522 -0.86197 0.10845 -0.42374 -0.89092 0.16341 -0.50771 -0.82864 0.23577 -0.48308 -0.83442 0.26531 -0.54783 -0.74889 0.3729 -0.51193 -0.67571 0.53041 -0.49444 -0.69365 0.52382 -0.49844 -0.58404 0.64066 -0.41712 -0.55503 0.71969 -0.50849 -0.45329 0.73209 -0.30751 -0.36265 0.87973 -0.47752 -0.3174 0.81929 0.60607 -0.05508 0.7935 -0.41038 -0.18822 0.89228 -0 0 1 -0 0 1 -0 0 1 -0 0 1 -0 0 1 -0 0 1 -0 0 1 -0 0 1 -0 0 1 0.85754 -0.51442 0 0.85754 -0.51442 0 0.69818 -0.71592 0 0.69818 -0.71592 0 0.49274 -0.87018 0 0.49274 -0.87018 0 0.25478 -0.967 0 0.25478 -0.967 0 -0 -1 0 -0.25478 -0.967 0 -0.25478 -0.967 0 -0.49274 -0.87018 0 -0.49274 -0.87018 0 -0.69818 -0.71592 0 -0.69818 -0.71592 0 -0.85754 -0.51442 0 -0.85754 -0.51442 0 -0 -1 0 -0 -1 0 -0 -1 0 -0 -1 0 0 1 -0 0 1 -0 0.85754 0.51442 -0 0.85754 0.51442 0 0.69818 0.71592 -0 0.69818 0.71592 0 0.49274 0.87018 0 0.49274 0.87018 0 0.25478 0.967 0 0 1 0 0 1 0 0.25478 0.967 0 -0.25478 0.967 0 -0.25478 0.967 0 -0.49274 0.87018 0 -0.49274 0.87018 0 -0.69818 0.71592 0 -0.69818 0.71592 0 -0.85754 0.51442 0 -0.85754 0.51442 -0 -0 -0 1 -0 0 1 -0 0 1 0 0 1 -0 0 1 -0 0 1 -0 0 1 -0 0 1 0 0 1 0 0 1 0 0 1 0 0 1 -0 -0 1 -0 -0 1 -0 0 1 -0 0 1 -0 0 1 -0 0 1 -0 0 1 -0 0 1 -0 0 1 -0 0 1 -0 0 1 -0 0 1 -0 0 1 -0 0 1 -0 0 1 -0 0 1 -1 0 -0 -1 0 -0 -1 0 -0 -1 0 -0 -0 -1 0 -0 -1 0 0 1 -0 0 1 -0 0 1 -0 0 1 -0 0 -0.70711 -0.70711 0 -0.70711 -0.70711 0 -0.70711 -0.70711 0 0 -1 0 0 -1 0 0 -1 0 0 -1 0 0 1 -0 0 1 0.70711 -0 0.70711 0.70711 -0 0.70711 1 -0 0 1 -0 0 -0.70711 0 0.70711 -0.70711 0 0.70711 -1 -0 -0 -1 -0 -0</float_array>
          <technique_common>
            <accessor source="#norm_0-array" count="4164" stride="3">
              <param name="X" type="float"/>
              <param name="Y" type="float"/>
              <param name="Z" type="float"/>
            </accessor>
          </technique_common>
        </source>
        <source id="uvs_0">
          <float_array id="uvs_0-array" count="0"></float_array>
          <technique_common>
            <accessor source="#uvs_0-array" count="0" stride="2">
              <param name="S" type="float"/>
              <param name="T" type="float"/>
            </accessor>
          </technique_common>
        </source>
        <vertices id="vert_0">
          <input semantic="POSITION" source="#pos_0"/>
        </vertices>
        <triangles count="1578" material="mat_0">
          <input semantic="VERTEX" source="#vert_0" offset="0"/>
          <input semantic="NORMAL" source="#norm_0" offset="1"/>
          <p>0 0 1 0 2 0 2 0 1 0 3 0 4 1 5 1 6 1 6 2 5 2 7 2 6 3 7 3 8 3 8 4 7 4 9 4 4 5 10 5 5 5 5 6 10 6 11 6 10 7 12 7 11 7 11 8 12 8 13 8 11 9 13 9 14 9 14 10 15 10 11 10 11 11 15 11 16 11 11 12 16 12 17 12 17 13 18 13 11 13 11 14 18 14 19 14 11 15 19 15 20 15 20 16 19 16 21 16 20 17 21 17 22 17 19 18 18 18 23 18 23 19 18 19 24 19 23 20 24 20 25 20 25 21 26 21 23 21 23 22 26 22 27 22 23 23 27 23 28 23 28 24 27 24 29 24 28 25 29 25 30 25 31 26 32 26 33 26 33 27 32 27 34 27 33 28 34 28 35 28 35 29 34 29 36 29 35 30 36 30 37 30 37 31 36 31 38 31 37 32 38 32 39 32 39 33 38 33 40 33 39 34 40 34 41 34 41 35 40 35 42 35 41 36 42 36 43 36 43 37 42 37 44 37 43 38 44 38 30 38 30 39 44 39 45 39 30 40 45 40 28 40 28 41 45 41 46 41 28 42 46 42 47 42 47 43 46 43 48 43 47 44 48 44 49 44 49 45 48 45 50 45 49 46 50 46 51 46 46 47 52 47 48 47 48 48 52 48 53 48 48 49 53 49 54 49 54 50 55 50 48 50 48 51 55 51 56 51 48 52 56 52 57 52 57 53 58 53 48 53 48 54 58 54 59 54 48 55 59 55 60 55 60 56 59 56 61 56 60 57 61 57 62 57 62 58 61 58 63 58 62 59 63 59 64 59 64 60 63 60 65 60 58 61 66 61 59 61 59 62 66 62 67 62 59 63 67 63 68 63 68 64 69 64 59 64 59 65 69 65 70 65 59 66 70 66 71 66 71 67 70 67 72 67 71 68 72 68 73 68 71 69 74 69 59 69 59 70 74 70 75 70 76 71 77 71 74 71 74 72 77 72 78 72 74 73 78 73 75 73 75 74 78 74 79 74 77 75 80 75 78 75 78 76 80 76 81 76 80 77 82 77 81 77 81 78 82 78 83 78 82 79 84 79 83 79 83 80 84 80 85 80 63 81 61 81 86 81 86 82 61 82 87 82 86 83 87 83 88 83 88 84 87 84 89 84 90 79 91 79 92 79 92 78 91 78 93 78 92 85 93 85 88 85 88 86 93 86 94 86 88 87 94 87 86 87 86 88 94 88 95 88 86 89 95 89 96 89 90 80 97 80 91 80 98 90 99 90 100 90 100 91 99 91 101 91 100 92 101 92 60 92 60 93 101 93 102 93 60 94 102 94 103 94 104 95 105 95 100 95 100 96 105 96 106 96 100 97 106 97 107 97 104 98 108 98 105 98 109 99 110 99 105 99 105 100 110 100 111 100 105 101 111 101 112 101 112 102 111 102 113 102 112 103 113 103 114 103 111 104 115 104 113 104 113 105 115 105 116 105 115 106 117 106 116 106 116 107 117 107 118 107 119 108 120 108 121 108 121 109 120 109 122 109 121 110 122 110 114 110 114 111 122 111 123 111 114 112 123 112 112 112 112 113 124 113 105 113 105 114 124 114 106 114 107 115 125 115 100 115 100 116 125 116 126 116 100 117 126 117 127 117 127 118 126 118 128 118 127 119 128 119 129 119 129 120 128 120 130 120 129 121 130 121 131 121 131 122 130 122 132 122 130 123 133 123 132 123 132 124 133 124 134 124 133 125 135 125 134 125 134 126 135 126 136 126 134 127 136 127 137 127 137 128 136 128 138 128 135 129 139 129 136 129 136 130 139 130 140 130 136 131 140 131 141 131 139 132 142 132 140 132 141 133 143 133 136 133 136 134 143 134 144 134 136 135 145 135 138 135 138 136 145 136 146 136 145 137 147 137 146 137 146 138 147 138 148 138 149 139 150 139 151 139 151 140 150 140 152 140 151 141 152 141 153 141 153 142 152 142 154 142 153 143 154 143 147 143 147 144 154 144 155 144 147 145 155 145 148 145 148 146 155 146 156 146 148 147 156 147 157 147 150 148 158 148 152 148 152 149 158 149 159 149 158 150 160 150 159 150 159 151 160 151 161 151 160 152 162 152 161 152 161 153 162 153 163 153 162 154 164 154 163 154 163 155 164 155 165 155 164 156 166 156 165 156 165 157 166 157 167 157 166 158 168 158 167 158 167 159 168 159 169 159 168 160 170 160 169 160 157 161 171 161 148 161 148 162 171 162 172 162 127 163 173 163 100 163 100 164 173 164 98 164 103 165 174 165 60 165 60 166 174 166 48 166 174 167 175 167 48 167 48 168 175 168 176 168 50 169 48 169 177 169 177 170 48 170 178 170 177 171 178 171 179 171 179 172 178 172 180 172 2 173 3 173 178 173 178 174 3 174 180 174 179 175 181 175 177 175 182 176 183 176 184 176 184 177 183 177 185 177 184 178 185 178 186 178 186 179 185 179 187 179 186 180 187 180 188 180 188 181 189 181 186 181 186 182 189 182 190 182 189 183 191 183 190 183 190 184 191 184 192 184 190 185 192 185 193 185 193 186 194 186 190 186 190 187 194 187 195 187 190 188 195 188 196 188 196 189 195 189 197 189 196 190 197 190 198 190 196 191 198 191 199 191 199 192 198 192 200 192 199 193 200 193 201 193 201 194 202 194 199 194 199 195 202 195 203 195 202 196 204 196 203 196 203 197 204 197 205 197 204 198 206 198 205 198 205 199 206 199 207 199 205 200 207 200 208 200 209 201 210 201 206 201 206 202 210 202 211 202 206 203 211 203 212 203 212 204 207 204 206 204 208 205 213 205 205 205 205 206 213 206 214 206 213 207 215 207 214 207 214 208 215 208 216 208 214 209 216 209 217 209 217 210 218 210 214 210 214 211 218 211 219 211 220 212 221 212 199 212 199 213 221 213 222 213 199 214 222 214 196 214 190 215 196 215 223 215 223 216 196 216 224 216 223 217 224 217 225 217 225 218 224 218 226 218 225 219 226 219 227 219 228 220 229 220 230 220 230 221 229 221 231 221 230 222 231 222 232 222 232 223 231 223 233 223 232 224 233 224 223 224 223 225 233 225 234 225 223 226 234 226 190 226 190 227 234 227 235 227 233 228 236 228 234 228 234 229 236 229 237 229 234 230 238 230 235 230 239 231 240 231 241 231 241 232 240 232 242 232 241 233 242 233 186 233 186 234 242 234 243 234 186 235 243 235 184 235 184 236 243 236 244 236 184 237 244 237 245 237 241 238 246 238 239 238 239 239 246 239 247 239 239 240 247 240 248 240 240 241 249 241 242 241 242 242 249 242 250 242 250 243 249 243 251 243 251 244 249 244 252 244 251 245 252 245 253 245 253 246 254 246 251 246 251 247 254 247 255 247 251 248 255 248 256 248 256 249 255 249 257 249 256 249 257 249 258 249 258 249 257 249 259 249 251 250 260 250 250 250 261 251 262 251 263 251 263 252 262 252 264 252 263 253 264 253 243 253 243 254 264 254 265 254 243 255 265 255 244 255 244 256 265 256 266 256 267 249 268 249 269 249 269 249 268 249 270 249 269 249 270 249 271 249 271 249 270 249 272 249 271 257 272 257 262 257 262 258 272 258 273 258 262 259 273 259 274 259 274 260 264 260 262 260 275 261 276 261 277 261 277 262 276 262 278 262 277 263 278 263 265 263 265 264 278 264 279 264 265 265 279 265 266 265 266 266 279 266 280 266 276 267 281 267 278 267 278 268 281 268 282 268 281 269 283 269 282 269 282 270 283 270 284 270 279 271 285 271 280 271 280 272 285 272 286 272 285 273 287 273 286 273 245 274 288 274 184 274 184 275 288 275 289 275 184 276 289 276 290 276 288 277 291 277 289 277 292 278 293 278 290 278 290 279 293 279 294 279 290 280 294 280 184 280 293 281 295 281 294 281 294 282 295 282 1 282 294 283 1 283 0 283 3 284 1 284 180 284 180 285 1 285 295 285 180 286 295 286 293 286 292 287 181 287 293 287 293 287 181 287 179 287 293 286 179 286 180 286 176 288 182 288 48 288 48 289 182 289 184 289 182 290 176 290 183 290 183 291 176 291 175 291 181 292 292 292 177 292 177 293 292 293 290 293 296 294 247 294 297 294 297 295 247 295 246 295 297 296 246 296 64 296 64 297 65 297 297 297 241 298 298 298 62 298 62 299 298 299 299 299 62 300 299 300 60 300 241 301 186 301 298 301 298 302 300 302 299 302 299 302 300 302 301 302 241 303 62 303 246 303 246 304 62 304 64 304 297 305 65 305 302 305 302 306 65 306 63 306 302 307 63 307 240 307 240 308 239 308 302 308 86 309 249 309 63 309 63 310 249 310 240 310 87 311 250 311 89 311 89 312 250 312 260 312 78 313 262 313 79 313 79 314 262 314 261 314 71 315 265 315 74 315 74 315 265 315 264 315 303 316 4 316 304 316 304 317 4 317 6 317 304 318 6 318 305 318 305 319 6 319 306 319 307 320 308 320 281 320 281 321 308 321 309 321 281 322 309 322 6 322 6 323 309 323 310 323 6 324 310 324 306 324 311 325 312 325 276 325 276 326 312 326 313 326 276 327 313 327 281 327 281 328 313 328 314 328 281 329 314 329 315 329 316 330 317 330 276 330 276 331 317 331 318 331 276 332 318 332 319 332 320 333 321 333 73 333 73 334 321 334 322 334 73 335 322 335 317 335 317 336 322 336 323 336 317 337 323 337 318 337 73 338 72 338 320 338 320 339 72 339 324 339 320 340 324 340 325 340 72 341 326 341 324 341 325 342 327 342 320 342 320 343 327 343 328 343 320 344 328 344 329 344 320 345 329 345 319 345 319 346 329 346 330 346 319 347 330 347 331 347 331 348 332 348 319 348 319 349 332 349 333 349 319 350 333 350 311 350 314 351 313 351 334 351 334 352 313 352 335 352 334 353 335 353 336 353 336 354 335 354 337 354 335 355 338 355 337 355 337 356 338 356 339 356 337 357 339 357 340 357 337 358 340 358 341 358 341 359 340 359 342 359 341 360 342 360 343 360 344 361 345 361 346 361 346 362 345 362 347 362 346 363 347 363 348 363 348 364 347 364 349 364 348 365 349 365 343 365 343 366 349 366 350 366 343 367 350 367 341 367 344 368 351 368 345 368 345 369 351 369 32 369 345 370 32 370 352 370 352 371 32 371 31 371 352 372 31 372 353 372 353 373 31 373 354 373 351 374 355 374 32 374 353 375 356 375 352 375 352 376 356 376 357 376 352 377 357 377 358 377 358 378 359 378 352 378 352 379 359 379 336 379 359 380 360 380 336 380 336 381 360 381 361 381 336 382 361 382 362 382 362 383 363 383 336 383 336 384 363 384 334 384 315 385 364 385 281 385 281 386 364 386 365 386 281 387 365 387 366 387 366 388 307 388 281 388 367 389 368 389 322 389 322 390 368 390 323 390 276 391 319 391 311 391 283 392 281 392 8 392 8 393 281 393 6 393 7 394 282 394 9 394 9 395 282 395 284 395 279 396 278 396 11 396 11 397 278 397 5 397 286 398 287 398 21 398 21 399 287 399 22 399 51 400 291 400 49 400 49 401 291 401 288 401 49 402 288 402 245 402 49 403 245 403 47 403 47 404 245 404 244 404 47 404 244 404 28 404 28 405 244 405 266 405 28 406 266 406 23 406 23 407 266 407 19 407 266 408 280 408 19 408 289 409 291 409 50 409 50 410 291 410 51 410 280 411 286 411 19 411 19 412 286 412 21 412 22 413 287 413 20 413 20 414 287 414 285 414 20 415 285 415 11 415 11 416 285 416 279 416 5 417 278 417 7 417 7 418 278 418 282 418 9 419 284 419 8 419 8 420 284 420 283 420 277 421 265 421 369 421 369 422 265 422 71 422 369 423 71 423 73 423 73 424 317 424 369 424 264 425 274 425 74 425 74 426 274 426 76 426 76 427 274 427 77 427 77 428 274 428 273 428 77 429 273 429 272 429 77 430 272 430 80 430 80 431 272 431 270 431 80 432 270 432 82 432 82 433 270 433 84 433 270 434 268 434 84 434 84 435 268 435 267 435 84 436 267 436 85 436 85 437 267 437 269 437 85 438 269 438 83 438 83 439 269 439 81 439 269 440 271 440 81 440 81 441 271 441 262 441 81 442 262 442 78 442 79 443 261 443 75 443 75 443 261 443 263 443 263 444 243 444 75 444 75 444 243 444 59 444 59 445 243 445 61 445 61 446 243 446 242 446 242 447 250 447 61 447 61 448 250 448 87 448 260 449 251 449 89 449 89 450 251 450 88 450 251 451 256 451 88 451 88 452 256 452 92 452 92 453 256 453 90 453 90 454 256 454 258 454 90 455 258 455 259 455 90 456 259 456 97 456 97 457 259 457 257 457 97 458 257 458 91 458 91 459 257 459 93 459 257 460 255 460 93 460 93 461 255 461 254 461 93 462 254 462 94 462 94 463 254 463 253 463 94 464 253 464 95 464 95 465 253 465 252 465 95 466 252 466 96 466 96 467 252 467 86 467 252 468 249 468 86 468 299 469 301 469 370 469 370 470 301 470 371 470 372 471 370 471 373 471 373 472 370 472 371 472 373 473 371 473 300 473 300 474 371 474 301 474 298 475 372 475 300 475 300 476 372 476 373 476 298 477 186 477 372 477 372 478 186 478 190 478 372 479 190 479 374 479 374 480 190 480 375 480 374 481 376 481 372 481 372 482 376 482 370 482 377 483 100 483 376 483 376 484 100 484 370 484 100 485 60 485 370 485 370 486 60 486 299 486 108 487 238 487 105 487 105 487 238 487 234 487 234 488 237 488 105 488 105 489 237 489 109 489 119 490 227 490 120 490 120 491 227 491 226 491 113 492 232 492 114 492 114 493 232 493 223 493 229 494 228 494 117 494 117 495 228 495 118 495 111 496 233 496 115 496 115 497 233 497 231 497 233 498 111 498 236 498 236 499 111 499 110 499 115 500 231 500 117 500 117 501 231 501 229 501 118 502 228 502 116 502 116 503 228 503 230 503 230 504 232 504 116 504 116 505 232 505 113 505 223 506 225 506 114 506 114 507 225 507 121 507 121 508 225 508 119 508 119 509 225 509 227 509 378 510 122 510 379 510 379 511 122 511 120 511 379 512 120 512 380 512 380 513 120 513 226 513 380 514 226 514 224 514 224 515 381 515 380 515 381 516 224 516 382 516 382 517 224 517 196 517 382 518 196 518 383 518 383 519 196 519 222 519 383 520 222 520 384 520 384 521 222 521 221 521 384 522 221 522 143 522 384 523 143 523 385 523 385 524 143 524 141 524 385 525 141 525 386 525 386 526 141 526 140 526 386 527 140 527 387 527 387 528 140 528 142 528 387 529 142 529 388 529 142 530 139 530 388 530 388 531 139 531 389 531 389 532 390 532 391 532 391 533 390 533 392 533 391 534 392 534 393 534 393 535 392 535 394 535 393 536 394 536 395 536 385 537 386 537 391 537 391 538 386 538 389 538 386 539 387 539 389 539 389 540 387 540 388 540 395 541 396 541 393 541 393 542 396 542 397 542 396 543 398 543 397 543 397 544 398 544 399 544 397 545 399 545 400 545 400 546 401 546 397 546 397 547 401 547 402 547 397 548 402 548 403 548 403 549 402 549 404 549 403 550 404 550 378 550 378 551 379 551 403 551 384 552 385 552 405 552 405 553 385 553 391 553 405 554 391 554 406 554 406 555 391 555 407 555 405 556 408 556 382 556 382 557 408 557 409 557 382 558 409 558 381 558 381 559 409 559 410 559 381 560 410 560 380 560 382 561 383 561 405 561 405 562 383 562 384 562 410 563 409 563 403 563 403 564 409 564 397 564 409 565 411 565 397 565 397 566 411 566 412 566 393 567 397 567 413 567 413 568 397 568 412 568 413 569 412 569 414 569 415 570 416 570 414 570 414 571 416 571 413 571 417 572 418 572 416 572 416 573 418 573 413 573 409 574 408 574 411 574 411 575 408 575 419 575 411 576 419 576 420 576 420 577 421 577 411 577 415 578 414 578 421 578 421 579 414 579 412 579 421 580 412 580 411 580 420 581 419 581 422 581 422 582 419 582 423 582 422 583 423 583 424 583 405 584 406 584 408 584 408 584 406 584 419 584 406 585 425 585 419 585 419 586 425 586 423 586 426 587 427 587 428 587 428 588 427 588 429 588 428 589 429 589 430 589 428 590 431 590 426 590 432 591 407 591 418 591 418 592 407 592 413 592 429 593 425 593 430 593 430 594 425 594 432 594 380 595 410 595 379 595 379 596 410 596 403 596 413 597 407 597 393 597 393 597 407 597 391 597 404 598 123 598 378 598 378 599 123 599 122 599 398 600 125 600 399 600 399 601 125 601 107 601 399 602 107 602 106 602 399 603 106 603 400 603 400 604 106 604 124 604 400 605 124 605 401 605 401 606 124 606 112 606 401 607 112 607 402 607 402 608 112 608 404 608 112 609 123 609 404 609 126 610 125 610 396 610 396 611 125 611 398 611 139 612 135 612 389 612 389 613 135 613 390 613 390 614 135 614 392 614 392 615 135 615 133 615 392 616 133 616 130 616 392 617 130 617 394 617 394 618 130 618 128 618 394 619 128 619 395 619 395 620 128 620 396 620 128 621 126 621 396 621 221 622 220 622 143 622 143 623 220 623 144 623 146 624 204 624 138 624 138 625 204 625 202 625 171 626 210 626 172 626 172 626 210 626 209 626 154 627 208 627 155 627 155 628 208 628 207 628 151 629 433 629 149 629 149 630 433 630 434 630 149 631 434 631 435 631 149 632 435 632 150 632 150 633 435 633 436 633 150 634 436 634 158 634 158 635 436 635 437 635 158 636 437 636 160 636 160 637 437 637 438 637 160 638 438 638 162 638 162 639 438 639 439 639 162 640 439 640 164 640 164 641 439 641 440 641 164 642 440 642 166 642 166 643 440 643 441 643 166 644 441 644 168 644 168 645 441 645 442 645 168 646 442 646 170 646 170 647 442 647 443 647 170 648 443 648 169 648 169 649 443 649 219 649 169 650 219 650 167 650 167 651 219 651 218 651 167 652 218 652 165 652 165 653 218 653 217 653 165 654 217 654 163 654 163 655 217 655 216 655 163 656 216 656 161 656 161 657 216 657 215 657 161 658 215 658 159 658 159 659 215 659 213 659 159 660 213 660 152 660 443 661 214 661 219 661 213 662 208 662 152 662 152 662 208 662 154 662 214 663 443 663 205 663 205 664 443 664 444 664 445 665 433 665 153 665 153 666 433 666 151 666 445 667 153 667 446 667 446 667 153 667 147 667 147 668 145 668 444 668 444 669 145 669 203 669 444 670 203 670 205 670 444 671 446 671 147 671 199 672 203 672 136 672 136 673 203 673 145 673 443 674 442 674 444 674 444 675 442 675 441 675 444 676 441 676 440 676 440 677 439 677 444 677 444 678 439 678 438 678 444 679 438 679 437 679 437 680 436 680 444 680 444 681 436 681 446 681 436 682 435 682 446 682 446 683 435 683 434 683 446 684 434 684 445 684 445 685 434 685 433 685 155 686 207 686 156 686 156 687 207 687 212 687 156 688 212 688 211 688 210 689 171 689 211 689 211 690 171 690 157 690 211 691 157 691 156 691 172 692 209 692 148 692 148 693 209 693 206 693 206 694 204 694 148 694 148 695 204 695 146 695 144 696 220 696 136 696 136 697 220 697 199 697 447 698 448 698 237 698 237 699 448 699 449 699 237 700 449 700 109 700 109 701 449 701 450 701 109 702 450 702 451 702 452 703 453 703 236 703 236 704 453 704 454 704 236 705 454 705 237 705 237 706 454 706 455 706 237 707 455 707 456 707 457 708 458 708 110 708 110 709 458 709 459 709 110 710 459 710 236 710 236 711 459 711 460 711 236 712 460 712 461 712 451 713 462 713 109 713 109 714 462 714 463 714 109 715 463 715 110 715 110 716 463 716 464 716 110 717 464 717 465 717 465 718 457 718 110 718 461 719 466 719 236 719 236 720 466 720 467 720 236 721 467 721 452 721 456 722 468 722 237 722 237 723 468 723 447 723 469 724 470 724 471 724 471 725 470 725 472 725 473 726 464 726 474 726 474 727 464 727 463 727 475 728 476 728 469 728 469 728 476 728 473 728 469 729 473 729 474 729 474 730 477 730 469 730 469 731 477 731 470 731 477 732 478 732 470 732 470 733 478 733 479 733 478 734 480 734 479 734 479 734 480 734 481 734 480 735 482 735 481 735 473 736 476 736 464 736 464 737 476 737 475 737 464 738 475 738 469 738 471 739 483 739 469 739 469 740 483 740 465 740 469 741 465 741 464 741 483 742 484 742 465 742 465 743 484 743 485 743 465 744 485 744 457 744 457 745 485 745 486 745 457 746 486 746 458 746 458 747 486 747 487 747 458 748 487 748 459 748 459 749 487 749 488 749 459 750 488 750 460 750 460 751 488 751 489 751 460 752 489 752 461 752 461 753 489 753 490 753 461 754 490 754 466 754 466 755 490 755 491 755 466 756 491 756 467 756 467 757 491 757 492 757 467 758 492 758 452 758 452 759 492 759 493 759 452 760 493 760 453 760 453 761 493 761 494 761 453 762 494 762 454 762 454 763 494 763 495 763 454 764 495 764 455 764 455 765 495 765 496 765 455 766 496 766 456 766 456 767 496 767 468 767 484 768 497 768 485 768 498 769 499 769 496 769 496 770 499 770 468 770 499 771 500 771 468 771 468 772 500 772 470 772 468 773 470 773 447 773 447 774 470 774 479 774 447 775 479 775 448 775 448 776 479 776 481 776 448 777 481 777 449 777 449 778 481 778 482 778 449 779 482 779 450 779 450 780 482 780 480 780 450 781 480 781 451 781 451 782 480 782 478 782 451 783 478 783 477 783 500 784 472 784 470 784 474 785 463 785 477 785 477 786 463 786 462 786 477 787 462 787 451 787 472 788 500 788 471 788 471 789 500 789 499 789 471 790 499 790 498 790 498 791 497 791 471 791 471 792 497 792 483 792 497 793 484 793 483 793 496 794 485 794 498 794 498 795 485 795 497 795 496 796 495 796 485 796 485 797 495 797 494 797 485 798 494 798 493 798 493 799 492 799 485 799 485 800 492 800 491 800 485 801 491 801 490 801 490 802 489 802 485 802 485 803 489 803 486 803 489 804 488 804 486 804 486 804 488 804 487 804 190 805 235 805 375 805 375 806 235 806 104 806 375 807 104 807 377 807 377 808 104 808 100 808 377 809 501 809 375 809 375 810 501 810 502 810 235 811 238 811 104 811 104 812 238 812 108 812 503 813 502 813 504 813 504 814 502 814 501 814 376 815 504 815 377 815 377 816 504 816 501 816 376 817 374 817 504 817 504 818 374 818 503 818 374 819 375 819 503 819 503 820 375 820 502 820 296 821 505 821 247 821 247 822 505 822 248 822 248 823 505 823 239 823 239 824 505 824 302 824 505 825 296 825 302 825 302 826 296 826 297 826 317 827 316 827 369 827 369 828 316 828 506 828 277 829 369 829 275 829 275 830 369 830 506 830 275 831 506 831 276 831 276 831 506 831 316 831 177 832 290 832 50 832 50 833 290 833 289 833 175 834 174 834 183 834 183 835 174 835 185 835 185 836 174 836 187 836 187 837 174 837 103 837 187 838 103 838 102 838 187 839 102 839 188 839 188 840 102 840 101 840 188 841 101 841 189 841 189 842 101 842 191 842 101 843 99 843 191 843 191 844 99 844 98 844 191 845 98 845 192 845 192 846 98 846 193 846 98 847 173 847 193 847 173 848 127 848 193 848 193 849 127 849 194 849 194 850 127 850 195 850 195 851 127 851 129 851 195 852 129 852 131 852 195 853 131 853 197 853 197 854 131 854 132 854 197 855 132 855 198 855 198 856 132 856 200 856 132 857 134 857 200 857 200 858 134 858 137 858 200 859 137 859 201 859 201 860 137 860 202 860 137 861 138 861 202 861 184 862 294 862 48 862 48 863 294 863 178 863 178 864 294 864 2 864 2 865 294 865 0 865 507 866 508 866 33 866 33 867 508 867 509 867 33 868 509 868 510 868 510 869 354 869 33 869 33 870 354 870 31 870 511 871 512 871 70 871 70 872 512 872 513 872 70 873 513 873 514 873 514 874 326 874 70 874 70 875 326 875 72 875 515 876 516 876 517 876 517 877 516 877 518 877 517 878 518 878 519 878 519 879 518 879 520 879 518 880 521 880 520 880 520 881 521 881 522 881 521 882 523 882 522 882 522 883 523 883 524 883 523 884 525 884 524 884 524 885 525 885 526 885 525 886 527 886 526 886 526 887 527 887 528 887 528 888 527 888 529 888 529 889 527 889 530 889 529 890 530 890 531 890 531 891 530 891 532 891 532 892 530 892 533 892 533 893 530 893 534 893 533 894 534 894 535 894 535 895 534 895 536 895 534 896 537 896 536 896 536 897 537 897 538 897 537 898 539 898 538 898 538 899 539 899 540 899 539 900 541 900 540 900 540 901 541 901 542 901 541 902 543 902 542 902 542 903 543 903 544 903 544 904 543 904 545 904 545 905 543 905 26 905 545 906 26 906 546 906 529 907 531 907 547 907 547 908 531 908 532 908 547 909 532 909 548 909 548 910 532 910 533 910 548 911 533 911 535 911 522 912 524 912 547 912 547 913 524 913 526 913 547 914 526 914 528 914 528 915 529 915 547 915 535 916 536 916 548 916 548 917 536 917 538 917 548 918 538 918 540 918 549 919 547 919 550 919 550 920 547 920 548 920 551 921 552 921 553 921 553 922 552 922 546 922 553 923 546 923 554 923 554 924 546 924 555 924 26 925 25 925 546 925 546 926 25 926 556 926 546 927 556 927 557 927 557 928 555 928 546 928 556 929 558 929 557 929 557 930 558 930 559 930 557 931 559 931 555 931 555 932 559 932 560 932 555 933 560 933 554 933 554 934 560 934 561 934 554 935 561 935 553 935 553 936 561 936 304 936 553 937 304 937 551 937 551 938 304 938 305 938 551 939 305 939 562 939 562 940 305 940 306 940 562 941 306 941 563 941 563 942 306 942 564 942 556 943 25 943 558 943 561 944 303 944 304 944 306 945 310 945 564 945 564 946 310 946 565 946 566 947 567 947 309 947 309 948 567 948 568 948 309 949 568 949 310 949 310 950 568 950 569 950 310 951 569 951 565 951 309 952 308 952 566 952 566 953 308 953 570 953 570 954 308 954 571 954 571 955 308 955 307 955 571 956 307 956 572 956 572 957 307 957 573 957 307 958 366 958 573 958 573 959 366 959 574 959 366 960 365 960 574 960 574 961 365 961 575 961 365 962 364 962 575 962 575 963 364 963 576 963 315 964 577 964 364 964 364 965 577 965 578 965 364 966 578 966 576 966 315 967 579 967 577 967 512 968 69 968 513 968 513 969 69 969 68 969 513 970 68 970 514 970 514 971 68 971 67 971 514 972 67 972 580 972 580 973 67 973 66 973 580 974 66 974 58 974 512 975 511 975 69 975 69 976 511 976 70 976 580 977 58 977 581 977 581 978 58 978 57 978 581 979 57 979 582 979 582 980 57 980 56 980 582 981 56 981 55 981 55 982 54 982 582 982 573 983 574 983 583 983 583 984 574 984 515 984 574 985 575 985 515 985 515 986 575 986 576 986 515 987 576 987 578 987 578 988 577 988 515 988 515 989 577 989 579 989 515 990 579 990 516 990 551 991 562 991 552 991 552 992 562 992 563 992 552 993 563 993 571 993 571 994 563 994 564 994 571 995 564 995 570 995 570 996 564 996 565 996 570 997 565 997 566 997 566 998 565 998 567 998 565 999 569 999 567 999 567 1000 569 1000 568 1000 571 1001 572 1001 552 1001 552 1002 572 1002 583 1002 552 1003 583 1003 584 1003 572 1004 573 1004 583 1004 584 1005 585 1005 552 1005 583 1006 515 1006 584 1006 584 1007 515 1007 586 1007 584 1008 586 1008 587 1008 515 1009 517 1009 586 1009 586 1010 517 1010 519 1010 586 1011 519 1011 588 1011 588 1012 519 1012 589 1012 519 1013 520 1013 589 1013 589 1014 520 1014 522 1014 589 1015 522 1015 547 1015 547 1016 549 1016 589 1016 590 1017 545 1017 591 1017 591 1018 545 1018 546 1018 591 1019 546 1019 592 1019 592 1020 546 1020 585 1020 590 1021 593 1021 545 1021 545 1022 593 1022 544 1022 550 1023 548 1023 593 1023 593 1024 548 1024 540 1024 593 1025 540 1025 542 1025 542 1026 544 1026 593 1026 546 1027 552 1027 585 1027 585 1028 584 1028 592 1028 592 1029 584 1029 587 1029 590 1030 591 1030 588 1030 588 1030 591 1030 586 1030 587 1031 586 1031 592 1031 592 1032 586 1032 591 1032 550 1033 593 1033 549 1033 549 1034 593 1034 589 1034 594 1035 595 1035 368 1035 368 1036 595 1036 323 1036 588 1037 589 1037 590 1037 590 1038 589 1038 593 1038 315 1039 314 1039 579 1039 579 1040 314 1040 516 1040 354 1041 510 1041 541 1041 541 1042 510 1042 596 1042 541 1043 596 1043 543 1043 543 1044 596 1044 597 1044 543 1045 597 1045 598 1045 598 1046 26 1046 543 1046 354 1047 541 1047 353 1047 353 1048 541 1048 539 1048 353 1049 539 1049 356 1049 356 1050 539 1050 537 1050 356 1051 537 1051 357 1051 357 1052 537 1052 534 1052 357 1053 534 1053 358 1053 358 1054 534 1054 530 1054 358 1055 530 1055 359 1055 359 1056 530 1056 527 1056 359 1057 527 1057 360 1057 360 1058 527 1058 525 1058 360 1059 525 1059 361 1059 361 1060 525 1060 523 1060 361 1061 523 1061 362 1061 362 1062 523 1062 521 1062 362 1063 521 1063 363 1063 363 1064 521 1064 518 1064 363 1065 518 1065 334 1065 334 1066 518 1066 314 1066 518 1067 516 1067 314 1067 303 1068 561 1068 10 1068 10 1069 561 1069 599 1069 10 1070 599 1070 600 1070 600 1071 601 1071 10 1071 10 1072 4 1072 303 1072 602 1073 603 1073 604 1073 604 1074 603 1074 605 1074 604 1075 605 1075 606 1075 606 1076 605 1076 607 1076 606 1077 607 1077 608 1077 608 1078 607 1078 609 1078 605 1079 610 1079 607 1079 607 1080 610 1080 611 1080 610 1081 612 1081 611 1081 611 1082 612 1082 613 1082 612 1083 614 1083 613 1083 613 1084 614 1084 615 1084 614 1085 616 1085 615 1085 615 1086 616 1086 617 1086 606 1087 618 1087 604 1087 604 1088 618 1088 619 1088 618 1081 620 1081 619 1081 619 1082 620 1082 621 1082 620 1083 622 1083 621 1083 621 1084 622 1084 623 1084 622 1085 624 1085 623 1085 623 1086 624 1086 625 1086 626 1089 604 1089 627 1089 627 1090 604 1090 619 1090 627 1091 619 1091 621 1091 627 1092 621 1092 628 1092 628 1093 621 1093 623 1093 628 1094 623 1094 629 1094 629 1095 623 1095 625 1095 629 1096 625 1096 630 1096 630 1097 625 1097 631 1097 625 1098 624 1098 631 1098 631 1099 624 1099 622 1099 631 1100 622 1100 632 1100 632 1101 622 1101 620 1101 632 1102 620 1102 633 1102 633 1103 620 1103 618 1103 633 1104 618 1104 634 1104 634 1105 618 1105 635 1105 618 1106 606 1106 635 1106 606 1107 608 1107 635 1107 635 1108 608 1108 636 1108 602 1109 604 1109 637 1109 637 1110 604 1110 626 1110 603 1111 638 1111 605 1111 605 1112 638 1112 639 1112 639 1113 640 1113 605 1113 605 1114 640 1114 610 1114 640 1115 641 1115 610 1115 610 1116 641 1116 612 1116 612 1117 641 1117 614 1117 614 1118 641 1118 642 1118 614 1119 642 1119 643 1119 644 1120 617 1120 643 1120 643 1120 617 1120 616 1120 643 1121 616 1121 614 1121 644 1122 645 1122 617 1122 617 1123 645 1123 615 1123 615 1124 645 1124 613 1124 613 1125 645 1125 646 1125 613 1126 646 1126 647 1126 613 1127 647 1127 611 1127 611 1128 647 1128 648 1128 611 1129 648 1129 607 1129 648 1130 647 1130 649 1130 649 1131 647 1131 650 1131 646 1132 651 1132 647 1132 647 1133 651 1133 652 1133 647 1134 652 1134 650 1134 646 1135 645 1135 651 1135 651 1136 645 1136 644 1136 651 1137 644 1137 653 1137 653 1138 644 1138 643 1138 653 1139 643 1139 642 1139 642 1140 641 1140 653 1140 653 1141 641 1141 640 1141 653 1142 640 1142 654 1142 654 1143 640 1143 655 1143 639 1144 638 1144 640 1144 640 1145 638 1145 655 1145 603 1146 602 1146 638 1146 638 1147 602 1147 637 1147 638 1148 637 1148 336 1148 336 1149 637 1149 656 1149 336 1150 337 1150 638 1150 638 1151 337 1151 655 1151 635 1152 636 1152 634 1152 634 1153 636 1153 657 1153 634 1154 657 1154 633 1154 633 1155 657 1155 632 1155 632 1156 657 1156 631 1156 631 1157 657 1157 656 1157 631 1158 656 1158 630 1158 630 1159 656 1159 629 1159 637 1160 627 1160 656 1160 656 1161 627 1161 628 1161 656 1162 628 1162 629 1162 637 1163 626 1163 627 1163 650 1164 345 1164 649 1164 649 1165 345 1165 352 1165 649 1166 352 1166 636 1166 636 1167 352 1167 657 1167 636 1168 608 1168 649 1168 649 1168 608 1168 609 1168 650 1169 652 1169 345 1169 345 1170 652 1170 347 1170 657 1171 352 1171 656 1171 656 1171 352 1171 336 1171 649 1172 609 1172 648 1172 648 1173 609 1173 607 1173 337 1174 341 1174 655 1174 655 1175 341 1175 654 1175 653 1176 654 1176 350 1176 350 1177 654 1177 341 1177 349 1178 651 1178 350 1178 350 1179 651 1179 653 1179 347 1180 652 1180 349 1180 349 1181 652 1181 651 1181 658 1182 659 1182 321 1182 321 1183 659 1183 322 1183 322 1184 659 1184 367 1184 367 1185 659 1185 660 1185 661 876 662 876 663 876 663 877 662 877 664 877 663 878 664 878 665 878 665 879 664 879 666 879 664 880 667 880 666 880 666 881 667 881 668 881 667 882 669 882 668 882 668 883 669 883 670 883 669 884 671 884 670 884 670 885 671 885 672 885 671 886 673 886 672 886 672 887 673 887 674 887 674 888 673 888 675 888 675 889 673 889 676 889 675 890 676 890 677 890 677 891 676 891 678 891 678 892 676 892 679 892 679 893 676 893 680 893 679 894 680 894 681 894 681 895 680 895 682 895 680 896 683 896 682 896 682 897 683 897 684 897 683 898 685 898 684 898 684 899 685 899 686 899 685 900 687 900 686 900 686 901 687 901 688 901 687 902 689 902 688 902 688 903 689 903 690 903 690 904 689 904 691 904 691 905 689 905 54 905 691 906 54 906 692 906 675 1186 677 1186 693 1186 693 1187 677 1187 678 1187 693 1188 678 1188 694 1188 694 1189 678 1189 679 1189 694 1190 679 1190 681 1190 668 1191 670 1191 693 1191 693 1192 670 1192 672 1192 693 1193 672 1193 674 1193 674 1194 675 1194 693 1194 681 1195 682 1195 694 1195 694 1196 682 1196 684 1196 694 1197 684 1197 686 1197 695 1198 693 1198 696 1198 696 1199 693 1199 694 1199 697 1200 698 1200 699 1200 699 1201 698 1201 692 1201 699 1202 692 1202 700 1202 700 1203 692 1203 701 1203 54 925 53 925 692 925 692 1204 53 1204 702 1204 692 1205 702 1205 703 1205 703 1206 701 1206 692 1206 355 1207 704 1207 34 1207 34 1208 704 1208 705 1208 34 1209 705 1209 706 1209 706 1210 707 1210 34 1210 34 1211 32 1211 355 1211 326 1212 514 1212 687 1212 687 1042 514 1042 580 1042 687 1043 580 1043 689 1043 689 1044 580 1044 581 1044 689 1045 581 1045 582 1045 582 1046 54 1046 689 1046 326 1047 687 1047 324 1047 324 1048 687 1048 685 1048 324 1049 685 1049 325 1049 325 1050 685 1050 683 1050 325 1051 683 1051 327 1051 327 1052 683 1052 680 1052 327 1053 680 1053 328 1053 328 1054 680 1054 676 1054 328 1055 676 1055 329 1055 329 1056 676 1056 673 1056 329 1057 673 1057 330 1057 330 1058 673 1058 671 1058 330 1059 671 1059 331 1059 331 1060 671 1060 669 1060 331 1061 669 1061 332 1061 332 1062 669 1062 667 1062 332 1063 667 1063 333 1063 333 1064 667 1064 664 1064 333 1065 664 1065 311 1065 311 1066 664 1066 312 1066 664 1213 662 1213 312 1213 508 968 35 968 509 968 509 969 35 969 37 969 509 970 37 970 510 970 510 971 37 971 39 971 510 972 39 972 596 972 596 973 39 973 41 973 596 974 41 974 43 974 508 975 507 975 35 975 35 1214 507 1214 33 1214 596 977 43 977 597 977 597 978 43 978 30 978 597 979 30 979 598 979 598 980 30 980 29 980 598 981 29 981 27 981 27 982 26 982 598 982 313 1215 312 1215 708 1215 708 1040 312 1040 662 1040 709 1216 710 1216 711 1216 711 1217 710 1217 661 1217 710 1218 712 1218 661 1218 661 1219 712 1219 713 1219 661 1220 713 1220 714 1220 714 1221 715 1221 661 1221 661 1222 715 1222 708 1222 661 990 708 990 662 990 697 1223 716 1223 698 1223 698 1224 716 1224 717 1224 698 1225 717 1225 718 1225 718 1226 717 1226 719 1226 718 1227 719 1227 720 1227 720 1228 719 1228 721 1228 720 1229 721 1229 722 1229 722 1230 721 1230 723 1230 721 1231 724 1231 723 1231 723 1232 724 1232 725 1232 718 1233 726 1233 698 1233 698 1234 726 1234 711 1234 698 1235 711 1235 727 1235 726 1236 709 1236 711 1236 727 1237 728 1237 698 1237 711 1006 661 1006 727 1006 727 1007 661 1007 729 1007 727 1008 729 1008 730 1008 661 1009 663 1009 729 1009 729 1238 663 1238 665 1238 729 1239 665 1239 731 1239 731 1240 665 1240 732 1240 665 1241 666 1241 732 1241 732 1242 666 1242 668 1242 732 1015 668 1015 693 1015 693 1243 695 1243 732 1243 733 1017 691 1017 734 1017 734 1244 691 1244 692 1244 734 1245 692 1245 735 1245 735 1246 692 1246 728 1246 733 1247 736 1247 691 1247 691 1248 736 1248 690 1248 696 1249 694 1249 736 1249 736 1250 694 1250 686 1250 736 1251 686 1251 688 1251 688 1252 690 1252 736 1252 692 1253 698 1253 728 1253 728 1254 727 1254 735 1254 735 1255 727 1255 730 1255 733 1256 734 1256 731 1256 731 1257 734 1257 729 1257 730 1258 729 1258 735 1258 735 1259 729 1259 734 1259 696 1260 736 1260 695 1260 695 1261 736 1261 732 1261 367 1262 660 1262 368 1262 368 1263 660 1263 594 1263 731 1264 732 1264 733 1264 733 1265 732 1265 736 1265 702 929 737 929 703 929 703 930 737 930 738 930 703 931 738 931 701 931 701 932 738 932 739 932 701 933 739 933 700 933 700 934 739 934 704 934 700 935 704 935 699 935 699 936 704 936 351 936 699 937 351 937 697 937 697 938 351 938 344 938 697 939 344 939 716 939 716 940 344 940 346 940 716 941 346 941 717 941 717 942 346 942 719 942 702 943 53 943 737 943 704 1266 355 1266 351 1266 346 945 348 945 719 945 719 946 348 946 721 946 722 947 723 947 343 947 343 948 723 948 725 948 343 949 725 949 348 949 348 950 725 950 724 950 348 951 724 951 721 951 343 952 342 952 722 952 722 953 342 953 720 953 720 954 342 954 718 954 718 955 342 955 340 955 718 956 340 956 726 956 726 957 340 957 709 957 340 958 339 958 709 958 709 959 339 959 710 959 339 960 338 960 710 960 710 961 338 961 712 961 338 962 335 962 712 962 712 963 335 963 713 963 313 964 715 964 335 964 335 965 715 965 714 965 335 966 714 966 713 966 313 1267 708 1267 715 1267 10 1268 601 1268 12 1268 12 1269 601 1269 600 1269 12 1270 600 1270 599 1270 12 1271 599 1271 13 1271 13 1272 599 1272 561 1272 13 1273 561 1273 14 1273 14 1274 561 1274 560 1274 14 1275 560 1275 15 1275 15 1276 560 1276 16 1276 560 1277 559 1277 16 1277 16 1278 559 1278 17 1278 559 1279 558 1279 17 1279 17 1280 558 1280 18 1280 25 1281 24 1281 558 1281 558 1282 24 1282 18 1282 34 1268 707 1268 36 1268 36 1269 707 1269 706 1269 36 1270 706 1270 705 1270 36 1271 705 1271 38 1271 38 1272 705 1272 704 1272 38 1273 704 1273 40 1273 40 1274 704 1274 739 1274 40 1275 739 1275 42 1275 42 1276 739 1276 44 1276 739 1277 738 1277 44 1277 44 1278 738 1278 45 1278 738 1279 737 1279 45 1279 45 1280 737 1280 46 1280 53 1281 52 1281 737 1281 737 1282 52 1282 46 1282 740 1283 741 1283 742 1283 742 1284 741 1284 743 1284 742 1285 743 1285 744 1285 744 1286 743 1286 745 1286 744 1287 745 1287 746 1287 746 1284 745 1284 747 1284 743 1288 748 1288 745 1288 745 1289 748 1289 749 1289 748 1081 750 1081 749 1081 749 1082 750 1082 751 1082 750 1083 752 1083 751 1083 751 1084 752 1084 753 1084 752 1085 754 1085 753 1085 753 1086 754 1086 755 1086 744 1290 756 1290 742 1290 742 1291 756 1291 757 1291 756 1081 758 1081 757 1081 757 1082 758 1082 759 1082 758 1083 760 1083 759 1083 759 1084 760 1084 761 1084 760 1085 762 1085 761 1085 761 1086 762 1086 763 1086 764 1292 742 1292 765 1292 765 1293 742 1293 757 1293 765 1294 757 1294 759 1294 765 1295 759 1295 766 1295 766 1296 759 1296 761 1296 766 1297 761 1297 767 1297 767 1298 761 1298 763 1298 767 1299 763 1299 768 1299 768 1300 763 1300 769 1300 763 1300 762 1300 769 1300 769 1301 762 1301 760 1301 769 1302 760 1302 770 1302 770 1303 760 1303 758 1303 770 1304 758 1304 771 1304 771 1305 758 1305 756 1305 771 1306 756 1306 772 1306 772 1307 756 1307 773 1307 756 1308 744 1308 773 1308 744 1309 746 1309 773 1309 773 1310 746 1310 774 1310 740 1311 742 1311 775 1311 775 1312 742 1312 764 1312 741 1313 776 1313 743 1313 743 1314 776 1314 777 1314 777 1315 778 1315 743 1315 743 1316 778 1316 748 1316 778 1317 779 1317 748 1317 748 1318 779 1318 750 1318 750 1319 779 1319 752 1319 752 1320 779 1320 780 1320 752 1321 780 1321 781 1321 782 1322 755 1322 781 1322 781 1323 755 1323 754 1323 781 1324 754 1324 752 1324 782 1325 783 1325 755 1325 755 1326 783 1326 753 1326 753 1327 783 1327 751 1327 751 1328 783 1328 784 1328 751 1329 784 1329 785 1329 751 1330 785 1330 749 1330 749 1331 785 1331 786 1331 749 1332 786 1332 745 1332 786 1333 785 1333 787 1333 787 1334 785 1334 658 1334 784 1335 660 1335 785 1335 785 1336 660 1336 659 1336 785 1337 659 1337 658 1337 784 1338 783 1338 660 1338 660 1339 783 1339 782 1339 660 1340 782 1340 594 1340 594 1341 782 1341 781 1341 594 1342 781 1342 780 1342 780 1343 779 1343 594 1343 594 1344 779 1344 778 1344 594 1345 778 1345 595 1345 595 1346 778 1346 788 1346 777 1347 776 1347 778 1347 778 1348 776 1348 788 1348 741 1146 740 1146 776 1146 776 1147 740 1147 775 1147 776 1148 775 1148 319 1148 319 1149 775 1149 789 1149 319 1150 318 1150 776 1150 776 1151 318 1151 788 1151 773 1349 774 1349 772 1349 772 1350 774 1350 790 1350 772 1351 790 1351 771 1351 771 1352 790 1352 770 1352 770 1353 790 1353 769 1353 769 1354 790 1354 789 1354 769 1355 789 1355 768 1355 768 1356 789 1356 767 1356 775 1357 765 1357 789 1357 789 1358 765 1358 766 1358 789 1359 766 1359 767 1359 775 1360 764 1360 765 1360 658 1361 321 1361 787 1361 787 1165 321 1165 320 1165 787 1362 320 1362 774 1362 774 1363 320 1363 790 1363 774 1364 746 1364 787 1364 787 1168 746 1168 747 1168 790 1365 320 1365 789 1365 789 1366 320 1366 319 1366 787 1367 747 1367 786 1367 786 1368 747 1368 745 1368 318 1369 323 1369 788 1369 788 1370 323 1370 595 1370 421 1371 420 1371 415 1371 415 1372 420 1372 416 1372 420 1373 422 1373 416 1373 416 1374 422 1374 417 1374 417 1375 422 1375 424 1375 417 1376 424 1376 431 1376 431 1377 424 1377 426 1377 425 1378 406 1378 432 1378 432 1379 406 1379 407 1379 425 1380 429 1380 423 1380 423 1381 429 1381 427 1381 423 1382 427 1382 424 1382 424 1383 427 1383 426 1383 432 1384 418 1384 430 1384 430 1385 418 1385 428 1385 418 1386 417 1386 428 1386 428 1387 417 1387 431 1387</p>
        </triangles>
      </mesh>
    </geometry>
  </library_geometries>
  <library_visual_scenes>
    <visual_scene id="DefaultScene">
      <node id="node_ea5f84fa_6077_4075_8e59_5dd253321626" type="NODE">
        <matrix>1 0 0 0 0 1 0 0 0 0 1 0 0 0 0 1</matrix>
        <node id="node_fca9ad18_9e61_4e2b_b83c_c36c518b64c7" type="NODE">
          <matrix>1 0 0 0 0 1 0 0 0 0 1 0 0 0 0 1</matrix>
          <node id="node_fca9ad18_9e61_4e2b_b83c_c36c518b64c7_mesh0" type="NODE">
            <matrix>1 0 0 0 0 1 0 0 0 0 1 0 0 0 0 1</matrix>
            <instance_geometry url="#geometry_db72ff61_0e62_476b_afbf_c9c75e2045c9">
              <bind_material>
                <technique_common>
                  <instance_material symbol="mat_0" target="#mat_0"/>
                </technique_common>
              </bind_material>
            </instance_geometry>
          </node>
        </node>
      </node>
    </visual_scene>
  </library_visual_scenes>
  <scene>
    <instance_visual_scene url="#DefaultScene"/>
  </scene>
</COLLADA>
