<?xml version="1.0" encoding="UTF-8"?>
<COLLADA xmlns="http://www.collada.org/2005/11/COLLADASchema" version="1.4.1">
<!--
# File generated by ImageToStl.com - Free Image and 3D model conversion tools
-->
  <asset>
    <contributor>
      <author>ImageToStl.com</author>
      <authoring_tool>ImageToStl.com</authoring_tool>
    </contributor>
    <created>2025-07-02T08:54:06</created>
    <modified>2025-07-02T08:54:06</modified>
    <up_axis>Z_UP</up_axis>
  </asset>
  <library_effects>
    <effect id="effect_0">
        <profile_COMMON>
          <technique sid="common">
            <phong>
              <diffuse>
                <color>0.85 0.85 0.85 1</color>
              </diffuse>
              <specular>
                <color>0.05 0.05 0.05 1</color>
              </specular>
              <shininess>
                <float>64</float>
              </shininess>
            </phong>
          </technique>
        </profile_COMMON>
    </effect>
  </library_effects>
  <library_materials>
    <material id="mat_0">
      <instance_effect url="#effect_0"/>
    </material>
  </library_materials>
  <library_geometries>
    <geometry id="geometry_48eef35d_5bb2_4d59_8320_ccca2e112700">
      <mesh>
        <source id="pos_0">
          <float_array id="pos_0-array" count="1401">6.1500001 60.69339371 37.75 6.1500001 49.4437027 37.75 6.1500001 59.36100388 36.54063034 6.1500001 47.62734604 35.25 6.1500001 60.99803543 30.43114853 6.1500001 61.80264282 20.86613464 6.1500001 62.59999847 23.20000076 6.1500001 39.60965347 35.25 6.1500001 39.21250153 33.14500046 6.1500001 39.21250153 32.07500076 6.1500001 61.39850235 18.43315697 6.1500001 46.01398849 6.19999981 6.1500001 48.29999924 6 6.1500001 38.68460083 33.14500046 6.1500001 32.490345 35.25 6.1500001 30.81850052 35.25 6.1500001 32.88750076 33.14500046 6.1500001 30.10000038 33.54999924 6.1500001 32.88750076 32.07500076 6.1500001 30.10000038 29.25 6.1500001 40.5 6.19999981 6.1500001 33.41539764 33.14500046 6.1500001 16.36244965 12.51228237 6.1500001 16.49672318 12.42551041 6.1500001 22.10000038 29.25 6.1500001 16.60780716 12.31053638 6.1500001 16.68990707 12.17335606 6.1500001 16.73874092 12.02112579 6.1500001 22.10000038 33.54999924 6.1500001 18.04999924 35.25 6.1500001 5.9820509 23.61534691 6.1500001 6.18185186 23.13298416 6.1500001 21.38150024 35.25 6.1500001 18.04999924 41.25 6.1500001 10.28578663 41.25 6.1500001 6.78578663 37.75 6.1500001 5.66421366 24.02956009 6.1500001 5.25 24.34739685 6.1500001 1.70223439 36.9872818 6.1500001 2.20545602 36.81756592 6.1500001 1.90660441 37.75 6.1500001 3.23899651 36.54063034 6.1500001 1.60196614 30.43114853 6.1500001 4.76763821 24.54719734 6.1500001 2.13497758 36.55453873 6.1500001 0.63890386 30.97111511 6.1500001 0 30.79992104 6.1500001 0.56842548 30.70808601 6.1500001 -0 26.59200859 6.1500001 0.74118096 25.62608337 6.1500001 0.03407417 26.33319092 6.1500001 0.1339746 26.09200859 6.1500001 0.29289323 25.88490295 6.1500001 0.5 25.72598457 6.1500001 6.25 22.61534691 6.1500001 6.25 22.58465385 6.1500001 16.03235817 12.59843349 6.1500001 15.85012341 12.5890007 6.1500001 6.18185186 22.0670166 6.1500001 15.67476654 12.538517 6.1500001 5.9820509 21.58465385 6.1500001 15.51541233 12.4496088 6.1500001 5.66421366 21.17044067 6.1500001 15.38035011 12.32690144 6.1500001 5.25 20.85260391 6.1500001 3.5999999 12.60000038 6.1500001 15.27660942 12.17677975 6.1500001 4.76763821 20.65280151 6.1500001 0.61939794 17.23702049 6.1500001 0.38835418 15.70246887 6.1500001 1.43182242 19.75897408 6.1500001 0.69065833 18.78723145 6.1500001 1.2280333 19.6796093 6.1500001 1.04637003 19.55784416 6.1500001 0.89552128 19.39949989 6.1500001 0.78270197 19.21214867 6.1500001 0.71330798 19.00475311 6.1500001 0 14.19999981 6.1500001 0 12.60000038 6.1500001 13.24105644 -0 6.1500001 13.60000038 4.9000001 6.1500001 3.5999999 1.5 6.1500001 13.60000038 6 6.1500001 15.20958519 12.00705528 6.1500001 0 -0 6.1500001 1.5 1.5 6.1500001 0 3.0999999 6.1500001 1.5 2.42917967 6.1500001 1.79599965 3.01523805 6.1500001 1.74750352 2.79711747 6.1500001 1.64676714 2.59766674 6.1500001 1.78926635 3.23858333 6.1500001 0.02773804 3.32171845 6.1500001 1.72771859 3.45338655 6.1500001 0.10924238 3.52977014 6.1500001 1.61515009 3.64640665 6.1500001 0.23948909 3.71133089 6.1500001 1.45849979 3.80574632 6.1500001 0.41044974 3.85520887 6.1500001 1.26742351 3.92158389 6.1500001 0.61158633 3.95253587 6.1500001 1.05369914 3.98677874 6.1500001 0.83050078 3.99731255 6.1500001 14.00669861 1.27407682 6.1500001 14.56422997 2.65198803 6.1500001 14.89999962 4.0999999 6.1500001 14.89999962 4.55166626 6.1500001 16.21199036 12.56632519 6.1500001 16.75176048 11.86178589 6.1500001 16.72828865 11.70364761 6.1500001 15.19999981 6 6.1500001 40.5 6 6.1500001 45.65000153 3.20166612 6.1500001 45.65000153 1.54851019 6.1500001 47.13660431 4.68826866 6.1500001 48.97079086 -0 6.1500001 48.29999924 5 6.1500001 50.77450562 -0 6.1500001 62.59999847 9 6.1500001 61.80264282 13.53386593 6.1500001 62.59999847 11.19999981 6.1500001 61.39850235 15.96684265 6.1500001 62.03157425 30.70808601 6.1500001 62.59999847 30.79992104 6.1500001 61.96109772 30.97111511 6.1500001 60.39454269 36.81756592 6.1500001 60.89776611 36.9872818 6.1500001 60.46502304 36.55453873 -0 47.62734604 35.25 -0 49.4437027 37.75 -0 59.36100388 36.54063034 -0 60.69339371 37.75 -0 60.39454269 36.81756592 -0 60.89776611 36.9872818 -0 60.46502304 36.55453873 -0 60.99803543 30.43114853 -0 61.80264282 20.86613464 -0 61.39850235 18.43315697 0 62.59999847 23.20000076 -0 62.03157425 30.70808601 -0 62.59999847 30.79992104 -0 61.96109772 30.97111511 -0 61.39850235 15.96684265 -0 48.29999924 6 -0 46.01398849 6.19999981 -0 39.21250153 32.07500076 -0 40.5 6.19999981 -0 30.10000038 29.25 0 16.73874092 12.02112579 0 16.68990707 12.17335606 -0 61.80264282 13.53386593 -0 62.59999847 9 -0 50.77450562 -0 0 62.59999847 11.19999981 -0 48.29999924 5 -0 48.97079086 -0 -0 47.13660431 4.68826866 -0 45.65000153 1.54851019 -0 45.65000153 3.20166612 -0 40.5 6 -0 16.72828865 11.70364761 0 16.75176048 11.86178589 -0 15.19999981 6 0 16.60780716 12.31053638 -0 22.10000038 29.25 0 16.49672318 12.42551041 0 16.36244965 12.51228237 0 16.21199036 12.56632519 0 16.03235817 12.59843349 0 15.85012341 12.5890007 0 15.67476654 12.538517 0 0.51717788 20.97636604 0 15.51541233 12.4496088 0 0.69091201 18.70000076 -0 3.5999999 12.60000038 0 0.51717788 16.42363358 -0 0 14.19999981 0 15.38035011 12.32690144 0 15.27660942 12.17677975 0 15.20958519 12.00705528 -0 13.60000038 6 -0 3.5999999 4 -0 13.60000038 4.9000001 -0 13.24105644 -0 -0 0 -0 -0 14.89999962 4.55166626 -0 14.89999962 4.0999999 -0 14.56422997 2.65198803 -0 14.00669861 1.27407682 -0 0 3.0999999 -0 0.89999998 4 0 0.03066676 3.33293724 0 0.12057713 3.54999995 0 0.2636039 3.73639607 0 0.44999999 3.8794229 0 0.66706288 3.96933317 -0 0 12.60000038 -0 1.60196614 30.43114853 -0 0 23.20000076 -0 0.56842548 30.70808601 -0 0 30.79992104 -0 0.63890386 30.97111511 -0 2.13497758 36.55453873 -0 1.70223439 36.9872818 -0 2.20545602 36.81756592 -0 1.90660441 37.75 -0 3.23899651 36.54063034 -0 6.78578663 37.75 -0 18.04999924 35.25 -0 22.10000038 33.54999924 -0 10.28578663 41.25 -0 18.04999924 41.25 -0 21.38150024 35.25 -0 32.88750076 32.07500076 -0 30.10000038 33.54999924 -0 32.88750076 33.14500046 -0 30.81850052 35.25 -0 32.490345 35.25 -0 33.41539764 33.14500046 -0 39.21250153 33.14500046 -0 39.60965347 35.25 -0 38.68460083 33.14500046 3.25 55.41270828 21.36769295 3.01747608 55.42560577 21.37188339 3.25 50.12226486 37.65000153 2.98894763 50.14025879 37.65000153 2.78810573 55.4641304 21.38440132 2.73236179 50.19392014 37.65000153 2.56500006 55.52775192 21.40507317 2.56500006 53.85942841 26.53964806 1.27439177 55.40124893 26.86737061 1.31814837 51.68091202 37.65000153 1.38484979 54.99745941 26.78154373 1.51794922 51.17372894 37.65000153 1.57958972 54.62575912 26.70253563 1.83578646 50.73819733 37.65000153 1.84981179 54.30293655 26.63391876 2.03247714 50.55682755 37.65000153 2.18330503 54.04358673 26.57879257 2.25 50.40400314 37.65000153 2.48463321 50.282341 37.65000153 1.25 54.85282135 29.56298447 1.25 52.22518921 37.65000153 5.55000019 49.37104797 37.65000153 6.05000019 49.37104797 37.65000153 5.55000019 49.4437027 37.75 6.05000019 47.62734604 35.25 0.1 49.37104797 37.65000153 0.1 47.62734604 35.25 0.1 45.48554993 37.65000153 0.1 42.43811417 36.22895813 0.1 42.09999847 35.25 0.1 42.09999847 35.29999924 6.05000019 45.48554993 37.65000153 6.05000019 42.43811417 36.22895813 5.55000019 50.96343613 37.65000153 4.7314949 50.61066818 37.65000153 4.34442711 50.34427643 37.65000153 4.9000001 48.82448959 37.65000153 3.90950584 50.1785202 37.65000153 3.45000005 50.12226486 37.65000153 5.05000019 50.96343613 37.65000153 1.20000005 48.82448959 37.65000153 0.55000001 49.37104797 37.65000153 1.25 54.145298 37.65000153 0.55000001 58.04999924 37.65000153 1.31814837 54.66491318 37.65000153 1.51794922 55.14912033 37.65000153 1.83578646 55.5649147 37.65000153 2.03247714 55.73806763 37.65000153 2.25 55.88396454 37.65000153 2.48463321 56.00011444 37.65000153 2.73236179 56.08452988 37.65000153 2.98894763 56.13576126 37.65000153 3.25 56.15293884 37.65000153 5.55000019 58.04999924 37.65000153 3.45000005 56.15293884 37.65000153 3.90950584 56.09923172 37.65000153 4.34442711 55.94098663 37.65000153 4.7314949 55.6866684 37.65000153 5.55000019 55.34988403 37.65000153 5.05000019 55.34988403 37.65000153 1.20000005 46.04402542 37.65000153 4.9000001 46.04402542 37.65000153 1.20000005 49.29399872 30.26763916 1.20000005 51.20000076 27.95000076 1.20000005 49.86158371 27.95000076 4.9000001 49.29399872 30.26763916 4.9000001 51.20000076 27.95000076 4.9000001 49.86158371 27.95000076 3.45000005 55.41270828 21.36769295 0.55000001 49.4437027 37.75 6.05000019 42.09999847 35.25 6.05000019 42.09999847 35.29999924 0.64999998 26.95000076 17.04999924 5.5 26.95000076 17.04999924 0.64999998 30.10000038 17.04999924 5.5 30.10000038 17.04999924 0.64999998 26.95000076 29.25 0.64999998 30.10000038 29.25 5.5 26.95000076 29.25 5.5 30.10000038 29.25 0.64999998 25.25 29.25 0.64999998 22.10000038 29.25 5.5 25.25 29.25 5.5 22.10000038 29.25 4.55000019 11.3929491 41.25 4.06763792 11.19314861 41.25 3.54999995 11.125 41.25 3.03236198 11.19314861 41.25 2.54999995 11.3929491 41.25 5.28205061 14.125 41.25 5.48185158 13.64263821 41.25 5.55000019 13.125 41.25 5.48185158 12.60736179 41.25 5.28205061 12.125 41.25 2.54999995 14.8570509 41.25 3.03236198 15.05685139 41.25 3.54999995 15.125 41.25 4.06763792 15.05685139 41.25 4.55000019 14.8570509 41.25 1.61814833 12.60736179 41.25 1.54999995 13.125 41.25 1.61814833 13.64263821 41.25 1.81794918 14.125 41.25 2.13578653 14.53921318 41.25 2.13578653 11.71078682 41.25 1.81794918 12.125 41.25 4.96421337 14.53921318 41.25 4.96421337 11.71078682 41.25 3.54999995 11.125 35.125 3.07021666 11.18340111 35.125 2.61845279 11.35519218 35.125 2.22109222 11.63034153 35.125 1.90134048 11.99277973 35.125 1.67787182 12.42134094 35.125 1.56373668 12.89099598 35.125 1.56560063 13.37431717 35.125 1.68335497 13.84307766 35.125 1.91012263 14.26990223 35.125 2.05534148 14.45390797 34.125 2.22109222 14.61965847 34.125 1.91012263 14.26990223 34.125 2.40509725 14.76487732 34.125 2.40509725 14.76487732 35.125 2.75952148 14.9621563 35.125 3.14646125 15.08386612 35.125 3.54999995 15.125 35.125 4.69490242 11.48512268 34.125 4.87890768 11.63034153 34.125 5.04465866 11.79609203 34.125 5.18987751 11.98009777 34.125 4.69490242 11.48512268 35.125 5.18987751 11.98009777 35.125 5.41664505 12.40692234 35.125 5.53439951 12.87568283 35.125 5.53626347 13.35900402 35.125 5.4221282 13.82865906 35.125 5.19865942 14.25722027 35.125 4.87890768 14.61965847 35.125 4.48154736 14.89480782 35.125 4.02978325 15.06659889 35.125 4.34047842 11.2878437 35.125 3.95353889 11.16613388 35.125 0.60000002 0 23.20000076 0.60000002 0 28.10000038 5.55000019 0 28.10000038 5.55000019 0 26.59200859 0.60000002 0.53375006 20.86567688 0.60000002 0.68924177 18.47616386 0.60000002 0.46251255 16.09235382 5.55000019 0.46251255 16.09235382 5.55000019 0.59260899 16.98552513 5.55000019 0.66874945 17.88490295 5.55000019 0.69065833 18.78723145 5.55000019 0.71330798 19.00475311 5.55000019 0.78270197 19.21214867 5.55000019 0.89552128 19.39949989 5.55000019 1.04637003 19.55784416 5.55000019 1.2280333 19.6796093 5.55000019 1.43182242 19.75897408 5.55000019 4.76763821 20.65280151 5.55000019 5.25 20.85260391 5.55000019 5.66421366 21.17044067 5.55000019 5.9820509 21.58465385 5.55000019 6.18185186 22.0670166 5.55000019 6.25 22.58465385 5.55000019 6.25 22.61534691 5.55000019 6.18185186 23.13298416 5.55000019 5.9820509 23.61534691 5.55000019 5.66421366 24.02956009 5.55000019 5.25 24.34739685 5.55000019 4.76763821 24.54719734 5.55000019 0.74118096 25.62608337 5.55000019 0.03407417 26.33319092 5.55000019 0.1339746 26.09200859 5.55000019 0.29289323 25.88490295 5.55000019 0.5 25.72598457 5.55000019 7.84617424 19.53541183 5.55000019 7.84617424 25.31442833 5.55000019 5.12398386 28.10000038 1.95000005 17.04999924 24.02499962 5.1500001 17.04999924 24.02499962 1.95000005 9.32499981 24.02499962 5.1500001 9.10626316 24.02499962 1.82371223 9.10626316 24.02499962 5.1500001 17.04999924 21.02499962 5.1500001 9.32499981 21.02499962 5.1500001 8.92500019 20.45931435 5.1500001 8.92500019 24.21048355 5.42036343 8.19581223 19.698452 4.3499999 9.32499981 20.22500038 0.60000002 6.98673153 19.13464737 0.70354694 7.16608 19.21827888 2.75 9.32499981 20.22500038 1.95000005 9.32499981 21.02499962 1.95000005 17.04999924 21.02499962 4.3499999 17.04999924 20.22500038 2.75 17.04999924 20.22500038 0.60000002 6.98673153 26.19388199 0.60000002 5.12398386 28.10000038 2.56500006 56.94614029 27.19574738 2.56500006 57.39955139 22.01325607 1 3.5999999 4 1 3.5999999 1.5 1 1.5 1.5 1 1.5 2.42917967 1 0.89999998 4 1 1.11496949 3.97394967 1 1.31749439 3.89730692 1 1.49585092 3.77450848 1 1.63971388 3.61266303 1 1.74075508 3.42113996 1 1.79312551 3.21102595 1 1.79379332 2.9944849 1 1.74272001 2.78405213 1 1.64286196 2.59190941 5.5 22.10000038 17.45000076 0.64999998 22.10000038 17.45000076 5.5 25.25 17.45000076 0.64999998 25.25 17.45000076 5.55000019 58.04999924 37.75 0.55000001 58.04999924 37.75 5.55000019 56.27695465 27.05350876 5.55000019 54.52728271 26.68160439 5.05000019 56.27695465 27.05350876 5.05000019 54.52728271 26.68160439 4.79076242 54.2479248 26.62222481 4.79076242 56.55686951 27.11300659 4.48195696 54.0225296 26.57431602 4.48195696 56.78271484 27.16101074 4.13500023 53.85942841 26.53964806 4.13500023 56.94614029 27.19574738 4.13500023 55.52775192 21.40507317 4.13500023 57.39955139 22.01325607 3.45000005 57.51762009 22.05162048 3.68252397 57.50438309 22.04731941 3.91189432 57.46484756 22.03447342 1.38484979 55.80584335 26.95337105 1.57958972 56.17828369 27.03253555 1.84981179 56.50174713 27.10128975 2.18330503 56.76161194 27.15652657 2.78810573 57.46484756 22.03447342 3.01747608 57.50438309 22.04731941 3.25 57.51762009 22.05162048 3.91189432 55.4641304 21.38440132 3.68252397 55.42560577 21.37188339</float_array>
          <technique_common>
            <accessor source="#pos_0-array" count="1401" stride="3">
              <param name="X" type="float"/>
              <param name="Y" type="float"/>
              <param name="Z" type="float"/>
            </accessor>
          </technique_common>
        </source>
        <source id="norm_0">
          <float_array id="norm_0-array" count="2370">1 0 0 1 -0 -0 1 -0 -0 1 0 -0 1 0 0 1 0 0 1 -0 -0 1 -0 -0 1 -0 -0 1 -0 -0 1 -0 -0 1 0 0 1 0 -0 1 0 0 1 0 0 1 -0 0 1 0 0 1 -0 -0 1 -0 -0 1 -0 0 1 -0 -0 1 0 0 1 0 -0 1 -0 -0 1 0 -0 1 0 -0 1 0 -0 1 0 -0 1 0 -0 1 0 -0 1 0 -0 1 0 -0 1 0 -0 1 0 -0 1 0 -0 1 -0 0 1 0 -0 1 0 -0 1 -0 0 1 -0 0 1 -0 -0 1 0 -0 1 -0 0 1 0 -0 1 0 -0 1 0 -0 1 0 -0 1 0 -0 1 -0 -0 1 0 0 1 0 -0 1 -0 -0 1 0 0 1 0 -0 1 0 0 1 0 -0 1 0 -0 1 0 0 1 0 0 1 0 -0 1 0 -0 1 0 -0 1 0 -0 1 0 -0 1 0 -0 1 0 -0 1 0 -0 1 0 -0 1 0 -0 1 0 -0 1 0 -0 1 -0 -0 1 -0 -0 1 -0 0 1 0 -0 1 -0 -0 1 -0 -0 1 0 0 1 -0 0 1 -0 0 1 -0 0 1 -0 -0 1 0 0 1 0 -0 1 0 -0 1 -0 0 1 -0 0 -1 0 0 -1 0 0 -1 -0 0 -1 0 0 -1 0 -0 -1 0 -0 -1 -0 0 -1 -0 -0 -1 -0 -0 -1 -0 -0 -1 -0 0 -1 -0 0 -1 0 -0 -1 0 0 -1 0 0 -1 0 0 -1 0 0 -1 0 -0 -1 -0 0 -1 -0 -0 -1 -0 0 -1 -0 0 -1 0 -0 -1 -0 0 -1 -0 -0 -1 -0 -0 -1 -0 0 -1 -0 0 -1 -0 0 -1 0 0 -1 -0 0 -1 0 0 -1 0 -0 -1 0 -0 -1 0 0 -1 0 0 -1 -0 0 -1 -0 0 -1 0 0 -1 -0 -0 -1 -0 0 -1 0 0 -1 -0 0 -1 -0 0 -1 -0 0 -1 -0 0 -1 -0 0 -1 -0 -0 -1 0 -0 -1 0 0 -1 0 0 -1 -0 0 -0 0.96593 0.25882 -0 0.96593 0.25882 -0 0.70711 -0.70711 -0 0.70711 -0.70711 0.05823 0.94944 0.30849 0.06541 0.94905 0.30826 0.1739 0.93654 0.30439 0.1951 0.93283 0.30292 0.28721 0.91099 0.296 0.29076 0.90992 0.29582 0.96563 0.24688 0.08126 0.92405 0.36402 0.11675 0.88889 0.43545 0.14231 0.79352 0.57908 0.18707 0.77201 0.60444 0.19658 0.65936 0.71506 0.23223 0.62018 0.74577 0.24332 0.55562 0.79084 0.25664 0.44039 0.85368 0.27799 0.44221 0.85282 0.27777 0.32147 0.90067 0.29231 0.99536 0.09215 0.02775 0.99144 0.12414 0.04033 0 -0.80902 0.58779 0 -0.80902 0.58779 0 -0.80902 0.58779 -0 -0.80902 0.58779 -1 -0 0 -1 -0 0 -1 -0 0 -1 0 -0 0 -0.42262 0.90631 0 -0.42262 0.90631 0 0 1 0 0 1 0 0 1 0 0 1 0 0 1 0 0 1 0 0 1 0 0 1 -0 0 1 0 0 1 0 0 1 0 0 1 0 0 1 0 0 1 0 0 1 0 0 1 0 0 1 0 0 1 0 0 1 0 0 1 0 0 1 0 0 1 0 0 1 0 0 1 0 0 1 0 0 1 0 0 1 0 0 1 0 0 1 0 0 1 -0 0 1 0 0 1 0 0 1 0 0 1 0 0 1 0 0 1 0 0 1 0 0 1 0 0 1 0 0 1 0 0 1 0 0 1 0 0 1 0 0 1 1 0 -0 1 0 -0 1 0 -0 -1 -0 0 -1 -0 0 -1 -0 0 -0 0.91524 0.40292 -0 0.91524 0.40292 -0 0.9713 0.23787 -0 0.9713 0.23787 0 0 1 0 0 1 0 -0.9713 -0.23787 0 -0.9713 -0.23787 -0 0.95106 0.30902 -0 0.95106 0.30902 0 -0.80902 0.58779 0 -0.80902 0.58779 -0 -0.80902 0.58779 -0 -0.80902 0.58779 0 -0.9155 0.40232 0 -0.9155 0.40232 1 0 -0 1 0 -0 1 0 -0 1 0 -0 0 0 1 0 -0 1 0 0 1 0 -1 0 0 -1 0 0 -0.93969 0.34202 0 -0.93969 0.34202 -0 0 -1 0 -1 0 0 0 1 0 0 1 -0 1 0 -0 1 0 -0 0 -1 0 -0 1 0 -0 1 0 0 1 0 0 1 1 0 -0 -0 1 -0 -0 1 -0 -1 -0 0 0 -1 0 -0 -1 0 0 -1 0 0 -1 0 0 -1 -0 0 -1 -0 0 -0.92111 0.3893 0 -0.92111 0.3893 0 0 1 0 0 1 0 0 1 -0 0 1 0 0 1 0 0 1 0 0 1 0 0 1 0 0 1 0 0.96593 -0.25882 0 -0.96593 0.25882 -0 -0.25882 -0.96593 -0 -0.70711 -0.70711 -0 -0.70711 0.70711 0 -0.70711 0.70711 0 -0 1 0 -0 1 0 -0 1 0 -0 1 0 -0 1 0 0 1 0 0 1 0 0 1 0 -0 1 0 -0 1 0 0 1 0 0 1 0 0 1 0 0 1 0 0 1 0 -0 1 0 0 1 0 -0 1 0 0 1 0 0 1 0 -0 1 0 -0 1 0 -0 1 0 0 1 0 0 1 0 0 1 0 -0 1 0 -0 1 0.13053 0.99144 -0 0.12083 0.99267 -0.00083 0.35544 0.9347 0.00071 0.38268 0.92388 -0.00142 0.56928 0.82214 0.00129 0.60876 0.79335 -0.00194 0.74989 0.66157 0.00176 0.79335 0.60876 -0.00234 0.88669 0.46236 0.00209 0.92388 0.38268 -0.00261 0.97172 0.23615 0.0023 0.99144 0.13053 -0.00276 0.99999 -0.00386 0.00239 0.99144 -0.13053 -0.00279 0.96986 -0.24363 0.00235 0.92388 -0.38268 -0.00269 0.8831 -0.46918 0.00219 0.79335 -0.60876 -0.00246 0.7814 -0.62403 -0.00135 0.70711 -0.70711 0.00048 0.78498 -0.61952 -0 0.61952 -0.78498 -0 0.62403 -0.7814 -0.00135 0.60876 -0.79335 -0.00246 0.48635 -0.87376 0.00164 0.38268 -0.92388 -0.00276 0.30005 -0.95392 0.00138 0.13053 -0.99144 -0.00194 0.10141 -0.99484 -0 -0 -0 1 0 0 1 0 0 1 0 0 1 0 -0 1 0 -0 1 0.70711 0.70711 -0 0.70711 0.70711 -0 0 0 1 0 -0 1 0 -0 1 0 0 1 0 0 1 0 0 1 0 0 1 0 0 1 0 -0 1 0 0 1 0 0 1 -0.70711 -0.70711 0 -0.70711 -0.70711 0 -0 0 1 -0 0 1 -0 -0 1 0 -0 1 0 -0 1 0 -0 1 0 -0 1 0 -0 1 0 1 -0 0 0.25882 0.96593 0 -0.25882 0.96593 -0 -0.25882 0.96593 0 -1 0 0 -1 0 0 -1 -0 -0 -1 0 -0 -1 0 -0 -0.974 -0.22654 -0.01419 -0.97474 -0.22288 0.0135 -0.99701 -0.07609 -0.02699 -0.99753 -0.06491 0.02561 -0.99677 0.07607 -0.03839 -0.99477 0.09462 0.03631 -0.97336 0.22639 0 -0.97141 0.23742 0.00464 -0.96817 0.25025 0 -0.98239 0.18686 -0.02547 -0.98853 0.14883 -0.01623 -0.98943 0.14412 0.00913 -0.99639 0.08435 -0.03256 -0.99842 0.0459 0 -0.99971 0.02427 0 -1 0 0 -1 0 -0 0 -1 0 -0.99462 0.10357 -0 -0.99462 0.10357 0 -0.94832 0.31731 -0 -0.94832 0.31731 0 -0.85667 0.51587 -0 -0.85667 0.51587 0 -0.72404 0.68976 -0 -0.72404 0.68976 0 -0.55678 0.83066 -0 -0.55678 0.83066 0 -0.36289 0.93183 -0 -0.36289 0.93183 -0 -0.25882 0.96593 0 -0.38268 0.92388 -0 -0.38268 0.92388 -0 -0.60876 0.79335 0 -0.60876 0.79335 -0 -0.79335 0.60876 -0 -0.79335 0.60876 -0 -0.92388 0.38268 0 -0.92388 0.38268 -0 -0.99144 0.13053 0 -0.99144 0.13053 -0 -0.99144 -0.13053 0 -0.99144 -0.13053 -0 -0.92388 -0.38268 0 -0.92388 -0.38268 0 -0.79335 -0.60876 -0 -0.79335 -0.60876 -0 -0.60876 -0.79335 0 -0.60876 -0.79335 0 -0.38268 -0.92388 0 -0.38268 -0.92388 0 -0.25882 -0.96593 0 -0.25882 -0.96593 -0 -0.99144 -0.13053 -0 -0.99144 -0.13053 -0 -0.92388 -0.38268 -0 -0.92388 -0.38268 -0 -0.79335 -0.60876 -0 -0.79335 -0.60876 -0 -0.60876 -0.79335 0 -0.60876 -0.79335 0 -0.38268 -0.92388 0 -0.38268 -0.92388 -1 0 -0 -1 0 0 -1 0 -0 -1 0 0 -1 -0 0 -1 -0 0 -1 -0 0 -1 0 0 -1 -0 0 -1 0 0 -1 -0 0 -1 0 0 -1 0 0 -1 0 0 -1 0 0 -1 0 0 -1 0 0 -1 -0 0 -1 -0 0 -1 -0 0 -1 -0 0 -1 -0 -0 -1 0 -0 -1 0 0 -1 0 0 -1 0 0 -1 0 0 -1 0 0 -1 -0 0 -1 -0 0 0 0 -1 -1 0 0 -1 0 0 -1 0 0 -0.5 -0.70711 0.5 -0 -0.42262 0.90631 -0 -0.42262 0.90631 0 -0.42262 0.90631 0 -0.42262 0.90631 0 -0.42262 0.90631 -0 -0.42262 0.90631 -0.70711 0 0.70711 -0.70711 0 0.70711 0 0 1 0 0 1 0.70711 -0 0.70711 0.70711 0 0.70711 0.5 -0.70711 0.5 0.86603 -0.5 0 0.86603 -0.5 0 0.86603 -0.5 0 0.86603 -0.5 0 1 -0 -0 1 -0 0 1 0 -0 1 -0 0 1 0 -0 1 0 -0 -0.93763 -0.34765 0 -0.93763 -0.34765 0 -0.93763 -0.34765 -0 -0 -0.7152 -0.69892 0 -0.7152 -0.69892 0 -0.7152 -0.69892 0 -0.7152 -0.69892 -0 0 -1 -0 0.85714 -0.51509 -0 0.85714 -0.51509 -0 0.92699 -0.37508 -0 0.97415 -0.22589 -0 0.97415 -0.22589 -0 0.92699 -0.37508 -0 1 0 -0 1 0 0 0.25882 0.96593 -0 0.25882 0.96593 -0 1 -0 -0 1 -0 -0 0.96593 -0.25882 -0 0.96593 -0.25882 0 -0.96593 -0.25882 0 -0.96593 -0.25882 -0 0.25882 -0.96593 -0 0.25882 -0.96593 -0 0.96593 0.25882 -0 0.96593 0.25882 0 0.25882 0.96593 0 0.25882 0.96593 -0 1 0 -0 1 0 0 -0.96593 -0.25882 0 -0.96593 -0.25882 0 -0.25882 0.96593 0 -0.25882 0.96593 -0 1 0 -0 1 0 -0 -0.42262 -0.90631 -0 -0.42262 -0.90631 0 -0.70711 0.70711 0 -0.70711 0.70711 -0 0.93011 -0.36729 -0 0.93011 -0.36729 -0 0.82268 -0.56851 -0 0.67244 -0.74015 -0 0.67244 -0.74015 -0 0.82268 -0.56851 -0 0.48723 -0.87328 -0 0.48723 -0.87328 -0 0.27666 -0.96097 -0 0.27666 -0.96097 -0 0.05169 -0.99866 -0 0.05169 -0.99866 -0 -0.17596 -0.9844 -0 -0.17596 -0.9844 -0 -0.33804 -0.94113 -0 -0.33804 -0.94113 -0 -0.54276 -0.83989 0 -0.71917 -0.69483 0 -0.71917 -0.69483 -0 -0.54276 -0.83989 0 -0.85807 -0.51354 0 -0.85807 -0.51354 0 -0.95221 -0.30546 0 -0.95221 -0.30546 0 -0.99668 -0.08144 0 -0.99668 -0.08144 0 -0.98916 0.14682 0 -0.98916 0.14682 0 -0.96593 0.25882 0 -0.96593 0.25882 -0 0 -1 -0 0 -1 -0 1 0 -0 -0.08716 -0.99619 -0 -0.08716 -0.99619 0 -1 0 0 -0.25882 0.96593 0 -0.25882 0.96593 0 -1 0 -0 0 -1 -0 0 -1 -0 0.60562 -0.79575 -0 0.60562 -0.79575 -0 0.9463 0.3233 -0 0.9463 0.3233 -0 0.98648 0.16386 -0 0.98648 0.16386 -0 1 0 -0 0.98648 -0.16386 -0 0.98648 -0.16386 -0 0.9463 -0.3233 -0 0.9463 -0.3233 0 -1 0 0 -1 0 0 -1 0 0 -1 -0 0 0 1 0 0 1 -0 1 0 -0 1 0 1 0 -0 1 0 -0 1 0 -0 1 0 -0 1 0 -0 1 0 -0 1 0 -0 1 0 -0 1 0 -0 1 0 -0 1 0 -0 1 0 -0 0 0 1 0 0 1 0 -0.13053 0.99144 -0.00118 -0.12556 0.99209 0.00116 0.04714 0.99889 0.00087 -0.20039 0.97972 -0.00093 -0.38268 0.92388 0.00074 -0.43557 0.90015 -0.00079 -0.60876 0.79335 0.00059 -0.6439 0.76511 -0.00063 -0.79335 0.60876 0.00042 -0.81255 0.5829 -0.00044 -0.92388 0.38268 0.00022 -0.9311 0.36476 -0.00023 -0.99144 0.13053 0 -0.99227 0.12414 -0.00104 0.1203 0.99274 0.00109 0.29177 0.95649 -0.00097 0.35394 0.93527 0.00101 0.51841 0.85513 -0.00088 0.56709 0.82366 0.00092 0.7131 0.70106 -0.00079 0.74741 0.66436 0.00082 0.86383 0.50378 -0.00068 0.88446 0.46661 0.00071 0.96132 0.27545 -0.00057 0.97031 0.24185 0.00059 0.99955 0.03013 -0.00044 1 0.00308 0.00046 0.97616 -0.21704 -0.0003 0.97179 -0.23586 0.00031 0.89261 -0.45083 -0.00016 0.88732 -0.46115 0.00017 0.75149 -0.65974 -0 0.75404 -0.65683 -0 1 0 -0 1 0 -0 1 -0 -0 1 0 -0 1 0 -0 0.92111 0.3893 -0 0.92111 0.3893 -0 -0 1 1 0 -0 0 -1 0 -1 -0 0 -0 0.9155 0.40232 -0 0.9155 0.40232 0 0 1 0 0 1 0 0 1 0 0 1 0 0 1 0 0 1 -1 -0 0 -1 -0 0 -1 -0 0 -1 -0 0 -1 -0 0 -1 -0 0 0 -0.20791 0.97815 0 -0.20791 0.97815 0 -0.20791 0.97815 0 -0.20791 0.97815 0 -0.20791 0.97815 0 -0.20791 0.97815 0 -0.20791 0.97815 0 -0.20791 0.97815 -1 -0 0 -1 -0 0 0 -0.99619 -0.08716 0 -0.99619 -0.08716 -0.05823 -0.9945 -0.08701 -0.11564 -0.98944 -0.08742 -0.1739 -0.98102 -0.08582 -0.28702 -0.95428 -0.0835 -0.34073 -0.93647 -0.08321 -0.4312 -0.8989 -0.07779 -0.54761 -0.83345 -0.07406 -0.59591 -0.80005 -0.06942 -0.72521 -0.68585 -0.06072 -0.73861 -0.67157 -0.05875 -0.28721 -0.95422 -0.08348 0.99144 -0.13003 -0.01138 0.99528 -0.09651 -0.01063 0.96563 -0.25903 -0.02161 0.92383 -0.38121 -0.0349 0.88888 -0.45646 -0.03909 0.79331 -0.60641 -0.05417 0.77201 -0.63321 -0.05521 0.65934 -0.74897 -0.06564 0.62017 -0.78157 -0.06732 0.55556 -0.82829 -0.07281 0.44039 -0.89445 -0.07761 0.44231 -0.89351 -0.07746 0.32143 -0.9433 -0.08289 0.28721 -0.95422 -0.08348 0.29095 -0.95311 -0.08321 0.17391 -0.98099 -0.08609 0.19509 -0.97706 -0.08535 0.05823 -0.9945 -0.08701 0.0654 -0.99405 -0.08708 -0 -0.99619 -0.08716 0 -0.99619 -0.08716 1 0 -0 0 -0.30902 0.95106 0 -0.30902 0.95106 0 -0.30902 0.95106 0 -0.30902 0.95106 0 -0.30902 0.95106 0 -0.30902 0.95106 0 -0.30902 0.95106 -0 -0.30902 0.95106 0 -0.30902 0.95106 0 -0.30902 0.95106 0 -0.30902 0.95106 0 -0.30902 0.95106 -0 -0.30902 0.95106 0 -0.30902 0.95106 -0.28721 0.91099 0.296 -0.28702 0.91104 0.29601 -0.34089 0.89445 0.28942 -0.1739 0.93656 0.30432 -0.11568 0.94491 0.3062 -0.05823 0.94944 0.30849 -0.43121 0.85786 0.27954 -0.54781 0.79598 0.25754 -0.59591 0.76358 0.24865 -0.72535 0.65489 0.2121 -0.73861 0.64114 0.20832 -0 0.95106 0.30902 -0 0.95106 0.30902 0 -1 0 1 0 -0 1 0 -0 0 -0.20791 0.97815 0 -0.20791 0.97815 0 -0.20791 0.97815 0 -0.20791 0.97815 0 -0.20791 0.97815 0 -0.20791 0.97815 0 -0.20791 0.97815 0 -0.20791 0.97815 0 -0.20791 0.97815 -0.12083 -0.99267 0 -0.13053 -0.99144 -0.00077 -0.35544 -0.9347 0.00071 -0.38268 -0.92388 -0.00142 -0.56928 -0.82214 0.00129 -0.60876 -0.79335 -0.00194 -0.74989 -0.66157 0.00176 -0.79335 -0.60876 -0.00234 -0.88669 -0.46236 0.00209 -0.92388 -0.38268 -0.00261 -0.97172 -0.23615 0.0023 -0.99144 -0.13053 -0.00276 -0.99999 0.00386 0.00239 -0.99144 0.13053 -0.00279 -0.96986 0.24363 0.00235 -0.92388 0.38268 -0.00269 -0.8831 0.46918 0.00219 -0.79335 0.60876 -0.00246 -0.78498 0.61952 0 -0.7814 0.62403 -0.00135 -0.70711 0.70711 0.00048 -0.62403 0.7814 -0.00135 -0.60876 0.79335 -0.00246 -0.48635 0.87376 0.00164 -0.38268 0.92388 -0.00276 -0.30005 0.95392 0.00138 -0.13053 0.99144 -0.00194 -0.10141 0.99484 0 -0.61952 0.78498 0</float_array>
          <technique_common>
            <accessor source="#norm_0-array" count="2370" stride="3">
              <param name="X" type="float"/>
              <param name="Y" type="float"/>
              <param name="Z" type="float"/>
            </accessor>
          </technique_common>
        </source>
        <source id="uvs_0">
          <float_array id="uvs_0-array" count="0"></float_array>
          <technique_common>
            <accessor source="#uvs_0-array" count="0" stride="2">
              <param name="S" type="float"/>
              <param name="T" type="float"/>
            </accessor>
          </technique_common>
        </source>
        <vertices id="vert_0">
          <input semantic="POSITION" source="#pos_0"/>
        </vertices>
        <triangles count="930" material="mat_0">
          <input semantic="VERTEX" source="#vert_0" offset="0"/>
          <input semantic="NORMAL" source="#norm_0" offset="1"/>
          <p>0 0 1 0 2 0 2 0 1 0 3 0 2 0 3 0 4 0 4 1 3 1 5 1 4 2 5 2 6 2 7 0 8 0 3 0 3 0 8 0 9 0 3 3 9 3 10 3 10 4 9 4 11 4 10 5 11 5 12 5 7 0 13 0 8 0 14 0 15 0 16 0 16 0 15 0 17 0 16 0 17 0 18 0 18 0 17 0 19 0 18 0 19 0 9 0 9 0 19 0 20 0 9 0 20 0 11 0 16 0 21 0 14 0 22 6 23 6 24 6 24 7 23 7 25 7 24 8 25 8 19 8 19 9 25 9 26 9 19 10 26 10 27 10 28 0 29 0 24 0 24 11 29 11 30 11 24 12 30 12 31 12 28 0 32 0 29 0 33 0 34 0 29 0 29 0 34 0 35 0 29 13 35 13 36 13 36 14 35 14 37 14 38 0 39 0 40 0 40 0 39 0 41 0 40 0 41 0 35 0 35 0 41 0 42 0 35 15 42 15 37 15 37 16 42 16 43 16 38 0 44 0 39 0 45 0 46 0 47 0 47 17 46 17 48 17 47 18 48 18 42 18 42 19 48 19 49 19 42 20 49 20 43 20 48 21 50 21 49 21 49 22 50 22 51 22 49 23 51 23 52 23 52 24 53 24 49 24 36 25 30 25 29 25 31 26 54 26 24 26 24 0 54 0 55 0 24 27 55 27 56 27 56 28 55 28 57 28 55 29 58 29 57 29 57 30 58 30 59 30 58 31 60 31 59 31 59 32 60 32 61 32 60 33 62 33 61 33 61 34 62 34 63 34 64 35 65 35 62 35 62 36 65 36 66 36 62 37 66 37 63 37 64 38 67 38 65 38 65 39 67 39 68 39 65 40 68 40 69 40 67 41 70 41 68 41 68 42 70 42 71 42 70 43 72 43 71 43 71 44 72 44 73 44 71 45 73 45 74 45 74 46 75 46 71 46 71 47 75 47 76 47 69 48 77 48 65 48 65 49 77 49 78 49 79 50 80 50 81 50 81 0 80 0 82 0 81 0 82 0 65 0 65 51 82 51 83 51 65 52 83 52 66 52 79 53 81 53 84 53 84 0 81 0 85 0 84 0 85 0 86 0 86 0 85 0 87 0 86 54 87 54 88 54 88 55 87 55 89 55 87 56 90 56 89 56 88 57 91 57 86 57 86 58 91 58 92 58 91 59 93 59 92 59 92 60 93 60 94 60 93 61 95 61 94 61 94 62 95 62 96 62 95 63 97 63 96 63 96 64 97 64 98 64 97 65 99 65 98 65 98 66 99 66 100 66 99 67 101 67 100 67 100 68 101 68 102 68 79 69 103 69 80 69 80 70 103 70 104 70 80 71 104 71 105 71 105 72 106 72 80 72 56 73 107 73 24 73 24 74 107 74 22 74 19 75 27 75 20 75 20 76 27 76 108 76 20 77 108 77 109 77 110 78 111 78 109 78 109 79 111 79 20 79 112 0 113 0 114 0 114 0 113 0 115 0 114 0 115 0 116 0 116 0 115 0 117 0 116 0 117 0 12 0 12 0 117 0 118 0 12 80 118 80 119 80 119 81 118 81 120 81 119 82 121 82 12 82 12 83 121 83 10 83 10 84 5 84 3 84 4 85 6 85 122 85 122 86 6 86 123 86 122 0 123 0 124 0 2 0 125 0 0 0 0 0 125 0 126 0 125 0 127 0 126 0 128 87 129 87 130 87 130 87 129 87 131 87 130 87 131 87 132 87 132 87 131 87 133 87 132 87 133 87 134 87 130 87 135 87 128 87 128 88 135 88 136 88 128 89 136 89 137 89 136 90 135 90 138 90 138 91 135 91 139 91 138 92 139 92 140 92 140 87 139 87 141 87 142 93 143 93 137 93 137 94 143 94 144 94 137 95 144 95 145 95 145 87 144 87 146 87 145 87 146 87 147 87 147 96 146 96 148 96 147 97 148 97 149 97 142 98 150 98 143 98 143 99 150 99 151 99 143 87 151 87 152 87 150 100 153 100 151 100 143 87 152 87 154 87 154 87 152 87 155 87 154 87 155 87 156 87 156 87 155 87 157 87 156 87 157 87 158 87 159 101 160 101 146 101 146 102 160 102 161 102 146 103 161 103 148 103 159 104 162 104 160 104 149 105 163 105 147 105 147 106 163 106 164 106 163 107 165 107 164 107 164 108 165 108 166 108 164 109 166 109 167 109 167 110 168 110 164 110 164 111 168 111 169 111 164 112 169 112 170 112 164 113 170 113 171 113 171 114 170 114 172 114 171 115 172 115 173 115 173 116 172 116 174 116 173 117 174 117 175 117 175 118 174 118 176 118 172 119 177 119 174 119 174 120 177 120 178 120 174 121 178 121 179 121 179 122 180 122 174 122 174 87 180 87 181 87 180 87 182 87 181 87 181 123 182 123 183 123 181 124 183 124 184 124 185 125 186 125 182 125 182 126 186 126 187 126 182 127 187 127 188 127 188 128 183 128 182 128 184 87 189 87 181 87 181 87 189 87 190 87 191 129 192 129 189 129 189 130 192 130 193 130 189 131 193 131 194 131 194 132 195 132 189 132 189 133 195 133 190 133 174 87 196 87 176 87 164 134 171 134 197 134 197 135 171 135 198 135 197 136 198 136 199 136 199 137 198 137 200 137 199 87 200 87 201 87 202 87 203 87 204 87 204 87 203 87 205 87 204 87 205 87 206 87 206 87 205 87 207 87 206 87 207 87 197 87 197 87 207 87 208 87 197 87 208 87 164 87 164 87 208 87 209 87 207 87 210 87 208 87 208 87 210 87 211 87 208 87 212 87 209 87 145 87 147 87 213 87 213 87 147 87 214 87 213 87 214 87 215 87 215 87 214 87 216 87 215 87 216 87 217 87 217 87 218 87 215 87 137 138 145 138 128 138 128 87 145 87 219 87 128 87 219 87 220 87 220 87 219 87 221 87 133 139 131 139 126 139 126 140 131 140 0 140 127 141 134 141 126 141 126 142 134 142 133 142 222 143 223 143 224 143 224 144 223 144 225 144 223 145 226 145 225 145 225 146 226 146 227 146 228 147 229 147 226 147 226 148 229 148 227 148 230 149 231 149 232 149 232 150 231 150 233 150 232 151 233 151 234 151 234 152 233 152 235 152 234 153 235 153 236 153 236 154 235 154 237 154 236 155 237 155 238 155 238 156 237 156 239 156 238 157 239 157 229 157 229 158 239 158 240 158 229 159 240 159 227 159 230 160 241 160 231 160 231 161 241 161 242 161 243 162 244 162 245 162 245 163 244 163 1 163 246 164 3 164 244 164 244 165 3 165 1 165 247 166 248 166 249 166 249 167 248 167 250 167 248 168 251 168 250 168 250 169 251 169 252 169 253 170 249 170 254 170 254 171 249 171 250 171 255 172 256 172 243 172 243 173 256 173 257 173 243 174 257 174 258 174 258 175 257 175 259 175 258 176 259 176 260 176 255 177 261 177 256 177 260 178 224 178 258 178 258 179 224 179 262 179 224 180 225 180 262 180 262 181 225 181 227 181 262 182 227 182 240 182 240 183 239 183 262 183 262 184 239 184 237 184 262 185 237 185 263 185 263 186 237 186 235 186 263 187 235 187 233 187 233 188 231 188 263 188 263 189 231 189 242 189 263 190 242 190 264 190 263 191 264 191 265 191 265 192 264 192 266 192 265 193 266 193 267 193 267 194 268 194 265 194 265 195 268 195 269 195 265 196 269 196 270 196 270 197 271 197 265 197 265 198 271 198 272 198 265 199 272 199 273 199 273 200 274 200 265 200 265 201 274 201 275 201 274 202 276 202 275 202 275 203 276 203 277 203 275 204 277 204 278 204 278 205 279 205 275 205 275 206 279 206 280 206 279 207 281 207 280 207 263 208 247 208 262 208 262 209 247 209 282 209 247 210 249 210 282 210 282 211 249 211 283 211 249 212 253 212 283 212 283 213 253 213 244 213 283 214 244 214 258 214 258 215 244 215 243 215 282 216 284 216 262 216 262 217 284 217 285 217 284 218 286 218 285 218 283 219 258 219 287 219 287 220 258 220 288 220 287 221 288 221 289 221 283 222 287 222 282 222 282 223 287 223 284 223 286 224 284 224 289 224 289 225 284 225 287 225 285 226 286 226 288 226 288 227 286 227 289 227 285 228 288 228 262 228 262 229 288 229 258 229 260 230 290 230 224 230 224 231 290 231 222 231 263 232 291 232 247 232 247 233 291 233 129 233 247 234 129 234 128 234 128 235 248 235 247 235 7 236 220 236 13 236 13 237 220 237 221 237 244 238 253 238 246 238 246 239 253 239 254 239 246 240 254 240 292 240 292 241 254 241 293 241 248 242 128 242 251 242 251 242 128 242 220 242 251 243 220 243 7 243 251 244 7 244 292 244 292 242 7 242 3 242 292 242 3 242 246 242 252 245 251 245 293 245 293 246 251 246 292 246 254 247 250 247 293 247 293 248 250 248 252 248 13 249 221 249 8 249 8 249 221 249 219 249 8 250 219 250 9 250 9 250 219 250 145 250 9 251 145 251 18 251 18 252 145 252 213 252 213 253 215 253 18 253 18 254 215 254 16 254 16 255 215 255 21 255 21 255 215 255 218 255 14 256 217 256 15 256 15 257 217 257 216 257 294 258 295 258 296 258 296 259 295 259 297 259 298 260 294 260 299 260 299 260 294 260 296 260 298 261 300 261 294 261 294 262 300 262 295 262 300 263 301 263 295 263 295 263 301 263 297 263 19 264 17 264 301 264 301 265 17 265 214 265 301 266 214 266 299 266 299 267 214 267 147 267 296 268 297 268 299 268 299 269 297 269 301 269 15 270 216 270 17 270 17 271 216 271 214 271 299 272 147 272 298 272 298 273 147 273 164 273 298 274 164 274 302 274 302 275 164 275 303 275 302 276 304 276 298 276 298 277 304 277 300 277 305 272 24 272 304 272 304 278 24 278 300 278 24 279 19 279 300 279 300 280 19 280 301 280 47 281 199 281 45 281 45 281 199 281 201 281 41 282 206 282 42 282 42 282 206 282 197 282 39 283 204 283 41 283 41 283 204 283 206 283 38 284 203 284 44 284 44 284 203 284 202 284 40 282 205 282 38 282 38 282 205 282 203 282 40 242 35 242 205 242 205 242 35 242 207 242 34 285 210 285 35 285 35 286 210 286 207 286 306 287 307 287 34 287 34 288 307 288 308 288 34 289 308 289 210 289 210 290 308 290 309 290 210 291 309 291 310 291 311 292 312 292 33 292 33 293 312 293 313 293 33 294 313 294 34 294 34 295 313 295 314 295 34 296 314 296 315 296 316 297 317 297 211 297 211 298 317 298 318 298 211 299 318 299 33 299 33 300 318 300 319 300 33 301 319 301 320 301 321 302 322 302 210 302 210 303 322 303 323 303 210 304 323 304 211 304 211 305 323 305 324 305 211 306 324 306 325 306 310 307 326 307 210 307 210 308 326 308 327 308 210 309 327 309 321 309 325 310 316 310 211 310 320 311 328 311 33 311 33 312 328 312 311 312 315 313 329 313 34 313 34 314 329 314 306 314 308 315 330 315 309 315 309 316 330 316 331 316 309 317 331 317 332 317 309 318 332 318 310 318 310 319 332 319 333 319 310 320 333 320 326 320 326 321 333 321 334 321 326 322 334 322 327 322 327 323 334 323 335 323 327 324 335 324 321 324 321 325 335 325 336 325 321 326 336 326 322 326 322 327 336 327 337 327 322 328 337 328 323 328 323 329 337 329 338 329 323 330 338 330 324 330 324 331 338 331 339 331 324 332 339 332 325 332 325 333 339 333 340 333 325 334 340 334 341 334 339 335 342 335 340 335 343 336 344 336 341 336 341 337 344 337 325 337 325 338 344 338 316 338 316 339 344 339 345 339 316 340 345 340 317 340 317 341 345 341 346 341 317 342 346 342 318 342 318 343 346 343 347 343 348 344 349 344 342 344 342 345 349 345 350 345 342 346 350 346 351 346 351 347 343 347 342 347 342 348 343 348 340 348 343 349 341 349 340 349 352 350 348 350 339 350 339 351 348 351 342 351 353 352 354 352 344 352 344 353 354 353 355 353 344 354 355 354 356 354 356 355 357 355 344 355 344 356 357 356 358 356 344 357 358 357 359 357 359 358 360 358 344 358 344 359 360 359 345 359 360 360 361 360 345 360 345 361 361 361 346 361 361 362 347 362 346 362 353 363 344 363 351 363 351 364 344 364 343 364 338 365 337 365 339 365 339 366 337 366 336 366 339 367 336 367 335 367 335 368 334 368 339 368 339 369 334 369 333 369 339 370 333 370 352 370 352 371 333 371 332 371 352 372 332 372 362 372 362 360 332 360 331 360 362 361 331 361 363 361 363 362 331 362 330 362 29 242 32 242 208 242 208 242 32 242 212 242 29 373 208 373 33 373 33 373 208 373 211 373 44 281 202 281 39 281 39 281 202 281 204 281 47 374 42 374 199 374 199 374 42 374 197 374 45 375 201 375 46 375 46 376 201 376 200 376 364 377 365 377 198 377 198 377 365 377 200 377 365 378 366 378 200 378 200 379 366 379 46 379 367 380 48 380 366 380 366 381 48 381 46 381 198 382 171 382 364 382 364 383 171 383 368 383 171 384 173 384 368 384 368 385 173 385 369 385 173 386 175 386 369 386 369 387 175 387 370 387 175 388 176 388 370 388 370 389 176 389 77 389 370 390 77 390 69 390 370 391 69 391 371 391 371 392 69 392 68 392 371 393 68 393 372 393 372 394 68 394 373 394 68 395 71 395 373 395 373 396 71 396 374 396 77 397 176 397 78 397 78 398 176 398 196 398 78 399 196 399 65 399 65 399 196 399 174 399 374 400 71 400 375 400 375 401 71 401 76 401 375 402 76 402 75 402 375 403 75 403 376 403 376 404 75 404 74 404 376 405 74 405 377 405 377 406 74 406 378 406 74 407 73 407 378 407 378 408 73 408 72 408 378 409 72 409 379 409 379 410 72 410 380 410 72 411 70 411 380 411 67 375 381 375 70 375 70 412 381 412 380 412 67 413 64 413 381 413 381 414 64 414 382 414 382 415 64 415 383 415 383 416 64 416 62 416 383 417 62 417 60 417 383 418 60 418 384 418 384 419 60 419 58 419 384 420 58 420 385 420 385 421 58 421 386 421 58 422 55 422 386 422 55 377 54 377 386 377 386 377 54 377 387 377 387 423 54 423 388 423 388 424 54 424 31 424 388 425 31 425 30 425 388 426 30 426 389 426 389 427 30 427 36 427 389 428 36 428 390 428 390 429 36 429 37 429 390 430 37 430 391 430 391 431 37 431 392 431 37 432 43 432 392 432 43 433 49 433 392 433 392 434 49 434 393 434 48 435 367 435 50 435 50 436 367 436 394 436 50 437 394 437 395 437 50 438 395 438 51 438 51 439 395 439 396 439 51 440 396 440 52 440 52 441 396 441 397 441 52 442 397 442 53 442 53 443 397 443 49 443 397 444 393 444 49 444 371 445 372 445 398 445 398 446 372 446 381 446 398 447 381 447 382 447 372 448 373 448 381 448 381 449 373 449 380 449 373 450 374 450 380 450 380 451 374 451 379 451 375 452 376 452 374 452 374 453 376 453 377 453 374 454 377 454 378 454 378 455 379 455 374 455 382 456 383 456 398 456 398 457 383 457 384 457 398 458 384 458 385 458 385 459 386 459 398 459 398 460 386 460 399 460 386 461 387 461 399 461 399 462 387 462 388 462 399 463 388 463 389 463 389 464 390 464 399 464 399 465 390 465 391 465 399 466 391 466 400 466 400 467 391 467 392 467 400 468 392 468 393 468 397 469 367 469 393 469 393 470 367 470 366 470 393 471 366 471 400 471 397 472 396 472 367 472 367 473 396 473 395 473 367 474 395 474 394 474 401 475 402 475 403 475 403 475 402 475 404 475 403 475 404 475 405 475 406 476 407 476 402 476 402 476 407 476 404 476 408 477 409 477 407 477 407 478 409 478 404 478 410 479 408 479 411 479 411 479 408 479 407 479 370 480 371 480 412 480 412 481 371 481 398 481 412 482 398 482 413 482 413 483 398 483 414 483 398 484 410 484 414 484 414 485 410 485 411 485 415 0 416 0 403 0 403 0 416 0 401 0 402 377 401 377 406 377 406 377 401 377 416 377 406 377 416 377 417 377 417 377 416 377 418 377 417 486 411 486 406 486 406 487 411 487 407 487 414 488 411 488 418 488 418 489 411 489 417 489 416 490 415 490 418 490 418 491 415 491 414 491 413 492 414 492 415 492 412 493 413 493 419 493 419 494 413 494 405 494 413 495 415 495 405 495 405 496 415 496 403 496 369 497 412 497 368 497 368 498 412 498 419 498 368 499 419 499 364 499 364 0 419 0 420 0 364 0 420 0 365 0 369 500 370 500 412 500 420 475 400 475 365 475 365 475 400 475 366 475 421 501 229 501 422 501 422 502 229 502 228 502 399 503 409 503 398 503 398 504 409 504 408 504 398 505 408 505 410 505 404 506 409 506 405 506 405 507 409 507 399 507 405 508 399 508 419 508 419 509 399 509 400 509 419 506 400 506 420 506 84 510 184 510 79 510 79 510 184 510 183 510 79 511 183 511 103 511 103 512 183 512 188 512 103 513 188 513 187 513 186 514 105 514 187 514 187 515 105 515 104 515 187 516 104 516 103 516 186 517 185 517 105 517 105 518 185 518 106 518 185 519 182 519 106 519 106 520 182 520 80 520 182 521 180 521 80 521 80 522 180 522 82 522 82 523 180 523 83 523 83 524 180 524 179 524 125 525 132 525 127 525 127 526 132 526 134 526 2 527 130 527 125 527 125 528 130 528 132 528 135 529 130 529 4 529 4 530 130 530 2 530 140 531 141 531 123 531 123 532 141 532 124 532 138 533 140 533 6 533 6 534 140 534 123 534 124 535 141 535 122 535 122 536 141 536 139 536 122 537 139 537 4 537 4 538 139 538 135 538 151 539 153 539 118 539 118 540 153 540 120 540 113 541 157 541 115 541 115 542 157 542 155 542 114 543 156 543 112 543 112 544 156 544 158 544 83 545 179 545 66 545 66 546 179 546 178 546 66 547 178 547 177 547 172 548 61 548 177 548 177 549 61 549 63 549 177 550 63 550 66 550 172 551 170 551 61 551 61 552 170 552 59 552 170 553 169 553 59 553 59 554 169 554 57 554 57 555 169 555 56 555 56 556 169 556 168 556 56 557 168 557 167 557 167 558 107 558 56 558 107 559 167 559 22 559 22 560 167 560 166 560 22 561 166 561 165 561 163 562 25 562 165 562 165 563 25 563 23 563 165 564 23 564 22 564 163 565 149 565 25 565 25 566 149 566 26 566 149 567 148 567 26 567 26 568 148 568 27 568 27 569 148 569 108 569 108 570 148 570 161 570 108 571 161 571 160 571 160 572 109 572 108 572 109 573 160 573 110 573 110 574 160 574 162 574 159 575 111 575 162 575 162 576 111 576 110 576 20 577 111 577 146 577 146 577 111 577 159 577 20 399 146 399 11 399 11 399 146 399 144 399 11 578 144 578 12 578 12 579 144 579 143 579 12 580 143 580 116 580 116 580 143 580 154 580 116 581 154 581 114 581 114 582 154 582 156 582 112 583 158 583 113 583 113 583 158 583 157 583 155 584 152 584 115 584 115 585 152 585 117 585 117 586 152 586 118 586 118 587 152 587 151 587 153 588 150 588 120 588 120 589 150 589 119 589 150 590 142 590 119 590 119 591 142 591 121 591 121 592 142 592 10 592 10 592 142 592 137 592 10 593 137 593 136 593 10 594 136 594 5 594 5 595 136 595 138 595 5 596 138 596 6 596 81 597 65 597 423 597 423 598 65 598 174 598 423 599 174 599 181 599 423 600 424 600 81 600 81 601 424 601 85 601 85 602 424 602 425 602 85 603 425 603 87 603 87 604 425 604 426 604 427 605 428 605 423 605 423 606 428 606 429 606 423 607 429 607 430 607 430 608 431 608 423 608 423 609 431 609 432 609 423 610 432 610 433 610 433 611 434 611 423 611 423 612 434 612 424 612 434 613 435 613 424 613 424 614 435 614 436 614 424 615 436 615 425 615 425 616 436 616 426 616 423 617 181 617 427 617 427 618 181 618 190 618 190 619 195 619 427 619 427 620 195 620 102 620 427 621 102 621 101 621 102 622 195 622 100 622 100 623 195 623 194 623 100 624 194 624 98 624 98 625 194 625 193 625 98 626 193 626 96 626 96 627 193 627 192 627 96 628 192 628 94 628 94 629 192 629 191 629 94 630 191 630 92 630 92 631 191 631 189 631 92 632 189 632 86 632 427 633 101 633 428 633 428 634 101 634 99 634 428 635 99 635 429 635 429 636 99 636 97 636 429 637 97 637 430 637 430 638 97 638 95 638 430 639 95 639 431 639 431 640 95 640 93 640 431 641 93 641 432 641 432 642 93 642 91 642 432 643 91 643 433 643 433 644 91 644 88 644 433 645 88 645 434 645 434 646 88 646 89 646 434 647 89 647 435 647 435 648 89 648 90 648 435 649 90 649 436 649 436 650 90 650 426 650 90 651 87 651 426 651 86 398 189 398 84 398 84 398 189 398 184 398 164 652 209 652 303 652 303 653 209 653 28 653 303 654 28 654 305 654 305 652 28 652 24 652 305 655 437 655 303 655 303 656 437 656 438 656 209 657 212 657 28 657 28 658 212 658 32 658 437 659 439 659 438 659 438 659 439 659 440 659 303 660 438 660 302 660 302 660 438 660 440 660 302 661 440 661 304 661 304 661 440 661 439 661 305 662 304 662 437 662 437 662 304 662 439 662 218 663 217 663 21 663 21 664 217 664 14 664 245 665 1 665 441 665 441 666 1 666 0 666 441 667 0 667 131 667 441 668 131 668 442 668 442 669 131 669 129 669 442 670 129 670 291 670 443 671 444 671 280 671 280 672 444 672 255 672 280 673 255 673 245 673 245 674 255 674 243 674 245 675 441 675 280 675 280 676 441 676 275 676 443 677 445 677 444 677 444 678 445 678 446 678 446 679 445 679 447 679 447 680 445 680 448 680 447 681 448 681 449 681 449 682 448 682 450 682 449 683 450 683 451 683 451 684 450 684 452 684 453 685 451 685 454 685 454 686 451 686 452 686 443 687 280 687 445 687 445 688 280 688 281 688 455 689 456 689 276 689 276 690 456 690 277 690 456 691 457 691 277 691 277 692 457 692 452 692 277 693 452 693 278 693 278 694 452 694 450 694 278 695 450 695 279 695 279 696 450 696 448 696 279 697 448 697 281 697 281 698 448 698 445 698 457 699 454 699 452 699 264 700 241 700 266 700 266 701 241 701 230 701 266 702 230 702 458 702 266 703 458 703 267 703 267 704 458 704 459 704 267 705 459 705 268 705 268 706 459 706 460 706 268 707 460 707 269 707 269 708 460 708 461 708 269 709 461 709 270 709 270 710 461 710 421 710 270 711 421 711 271 711 271 712 421 712 272 712 422 713 462 713 421 713 421 714 462 714 272 714 462 715 463 715 272 715 272 716 463 716 273 716 464 717 274 717 463 717 463 718 274 718 273 718 276 719 274 719 455 719 455 720 274 720 464 720 264 721 242 721 241 721 453 722 454 722 465 722 465 723 454 723 457 723 465 724 457 724 466 724 466 725 457 725 456 725 466 726 456 726 290 726 290 727 456 727 455 727 290 728 455 728 464 728 290 729 464 729 222 729 222 730 464 730 463 730 222 731 463 731 223 731 223 732 463 732 462 732 223 733 462 733 226 733 226 734 462 734 422 734 226 735 422 735 228 735 453 736 465 736 451 736 451 737 465 737 259 737 451 738 259 738 257 738 465 739 466 739 259 739 259 740 466 740 260 740 466 741 290 741 260 741 451 742 257 742 449 742 449 743 257 743 256 743 449 744 256 744 447 744 447 745 256 745 261 745 447 746 261 746 446 746 255 747 444 747 261 747 261 748 444 748 446 748 275 749 441 749 265 749 265 749 441 749 442 749 263 750 265 750 291 750 291 751 265 751 442 751 230 752 232 752 458 752 458 753 232 753 234 753 458 754 234 754 459 754 459 755 234 755 236 755 459 756 236 756 460 756 460 757 236 757 238 757 460 758 238 758 461 758 461 759 238 759 229 759 461 760 229 760 421 760 347 761 361 761 318 761 318 762 361 762 319 762 361 763 360 763 319 763 319 764 360 764 320 764 360 765 359 765 320 765 320 766 359 766 328 766 359 767 358 767 328 767 328 768 358 768 311 768 358 769 357 769 311 769 311 770 357 770 312 770 357 771 356 771 312 771 312 772 356 772 313 772 356 773 355 773 313 773 313 774 355 774 314 774 355 775 354 775 314 775 314 776 354 776 315 776 354 777 353 777 315 777 315 778 353 778 329 778 351 779 350 779 353 779 353 780 350 780 329 780 350 781 349 781 329 781 329 782 349 782 352 782 329 783 352 783 306 783 306 784 352 784 362 784 306 785 362 785 307 785 307 786 362 786 363 786 307 787 363 787 308 787 308 788 363 788 330 788 349 789 348 789 352 789</p>
        </triangles>
      </mesh>
    </geometry>
  </library_geometries>
  <library_visual_scenes>
    <visual_scene id="DefaultScene">
      <node id="node_273cd1ba_e08e_4ca3_9d46_287cff2ec897" type="NODE">
        <matrix>1 0 0 0 0 1 0 0 0 0 1 0 0 0 0 1</matrix>
        <node id="node_bc2256d8_2f5d_4d84_a768_c083482c6c55" type="NODE">
          <matrix>1 0 0 0 0 1 0 0 0 0 1 0 0 0 0 1</matrix>
          <node id="node_bc2256d8_2f5d_4d84_a768_c083482c6c55_mesh0" type="NODE">
            <matrix>1 0 0 0 0 1 0 0 0 0 1 0 0 0 0 1</matrix>
            <instance_geometry url="#geometry_48eef35d_5bb2_4d59_8320_ccca2e112700">
              <bind_material>
                <technique_common>
                  <instance_material symbol="mat_0" target="#mat_0"/>
                </technique_common>
              </bind_material>
            </instance_geometry>
          </node>
        </node>
      </node>
    </visual_scene>
  </library_visual_scenes>
  <scene>
    <instance_visual_scene url="#DefaultScene"/>
  </scene>
</COLLADA>
