<?xml version="1.0" encoding="UTF-8"?>
<COLLADA xmlns="http://www.collada.org/2005/11/COLLADASchema" version="1.4.1">
<!--
# File generated by ImageToStl.com - Free Image and 3D model conversion tools
-->
  <asset>
    <contributor>
      <author>ImageToStl.com</author>
      <authoring_tool>ImageToStl.com</authoring_tool>
    </contributor>
    <created>2025-07-02T09:04:25</created>
    <modified>2025-07-02T09:04:25</modified>
    <up_axis>Z_UP</up_axis>
  </asset>
  <library_effects>
    <effect id="effect_0">
        <profile_COMMON>
          <technique sid="common">
            <phong>
              <diffuse>
                <color>0.62745 0.62745 0.62745 1</color>
              </diffuse>
              <specular>
                <color>0.05 0.05 0.05 1</color>
              </specular>
              <shininess>
                <float>64</float>
              </shininess>
              <transparency>
                <float>1</float>
              </transparency>
            </phong>
          </technique>
        </profile_COMMON>
    </effect>
  </library_effects>
  <library_materials>
    <material id="mat_0">
      <instance_effect url="#effect_0"/>
    </material>
  </library_materials>
  <library_geometries>
    <geometry id="geometry_c02a5050_0d72_4505_b409_4cf140e5096c">
      <mesh>
        <source id="pos_0">
          <float_array id="pos_0-array" count="96">27 5 500 32 5 500 27 0 500 32 0 500 27 0 600 27 5 600 32 5 600 -5 5 600 0 5 500 -5 5 500 0 5 600 0 0 500 0 0 600 -5 0 500 0 0 100 27 0 100 27 0 0 0 0 0 32 0 100 -5 0 100 -5 -5 600 32 -5 600 32 -5 0 32 5 0 32 5 100 -5 5 100 -5 5 0 -5 -5 0 0 5 0 27 5 0 0 5 100 27 5 100</float_array>
          <technique_common>
            <accessor source="#pos_0-array" count="96" stride="3">
              <param name="X" type="float"/>
              <param name="Y" type="float"/>
              <param name="Z" type="float"/>
            </accessor>
          </technique_common>
        </source>
        <source id="uvs_0">
          <float_array id="uvs_0-array" count="0"></float_array>
          <technique_common>
            <accessor source="#uvs_0-array" count="0" stride="2">
              <param name="S" type="float"/>
              <param name="T" type="float"/>
            </accessor>
          </technique_common>
        </source>
        <vertices id="vert_0">
          <input semantic="POSITION" source="#pos_0"/>
        </vertices>
        <triangles count="60" material="mat_0">
          <input semantic="VERTEX" source="#vert_0" offset="0"/>
          <p>0 1 2 2 1 3 4 0 2 4 5 0 5 1 0 5 6 1 7 8 9 7 10 8 10 11 8 10 12 11 9 8 13 13 8 11 14 15 16 14 16 17 2 3 18 2 18 15 11 15 14 11 2 15 13 14 19 13 11 14 4 2 11 12 4 11 7 20 12 10 7 12 21 4 12 21 12 20 6 5 4 6 4 21 18 22 23 24 18 23 6 3 1 6 21 3 21 22 18 21 18 3 19 25 26 19 26 27 7 9 13 20 7 13 27 20 13 27 13 19 27 26 17 26 28 17 16 22 17 17 22 27 29 23 16 16 23 22 30 19 14 30 25 19 15 29 16 15 31 29 31 23 29 31 24 23 21 20 27 21 27 22 25 28 26 25 30 28 30 17 28 30 14 17 24 15 18 24 31 15</p>
        </triangles>
      </mesh>
    </geometry>
  </library_geometries>
  <library_visual_scenes>
    <visual_scene id="DefaultScene">
      <node id="node_4a2a8377_8f61_42cc_a8de_efc56a837597" type="NODE">
        <matrix>1 0 0 0 0 1 0 0 0 0 1 0 0 0 0 1</matrix>
        <node id="node_5203e180_4d74_4bfc_ab31_524c23813240" type="NODE">
          <matrix>1 0 0 0 0 1 0 0 0 0 1 0 0 0 0 1</matrix>
          <node id="node_5203e180_4d74_4bfc_ab31_524c23813240_mesh0" type="NODE">
            <matrix>1 0 0 0 0 1 0 0 0 0 1 0 0 0 0 1</matrix>
            <instance_geometry url="#geometry_c02a5050_0d72_4505_b409_4cf140e5096c">
              <bind_material>
                <technique_common>
                  <instance_material symbol="mat_0" target="#mat_0"/>
                </technique_common>
              </bind_material>
            </instance_geometry>
          </node>
        </node>
      </node>
    </visual_scene>
  </library_visual_scenes>
  <scene>
    <instance_visual_scene url="#DefaultScene"/>
  </scene>
</COLLADA>
