<?xml version="1.0" encoding="UTF-8"?>
<COLLADA xmlns="http://www.collada.org/2005/11/COLLADASchema" version="1.4.1">
<!--
# File generated by ImageToStl.com - Free Image and 3D model conversion tools
-->
  <asset>
    <contributor>
      <author>ImageToStl.com</author>
      <authoring_tool>ImageToStl.com</authoring_tool>
    </contributor>
    <created>2025-07-02T08:54:06</created>
    <modified>2025-07-02T08:54:06</modified>
    <up_axis>Z_UP</up_axis>
  </asset>
  <library_effects>
    <effect id="effect_0">
        <profile_COMMON>
          <technique sid="common">
            <phong>
              <diffuse>
                <color>0.85 0.85 0.85 1</color>
              </diffuse>
              <specular>
                <color>0.05 0.05 0.05 1</color>
              </specular>
              <shininess>
                <float>64</float>
              </shininess>
            </phong>
          </technique>
        </profile_COMMON>
    </effect>
  </library_effects>
  <library_materials>
    <material id="mat_0">
      <instance_effect url="#effect_0"/>
    </material>
  </library_materials>
  <library_geometries>
    <geometry id="geometry_44396713_4080_4bec_b897_0ff81bb9068e">
      <mesh>
        <source id="pos_0">
          <float_array id="pos_0-array" count="2649">-0 18.79999924 6 -0 20.32828712 11.70364761 -0 51.90000153 6 0 20.35176086 11.86178589 0 20.3387413 12.02112579 -0 33.70000076 33.20000076 0 20.28990746 12.17335606 0 20.20780754 12.31053638 -0 25.70000076 33.20000076 0 20.09672356 12.42551041 0 19.96245003 12.51228237 -0 19.81199074 12.56632519 0 19.63235855 12.59843349 0 19.45012283 12.5890007 0 19.27476692 12.538517 -0 3.91006255 32.53502274 -0 6.58311653 38.26740265 0 18.98035049 12.32690144 -0 5.59343767 12.60000038 0 19.11541176 12.4496088 0 1.48149419 20.70000076 0 1.1064316 24.03334808 -0 0 27.20000076 -0 0 31.66247749 0 18.8766098 12.17677975 -0 18.80958557 12.00705528 -0 17.20000076 6 -0 16.84105682 -0 -0 4.04320478 4.94999981 -0 17.20000076 4.9000001 0 4.74217653 7.46080303 0 5.25980425 10.01516342 -0 18.5 4.55166626 -0 18.5 4.0999999 0 18.16423035 2.65198803 0 17.60669899 1.27407682 -0 0 -0 -0 0 4.05000019 -0 0.89999998 4.94999981 -0 0.66706288 4.91933346 -0 0.03066676 4.28293705 -0 0.12057713 4.5 -0 0.2636039 4.68639612 -0 0.44999999 4.82942295 -0 0 12.60000038 -0 0 14.19999981 0 1.1064316 17.36665154 -0 2.9403429 32.98720932 -0 0.86472023 33.51687622 -0 3.16344237 33.46564865 -0 5.39026785 38.24116898 -0 3.87343407 39.96916199 -0 5.61336708 38.71960449 -0 4.91369104 42.20000076 -0 24.98150063 42.20000076 -0 25.70000076 40.5 -0 34.41849899 42.20000076 -0 36.48749924 40.09500122 -0 33.70000076 40.5 -0 36.48749924 39.02500153 -0 42.8125 39.02500153 -0 63.68333435 42.20000076 -0 82.08990479 35.63499069 -0 79.41684723 41.36738586 -0 36.09034729 42.20000076 -0 37.01539993 40.09500122 -0 43.20965576 42.20000076 -0 42.8125 40.09500122 -0 42.28460312 40.09500122 -0 65.75 45.29999924 -0 81.08626556 45.29999924 -0 80.38659668 41.81958771 -0 82.12653351 43.0691452 -0 80.60969543 41.34114838 -0 82.83655548 36.56562805 -0 85.13527679 36.61685944 -0 83.05965424 36.08719254 -0 86 34.7624588 -0 86 4.69540882 -0 54.58228683 -0 -0 51.90000153 4.9000001 -0 51.49330139 1.27407682 -0 50.93577194 2.65198803 -0 52.25894547 -0 -0 50.59999847 4.0999999 -0 50.59999847 4.55166626 16.29999924 18.79999924 6 16.29999924 51.90000153 6 16.29999924 20.32828712 11.70364761 16.29999924 20.35176086 11.86178589 16.29999924 50.93577194 2.65198803 16.29999924 51.49330139 1.27407682 16.29999924 51.90000153 4.9000001 16.29999924 54.58228683 -0 16.29999924 86 4.69540882 16.29999924 82.08990479 35.63499069 16.29999924 86 34.7624588 16.29999924 83.05965424 36.08719254 16.29999924 85.13527679 36.61685944 16.29999924 82.83655548 36.56562805 16.29999924 50.59999847 4.55166626 16.29999924 50.59999847 4.0999999 16.29999924 52.25894547 -0 16.29999924 63.68333435 42.20000076 16.29999924 79.41684723 41.36738586 16.29999924 65.75 45.29999924 16.29999924 81.08626556 45.29999924 16.29999924 80.38659668 41.81958771 16.29999924 82.12653351 43.0691452 16.29999924 80.60969543 41.34114838 16.29999924 42.8125 39.02500153 16.29999924 43.20965576 42.20000076 16.29999924 42.8125 40.09500122 16.29999924 42.28460312 40.09500122 16.29999924 33.70000076 33.20000076 16.29999924 36.48749924 39.02500153 16.29999924 33.70000076 40.5 16.29999924 36.48749924 40.09500122 16.29999924 34.41849899 42.20000076 16.29999924 36.09034729 42.20000076 16.29999924 37.01539993 40.09500122 16.29999924 19.96245003 12.51228237 16.29999924 20.09672356 12.42551041 16.29999924 25.70000076 33.20000076 16.29999924 20.20780754 12.31053638 16.29999924 20.28990746 12.17335606 16.29999924 20.3387413 12.02112579 16.29999924 25.70000076 40.5 16.29999924 6.58311653 38.26740265 16.29999924 3.91006255 32.53502274 16.29999924 19.27476692 12.538517 16.29999924 1.1064316 24.03334808 16.29999924 1.48149419 20.70000076 16.29999924 24.98150063 42.20000076 16.29999924 4.91369104 42.20000076 16.29999924 5.61336708 38.71960449 16.29999924 3.87343407 39.96916199 16.29999924 5.39026785 38.24116898 16.29999924 3.16344237 33.46564865 16.29999924 0.86472023 33.51687622 16.29999924 2.9403429 32.98720932 16.29999924 0 31.66247749 16.29999924 0 27.20000076 16.29999924 1.1064316 17.36665154 16.29999924 5.59343767 12.60000038 16.29999924 19.11541176 12.4496088 16.29999924 0 14.19999981 16.29999924 0 12.60000038 16.29999924 5.20773602 9.70892334 16.29999924 17.20000076 6 16.29999924 18.80958557 12.00705528 16.29999924 18.8766098 12.17677975 16.29999924 4.59193516 6.85797977 16.29999924 17.20000076 4.9000001 16.29999924 3.74998522 4.06545258 16.29999924 3.74998522 2.06129622 16.29999924 16.84105682 -0 16.29999924 0 -0 16.29999924 1.5 2.06129622 16.29999924 0 4.05000019 16.29999924 1.5 3.37917972 16.29999924 1.64676714 3.54766655 16.29999924 1.74750352 3.74711752 16.29999924 1.79599965 3.96523809 16.29999924 1.78926635 4.18858337 16.29999924 0.02773804 4.2717185 16.29999924 1.72771859 4.40338659 16.29999924 0.10924238 4.47977018 16.29999924 1.61515009 4.59640694 16.29999924 0.23948909 4.6613307 16.29999924 1.45849979 4.75574636 16.29999924 0.41044974 4.80520916 16.29999924 1.26742351 4.87158394 16.29999924 0.61158633 4.90253592 16.29999924 1.05369914 4.93677855 16.29999924 0.83050078 4.94731236 16.29999924 17.60669899 1.27407682 16.29999924 18.16423035 2.65198803 16.29999924 18.5 4.0999999 16.29999924 18.5 4.55166626 16.29999924 18.98035049 12.32690144 16.29999924 19.45012283 12.5890007 16.29999924 19.63235855 12.59843349 16.29999924 19.81199074 12.56632519 13.03576565 19.30000114 35.20223999 12.693326 19.10635376 35.39438629 13.03576565 19.30000114 42.20000076 12.47551918 19.01502991 42.20000076 12.32620907 18.96496773 35.53467941 11.94233799 18.87889862 35.62008286 11.86427879 18.86850739 42.20000076 11.55000019 18.85000038 35.64875412 11.23572159 18.86850739 42.20000076 11.15766144 18.87889862 35.62008286 10.77379131 18.96496773 35.53467941 10.62448025 19.01502991 42.20000076 10.40667439 19.10635376 35.39438629 10.06423378 19.30000114 42.20000076 10.06423378 19.30000114 35.20223999 15.80000019 56.34999847 33.12186813 15.80000019 56.34999847 42.20000076 15.77746201 56.74655914 33.09500885 15.68074036 57.255867 42.20000076 15.71013641 57.13801575 33.01477432 15.59889221 57.51931763 32.88219833 15.33108902 58.09999847 42.20000076 15.44516182 57.8855629 32.69898987 15.01868153 58.55426025 32.19073105 14.77487373 58.82487488 42.20000076 14.45259571 59.10977173 31.51609612 14.05000019 59.38108826 42.20000076 13.89413643 59.46588516 32.27978516 13.59215927 59.60274124 32.57327652 13.20586681 59.73073959 42.20000076 13.27858734 59.71041107 32.80417633 11.96565437 59.833992 33.06919861 12.2968092 59.84999847 33.10351944 12.30000019 59.84999847 42.20000076 12.62799358 59.83459854 33.07049179 12.95623493 59.78792953 32.97041321 11.39413357 59.73073959 42.20000076 11.63749886 59.78672791 32.96783447 10.14237595 59.10584259 31.50766945 10.70018578 59.46297073 32.2735405 10.55000019 59.38108826 42.20000076 11.00191307 59.60037994 32.5682106 11.31528759 59.70862198 32.80033875 9.82512665 58.82487488 42.20000076 9.66183472 58.65001678 30.53015518 9.44999981 58.38162613 32.82393265 9.26891136 58.09999847 42.20000076 9.17079926 57.91783524 33.15666962 8.91926003 57.255867 42.20000076 8.96645832 57.41653824 33.40019226 8.84186459 56.88972473 33.54867935 8.80000019 56.34999847 42.20000076 8.80000019 56.34999847 33.59857178 9.44999981 58.38162613 20.5 9.51768398 58.47337341 20.5 9.58832073 58.56287003 20.5 9.66183472 58.65001678 20.5 5.80000019 4.04320478 4.94999981 5.80000019 3.94798088 4.65432072 5.80000019 3.85023856 4.35946465 5.80000019 3.74998522 4.06545258 7.57499981 30.54999924 17.79999924 7.57499981 33.70000076 17.79999924 0.57499999 30.54999924 17.79999924 0.57499999 33.70000076 17.79999924 8.80000019 55.34999847 33.59857178 9.44999981 53.31837463 32.82393265 9.17079926 53.78216553 33.15666962 8.84186459 54.81027603 33.54867935 8.96645832 54.28346252 33.40019226 14.05000019 58.65001678 20.5 14.05000019 58.65001678 30.53015518 7.55000019 17.37000084 29.31350327 7.52789736 17.19932747 29.3159008 7.55000019 17.37000084 42.20000076 7.52789402 17.19931412 42.20000076 7.46304321 17.03990746 29.31727409 7.46303415 17.0398922 42.20000076 7.35970974 16.90226173 29.31778526 7.35970068 16.9022522 42.20000076 7.22472191 16.79548645 29.31775284 7.22471237 16.79548073 42.20000076 7.06698608 16.72662163 29.31753159 7.06697655 16.72661972 42.20000076 6.89690828 16.70021439 29.3174057 6.89690304 16.70021439 42.20000076 6.72571659 16.71800613 29.31749344 6.72571373 16.71800613 42.20000076 6.56470585 16.77882385 29.31771278 6.56470585 16.77882385 42.20000076 7 19.30000114 35.19801331 5.63576603 19.30000114 35.19801331 7 19.30000114 42.20000076 5.63576603 19.30000114 42.20000076 8.69999981 19.30000114 42.20000076 8.69999981 19.30000114 35.20223999 0.57499999 30.54999924 33.20000076 0.57499999 33.70000076 33.20000076 0.57499999 25.70000076 33.20000076 0.57499999 28.85000038 33.20000076 7.57499981 28.85000038 33.20000076 7.57499981 30.54999924 33.20000076 8.72500038 28.85000038 33.20000076 8.72500038 30.54999924 33.20000076 15.72500038 28.85000038 33.20000076 15.72500038 30.54999924 33.20000076 15.72500038 33.70000076 33.20000076 7.57499981 25.70000076 33.20000076 8.72500038 25.70000076 33.20000076 15.72500038 25.70000076 33.20000076 8.72500038 33.70000076 33.20000076 7.57499981 33.70000076 33.20000076 15.72500038 28.85000038 17.79999924 15.72500038 25.70000076 17.79999924 8.72500038 28.85000038 17.79999924 8.72500038 25.70000076 17.79999924 9.64999962 78.90563202 5.5 9.64999962 76.80000305 5.5 10.7241869 77.97888947 6.40135002 13.30000019 76.80000305 8.56271362 12.17905807 78.12905884 7.62213182 13.30000019 79.25 8.56271362 14.39999962 23.55000114 30.98513794 14.39999962 19.30000114 35.20223999 14.39999962 23.55000114 42.20000076 14.39999962 19.30000114 42.20000076 9.44999981 53.31837463 32.61532974 9.64159298 53.07340622 32.75676346 9.44999981 54.05570602 32.18963242 15.01776123 54.05570602 32.18963242 14.95840645 53.07340622 32.75676346 15.28001213 53.51437378 32.50217056 7.57499981 25.70000076 17.79999924 0.57499999 25.70000076 17.79999924 0.57499999 28.85000038 17.79999924 7.57499981 28.85000038 17.79999924 5.4000001 18.85000038 29.25239563 5.4000001 18.36701012 29.28029633 7.55000019 18.85000038 29.25239563 7.55000019 18.35701942 29.28079224 5.4000001 17.88363457 29.30049324 7.55000019 17.86364365 29.30116272 5.4000001 17.39999962 29.31298256 3 74.44999695 8.56271362 3 63.54999924 8.56271362 6.29247379 74.44999695 5.80000019 6.29247379 63.54999924 5.80000019 1.29999995 19.30000114 42.20000076 1.29999995 19.30000114 35.19801331 1.29999995 23.55000114 42.20000076 1.29999995 23.55000114 30.98091316 3.75766158 18.87889862 35.61585617 4.54233837 18.87889862 35.61585617 3.37379122 18.96496773 35.53045273 4.92620897 18.96496773 35.53045273 3.00667429 19.10635376 35.39015961 5.2933259 19.10635376 35.39015961 2.66423416 19.30000114 35.19801331 7 23.55000114 30.98091316 4.1500001 18.85000038 35.64453125 7 23.55000114 42.20000076 8.72500038 33.70000076 17.79999924 15.72500038 33.70000076 17.79999924 15.72500038 30.54999924 17.79999924 8.72500038 30.54999924 17.79999924 5.4000001 50.33299255 29.28029633 5.4000001 51.29999924 32.62593842 5.4000001 49.84999847 29.25239563 5.4000001 50.25570297 33.22886276 5.4000001 50.25570297 35.5999527 5.4000001 50.81636429 29.30049324 5.4000001 51.29999924 29.31298256 5.4000001 51.25570297 33.80621338 5.4000001 51.29999924 33.78063965 5.4000001 51.25570297 35.5999527 5.4000001 51.29999924 42.20000076 5.4000001 49.84999847 42.20000076 7.55000019 51.33000183 29.31350327 7.55000019 50.83635712 29.30116272 7.55000019 51.33000183 42.20000076 7.55000019 49.84999847 42.20000076 7.55000019 50.34297943 29.28079224 7.55000019 49.84999847 29.25239563 15.80000019 55.34999847 42.20000076 15.80000019 55.34999847 33.12186813 8.69999981 23.55000114 42.20000076 8.69999981 23.55000114 30.98513794 5.80000019 0.89999998 4.94999981 3.24413323 59.73073959 42.20000076 4.1500001 59.84999847 42.20000076 5.05586672 59.73073959 42.20000076 1.67512631 52.87512589 42.20000076 1.11891103 53.59999847 42.20000076 1.29999995 49.40000153 42.20000076 0.76925963 54.44413376 42.20000076 0.64999998 55.34999847 42.20000076 0.64999998 56.34999847 42.20000076 0.76925963 57.255867 42.20000076 14.39999962 49.40000153 42.20000076 14.39999962 45.15000153 42.20000076 8.69999981 45.15000153 42.20000076 7 45.15000153 42.20000076 1.29999995 45.15000153 42.20000076 15.68074036 54.44413376 42.20000076 15.33108902 53.59999847 42.20000076 2.4000001 52.31891251 42.20000076 2.66423416 49.40000153 42.20000076 3.24413323 51.96926117 42.20000076 3.22448039 49.68497086 42.20000076 3.83572125 49.83149338 42.20000076 4.1500001 51.84999847 42.20000076 4.4642787 49.83149338 42.20000076 5.07551956 49.68497086 42.20000076 5.63576603 49.40000153 42.20000076 7 49.40000153 42.20000076 8.69999981 49.40000153 42.20000076 7.22471237 51.90452194 42.20000076 7.35970068 51.79774857 42.20000076 7.18108892 53.59999847 42.20000076 9.26891136 53.59999847 42.20000076 7.53074026 54.44413376 42.20000076 8.91926003 54.44413376 42.20000076 7.6500001 55.34999847 42.20000076 8.80000019 55.34999847 42.20000076 7.6500001 56.34999847 42.20000076 7.53074026 57.255867 42.20000076 7.18108892 58.09999847 42.20000076 6.62487364 58.82487488 42.20000076 5.9000001 59.38108826 42.20000076 6.62487364 52.87512589 42.20000076 7.06697655 51.97338104 42.20000076 5.05586672 51.96926117 42.20000076 5.9000001 52.31891251 42.20000076 6.56470585 51.92117691 42.20000076 6.72571373 51.98199463 42.20000076 6.89690304 51.99978638 42.20000076 1.11891103 58.09999847 42.20000076 1.67512631 58.82487488 42.20000076 2.4000001 59.38108826 42.20000076 14.77487373 52.87512589 42.20000076 14.05000019 52.31891251 42.20000076 13.20586681 51.96926117 42.20000076 13.03576565 49.40000153 42.20000076 12.47551918 49.68497086 42.20000076 12.30000019 51.84999847 42.20000076 11.86427879 49.83149338 42.20000076 11.39413357 51.96926117 42.20000076 11.23572159 49.83149338 42.20000076 10.62448025 49.68497086 42.20000076 10.55000019 52.31891251 42.20000076 10.06423378 49.40000153 42.20000076 7.46303415 51.66010666 42.20000076 7.52789402 51.50068665 42.20000076 9.82512665 52.87512589 42.20000076 6.6500001 76.80000305 5.5 3 76.80000305 8.56271362 3 76.80000305 5.5 5.92620659 51.5806427 32.46390915 6.56470585 51.92117691 29.31771278 5.82487965 51.5266037 33.64981079 10.0075264 74.44999695 5.80000019 10.0075264 63.54999924 5.80000019 13.30000019 74.44999695 8.56271362 13.30000019 63.54999924 8.56271362 9.44999981 54.05570602 20.5 14.05000019 54.05570602 20.5 14.40967178 52.55728149 33.86360168 10.1903286 52.55728149 33.86360168 13.76320267 52.17052841 34.69299316 10.83679676 52.17052841 34.69299316 13.41253757 52.03152847 34.99108124 11.18746281 52.03152847 34.99108124 13.04894924 51.93107224 35.20651245 11.55105019 51.93107224 35.20651245 12.67666245 51.870327 35.33677673 11.92333794 51.870327 35.33677673 12.30000019 51.84999847 35.38036728 7.55000019 18.85000038 42.20000076 5.4000001 17.39999962 42.20000076 5.4000001 17.39999962 33.78063965 5.73447895 17.22161102 33.67764664 5.92674255 17.11907005 32.46374512 5.4000001 17.39999962 32.62593842 14.05000019 58.88603973 31.03630066 5.4000001 18.85000038 42.20000076 5.4000001 18.44429588 35.60005188 5.4000001 18.44429588 33.22886276 5.4000001 17.44429588 35.60005188 5.4000001 17.44429588 33.80621338 15.50422573 53.94182968 32.76937866 15.66749477 54.39607239 32.96395493 15.76671505 54.86845779 33.08220291 7.52789688 51.50067139 29.3159008 7.46304178 51.66009521 29.31727409 7.35971165 51.79773712 29.31778526 7.22472143 51.90451431 29.31775284 7.06698513 51.97337723 29.31753159 6.89690971 51.99978638 29.3174057 6.72571659 51.98199463 29.31749344 11.78521824 78.90563202 5.5 11.22194672 86 4.69540882 10.49198818 85.3191452 4.59365463 9.61617947 84.84023285 4.52208042 8.64906311 84.59307861 4.48514318 7.6508646 84.59307861 4.48514318 6.68374777 84.84023285 4.52208042 5.80793953 85.3191452 4.59365463 5.077981 86 4.69540882 0.76925963 11.44413376 42.20000076 0.64999998 12.35000038 42.20000076 0.64999998 13.35000038 42.20000076 0.76925963 14.255867 42.20000076 1.11891103 15.10000038 42.20000076 1.67512631 15.82487392 42.20000076 12.30000019 8.85000038 42.20000076 11.39413357 8.96926022 42.20000076 5.05586672 8.96926022 42.20000076 4.1500001 8.85000038 42.20000076 3.24413323 8.96926022 42.20000076 15.33108902 15.10000038 42.20000076 15.68074036 14.255867 42.20000076 15.80000019 13.35000038 42.20000076 15.80000019 12.35000038 42.20000076 15.68074036 11.44413376 42.20000076 13.20586681 16.7307415 42.20000076 14.05000019 16.38108826 42.20000076 14.77487373 15.82487392 42.20000076 12.30000019 16.85000038 42.20000076 11.39413357 16.7307415 42.20000076 10.55000019 16.38108826 42.20000076 2.4000001 16.38108826 42.20000076 2.66423416 19.30000114 42.20000076 3.24413323 16.7307415 42.20000076 3.22448039 19.01502991 42.20000076 3.83572125 18.86850739 42.20000076 4.1500001 16.85000038 42.20000076 4.4642787 18.86850739 42.20000076 5.05586672 16.7307415 42.20000076 5.9000001 16.38108826 42.20000076 6.62487364 15.82487392 42.20000076 9.82512665 15.82487392 42.20000076 9.26891136 15.10000038 42.20000076 7.18108892 15.10000038 42.20000076 8.91926003 14.255867 42.20000076 7.53074026 14.255867 42.20000076 8.80000019 13.35000038 42.20000076 7.6500001 13.35000038 42.20000076 8.80000019 12.35000038 42.20000076 7.6500001 12.35000038 42.20000076 8.91926003 11.44413376 42.20000076 7.53074026 11.44413376 42.20000076 9.26891136 10.60000038 42.20000076 7.18108892 10.60000038 42.20000076 9.82512665 9.87512684 42.20000076 6.62487364 9.87512684 42.20000076 10.55000019 9.31891155 42.20000076 5.9000001 9.31891155 42.20000076 2.4000001 9.31891155 42.20000076 1.67512631 9.87512684 42.20000076 1.11891103 10.60000038 42.20000076 15.33108902 10.60000038 42.20000076 14.77487373 9.87512684 42.20000076 14.05000019 9.31891155 42.20000076 13.20586681 8.96926022 42.20000076 5.07551956 19.01502991 42.20000076 5.80000019 1.11496949 4.92394972 5.80000019 1.31749439 4.84730673 5.80000019 1.49585092 4.72450829 5.80000019 1.63971388 4.56266308 5.80000019 1.74075508 4.37114 5.80000019 1.79312551 4.161026 5.80000019 1.79379332 3.94448495 5.80000019 1.74272001 3.73405218 5.80000019 1.64286196 3.54190922 5.80000019 1.5 3.37917972 5.80000019 3.74998522 2.06129622 5.80000019 1.5 2.06129622 5.63576603 49.40000153 35.20142365 7 49.40000153 35.20142365 5.2933259 49.593647 35.39356995 4.92620897 49.73503113 35.53386307 4.54233837 49.82110214 35.61926651 4.1500001 49.84999847 35.64794159 3.75766158 49.82110214 35.61926651 3.37379122 49.73503113 35.53386307 3.00667429 49.593647 35.39356995 2.66423416 49.40000153 35.20142365 1.29999995 49.40000153 35.20142365 1.29999995 45.15000153 30.9843235 7 45.15000153 30.9843235 14.39999962 45.15000153 30.9843235 14.39999962 49.40000153 35.20142365 8.69999981 45.15000153 30.9843235 8.69999981 49.40000153 35.20142365 10.06423378 49.40000153 35.20142365 13.03576565 49.40000153 35.20142365 10.40667439 49.593647 35.39356995 12.693326 49.593647 35.39356995 10.77379131 49.73503113 35.53386307 12.32620907 49.73503113 35.53386307 11.15766144 49.82110214 35.61926651 11.94233799 49.82110214 35.61926651 11.55000019 49.84999847 35.64794159 9.94999981 67.43231201 45.29999924 9.08174896 67.07266998 45.29999924 8.14999962 66.94999695 45.29999924 7.21825123 67.07266998 45.29999924 6.3499999 67.43231201 45.29999924 10.6955843 73.09558105 45.29999924 11.26769161 72.34999847 45.29999924 11.62733269 71.48175049 45.29999924 11.75 70.55000305 45.29999924 11.62733269 69.61824799 45.29999924 6.3499999 73.66769409 45.29999924 7.21825123 74.02733612 45.29999924 8.14999962 74.15000153 45.29999924 9.08174896 74.02733612 45.29999924 9.94999981 73.66769409 45.29999924 4.67266703 69.61824799 45.29999924 4.55000019 70.55000305 45.29999924 4.67266703 71.48175049 45.29999924 5.03230858 72.34999847 45.29999924 5.60441542 73.09558105 45.29999924 5.60441542 68.00441742 45.29999924 5.03230858 68.75 45.29999924 11.26769161 68.75 45.29999924 10.6955843 68.00441742 45.29999924 5.21575594 72.6357193 40.20000076 5.46636915 72.94960785 40.20000076 5.21575594 72.6357193 41.70000076 5.75039053 73.23362732 40.20000076 6.06428385 73.4842453 41.70000076 6.70851564 73.84880829 41.70000076 7.41369247 74.07389832 41.70000076 8.14999962 74.15000153 41.70000076 6.06428385 73.4842453 40.20000076 4.79985094 71.86776733 41.70000076 4.58111048 71.02225494 41.70000076 4.57240772 70.1489563 41.70000076 4.77425528 69.299263 41.70000076 5.17477322 68.52317047 41.70000076 5.75039053 67.86637115 41.70000076 6.4672308 67.36750031 41.70000076 7.28310585 67.05593109 41.70000076 8.14999962 66.94999695 41.70000076 10.23571587 67.61575317 40.20000076 10.23571587 67.61575317 41.70000076 10.54960918 67.86637115 40.20000076 10.83363056 68.15039062 40.20000076 11.08424377 68.4642868 40.20000076 11.08424377 68.4642868 41.70000076 11.50014877 69.23223877 41.70000076 11.71888924 70.07774353 41.70000076 11.72759247 70.95104218 41.70000076 11.52574539 71.80073547 41.70000076 11.12522697 72.576828 41.70000076 10.54960918 73.23362732 41.70000076 9.83276939 73.73249817 41.70000076 9.01689434 74.04406738 41.70000076 9.59148407 67.25119019 41.70000076 8.88630772 67.02610016 41.70000076 1.14999998 86 28.53800011 15.14999962 86 28.53800011 15.14999962 86 5.5 11.22194672 86 5.5 1.14999998 86 5.5 5.077981 86 5.5 13.30000019 76.80000305 5.5 7.6500001 13.35000038 33.12186813 7.6500001 12.35000038 33.12186813 7.63358116 12.01138401 33.10230255 7.58447933 11.67594433 33.0437851 7.50315475 11.34682846 32.94686508 7.39037037 11.0271244 32.81245422 7.07494068 10.42783451 32.4365387 6.6500001 9.90051079 31.93011665 6.17139816 9.49273777 31.72517014 6.6500001 9.90051079 30.85069847 5.62756062 9.17717552 32.40189362 5.33659601 9.05728245 32.65900421 5.0360384 8.96400928 32.85903168 4.72831774 8.89810944 33.00035477 4.41592169 8.86011696 33.08182907 4.10137558 8.85033798 33.10279846 3.78722286 8.86885166 33.06309509 3.47600293 8.91550922 32.9630394 3.17023182 8.98993301 32.80344009 2.87238169 9.09152031 32.58558273 2.58486032 9.21945095 32.31123352 2.04999995 9.55000019 31.93011665 1.46286893 10.10738373 32.62983322 1.01950479 10.78475285 33.15821075 0.85948646 11.15730572 33.3489151 2.04999995 9.55000019 31.60236931 0.74362856 11.54586506 33.48698807 0.67348593 11.94521618 33.57058334 0.64999998 12.35000038 33.59857178 6.86776161 14.64429569 32.18963242 1.83223844 14.64429569 32.18963242 6.6500001 14.64429569 31.93011665 2.04999995 14.64429569 31.93011665 6.6500001 14.64429569 20.5 2.04999995 14.64429569 20.5 2.04999995 10.04998207 20.5 2.04999995 10.04998207 30.53015518 0.69897139 13.93343925 33.54021072 0.64999998 13.35000038 33.59857178 1.40644014 15.52321911 32.6970787 1.08255863 15.0354681 33.08306885 0.8445152 14.50055218 33.36675644 1.49159336 15.62659264 32.75676346 6.80840683 15.62659264 32.75676346 7.13001204 15.18562794 32.50217056 6.6500001 10.04998207 20.5 6.6500001 10.04998207 30.53015518 7.35422516 14.75816917 32.76937866 7.51749468 14.30392838 32.96395493 7.61671543 13.83154392 33.08220291 2.0403285 16.14272118 33.86360168 2.68679714 16.52947235 34.69299316 3.03746247 16.66847229 34.99108124 3.40105057 16.76892853 35.20651245 3.7733376 16.82967377 35.33677673 4.1500001 16.85000038 35.38036728 4.52666235 16.82967377 35.33677673 4.89894962 16.76892853 35.20651245 5.26253748 16.66847229 34.99108124 5.61320305 16.52947235 34.69299316 6.25967169 16.14272118 33.86360168 14.05000019 9.81396198 31.03630066 14.05000019 14.64429569 31.03630066 14.05000019 10.04998207 30.53015518 14.05000019 14.64429569 20.5 14.05000019 10.04998207 20.5 15.80000019 12.35000038 33.12186813 15.77746201 11.95343971 33.09500885 15.71013641 11.56198597 33.01477432 15.59889221 11.18068123 32.88219833 15.44516182 10.81443596 32.69898987 15.01868153 10.1457386 32.19073105 14.45259571 9.59022999 31.51609612 13.89413643 9.23411655 32.27978516 13.59215927 9.09725952 32.57327652 13.27858734 8.98958874 32.80417633 12.95623493 8.91207123 32.97041321 12.62799358 8.86540222 33.07049179 12.2968092 8.85000134 33.10351944 11.96565437 8.86600685 33.06919861 11.63749886 8.91327381 32.96783447 11.31528759 8.99137783 32.80033875 11.00191307 9.09961987 32.5682106 10.70018578 9.23702812 32.2735405 10.14237595 9.59415913 31.50766945 9.66183472 10.04998207 30.53015518 9.44999981 10.31837559 32.82393265 9.51768398 10.2266264 20.5 9.44999981 10.31837559 20.5 9.66183472 10.04998207 20.5 9.58832073 10.13712978 20.5 9.17079926 10.78216648 33.15666962 8.96645832 11.28346348 33.40019226 8.84186459 11.81027603 33.54867935 8.80000019 12.35000038 33.59857178 9.44999981 15.38162518 32.61532974 9.44999981 14.64429569 32.18963242 9.64159298 15.62659264 32.75676346 15.01776123 14.64429569 32.18963242 14.95840645 15.62659264 32.75676346 15.28001213 15.18562794 32.50217056 8.80000019 13.35000038 33.59857178 8.84186459 13.88972473 33.54867935 8.96645832 14.41653633 33.40019226 9.17079926 14.91783428 33.15666962 9.44999981 15.38162518 32.82393265 10.1903286 16.14272118 33.86360168 10.83679676 16.52947235 34.69299316 11.18746281 16.66847229 34.99108124 11.55105019 16.76892853 35.20651245 11.92333794 16.82967377 35.33677673 12.30000019 16.85000038 35.38036728 12.67666245 16.82967377 35.33677673 13.04894924 16.76892853 35.20651245 13.41253757 16.66847229 34.99108124 13.76320267 16.52947235 34.69299316 14.40967178 16.14272118 33.86360168 15.50422573 14.75816917 32.76937866 15.66749477 14.30392838 32.96395493 15.76671505 13.83154392 33.08220291 15.80000019 13.35000038 33.12186813 9.44999981 14.64429569 20.5 7.6500001 56.34999847 33.12186813 7.6500001 55.34999847 33.12186813 7.63358116 56.68861771 33.10230255 7.58447933 57.02405548 33.0437851 7.50315475 57.3531723 32.94686508 7.39037037 57.67287445 32.81245422 7.07494068 58.27216721 32.4365387 6.6500001 58.79948807 31.93011475 6.17139816 59.20726395 31.72517014 6.6500001 58.79948807 30.85069656 5.62756062 59.52282333 32.40189362 5.33659601 59.64271927 32.65900421 5.0360384 59.73599243 32.85903168 4.72831774 59.80189133 33.00035477 4.41592169 59.8398819 33.08182907 3.17023182 59.71006775 32.80343628 3.47600293 59.78449249 32.9630394 3.78722286 59.83115005 33.06309509 4.10137558 59.84966278 33.10279846 2.87238169 59.60847855 32.58558273 2.58486032 59.48054886 32.31123352 2.04999995 59.15000153 31.93011475 2.04999995 59.15000153 31.60236931 1.46286893 58.59261703 32.62982941 1.01950479 57.91524887 33.15821075 0.85948646 57.54269409 33.3489151 0.74362856 57.15413666 33.48698807 0.67348593 56.75478363 33.57057953 0.64999998 56.34999847 33.59857178 1.83223844 54.05570602 32.18963242 6.86776161 54.05570602 32.18963242 2.04999995 54.05570602 31.93011475 6.6500001 54.05570602 31.93011475 6.6500001 54.05570602 20.5 2.04999995 54.05570602 20.5 7.13001204 53.51437378 32.50217056 6.80840683 53.07340622 32.75676346 1.49159336 53.07340622 32.75676346 1.40644014 53.1767807 32.6970787 0.64999998 55.34999847 33.59857178 0.69897139 54.7665596 33.54021072 0.8445152 54.19944763 33.36675644 1.08255863 53.66453171 33.08306885 7.35422516 53.94182968 32.76937866 7.51749468 54.39607239 32.96395493 7.61671543 54.86845779 33.08220291 2.0403285 52.55728149 33.86360168 2.68679714 52.17052841 34.69299316 3.03746247 52.03152847 34.99108124 3.40105057 51.93107224 35.20651245 3.7733376 51.870327 35.33677673 4.1500001 51.84999847 35.38036728 4.52666235 51.870327 35.33677673 4.89894962 51.93107224 35.20651245 5.26253748 52.03152847 34.99108124 5.61320305 52.17052841 34.69299316 6.25967169 52.55728149 33.86360168 6.6500001 58.65001678 30.53015518 6.6500001 58.65001678 20.5 2.04999995 58.65001678 20.5 2.04999995 58.65001678 30.53015518 14.05000019 54.05570602 31.03630066 10.49198818 85.3191452 5.5 9.61617947 84.84023285 5.5 7.6508646 84.59307861 5.5 8.64906311 84.59307861 5.5 6.68374777 84.84023285 5.5 5.80793953 85.3191452 5.5 6.6500001 78.90563202 5.5 13.30000019 74.44999695 5.5 3 74.44999695 5.5 14.06207657 80.01207733 5.5 15.14999962 81.09999847 5.5 4.51478148 78.90563202 5.5 2.23792362 80.01207733 5.5 1.14999998 81.09999847 5.5 15.14999962 81.09999847 20.39139938 9.39999962 83.27049255 24 9.39999962 85.4358139 27.60000038 6.9000001 85.4358139 27.60000038 13.05000019 79 16.89999962 3.25 79 16.89999962 6.9000001 83.27049255 24 1.14999998 81.09999847 20.39139938 13.30000019 79.25 16.89999962 13.30000019 63.54999924 16.29999924 13.30000019 76.80000305 16.29999924 3 63.54999924 16.29999924 4.12094212 78.12905884 7.62213182 5.57581282 77.97888947 6.40135002 3 79.25 8.56271362 3 79.25 16.89999962 3 77.88607025 16.89999962 13.30000019 77.88607025 16.89999962 3 76.80000305 16.29999924 3 76.8468399 16.29999924 13.30000019 76.8468399 16.29999924 9.39999962 78 27.60000038 9.39999962 78 24 6.9000001 78 27.60000038 6.9000001 78 24 5.7141161 17.44429588 33.80621338 5.80555964 18.44429588 33.22886276 5.42999983 18.44429588 35.60005188 5.42999983 17.44429588 35.60005188 5.68389273 50.25570297 33.22886276 5.77533627 51.25570297 33.80621338 5.633286 51.25570297 35.5999527 5.49612093 50.25570297 35.5999527</float_array>
          <technique_common>
            <accessor source="#pos_0-array" count="2649" stride="3">
              <param name="X" type="float"/>
              <param name="Y" type="float"/>
              <param name="Z" type="float"/>
            </accessor>
          </technique_common>
        </source>
        <source id="norm_0">
          <float_array id="norm_0-array" count="3906">-1 0 -0 -1 0 0 -1 -0 -0 -1 -0 -0 -1 -0 -0 -1 -0 -0 -1 0 -0 -1 -0 -0 -1 -0 -0 -1 0 -0 -1 -0 0 -1 -0 -0 -1 0 -0 -1 0 -0 -1 0 -0 -1 0 -0 -1 0 0 -1 -0 -0 -1 0 -0 -1 -0 -0 -1 0 -0 -1 0 0 -1 0 -0 -1 0 0 -1 0 -0 -1 0 -0 -1 0 0 -1 -0 -0 -1 -0 0 -1 -0 -0 -1 -0 -0 -1 0 -0 -1 0 -0 -1 0 -0 -1 0 -0 -1 -0 0 -1 -0 0 -1 -0 0 -1 -0 0 -1 -0 0 -1 0 0 -1 -0 -0 -1 0 -0 -1 0 -0 -1 -0 -0 -1 -0 -0 -1 0 -0 -1 0 -0 -1 -0 -0 -1 -0 0 -1 -0 -0 -1 -0 -0 -1 -0 -0 -1 0 -0 -1 -0 -0 -1 0 -0 -1 0 -0 -1 0 -0 -1 -0 0 -1 0 -0 -1 0 -0 -1 0 -0 -1 0 -0 -1 -0 -0 -1 -0 -0 -1 -0 -0 -1 0 0 -1 0 0 -1 0 0 -1 -0 -0 -1 -0 0 1 -0 0 1 0 0 1 0 0 1 0 0 1 0 0 1 -0 0 1 0 -0 1 0 0 1 0 -0 1 -0 0 1 0 0 1 -0 -0 1 -0 -0 1 0 0 1 0 0 1 -0 0 1 0 0 1 0 0 1 0 0 1 -0 0 1 -0 0 1 0 0 1 -0 -0 1 0 0 1 0 0 1 -0 0 1 0 0 1 -0 0 1 0 0 1 -0 0 1 0 0 1 -0 -0 1 -0 0 1 -0 0 1 -0 0 1 0 0 1 0 0 1 0 0 1 0 0 1 0 -0 1 0 0 1 0 0 1 0 0 1 0 0 1 0 0 1 0 0 1 0 0 1 0 -0 1 0 0 1 0 0 1 -0 0 1 -0 0 1 0 0 1 0 0 1 0 0 0 -0.9155 0.40232 0 0 -1 -0 0 1 -0.49224 0.87046 -0 -0.45337 0.89132 -0.00255 -0.35905 0.93332 0.00103 -0.2193 0.97566 -0.00242 -0.23311 0.97245 -0.00123 -0.07341 0.9973 0.0007 0 1 -0.00282 0.07341 0.9973 0.0007 0.21901 0.97572 -0.00106 0.23311 0.97245 -0.00208 0.35905 0.93332 0.00103 0.45337 0.89132 -0.00255 0.49224 0.87046 0 0 -1 0 -0.99839 -0.05674 0 -0.99144 -0.13053 -0.00323 -0.9855 -0.16969 -0.00098 -0.96003 -0.2799 0.00052 -0.92388 -0.38268 -0.0027 -0.92165 -0.38802 -0.00231 -0.8438 -0.53665 0.00198 -0.79335 -0.60876 -0.00287 -0.70172 -0.71245 0.00217 -0.60876 -0.79335 -0.00279 -0.53648 -0.84391 0.00122 -0.41382 -0.91036 -0.00128 -0.38268 -0.92388 -0.00307 -0.32507 -0.94569 -0.00047 0.04828 -0.99883 -2E-05 -0.04645 -0.99892 2E-05 -0.13053 -0.99144 -0.00302 -0.14145 -0.98994 -0.00231 -0.23366 -0.97232 0.0003 0.13053 -0.99144 -0.00304 0.14324 -0.98969 -0.00223 0.53804 -0.84292 0.00119 0.41544 -0.90962 -0.00122 0.38268 -0.92388 -0.00308 0.32682 -0.94509 -0.00052 0.23543 -0.97189 0.00031 0.60876 -0.79335 -0.00278 0.68683 -0.72682 0.00128 0.7787 -0.62739 -0.0015 0.79335 -0.60876 -0.00296 0.85708 -0.51518 0.00108 0.92388 -0.38268 -0.00231 0.92569 -0.37828 -0.00194 0.97322 -0.22988 0.00102 0.99144 -0.13053 -0.00335 0.99701 -0.07734 0 0.80472 -0.59365 0 0.78362 -0.62124 -0.00032 0.78496 -0.61955 -0.00037 0.76436 -0.64478 0 0 -0.75153 -0.6597 0 -0.75153 -0.6597 0 -0.94403 0.32985 0 -0.99373 0.11181 0 -0.99373 -0.11181 0 -0.94403 -0.32985 -0 -0 -1 0 -0.99177 0.12801 -0.00068 -0.99122 0.13224 0.0006 -0.98008 0.19861 -0.0012 -0.97746 0.21113 0 -0.96337 0.26819 0.00114 -0.96269 0.27062 -0.00242 -0.95743 0.28867 -0.00076 -0.95186 0.30655 -0.00025 -0.94921 0.31465 0 -0.94649 0.32274 -0 -0.90631 0.42262 -0 -0.90631 0.42262 -0 0.02228 0.99975 -0 0.02228 0.99975 -0 0.90631 -0.42262 -0 0.90631 -0.42262 -0 0.42262 0.90631 0 -0.90631 0.42262 0 -0.90631 0.42262 -0 -0.42262 -0.90631 -0 -0.42262 -0.90631 0 0.90631 -0.42262 0 0.90631 -0.42262 0 -0.90631 0.42262 0 -0.90631 0.42262 0 0 1 -0 0 1 0.76604 0 0.64279 0.76604 0 0.64279 0.76604 -0 0.64279 0.76604 0 0.64279 0.76604 0 0.64279 0.76604 0 0.64279 0.76604 0 0.64279 0.76604 0 0.64279 -0 -1 -0 -0.99172 0.12843 0 -0.99172 0.12844 -0 -0.92628 0.37683 0 -0.92628 0.37685 -0 -0.79972 0.60037 0 -0.79971 0.60039 -0 -0.62039 0.7843 0 -0.62037 0.78431 -0 -0.40011 0.91647 0 -0.4001 0.91647 -0 -0.15343 0.98816 0 -0.15342 0.98816 -0 0.10337 0.99464 0 0.10338 0.99464 -0 0.35336 0.93549 0 0.35336 0.93549 0 0 1 0 1 -0 0 1 0 0 0 -0 1 -0 -0 1 0 0 1 0 -0 1 -1 -0 -0 -1 0 -0 -0.64279 -0 0.76604 -0.64279 -0 0.76604 -0.64279 -0 0.76604 -0.64279 -0 0.76604 0 -0.92111 0.3893 0 -0.92111 0.3893 -1 -0 -0 -1 -0 -0 -0 0.5 0.86603 -0 0.5 0.86603 0 0.5 0.86603 0 0.5 0.86603 0 -0 1 0 -0 1 0 -1 -0 1 -0 0 1 0 -0 0 1 0 -0 1 0 1 -0 0 1 0 0 -1 -0 -0 -0 0.05767 0.99834 4E-05 0.0575 0.99835 -4E-05 0.04175 0.99913 7E-05 0.04125 0.99915 0.00971 0.02581 0.99962 -0.00017 0.01541 0.99988 -2E-05 -0.00368 0.99999 2E-05 -0.00326 0.99999 -5E-05 -0.00024 1 1E-05 -0.00483 0.99999 -0.00076 0.00428 0.99999 -0.00228 0.00954 0.99995 -0.00451 0.01463 0.99988 -0.01072 0.02499 0.99963 0.64279 -0 0.76604 0.64279 -0 0.76604 1 -0 0 1 -0 0 -0 0.70435 0.70985 -0 0.70435 0.70985 0 0.70435 0.70985 -0 0.70435 0.70985 -1 -0 -0 -1 -0 -0 0 -1 -0 0 -1 0 0 -1 -0 -1 -0 0 -1 -0 -0 0 1 0 1 -0 0 1 -0 0 1 -0 -0 1 -0 0 1 0 -0 1 -0 -0 1 -0 -0 1 -0 0 1 -0 -0 1 -0 -0 -0 0.9155 0.40232 -1 -0 -0 -1 0 -0 -1 0 -0 -1 0 0 -1 -0 -0 -1 -0 -0 -0 -1 0 0 -1 0 1 0 -0 0 -0 1 -0 -0 1 -0 -0 -1 -0 -0 -1 0 -0.25882 0.96593 0 -1 0 -0 -0.97415 -0.22589 -0 -0.92699 -0.37508 0 -0.85714 -0.51509 -0 0.90631 0.42262 -0 0.90631 0.42262 -0 -0.90631 -0.42262 -0 -0.90631 -0.42262 -0 -0.42262 0.90631 -0 -0.42262 0.90631 0 0.90631 0.42262 0 0.90631 0.42262 -0 0.42262 -0.90631 -0 0.42262 -0.90631 0 -0.90631 -0.42262 0 -0.90631 -0.42262 0 0.90631 0.42262 0 0.90631 0.42262 0 -0 1 -0 -0 1 0 -0 1 0 -0 1 -0 -0 1 -0 -0 1 0 -0 1 -0 0 1 0 0 1 -0 0 1 0 0 1 0 0 1 -0 -0 1 0 -0 1 -0 -0 1 0 -0 1 0 -0 1 -0 -0 1 0 -0 1 0 -0 1 0 0 1 -0 -0 1 0 -0 1 -0 0 1 -0 0 1 -0 0 1 -0 0 1 -0 0 1 0 -0 1 -0 -0 1 0 -0 1 0 -0 1 0 -0 1 -0 -0 1 0 -0 1 0 -0 1 0 0 1 0 -0 1 0 -0 1 0 -0 1 -0 -0 1 -0 -0 1 -0 -0 1 -0 -0 1 -0 0 1 -0 -0 1 0 -0 1 0 -0 1 0 -0 1 0 -0 1 -0 -0 1 0 -0 1 -0 -0 1 -0 -0 1 0 -0 1 0 -0 1 -0 -0 1 0 -0 1 -0 0 1 0 -0 1 -0 -0 1 -0 0 1 -0 0 1 -0 0 1 -0 -0 1 -0 -1 -0 0.47059 -0.88235 0 0.47059 -0.88235 0 0.47059 -0.88235 0 0.47059 -0.88235 0 0.47059 -0.88235 0 0.47059 -0.88235 0 -0.64279 -0 0.76604 -0.64279 -0 0.76604 0 -0 1 -0 0 1 -0 0 1 -0 0 1 0 0 1 0 0.90631 0.42262 -0 0.90631 0.42262 -0 0.90631 0.42262 0 0.90631 0.42262 0 0.90631 0.42262 0 0.90631 0.42262 -1 0 -0 -1 0 -0 -1 -0 -0 -1 -0 0 0.47059 0.88235 0 0.47059 0.88235 0 0.47059 0.88235 0 0.47059 0.88235 0 0.47059 0.88235 0 0.47059 0.88235 0 -0 -0.90631 0.42262 -0 -0.90631 0.42262 -0 -0.90631 0.42262 -0 -0.90631 0.42262 0 -0.90631 0.42262 0 -0.90631 0.42262 0 -0.90631 0.42262 0 -0.90631 0.42262 0 -0.90631 0.42262 0 -0.90631 0.42262 -0 -0.90631 0.42262 0 -0.90631 0.42262 0 -0.90631 0.42262 0 -0.90631 0.42262 1 0 -0 1 0 -0 1 -0 -0 1 0 0 1 0 -0 1 0 0 0 0.96593 -0.25882 -0 0.96593 -0.25882 -0 0.25882 0.96593 -0 1 0 1 0 -0 1 0 -0 1 0 0 1 0 -0 1 0 0 1 0 -0 1 -0 -0 1 0 0 1 0 0 0.99701 0.07734 -0 0.99144 0.13053 -0.00335 0.97322 0.22988 0.00102 0.92388 0.38268 -0.00203 0.92561 0.37848 -0.00242 0.85708 0.51518 0.00108 0.79335 0.60876 -0.00296 0.78738 0.61647 -0.00236 0.78769 0.61607 -0 0.68292 0.73049 0.00207 0.60876 0.79335 -0.00358 0.511 0.85958 0.00253 0.38268 0.92387 -0.00364 0.3704 0.92887 -0.0026 0.26593 0.96399 0.0007 0.16164 0.98685 -0.00176 0.13053 0.99144 -0.00423 0.05389 0.99855 -0 -0.05389 0.99855 -0 -0.13053 0.99144 -0.00423 -0.16164 0.98685 -0.00176 -0.26593 0.96399 0.0007 -0.38268 0.92388 -0.00299 -0.37155 0.92841 -0.00416 -0.511 0.85958 0.00253 -0.60876 0.79335 -0.00358 -0.68292 0.73049 0.00207 -0.79335 0.60876 -0.00264 -0.80821 0.5889 -0.00094 -0.88572 0.46423 0.00057 -0.92388 0.38268 -0.00309 -0.941 0.3384 -0.00041 -0.97866 0.20548 0.00033 -0.99144 0.13053 -0.00327 -0.99762 0.06896 -0 -0.99172 -0.12843 0 -0.99172 -0.12844 -0 -0.92628 -0.37685 0 -0.92628 -0.37683 -0 -0.79971 -0.60039 0 -0.79972 -0.60037 -0 -0.62037 -0.78431 0 -0.62039 -0.7843 -0 -0.40011 -0.91647 0 -0.4001 -0.91647 -0 -0.15342 -0.98816 0 -0.15343 -0.98816 -0 0.10338 -0.99464 0 0.10337 -0.99464 -0 0.35336 -0.93549 0 0.35336 -0.93549 0 -0 -0.05767 0.99834 4E-05 -0.0575 0.99835 -4E-05 -0.04175 0.99913 7E-05 -0.04125 0.99915 -0.00017 -0.01541 0.99988 -0.01072 -0.02499 0.99963 -0.00451 -0.01463 0.99988 -0.00228 -0.00954 0.99995 -0.00076 -0.00428 0.99999 -5E-05 0.00024 1 2E-05 0.00326 0.99999 -2E-05 0.00368 0.99999 1E-05 0.00483 0.99999 0.00971 -0.02581 0.99962 -0 0.69722 0.71686 0 1 -0 0 1 -0 0 0.85714 -0.51509 0 0.92699 -0.37508 0 0.97415 -0.22589 -0 -0.33804 -0.94113 -0 -0.33804 -0.94113 0 -0.54276 -0.83989 -0 -0.71917 -0.69483 0 -0.71917 -0.69483 -0 -0.54276 -0.83989 0 -0.85807 -0.51354 -0 -0.85807 -0.51354 0 -0.95221 -0.30546 -0 -0.95221 -0.30546 0 -0.99668 -0.08144 -0 -0.99668 -0.08144 0 -0.98916 0.14682 0 -0.98916 0.14682 0 0.14781 -0.98902 -0 0.14781 -0.98902 -0 0.14781 -0.98902 -0 0.14781 -0.98902 0 0.14781 -0.98902 -0 0.14781 -0.98902 0 0.14781 -0.98902 0 0.14781 -0.98902 0 0.93011 -0.36729 0 0.82268 -0.56851 0 0.67244 -0.74015 0 0.48723 -0.87328 0 0.27666 -0.96097 0 0.05169 -0.99866 -0 -0.17596 -0.9844 -0 0.70435 0.70985 -0 0 1 0 0 1 -0 0 1 -0 0 1 0 -0 1 -0 -0 1 0 0 1 -0 0 1 -0 0 1 0 0 1 -0 0 1 -0 0 1 -0 0 1 0 0 1 0 -0 1 0 -0 1 -0 -0 1 -0 0 1 0 0 1 0 0 1 -0 0 1 0 0 1 -0 0 1 -0 0 1 -0 0 1 0 0 1 -0 0 1 0 0 1 0 0 1 -0 -0 1 -0 0 1 -0 0 1 -0 0 1 0 0 1 0 0 1 -0 0 1 -0 0 1 0 0 1 0 0 1 0 0 1 0 0 1 0 0 1 0 0 1 0 0 1 0 0 1 -0 -0 1 -0 -0 1 -0 0 1 -0 0 1 -0 0 1 -0 0 1 0 0 1 -0 0 1 -0 0 1 -0 -0 1 -0 -0 1 -0 -0 1 0 -0 1 -0 -0 1 -0 -0 1 -0 -0 1 -0 -0 1 -0 -0 1 -0 -0 1 0 0 1 0 0 1 0 -0 1 0 -0 1 -0 0 1 -0 0 1 0 0 1 -0 0 1 -0 -0 1 -0 0 1 -0 0 1 -0 0 1 -0 0 1 -0 0 1 -0 0 1 0 -0 1 0 -0 1 -0.49224 0.87046 -0 -0.45337 0.89132 -0.00255 -0.35905 0.93332 0.00103 -0.2193 0.97566 -0.00241 -0.23311 0.97245 -0.00123 -0.07341 0.9973 0.0007 0 1 -0.00282 0.07341 0.9973 0.0007 0.21901 0.97572 -0.00106 0.23311 0.97245 -0.00208 0.35905 0.93332 0.00103 0.45337 0.89132 -0.00255 0.49224 0.87046 0 0 -1 0 1 -0 0 1 -0 0 0 -0.99227 0.12414 -9E-05 -0.99144 0.13053 8E-05 -0.9311 0.36476 -0.00017 -0.92388 0.38268 0.00016 -0.81255 0.5829 -0.00024 -0.79335 0.60876 0.00022 -0.6439 0.76511 -0.0003 -0.60876 0.79335 0.00028 -0.43557 0.90015 -0.00035 -0.38268 0.92388 0.00033 -0.20039 0.97972 -0.00052 -0.11767 0.99305 0 -0.13053 0.99144 0.00057 0.04714 0.99889 -0.00051 0.1203 0.99274 0.00053 0.29177 0.95649 -0.00047 0.35394 0.93527 0.00049 0.51841 0.85513 -0.00043 0.56709 0.82366 0.00045 0.7131 0.70106 -0.00039 0.74741 0.66436 0.0004 0.86383 0.50378 -0.00033 0.88446 0.46661 0.00035 0.96132 0.27545 -0.00028 0.97031 0.24185 0.00029 0.99955 0.03013 -0.00022 1 0.00308 0.00022 0.97616 -0.21704 -0.00015 0.97179 -0.23586 0.00015 0.89261 -0.45083 -8E-05 0.88732 -0.46115 -0 0.75404 -0.65683 8E-05 0.75149 -0.65974 1 -0 -0 1 -0 -0 1 -0 -0 1 -0 -0 1 0 -0 1 0 0 1 0 0 1 0 0 1 -0 -0 1 -0 0 1 -0 0 1 -0 -0 1 0 0 1 0 0 1 0 0 -0 -0 1 -0 0 1 -0 1 -0 -0 1 0 0 -0.96593 0.25882 0 -0.96593 0.25882 -0 0.92111 0.3893 -0 0.92111 0.3893 0 -1 0 0 -1 -0 0 -1 0 -0 -1 0 -0.49224 -0.87046 -0 -0.45337 -0.89132 -0.00255 -0.35905 -0.93332 0.00103 -0.23311 -0.97245 -0.00208 -0.21901 -0.97572 -0.00106 -0.07341 -0.9973 0.0007 -0 -1 -0.00282 0.07341 -0.9973 0.0007 0.21901 -0.97572 -0.00106 0.23311 -0.97245 -0.00208 0.35905 -0.93332 0.00103 0.45337 -0.89132 -0.00255 0.49224 -0.87046 0 1 -0 0 1 -0 0 0 -0.70435 0.70985 0 -0.70435 0.70985 -1 -0 -0 -1 0 -0 -1 0 -0 -1 0 -0 -0 -0.70435 0.70985 -0.49224 -0.87046 -0 0.49224 -0.87046 0 0 -0.83205 0.5547 0 -0.83205 0.5547 0.78148 -0.62393 0 0.77473 -0.63228 -0.00287 0.79333 -0.60874 -0.00789 0.70711 -0.70711 0.0011 0.63228 -0.77473 -0.00287 0.60874 -0.79333 -0.00789 0.49249 -0.8703 0.00526 0.38267 -0.92385 -0.00837 0.30408 -0.95264 0.00419 0.13052 -0.99143 -0.00574 0.10281 -0.9947 0 0.62393 -0.78148 0 0.8793 -0.47621 0.00701 0.92385 -0.38267 -0.00839 0.9681 -0.25046 0.00735 0.99141 -0.13052 -0.00855 0.99992 -0.00996 0.00733 0.99141 0.13052 -0.00837 0.9729 0.23111 0.00698 0.92385 0.38267 -0.00784 0.88862 0.45859 0.00627 0.79333 0.60875 -0.00696 0.75205 0.65909 0.00522 0.60875 0.79334 -0.00574 0.57121 0.82079 0.00383 0.38268 0.92387 -0.00417 0.35675 0.9342 0.00208 0.13053 0.99144 -0.00226 0.1213 0.99262 0 0.70711 0.70711 0 0.70711 0.70711 0 -0.70711 -0.70711 -0 0 0.75153 -0.6597 0 0.75153 -0.6597 -0 -0.02228 0.99975 -0 -0.02228 0.99975 -0 1 0 0 1 0 -0 -1 -0 0 -1 -0 -1 0 -0 -0.99883 0.04843 0 -0.99144 0.13053 -0.00307 -0.9894 0.1452 -0.00213 -0.97083 0.23978 0.00037 -0.94295 0.33294 -0.00069 -0.92387 0.38268 -0.00318 -0.88528 0.46506 0.00142 -0.79335 0.60876 -0.00211 -0.77848 0.62767 -0.00035 -0.64861 0.76112 0.00029 -0.64854 0.76118 0 -0.60876 0.79335 -0.00261 -0.50058 0.86569 0.0014 -0.38303 0.92373 -0.00271 -0.38268 0.92388 -0.00274 -0.29633 0.95508 9E-05 -0.20945 0.97782 -0.00011 -0.12159 0.99258 -0.00335 -0.13053 0.99144 -0.00271 -0.03106 0.99952 0.0002 0.05887 0.99827 -0.00028 0.13053 0.99144 -0.00314 0.14889 0.98885 -0.00202 0.23635 0.97167 0.00028 0.32311 0.94636 -0.00046 0.38268 0.92388 -0.00305 0.40776 0.91309 -0.00156 0.52507 0.85106 0.00126 0.60876 0.79335 -0.00289 0.68991 0.72389 0.00227 0.79335 0.60876 -0.00282 0.8374 0.54658 0.00196 0.91845 0.39552 -0.00202 0.52572 0.85066 0 0.92388 0.38268 -0.00298 0.95836 0.28557 0.00052 0.98489 0.17317 -0.00088 0.99832 0.05792 0 0.99144 0.13053 -0.00342 0 -1 0 -0 -1 0 -0 -1 0 -0 -1 0 1 0 0 1 -0 0 0.76604 -0 0.64279 0.76604 -0 0.64279 0.76604 0 0.64279 0.76604 0 0.64279 0.76604 0 0.64279 0.76604 0 0.64279 0.76604 -0 0.64279 0.76604 -0 0.64279 0.76604 0 0.64279 0.76604 0 0.64279 0.76604 0 0.64279 0.76604 0 0.64279 0 -0.5 0.86603 -0 -0.5 0.86603 0 -0.5 0.86603 0 1 -0 -1 0 -0 -1 0 -0 -1 -0 -0 -0.76604 -0 0.64279 -0.76604 -0 0.64279 -0.76604 -0 0.64279 -0.76604 -0 0.64279 -0.76604 0 0.64279 -0.76604 -0 0.64279 -0.76604 -0 0.64279 -0.76604 -0 0.64279 -0.76604 -0 0.64279 -0.76604 -0 0.64279 -0.76604 -0 0.64279 -0.76604 -0 0.64279 0.9965 -0.08364 -0 0.99144 -0.13053 -0.00319 0.96871 -0.24819 0.00138 0.92388 -0.38268 -0.00273 0.91347 -0.40691 -0.00076 0.83328 -0.55285 0.00059 0.79335 -0.60876 -0.00311 0.77232 -0.63523 -0.00167 0.68292 -0.73049 0.00207 0.60876 -0.79335 -0.00358 0.511 -0.85958 0.00253 0.37155 -0.92841 -0.00416 0.38268 -0.92388 -0.00299 0.26593 -0.96399 0.0007 0.16164 -0.98685 -0.00176 0.13053 -0.99144 -0.00423 0.05389 -0.99855 -0 -0.05389 -0.99855 -0 -0.13053 -0.99144 -0.00423 -0.16164 -0.98685 -0.00176 -0.26593 -0.96399 0.0007 -0.3704 -0.92887 -0.0026 -0.38268 -0.92387 -0.00364 -0.511 -0.85958 0.00253 -0.60876 -0.79335 -0.00358 -0.68292 -0.73049 0.00207 -0.79335 -0.60876 -0.00264 -0.80821 -0.5889 -0.00094 -0.88572 -0.46423 0.00057 -0.92388 -0.38268 -0.00309 -0.941 -0.3384 -0.00041 -0.97866 -0.20548 0.00033 -0.99762 -0.06896 -0 -0.99144 -0.13053 -0.00327 1 -0 0 1 -0 0 -0 -0.90631 0.42262 -0 -0.90631 0.42262 -0 0.90631 0.42262 -0 0.90631 0.42262 0 0.90631 0.42262 -0 0.90631 0.42262 -0 0.90631 0.42262 -0 0.90631 0.42262 -0 0.90631 0.42262 -0 0.90631 0.42262 -0 0.90631 0.42262 0 0.90631 0.42262 0 0.90631 0.42262 -0 0.90631 0.42262 -0 0.90631 0.42262 -0 -0 1 0 0 1 -1 -0 -0 -1 -0 -0 -1 -0 0 -0.99839 0.05674 0 -0.99144 0.13053 -0.00323 -0.9855 0.16969 -0.00098 -0.96003 0.2799 0.00052 -0.92388 0.38268 -0.0027 -0.92165 0.38802 -0.00231 -0.8438 0.53665 0.00198 -0.79335 0.60876 -0.00287 -0.70172 0.71245 0.00217 -0.60876 0.79335 -0.00279 -0.53648 0.84391 0.00122 -0.41382 0.91036 -0.00128 -0.38268 0.92388 -0.00307 -0.32507 0.94569 -0.00047 -0.23366 0.97232 0.0003 -0.14145 0.98994 -0.00231 -0.13053 0.99144 -0.00302 -0.04645 0.99892 2E-05 0.04828 0.99883 -2E-05 0.13053 0.99144 -0.00304 0.14324 0.98969 -0.00223 0.23543 0.97189 0.00031 0.32682 0.94509 -0.00052 0.38268 0.92388 -0.00308 0.41544 0.90962 -0.00122 0.53804 0.84292 0.00119 0.60876 0.79335 -0.00278 0.68683 0.72682 0.00128 0.7787 0.62739 -0.0015 0.78362 0.62124 -0.00032 0.80472 0.59365 0 0.76436 0.64478 0 0.78496 0.61955 -0.00037 0.92388 0.38268 -0.00203 0.99701 0.07734 0 0 -0.5 0.86603 -0 -0.5 0.86603 0 -0.5 0.86603 0.99701 -0.07734 -0 0.78738 -0.61647 -0.00236 0.78769 -0.61607 0 0.05389 -0.99855 -0 -0.05389 -0.99855 -0 -0.99762 -0.06896 -0 -0 -0.90631 0.42262 -0 -0.90631 0.42262 -0 -0.90631 0.42262 -0 -0.90631 0.42262 -0 -0.90631 0.42262 -0 -1 0 0 -1 0 0 -1 0 -0.76604 -0 0.64279 -0.76604 -0 0.64279 -0.76604 -0 0.64279 -0.76604 -0 0.64279 -0.76604 -0 0.64279 -0.76604 -0 0.64279 -0.76604 -0 0.64279 -0.76604 -0 0.64279 -0.76604 -0 0.64279 -0.76604 -0 0.64279 -0.76604 -0 0.64279 -0.76604 -0 0.64279 -0.76604 -0 0.64279 0.76604 -0 0.64279 0.76604 0 0.64279 0.76604 -0 0.64279 0.76604 -0 0.64279 0.76604 -0 0.64279 0.76604 -0 0.64279 0.76604 -0 0.64279 0.76604 -0 0.64279 1 -0 0 1 -0 0 1 0 -0 0 -0 1 0 -0 1 0 0 1 -0 -0 1 0 -0 1 -0 0.90631 0.42262 0 0.90631 0.42262 0 0.90631 0.42262 0 0.90631 0.42262 -0 0.90631 0.42262 -0 0.90631 0.42262 -0 0.90631 0.42262 0 0.90631 0.42262 0 0.90631 0.42262 -0 0.90631 0.42262 -0 0.90631 0.42262 -0 0.90631 0.42262 -0 0.90631 0.42262 -1 -0 -0 -1 -0 -0 -0.99883 -0.04843 0 -0.99144 -0.13053 -0.00307 -0.9894 -0.1452 -0.00213 -0.97083 -0.23978 0.00037 -0.94295 -0.33294 -0.00069 -0.92387 -0.38268 -0.00318 -0.88528 -0.46506 0.00142 -0.79335 -0.60876 -0.00211 -0.77848 -0.62767 -0.00035 -0.64861 -0.76112 0.00029 -0.64854 -0.76118 0 -0.60876 -0.79335 -0.00261 -0.50058 -0.86569 0.0014 -0.38303 -0.92373 -0.00271 -0.38268 -0.92388 -0.00274 -0.29633 -0.95508 9E-05 -0.20945 -0.97782 -0.00011 -0.13053 -0.99144 -0.00302 -0.12135 -0.99261 -0.00244 0.23635 -0.97167 0.00028 0.14889 -0.98885 -0.00202 0.13053 -0.99144 -0.00314 0.05887 -0.99827 -0.00028 -0.03106 -0.99952 0.0002 0.32311 -0.94636 -0.00046 0.38268 -0.92388 -0.00305 0.40776 -0.91309 -0.00156 0.52507 -0.85106 0.00126 0.52572 -0.85066 0 0.60876 -0.79335 -0.00289 0.68991 -0.72389 0.00227 0.79335 -0.60876 -0.00282 0.8374 -0.54658 0.00196 0.91845 -0.39552 -0.00202 0.92388 -0.38268 -0.00298 0.95836 -0.28557 0.00052 0.98489 -0.17317 -0.00088 0.99144 -0.13053 -0.00342 0.99832 -0.05792 0 -0 1 0 -0 1 0 -0 1 0 -0 1 0 0 0.5 0.86603 0 0.5 0.86603 -0 0.5 0.86603 0.76604 -0 0.64279 0.76604 -0 0.64279 0.76604 -0 0.64279 0.76604 -0 0.64279 0.76604 -0 0.64279 0.76604 -0 0.64279 0.76604 -0 0.64279 0.76604 0 0.64279 0.76604 0 0.64279 0.76604 0 0.64279 0.76604 0 0.64279 0.76604 -0 0.64279 -0.76604 0 0.64279 -0.76604 0 0.64279 -0.76604 0 0.64279 -0.76604 0 0.64279 -0.76604 -0 0.64279 -0.76604 0 0.64279 -0.76604 0 0.64279 -0.76604 0 0.64279 -0.76604 0 0.64279 -0.76604 0 0.64279 -0.76604 0 0.64279 -0.76604 0 0.64279 0.9965 0.08364 -0 0.99144 0.13053 -0.00319 0.96871 0.24819 0.00138 0.92388 0.38268 -0.00273 0.91347 0.40691 -0.00076 0.83328 0.55285 0.00059 0.79335 0.60876 -0.00311 0.77232 0.63523 -0.00167 0.05389 0.99855 -0 -0.05389 0.99855 -0 -0.99762 0.06896 -0 0 0.90631 0.42262 0 0.90631 0.42262 -0 0.90631 0.42262 1 -0 0 1 0 0 -1 -0 -0 -1 -0 -0 -1 0 -0 -1 -0 -0 1 -0 0 1 0 0 -0 -0.90631 0.42262 -0 -0.90631 0.42262 0 -0.90631 0.42262 -0 -0.90631 0.42262 -0 -0.90631 0.42262 -0 -0.90631 0.42262 0 -0.90631 0.42262 0 -0.90631 0.42262 -0 -0.90631 0.42262 -0 -0.90631 0.42262 -0 -0.90631 0.42262 0 -0.90631 0.42262 0 -0.90631 0.42262 -0 0 1 0 -0 1 -1 -0 -0 -1 0 -0 -1 0 -0 -0 1 0 0 1 0 0 1 0 -0.76604 0 0.64279 -0.76604 0 0.64279 -0.76604 0 0.64279 -0.76604 0 0.64279 -0.76604 0 0.64279 -0.76604 0 0.64279 -0.76604 0 0.64279 -0.76604 0 0.64279 -0.76604 0 0.64279 -0.76604 0 0.64279 -0.76604 0 0.64279 -0.76604 0 0.64279 -0.76604 0 0.64279 -0.68208 0.73128 0 -0.68208 0.73128 0 -0.47978 0.87739 0 -0.47978 0.87739 0 -0.2476 0.96886 0 0 1 0 0 1 0 -0.2476 0.96886 0 0.2476 0.96886 0 0.2476 0.96886 0 0.47978 0.87739 0 0.47978 0.87739 0 0.68208 0.73128 0 0.68208 0.73128 0 0 -0 1 0 -0 1 0 -0 1 0 -0 1 0 -0 1 0 -0 1 0 -0 1 -0 -0 1 0 -0 1 0 -0 1 0 -0 1 0 -0 1 0 -0 1 0 -0 1 0 -0 1 0 -0 1 -0 -0 1 0 -0 1 -0 -0 1 -0 -0 1 0 -0 1 -1 -0 0 -1 -0 -0 -0 0.85693 -0.51543 -0 0.85693 -0.51543 -0 0.85693 -0.51543 -0 0.85693 -0.51543 -0 0.85693 -0.51543 -0 0.85693 -0.51543 0 0.85693 -0.51543 0 0.85693 -0.51543 0 0.85693 -0.51543 0 0.85693 -0.51543 -0.70711 0.70711 0 -0.70711 0.70711 0 -0.70711 0.70711 0 -0.70711 0.70711 0 -0.70711 0.70711 0 -0.40437 0.83212 0.37955 -1 0 -0 -1 0 -0 -1 -0 0 -1 -0 0 0 1 0 0 1 0 0.64279 -0 0.76604 0.64279 -0 0.76604 0.64279 -0 0.76604 0.64279 -0 0.76604 0.70711 0.70711 0 0.70711 0.70711 0 0.70711 0.70711 0 0.70711 0.70711 0 0.70711 0.70711 -0 1 -0 -0 1 -0 0 0 -0 1 0 1 0 -0 1 0 0.40437 0.83212 0.37955 0 0 -1 -0 0 -1 0 0 -1 0 0 -1 1 -0 0 1 0 0 1 0 -0 1 0 0 1 -0 0 0 -0 -1 -0 -0 -1 -0 -0 -1 0 -0 -1 0 0.5 -0.86603 -1 0 0 -1 0 0 0 0 -1 -0 0 -1 1 -0 -0 1 -0 0 0 -0 1 -0 -0 1 0 1 -0 0 1 0 0 -0.5 0.86603 0 1 -0 0 0 1 0 -1 0 0 0.5 -0.86603 0.98769 0 0.15643 0.98769 0 0.15643 0.98769 0 0.15643 0.98769 0 0.15643 0 -0.5 -0.86603 -0 -0.5 -0.86603 0 1 0 0.98769 -0.13548 0.07822 -0 0.5 0.86603 0 -0 1 0 -0 1 0 -1 -0 0 -1 -0 1 -0 -0 1 0 -0 1 0 -0 1 -0 0 -0.1213 -0.99262 0 -0.13053 -0.99144 -0.00226 -0.35675 -0.9342 0.00208 -0.38268 -0.92387 -0.00417 -0.57121 -0.82079 0.00383 -0.60875 -0.79334 -0.00574 -0.75205 -0.65909 0.00522 -0.79333 -0.60875 -0.00696 -0.88862 -0.45859 0.00627 -0.92385 -0.38267 -0.00784 -0.9729 -0.23111 0.00698 -0.99141 -0.13052 -0.00837 -0.99992 0.00996 0.00733 -0.99141 0.13052 -0.00855 -0.9681 0.25046 0.00735 -0.92385 0.38267 -0.00839 -0.8793 0.47621 0.00701 -0.79333 0.60874 -0.00789 -0.78148 0.62393 0 -0.77473 0.63228 -0.00287 -0.70711 0.70711 0.0011 -0.63228 0.77473 -0.00287 -0.60874 0.79333 -0.00789 -0.49249 0.8703 0.00526 -0.38267 0.92385 -0.00837 -0.30408 0.95264 0.00419 -0.13052 0.99143 -0.00574 -0.10281 0.9947 0 -0.62393 0.78148 -0</float_array>
          <technique_common>
            <accessor source="#norm_0-array" count="3906" stride="3">
              <param name="X" type="float"/>
              <param name="Y" type="float"/>
              <param name="Z" type="float"/>
            </accessor>
          </technique_common>
        </source>
        <source id="uvs_0">
          <float_array id="uvs_0-array" count="0"></float_array>
          <technique_common>
            <accessor source="#uvs_0-array" count="0" stride="2">
              <param name="S" type="float"/>
              <param name="T" type="float"/>
            </accessor>
          </technique_common>
        </source>
        <vertices id="vert_0">
          <input semantic="POSITION" source="#pos_0"/>
        </vertices>
        <triangles count="1762" material="mat_0">
          <input semantic="VERTEX" source="#vert_0" offset="0"/>
          <input semantic="NORMAL" source="#norm_0" offset="1"/>
          <p>0 0 1 0 2 0 2 1 1 1 3 1 2 2 3 2 4 2 2 3 4 3 5 3 5 4 4 4 6 4 5 5 6 5 7 5 5 6 7 6 8 6 8 7 7 7 9 7 8 8 9 8 10 8 10 9 11 9 8 9 8 10 11 10 12 10 8 11 12 11 13 11 13 12 14 12 8 12 8 13 14 13 15 13 8 14 15 14 16 14 17 15 18 15 19 15 19 16 18 16 20 16 19 17 20 17 14 17 14 18 20 18 21 18 14 19 21 19 15 19 15 20 21 20 22 20 15 21 22 21 23 21 17 22 24 22 18 22 18 23 24 23 25 23 18 24 25 24 26 24 27 25 28 25 29 25 29 26 28 26 30 26 29 27 30 27 26 27 26 28 30 28 31 28 26 29 31 29 18 29 32 21 33 21 29 21 29 30 33 30 34 30 29 31 34 31 35 31 35 32 27 32 29 32 27 33 36 33 28 33 28 34 36 34 37 34 28 21 37 21 38 21 38 35 37 35 39 35 40 36 41 36 37 36 37 37 41 37 42 37 37 38 42 38 43 38 43 39 39 39 37 39 44 21 45 21 18 21 18 40 45 40 46 40 18 41 46 41 20 41 15 21 23 21 47 21 47 42 23 42 48 42 47 43 48 43 49 43 50 21 51 21 52 21 52 44 51 44 53 44 52 45 53 45 16 45 16 46 53 46 54 46 16 21 54 21 55 21 55 47 8 47 16 47 56 48 57 48 58 48 58 49 57 49 59 49 58 50 59 50 5 50 5 51 59 51 60 51 5 52 60 52 2 52 2 53 60 53 61 53 2 54 61 54 62 54 62 55 61 55 63 55 56 56 64 56 57 56 57 57 64 57 65 57 61 21 60 21 66 21 66 21 60 21 67 21 66 58 67 58 68 58 61 59 69 59 63 59 63 60 69 60 70 60 63 61 70 61 71 61 71 62 70 62 72 62 71 21 72 21 73 21 74 21 75 21 76 21 76 21 75 21 77 21 76 21 77 21 62 21 62 63 77 63 78 63 62 64 78 64 2 64 2 65 78 65 79 65 2 66 79 66 80 66 80 67 79 67 81 67 80 68 81 68 82 68 79 69 83 69 81 69 82 70 84 70 80 70 80 21 84 21 85 21 86 71 87 71 88 71 88 71 87 71 89 71 90 71 91 71 92 71 92 71 91 71 93 71 92 71 93 71 87 71 87 72 93 72 94 72 87 73 94 73 95 73 95 74 94 74 96 74 95 71 96 71 97 71 97 71 96 71 98 71 97 71 98 71 99 71 100 71 101 71 92 71 92 71 101 71 90 71 91 71 102 71 93 71 87 75 95 75 103 75 103 71 95 71 104 71 103 71 104 71 105 71 105 71 104 71 106 71 104 71 107 71 106 71 106 71 107 71 108 71 107 71 109 71 108 71 87 76 103 76 110 76 110 71 103 71 111 71 110 71 111 71 112 71 112 77 111 77 113 77 87 78 110 78 114 78 114 79 110 79 115 79 114 80 115 80 116 80 116 81 115 81 117 81 116 71 117 71 118 71 118 82 117 82 119 82 117 83 120 83 119 83 121 84 122 84 123 84 123 85 122 85 124 85 123 86 124 86 114 86 114 87 124 87 125 87 114 88 125 88 126 88 127 89 128 89 123 89 123 90 128 90 129 90 123 91 129 91 130 91 130 92 129 92 131 92 130 93 131 93 132 93 127 94 133 94 128 94 128 95 133 95 134 95 128 71 134 71 135 71 135 71 134 71 136 71 135 71 136 71 137 71 138 71 139 71 140 71 140 71 139 71 141 71 140 71 141 71 129 71 129 96 141 96 142 96 129 97 142 97 131 97 143 98 144 98 132 98 132 99 144 99 145 99 132 100 145 100 130 100 143 101 146 101 144 101 144 71 146 71 147 71 148 102 149 102 144 102 144 71 149 71 150 71 144 71 150 71 151 71 148 103 152 103 149 103 149 104 152 104 153 104 152 105 154 105 153 105 153 71 154 71 155 71 153 71 155 71 156 71 156 71 155 71 157 71 155 71 158 71 157 71 157 71 158 71 159 71 158 71 160 71 159 71 159 106 160 106 161 106 159 107 161 107 162 107 162 108 163 108 159 108 159 109 163 109 164 109 159 110 164 110 165 110 165 111 164 111 166 111 165 112 166 112 167 112 167 113 166 113 168 113 167 114 168 114 169 114 169 115 168 115 170 115 169 116 170 116 171 116 171 117 170 117 172 117 171 118 172 118 173 118 173 119 172 119 174 119 173 120 174 120 175 120 156 71 176 71 153 71 153 71 176 71 177 71 153 71 177 71 178 71 178 71 179 71 153 71 151 71 180 71 144 71 144 71 180 71 145 71 130 121 181 121 123 121 123 122 181 122 182 122 123 123 182 123 183 123 183 124 121 124 123 124 114 125 126 125 87 125 87 71 126 71 89 71 111 126 66 126 113 126 113 126 66 126 68 126 65 127 120 127 57 127 57 127 120 127 117 127 60 128 59 128 110 128 110 128 59 128 115 128 184 129 185 129 186 129 186 130 185 130 187 130 185 131 188 131 187 131 187 132 188 132 189 132 187 133 189 133 190 133 190 134 189 134 191 134 190 135 191 135 192 135 192 136 191 136 193 136 192 137 193 137 194 137 192 138 194 138 195 138 195 139 194 139 196 139 195 140 196 140 197 140 197 141 196 141 198 141 60 142 110 142 67 142 67 142 110 142 112 142 199 143 200 143 201 143 201 144 200 144 202 144 201 145 202 145 203 145 203 146 202 146 204 146 202 147 205 147 204 147 204 148 205 148 206 148 206 149 205 149 207 149 207 150 205 150 208 150 207 151 208 151 209 151 209 152 208 152 210 152 209 153 210 153 211 153 211 154 210 154 212 154 210 155 213 155 212 155 212 156 213 156 214 156 215 157 216 157 217 157 217 158 216 158 218 158 217 159 218 159 213 159 213 160 218 160 219 160 213 161 219 161 214 161 217 162 220 162 215 162 215 163 220 163 221 163 222 164 223 164 224 164 224 165 223 165 225 165 224 166 225 166 220 166 220 167 225 167 226 167 220 168 226 168 221 168 224 169 227 169 222 169 222 170 227 170 228 170 228 171 227 171 229 171 229 172 227 172 230 172 229 173 230 173 231 173 231 174 230 174 232 174 231 175 232 175 233 175 233 176 232 176 234 176 232 177 235 177 234 177 234 178 235 178 236 178 237 179 238 179 229 179 229 180 238 180 228 180 238 181 239 181 228 181 228 182 239 182 240 182 137 183 136 183 50 183 50 184 136 184 51 184 45 185 146 185 46 185 46 185 146 185 143 185 46 186 143 186 20 186 20 186 143 186 132 186 20 187 132 187 21 187 21 187 132 187 131 187 21 188 131 188 22 188 22 188 131 188 142 188 144 189 147 189 18 189 18 189 147 189 44 189 18 190 31 190 144 190 144 191 31 191 148 191 31 192 30 192 148 192 148 193 30 193 152 193 28 194 241 194 30 194 30 195 241 195 152 195 152 196 241 196 154 196 154 197 241 197 242 197 154 198 242 198 243 198 243 199 244 199 154 199 45 142 44 142 146 142 146 142 44 142 147 142 23 142 22 142 141 142 141 142 22 142 142 142 23 200 141 200 48 200 48 201 141 201 139 201 49 202 48 202 138 202 138 203 48 203 139 203 49 204 138 204 47 204 47 205 138 205 140 205 47 206 140 206 15 206 15 206 140 206 129 206 128 207 16 207 129 207 129 208 16 208 15 208 16 209 128 209 52 209 52 210 128 210 135 210 137 211 50 211 135 211 135 212 50 212 52 212 134 213 53 213 136 213 136 214 53 214 51 214 245 215 246 215 247 215 247 216 246 216 248 216 231 217 236 217 229 217 229 218 236 218 249 218 229 219 249 219 250 219 250 220 249 220 251 220 231 221 233 221 236 221 236 222 233 222 234 222 252 223 253 223 249 223 249 224 253 224 251 224 254 225 255 225 240 225 240 225 255 225 228 225 256 226 257 226 258 226 258 227 257 227 259 227 257 228 260 228 259 228 259 229 260 229 261 229 260 230 262 230 261 230 261 231 262 231 263 231 262 232 264 232 263 232 263 233 264 233 265 233 264 234 266 234 265 234 265 235 266 235 267 235 266 236 268 236 267 236 267 237 268 237 269 237 268 238 270 238 269 238 269 239 270 239 271 239 272 240 273 240 270 240 270 241 273 241 271 241 274 242 275 242 276 242 276 242 275 242 277 242 278 242 197 242 279 242 279 242 197 242 198 242 280 243 247 243 281 243 281 244 247 244 248 244 282 245 283 245 8 245 8 246 283 246 5 246 5 247 283 247 280 247 280 247 283 247 284 247 280 247 284 247 285 247 285 247 284 247 286 247 285 247 286 247 287 247 287 247 286 247 288 247 287 247 288 247 289 247 289 247 288 247 114 247 289 247 114 247 290 247 291 245 292 245 284 245 284 245 292 245 286 245 293 245 123 245 288 245 288 248 123 248 114 248 294 247 295 247 287 247 287 247 295 247 285 247 280 247 281 247 5 247 296 249 297 249 288 249 288 250 297 250 293 250 298 215 299 215 296 215 296 216 299 216 297 216 300 251 301 251 302 251 302 252 301 252 303 252 302 253 303 253 304 253 304 254 303 254 305 254 58 255 116 255 56 255 56 256 116 256 118 256 306 257 307 257 308 257 308 258 307 258 309 258 310 259 311 259 312 259 312 260 311 260 313 260 311 261 314 261 313 261 313 262 314 262 315 262 118 263 119 263 56 263 56 264 119 264 64 264 286 265 298 265 288 265 288 265 298 265 296 265 292 266 299 266 286 266 286 267 299 267 298 267 297 268 292 268 293 268 293 242 292 242 127 242 293 242 127 242 123 242 297 269 299 269 292 269 127 242 292 242 55 242 55 242 292 242 291 242 55 242 291 242 282 242 282 268 291 268 316 268 282 268 316 268 317 268 282 242 8 242 55 242 283 265 318 265 284 265 284 265 318 265 319 265 282 270 317 270 283 270 283 271 317 271 318 271 319 272 316 272 284 272 284 250 316 250 291 250 318 215 317 215 319 215 319 215 317 215 316 215 320 273 321 273 322 273 322 274 321 274 323 274 321 275 324 275 323 275 323 276 324 276 325 276 326 277 272 277 324 277 324 278 272 278 325 278 270 279 266 279 272 279 272 280 266 280 264 280 272 281 264 281 262 281 270 282 268 282 266 282 262 283 260 283 272 283 272 284 260 284 257 284 272 285 257 285 256 285 256 286 325 286 272 286 327 287 328 287 329 287 329 288 328 288 330 288 331 289 332 289 333 289 333 290 332 290 334 290 335 291 336 291 337 291 337 292 336 292 338 292 337 292 338 292 339 292 339 293 338 293 340 293 339 293 340 293 341 293 341 294 340 294 275 294 341 294 275 294 334 294 334 294 275 294 342 294 335 291 343 291 336 291 275 294 274 294 342 294 334 294 332 294 341 294 342 295 274 295 344 295 344 296 274 296 276 296 248 297 295 297 281 297 281 298 295 298 58 298 281 298 58 298 5 298 248 299 246 299 295 299 58 298 295 298 116 298 116 298 295 298 294 298 116 298 294 298 290 298 290 297 294 297 345 297 290 297 345 297 346 297 290 298 114 298 116 298 246 300 245 300 295 300 295 301 245 301 285 301 285 302 245 302 280 302 280 302 245 302 247 302 346 272 347 272 290 272 290 301 347 301 289 301 289 302 347 302 287 302 287 302 347 302 348 302 347 215 346 215 348 215 348 215 346 215 345 215 349 303 350 303 351 303 351 304 350 304 352 304 351 305 352 305 353 305 349 306 354 306 350 306 350 307 354 307 355 307 356 308 357 308 358 308 358 309 357 309 359 309 358 310 359 310 353 310 353 311 359 311 360 311 353 312 360 312 351 312 65 313 64 313 120 313 120 313 64 313 119 313 361 314 362 314 363 314 363 315 362 315 364 315 362 316 365 316 364 316 364 317 365 317 366 317 200 318 199 318 367 318 367 319 199 319 368 319 308 320 369 320 306 320 306 321 369 321 370 321 287 322 348 322 294 322 294 71 348 71 345 71 113 127 68 127 112 127 112 127 68 127 67 127 38 323 371 323 28 323 28 324 371 324 241 324 157 325 36 325 156 325 156 325 36 325 27 325 86 326 0 326 87 326 87 326 0 326 2 326 57 242 117 242 59 242 59 242 117 242 115 242 80 142 92 142 2 142 2 142 92 142 87 142 92 327 80 327 100 327 100 327 80 327 85 327 85 328 84 328 100 328 100 328 84 328 101 328 101 329 84 329 90 329 90 329 84 329 82 329 90 330 82 330 81 330 83 331 102 331 81 331 81 331 102 331 91 331 81 330 91 330 90 330 83 127 79 127 102 127 102 127 79 127 93 127 77 332 75 332 96 332 96 333 75 333 98 333 74 334 76 334 99 334 99 335 76 335 97 335 62 336 95 336 76 336 76 337 95 337 97 337 63 338 104 338 62 338 62 339 104 339 95 339 71 340 107 340 63 340 63 341 107 341 104 341 73 342 109 342 71 342 71 343 109 343 107 343 108 344 72 344 106 344 106 345 72 345 70 345 372 346 373 346 61 346 61 347 373 347 374 347 61 348 374 348 103 348 103 348 374 348 220 348 103 349 220 349 217 349 375 350 376 350 377 350 377 351 376 351 378 351 377 352 378 352 66 352 66 353 378 353 379 353 66 247 379 247 61 247 61 247 379 247 380 247 61 354 380 354 381 354 382 247 383 247 111 247 111 247 383 247 384 247 111 247 384 247 66 247 66 247 384 247 385 247 66 247 385 247 386 247 202 355 200 355 103 355 103 247 200 247 367 247 103 247 367 247 111 247 111 356 367 356 387 356 111 357 387 357 388 357 386 247 377 247 66 247 375 358 377 358 389 358 389 359 377 359 390 359 389 360 390 360 391 360 391 361 390 361 392 361 391 362 392 362 393 362 391 363 393 363 394 363 394 364 393 364 395 364 394 365 395 365 359 365 359 247 395 247 360 247 395 247 396 247 360 247 360 247 396 247 397 247 360 247 397 247 398 247 385 247 384 247 398 247 398 247 384 247 399 247 398 247 399 247 364 247 364 366 399 366 363 366 400 367 401 367 402 367 402 368 401 368 403 368 402 369 403 369 404 369 404 369 403 369 405 369 404 370 405 370 406 370 406 370 405 370 407 370 406 247 407 247 408 247 408 247 407 247 235 247 408 370 235 370 409 370 409 370 235 370 232 370 409 369 232 369 410 369 410 369 232 369 230 369 410 371 230 371 411 371 411 371 230 371 227 371 411 372 227 372 412 372 412 372 227 372 224 372 412 373 224 373 374 373 374 373 224 373 220 373 402 374 413 374 400 374 400 375 413 375 414 375 415 376 359 376 416 376 416 377 359 377 417 377 416 378 417 378 413 378 413 379 417 379 418 379 413 380 418 380 419 380 415 381 394 381 359 381 381 382 420 382 61 382 61 383 420 383 421 383 61 384 421 384 422 384 422 385 372 385 61 385 217 386 213 386 103 386 103 387 213 387 210 387 103 388 210 388 208 388 208 389 205 389 103 389 103 390 205 390 202 390 111 391 388 391 382 391 382 392 388 392 423 392 382 393 423 393 424 393 424 394 425 394 382 394 382 395 425 395 426 395 426 396 425 396 427 396 427 397 425 397 428 397 427 398 428 398 429 398 429 399 428 399 430 399 429 400 430 400 431 400 431 401 430 401 432 401 430 402 433 402 432 402 432 403 433 403 434 403 435 404 436 404 437 404 437 405 436 405 363 405 437 406 363 406 433 406 433 407 363 407 399 407 433 359 399 359 434 359 437 408 403 408 435 408 435 409 403 409 401 409 364 247 360 247 398 247 419 410 414 410 413 410 438 411 439 411 440 411 350 412 355 412 441 412 441 413 355 413 442 413 441 414 442 414 443 414 443 415 442 415 417 415 443 416 417 416 357 416 357 417 417 417 359 417 444 418 445 418 446 418 446 419 445 419 447 419 240 420 239 420 254 420 254 421 239 421 238 421 254 422 238 422 237 422 448 423 449 423 237 423 237 424 449 424 254 424 314 425 311 425 450 425 450 426 311 426 451 426 450 426 451 426 452 426 452 427 451 427 453 427 452 427 453 427 454 427 454 428 453 428 455 428 454 428 455 428 456 428 456 429 455 429 457 429 456 429 457 429 458 429 458 430 457 430 459 430 458 430 459 430 460 430 256 431 258 431 325 431 325 432 258 432 461 432 325 433 461 433 323 433 323 434 461 434 322 434 462 435 273 435 463 435 463 436 273 436 464 436 464 437 273 437 465 437 465 438 273 438 272 438 465 439 272 439 326 439 326 440 466 440 465 440 209 441 211 441 467 441 467 442 211 442 212 442 467 443 212 443 214 443 218 444 215 444 219 444 219 445 215 445 221 445 219 446 221 446 214 446 214 447 221 447 226 447 214 448 226 448 467 448 467 449 226 449 225 449 467 450 225 450 223 450 218 451 216 451 215 451 223 452 222 452 467 452 467 453 222 453 255 453 222 454 228 454 255 454 310 455 312 455 250 455 250 456 312 456 229 456 448 457 237 457 312 457 312 458 237 458 229 458 407 459 249 459 235 459 235 460 249 460 236 460 25 461 150 461 26 461 26 462 150 462 149 462 178 242 33 242 179 242 179 242 33 242 32 242 32 463 29 463 179 463 179 463 29 463 153 463 153 242 29 242 149 242 149 464 29 464 26 464 468 465 469 465 320 465 320 466 469 466 470 466 320 467 470 467 466 467 468 468 462 468 469 468 469 469 462 469 471 469 462 71 463 71 471 71 471 470 463 470 472 470 326 471 324 471 466 471 466 472 324 472 321 472 466 473 321 473 320 473 249 474 407 474 252 474 252 475 407 475 405 475 252 476 405 476 253 476 253 477 405 477 403 477 253 478 403 478 251 478 251 479 403 479 250 479 403 480 437 480 250 480 250 481 437 481 311 481 250 482 311 482 310 482 311 483 437 483 451 483 451 484 437 484 433 484 451 485 433 485 453 485 453 486 433 486 430 486 453 487 430 487 455 487 455 488 430 488 457 488 457 489 430 489 459 489 459 490 430 490 428 490 459 491 428 491 460 491 460 492 428 492 458 492 428 493 425 493 458 493 458 494 425 494 456 494 456 495 425 495 454 495 454 496 425 496 424 496 454 497 424 497 452 497 452 498 424 498 450 498 424 499 423 499 450 499 450 500 423 500 314 500 423 501 388 501 314 501 314 502 388 502 315 502 315 503 388 503 473 503 473 504 388 504 387 504 473 505 387 505 474 505 474 506 387 506 475 506 387 507 367 507 475 507 475 508 367 508 368 508 361 509 363 509 476 509 476 510 363 510 436 510 476 511 436 511 435 511 476 512 435 512 477 512 477 513 435 513 401 513 477 514 401 514 478 514 478 515 401 515 400 515 478 516 400 516 479 516 479 517 400 517 480 517 400 518 414 518 480 518 480 519 414 519 419 519 480 520 419 520 481 520 481 521 419 521 418 521 481 522 418 522 482 522 482 523 418 523 442 523 418 524 417 524 442 524 351 525 366 525 349 525 349 526 366 526 365 526 349 527 365 527 354 527 354 528 365 528 362 528 354 529 362 529 442 529 442 530 362 530 361 530 442 531 361 531 476 531 476 532 477 532 442 532 442 533 477 533 478 533 442 534 478 534 479 534 479 535 480 535 442 535 442 536 480 536 482 536 480 537 481 537 482 537 442 538 355 538 354 538 300 539 302 539 483 539 366 540 351 540 364 540 364 541 351 541 360 541 156 542 27 542 176 542 176 542 27 542 35 542 176 543 35 543 34 543 33 544 178 544 34 544 34 544 178 544 177 544 34 543 177 543 176 543 183 545 11 545 121 545 121 546 11 546 10 546 121 547 10 547 9 547 7 548 124 548 9 548 9 549 124 549 122 549 9 550 122 550 121 550 7 551 6 551 124 551 124 552 6 552 125 552 6 553 4 553 125 553 125 554 4 554 126 554 126 555 4 555 89 555 89 556 4 556 3 556 89 557 3 557 1 557 1 558 88 558 89 558 484 559 94 559 485 559 485 560 94 560 486 560 94 561 93 561 486 561 486 562 93 562 487 562 93 559 79 559 487 559 487 563 79 563 488 563 488 564 79 564 489 564 489 565 79 565 78 565 489 566 78 566 490 566 490 559 78 559 491 559 150 567 25 567 151 567 151 567 25 567 24 567 151 568 24 568 17 568 19 569 145 569 17 569 17 569 145 569 180 569 17 568 180 568 151 568 19 570 14 570 145 570 145 570 14 570 130 570 14 571 13 571 130 571 130 571 13 571 181 571 181 572 13 572 182 572 182 572 13 572 12 572 182 573 12 573 11 573 11 573 183 573 182 573 307 294 306 294 184 294 184 294 306 294 370 294 184 294 370 294 198 294 198 294 370 294 279 294 184 294 198 294 185 294 185 574 198 574 196 574 185 574 196 574 188 574 188 294 196 294 194 294 188 294 194 294 189 294 189 291 194 291 193 291 189 291 193 291 191 291 333 575 344 575 54 575 54 576 344 576 369 576 54 577 369 577 133 577 133 578 369 578 308 578 133 247 308 247 309 247 492 579 493 579 53 579 53 247 493 247 494 247 53 247 494 247 54 247 54 580 494 580 495 580 54 581 495 581 331 581 331 582 495 582 496 582 331 583 496 583 497 583 498 584 499 584 134 584 134 585 499 585 500 585 134 586 500 586 53 586 53 587 500 587 501 587 53 588 501 588 502 588 503 589 504 589 133 589 133 590 504 590 505 590 133 247 505 247 134 247 134 247 505 247 506 247 134 591 506 591 507 591 186 592 508 592 309 592 309 593 508 593 509 593 309 594 509 594 510 594 186 595 187 595 508 595 508 596 187 596 511 596 187 597 190 597 511 597 511 598 190 598 512 598 190 599 192 599 512 599 512 600 192 600 195 600 512 601 195 601 513 601 513 602 195 602 197 602 513 603 197 603 278 603 369 247 344 247 278 247 278 247 344 247 276 247 278 247 276 247 461 247 461 604 276 604 468 604 497 605 514 605 331 605 331 606 514 606 515 606 514 607 516 607 515 607 515 608 516 608 517 608 517 609 516 609 518 609 518 610 516 610 519 610 518 611 519 611 520 611 520 612 519 612 462 612 520 613 462 613 468 613 519 614 521 614 462 614 462 615 521 615 522 615 462 616 522 616 273 616 273 617 522 617 523 617 273 618 523 618 271 618 271 619 523 619 269 619 258 620 259 620 524 620 524 621 259 621 261 621 524 622 261 622 525 622 525 623 261 623 263 623 525 624 263 624 526 624 526 625 263 625 265 625 526 626 265 626 523 626 523 627 265 627 267 627 523 628 267 628 269 628 525 629 526 629 527 629 527 630 526 630 528 630 527 631 528 631 529 631 529 632 528 632 530 632 529 247 530 247 531 247 531 247 530 247 532 247 531 632 532 632 533 632 533 631 532 631 534 631 533 630 534 630 535 630 535 629 534 629 536 629 535 633 536 633 537 633 537 634 536 634 538 634 537 635 538 635 539 635 539 636 538 636 540 636 539 637 540 637 499 637 499 638 540 638 500 638 502 639 541 639 53 639 53 640 541 640 542 640 53 641 542 641 543 641 543 642 492 642 53 642 524 643 513 643 258 643 258 644 513 644 278 644 258 247 278 247 461 247 510 645 503 645 309 645 309 646 503 646 133 646 507 647 544 647 134 647 134 648 544 648 545 648 134 649 545 649 546 649 546 650 547 650 134 650 134 651 547 651 498 651 331 652 333 652 54 652 276 653 277 653 468 653 468 654 277 654 548 654 468 655 548 655 520 655 275 656 340 656 277 656 277 657 340 657 548 657 340 658 338 658 548 658 548 659 338 659 336 659 548 660 336 660 520 660 520 661 336 661 343 661 520 662 343 662 518 662 518 663 343 663 335 663 518 664 335 664 337 664 518 665 337 665 517 665 517 666 337 666 339 666 517 667 339 667 515 667 515 668 339 668 341 668 37 669 36 669 159 669 159 669 36 669 157 669 278 670 279 670 369 670 369 671 279 671 370 671 159 672 165 672 37 672 37 673 165 673 40 673 165 674 167 674 40 674 40 675 167 675 41 675 167 676 169 676 41 676 41 677 169 677 42 677 169 678 171 678 42 678 42 679 171 679 43 679 171 680 173 680 43 680 43 681 173 681 39 681 173 682 175 682 39 682 39 683 175 683 371 683 39 684 371 684 38 684 175 685 174 685 371 685 371 686 174 686 549 686 174 687 172 687 549 687 549 688 172 688 550 688 172 689 170 689 550 689 550 690 170 690 551 690 170 691 168 691 551 691 551 692 168 692 552 692 168 693 166 693 552 693 552 694 166 694 553 694 166 695 164 695 553 695 553 696 164 696 554 696 164 697 163 697 554 697 554 698 163 698 555 698 163 699 162 699 555 699 555 700 162 700 556 700 162 701 161 701 556 701 556 702 161 702 557 702 160 703 558 703 161 703 161 704 558 704 557 704 371 705 549 705 241 705 241 706 549 706 550 706 241 707 550 707 551 707 551 708 552 708 241 708 241 709 552 709 242 709 552 710 553 710 242 710 242 711 553 711 243 711 243 712 553 712 244 712 244 713 553 713 554 713 244 714 554 714 555 714 555 715 556 715 244 715 244 716 556 716 559 716 556 717 557 717 559 717 559 718 557 718 560 718 557 719 558 719 560 719 560 720 158 720 559 720 559 721 158 721 155 721 558 722 160 722 560 722 560 723 160 723 158 723 307 242 184 242 309 242 309 242 184 242 186 242 0 724 86 724 1 724 1 725 86 725 88 725 55 726 54 726 127 726 127 727 54 727 133 727 559 728 155 728 244 728 244 729 155 729 154 729 334 730 342 730 333 730 333 731 342 731 344 731 331 242 515 242 332 242 332 242 515 242 341 242 397 142 561 142 398 142 398 142 561 142 562 142 561 732 397 732 563 732 563 733 397 733 396 733 563 734 396 734 564 734 564 735 396 735 395 735 564 736 395 736 565 736 565 737 395 737 566 737 395 738 393 738 566 738 566 739 393 739 567 739 567 740 393 740 568 740 568 741 393 741 392 741 568 742 392 742 569 742 569 743 392 743 390 743 569 744 390 744 570 744 570 142 390 142 571 142 571 142 390 142 377 142 572 745 571 745 386 745 386 746 571 746 377 746 571 747 572 747 570 747 570 747 572 747 573 747 570 747 573 747 561 747 561 747 573 747 562 747 570 747 561 747 569 747 569 748 561 748 563 748 569 748 563 748 568 748 568 747 563 747 564 747 568 747 564 747 567 747 567 747 564 747 565 747 567 747 565 747 566 747 573 749 385 749 562 749 562 750 385 750 398 750 386 242 385 242 572 242 572 242 385 242 573 242 574 751 383 751 575 751 575 752 383 752 382 752 384 242 383 242 576 242 576 242 383 242 574 242 577 747 576 747 578 747 578 747 576 747 574 747 578 747 574 747 579 747 579 747 574 747 575 747 578 747 579 747 580 747 580 753 579 753 581 753 580 753 581 753 582 753 582 747 581 747 583 747 582 747 583 747 584 747 584 747 583 747 585 747 584 747 585 747 586 747 578 142 434 142 577 142 577 142 434 142 399 142 579 754 426 754 581 754 581 733 426 733 427 733 581 734 427 734 583 734 583 735 427 735 429 735 583 736 429 736 585 736 585 737 429 737 586 737 429 738 431 738 586 738 586 739 431 739 584 739 584 740 431 740 582 740 582 741 431 741 432 741 582 742 432 742 580 742 580 743 432 743 434 743 580 755 434 755 578 755 575 142 382 142 579 142 579 142 382 142 426 142 576 71 577 71 384 71 384 71 577 71 399 71 61 756 103 756 69 756 69 757 103 757 105 757 587 247 588 247 105 247 105 247 588 247 589 247 105 247 589 247 69 247 69 247 589 247 590 247 69 247 590 247 591 247 592 247 593 247 106 247 106 247 593 247 594 247 106 247 594 247 105 247 105 247 594 247 595 247 105 247 595 247 596 247 597 247 598 247 70 247 70 247 598 247 599 247 70 247 599 247 106 247 106 247 599 247 600 247 106 247 600 247 601 247 602 247 603 247 69 247 69 247 603 247 604 247 69 247 604 247 70 247 70 247 604 247 605 247 70 247 605 247 606 247 591 247 607 247 69 247 69 247 607 247 608 247 69 247 608 247 602 247 606 247 597 247 70 247 601 247 592 247 106 247 596 247 609 247 105 247 105 247 609 247 610 247 105 247 610 247 587 247 611 758 612 758 613 758 613 759 612 759 606 759 613 760 606 760 605 760 612 761 614 761 606 761 606 762 614 762 615 762 606 763 615 763 597 763 597 764 615 764 616 764 597 765 616 765 598 765 598 766 616 766 617 766 598 767 617 767 599 767 599 768 617 768 618 768 614 769 619 769 615 769 613 770 605 770 620 770 620 771 605 771 604 771 620 772 604 772 621 772 621 773 604 773 603 773 621 774 603 774 622 774 622 775 603 775 602 775 622 776 602 776 623 776 623 777 602 777 608 777 623 778 608 778 624 778 624 779 608 779 607 779 624 780 607 780 625 780 625 781 607 781 591 781 625 782 591 782 626 782 626 783 591 783 590 783 626 784 590 784 627 784 627 785 590 785 589 785 627 786 589 786 628 786 611 787 613 787 629 787 629 788 613 788 630 788 631 247 632 247 629 247 629 247 632 247 633 247 629 247 633 247 611 247 611 247 633 247 612 247 619 247 614 247 633 247 633 247 614 247 612 247 615 789 619 789 634 789 634 789 619 789 633 789 634 247 635 247 615 247 615 247 635 247 636 247 615 247 636 247 637 247 637 247 638 247 615 247 615 247 638 247 639 247 615 247 639 247 640 247 640 247 641 247 615 247 615 247 641 247 616 247 641 247 642 247 616 247 616 247 642 247 617 247 642 247 618 247 617 247 620 247 621 247 613 247 613 247 621 247 622 247 613 247 622 247 623 247 623 247 624 247 613 247 613 247 624 247 625 247 613 247 625 247 630 247 630 247 625 247 626 247 630 247 626 247 643 247 643 247 626 247 627 247 643 247 627 247 644 247 644 247 627 247 628 247 109 790 73 790 108 790 108 791 73 791 72 791 74 792 99 792 75 792 75 793 99 793 98 793 78 242 77 242 645 242 645 242 77 242 96 242 645 242 96 242 646 242 646 242 96 242 94 242 646 242 94 242 647 242 647 242 94 242 484 242 647 794 484 794 648 794 645 242 649 242 78 242 78 242 649 242 491 242 649 795 650 795 491 795 322 796 461 796 320 796 320 797 461 797 468 797 303 411 301 411 651 411 530 318 652 318 532 318 532 798 652 798 653 798 653 799 654 799 532 799 532 800 654 800 534 800 654 801 655 801 534 801 534 802 655 802 656 802 534 803 656 803 657 803 534 804 657 804 536 804 536 805 657 805 658 805 536 806 658 806 538 806 538 807 658 807 659 807 538 808 659 808 660 808 660 809 659 809 661 809 538 810 660 810 540 810 540 811 660 811 662 811 540 812 662 812 663 812 540 813 663 813 500 813 500 814 663 814 664 814 500 815 664 815 665 815 665 816 666 816 500 816 500 817 666 817 501 817 666 818 667 818 501 818 501 819 667 819 668 819 501 820 668 820 502 820 502 821 668 821 669 821 502 822 669 822 670 822 670 823 671 823 502 823 502 824 671 824 541 824 671 825 672 825 541 825 541 826 672 826 673 826 541 827 673 827 542 827 542 828 673 828 674 828 542 829 674 829 543 829 543 830 674 830 675 830 543 831 675 831 676 831 672 832 677 832 673 832 543 833 676 833 492 833 492 834 676 834 678 834 492 835 678 835 679 835 680 836 493 836 679 836 679 837 493 837 492 837 681 838 682 838 683 838 683 839 682 839 684 839 683 840 684 840 685 840 685 841 684 841 686 841 687 842 686 842 688 842 688 843 686 843 684 843 688 71 684 71 673 71 673 71 677 71 688 71 689 844 690 844 682 844 682 845 690 845 680 845 682 846 680 846 684 846 684 847 680 847 679 847 684 848 679 848 678 848 691 849 692 849 682 849 682 850 692 850 693 850 682 851 693 851 689 851 678 852 676 852 684 852 684 853 676 853 675 853 684 854 675 854 674 854 674 855 673 855 684 855 694 856 682 856 695 856 695 856 682 856 681 856 695 857 681 857 696 857 694 858 691 858 682 858 697 859 687 859 698 859 698 859 687 859 688 859 659 21 683 21 698 21 698 860 683 860 685 860 698 861 685 861 697 861 698 862 661 862 659 862 696 863 681 863 699 863 699 864 681 864 700 864 656 865 653 865 683 865 683 866 653 866 652 866 683 867 652 867 681 867 681 868 652 868 701 868 681 869 701 869 700 869 659 870 658 870 683 870 683 871 658 871 657 871 683 872 657 872 656 872 656 873 655 873 653 873 653 874 655 874 654 874 690 875 689 875 494 875 494 876 689 876 495 876 689 877 693 877 495 877 495 878 693 878 496 878 693 879 692 879 496 879 496 880 692 880 691 880 496 881 691 881 497 881 497 882 691 882 694 882 497 883 694 883 702 883 497 884 702 884 514 884 514 885 702 885 703 885 514 886 703 886 704 886 514 887 704 887 516 887 516 888 704 888 705 888 516 889 705 889 706 889 516 890 706 890 519 890 519 891 706 891 707 891 519 892 707 892 708 892 519 893 708 893 521 893 521 894 708 894 709 894 521 895 709 895 710 895 710 896 711 896 521 896 521 897 711 897 522 897 711 898 712 898 522 898 522 899 712 899 523 899 712 900 695 900 523 900 523 901 695 901 526 901 695 902 696 902 526 902 526 903 696 903 699 903 526 904 699 904 528 904 528 905 699 905 700 905 528 906 700 906 701 906 652 907 530 907 701 907 701 908 530 908 528 908 493 909 680 909 494 909 494 910 680 910 690 910 694 454 695 454 702 454 702 454 695 454 712 454 702 454 712 454 703 454 703 911 712 911 711 911 703 911 711 911 704 911 704 454 711 454 710 454 704 454 710 454 705 454 705 912 710 912 709 912 705 912 709 912 706 912 706 454 709 454 708 454 706 454 708 454 707 454 661 913 698 913 660 913 660 332 698 332 688 332 660 914 688 914 662 914 662 915 688 915 672 915 662 916 672 916 671 916 688 917 677 917 672 917 662 918 671 918 663 918 663 919 671 919 670 919 663 920 670 920 664 920 664 921 670 921 669 921 664 922 669 922 665 922 665 923 669 923 668 923 665 924 668 924 666 924 666 925 668 925 667 925 685 926 686 926 697 926 697 927 686 927 687 927 713 928 714 928 715 928 715 929 714 929 716 929 715 930 716 930 717 930 718 931 719 931 506 931 506 932 719 932 507 932 719 933 720 933 507 933 507 934 720 934 721 934 507 935 721 935 544 935 544 936 721 936 722 936 544 937 722 937 723 937 544 938 723 938 545 938 545 939 723 939 724 939 545 940 724 940 546 940 546 941 724 941 725 941 546 942 725 942 726 942 546 943 726 943 547 943 547 944 726 944 727 944 547 945 727 945 728 945 728 946 729 946 547 946 547 947 729 947 498 947 729 948 730 948 498 948 498 949 730 949 731 949 498 950 731 950 499 950 499 951 731 951 732 951 499 952 732 952 733 952 733 953 734 953 499 953 499 954 734 954 539 954 734 955 735 955 539 955 539 956 735 956 736 956 539 957 736 957 537 957 537 958 736 958 737 958 537 959 737 959 738 959 738 960 737 960 739 960 738 961 739 961 740 961 741 962 742 962 737 962 737 963 742 963 739 963 537 480 738 480 535 480 535 479 738 479 743 479 535 478 743 478 744 478 535 964 744 964 533 964 533 476 744 476 745 476 533 475 745 475 531 475 531 965 745 965 746 965 747 966 748 966 749 966 749 967 748 967 750 967 749 856 750 856 751 856 751 968 750 968 752 968 753 969 754 969 529 969 529 177 754 177 527 177 754 176 755 176 527 176 527 175 755 175 756 175 527 174 756 174 525 174 525 173 756 173 757 173 525 172 757 172 524 172 524 970 757 970 749 970 524 883 749 883 758 883 757 971 747 971 749 971 524 884 758 884 513 884 513 885 758 885 759 885 513 886 759 886 760 886 513 887 760 887 512 887 512 888 760 888 761 888 512 889 761 889 762 889 512 890 762 890 511 890 511 972 762 972 763 972 511 973 763 973 764 973 511 893 764 893 508 893 508 894 764 894 765 894 508 895 765 895 766 895 766 896 767 896 508 896 508 897 767 897 509 897 767 898 768 898 509 898 509 899 768 899 510 899 768 900 751 900 510 900 510 901 751 901 503 901 751 902 752 902 503 902 503 903 752 903 769 903 503 904 769 904 504 904 504 905 769 905 770 905 504 906 770 906 771 906 772 974 505 974 771 974 771 908 505 908 504 908 531 71 746 71 529 71 529 71 746 71 753 71 505 21 772 21 506 21 506 21 772 21 718 21 749 454 751 454 758 454 758 975 751 975 768 975 758 975 768 975 759 975 759 976 768 976 767 976 759 976 767 976 760 976 760 977 767 977 766 977 760 977 766 977 761 977 761 978 766 978 765 978 761 978 765 978 762 978 762 979 765 979 764 979 762 979 764 979 763 979 750 980 748 980 714 980 714 981 748 981 773 981 714 982 773 982 716 982 752 983 750 983 769 983 769 984 750 984 770 984 721 985 720 985 714 985 714 986 720 986 718 986 714 987 718 987 750 987 750 988 718 988 772 988 750 989 772 989 771 989 721 990 714 990 722 990 722 991 714 991 713 991 722 992 713 992 723 992 723 993 713 993 724 993 720 994 719 994 718 994 771 995 770 995 750 995 743 996 738 996 746 996 746 997 738 997 757 997 746 998 757 998 753 998 753 999 757 999 756 999 753 1000 756 1000 755 1000 755 1001 754 1001 753 1001 745 1002 744 1002 746 1002 746 1003 744 1003 743 1003 747 71 757 71 748 71 748 1004 757 1004 738 1004 748 1005 738 1005 740 1005 740 1006 773 1006 748 1006 741 1007 717 1007 742 1007 742 1008 717 1008 739 1008 739 1009 717 1009 740 1009 740 1010 717 1010 716 1010 740 1011 716 1011 773 1011 715 1012 736 1012 713 1012 713 1013 736 1013 735 1013 713 1014 735 1014 734 1014 715 332 737 332 736 332 734 1015 733 1015 713 1015 713 1016 733 1016 727 1016 713 1017 727 1017 726 1017 733 1018 732 1018 727 1018 727 1019 732 1019 728 1019 732 1020 731 1020 728 1020 728 1021 731 1021 729 1021 731 1022 730 1022 729 1022 726 1023 725 1023 713 1023 713 1024 725 1024 724 1024 717 859 741 859 715 859 715 859 741 859 737 859 408 1025 774 1025 406 1025 406 1026 774 1026 775 1026 774 1027 408 1027 776 1027 776 1028 408 1028 409 1028 776 1029 409 1029 777 1029 777 1030 409 1030 778 1030 778 1031 409 1031 779 1031 779 1032 409 1032 410 1032 779 1033 410 1033 780 1033 780 1034 410 1034 411 1034 780 1035 411 1035 781 1035 781 1036 411 1036 782 1036 781 1037 782 1037 783 1037 411 1038 412 1038 782 1038 782 1039 412 1039 784 1039 784 1040 412 1040 785 1040 785 1041 412 1041 374 1041 785 1042 374 1042 786 1042 786 1043 374 1043 787 1043 374 1044 373 1044 787 1044 787 1045 373 1045 788 1045 789 1046 790 1046 372 1046 372 1047 790 1047 791 1047 372 1048 791 1048 373 1048 373 1049 791 1049 792 1049 373 1050 792 1050 788 1050 789 1051 372 1051 793 1051 793 1052 372 1052 422 1052 793 1053 422 1053 794 1053 794 1054 422 1054 795 1054 794 1055 795 1055 796 1055 422 1056 421 1056 795 1056 795 1057 421 1057 797 1057 421 1058 420 1058 797 1058 797 1059 420 1059 798 1059 798 1060 420 1060 799 1060 799 1061 420 1061 381 1061 799 1062 381 1062 800 1062 800 1063 381 1063 801 1063 381 1064 380 1064 801 1064 801 1065 380 1065 802 1065 803 1066 804 1066 805 1066 805 1067 804 1067 806 1067 805 1068 806 1068 807 1068 807 1069 808 1069 805 1069 809 1070 804 1070 810 1070 810 1071 804 1071 803 1071 810 261 803 261 811 261 811 1072 803 1072 812 1072 795 1073 797 1073 805 1073 805 1074 797 1074 798 1074 805 1075 798 1075 799 1075 799 1076 800 1076 805 1076 805 1077 800 1077 801 1077 805 1078 801 1078 802 1078 805 1079 802 1079 803 1079 803 1080 802 1080 813 1080 803 1081 813 1081 814 1081 814 1082 815 1082 803 1082 803 1083 815 1083 816 1083 803 1084 816 1084 812 1084 809 1085 817 1085 804 1085 804 1086 817 1086 818 1086 804 1087 818 1087 819 1087 819 1088 775 1088 804 1088 804 1089 775 1089 806 1089 775 1090 774 1090 806 1090 806 1091 774 1091 778 1091 806 1092 778 1092 779 1092 776 1093 777 1093 774 1093 774 1094 777 1094 778 1094 779 1095 780 1095 806 1095 806 1096 780 1096 781 1096 813 1097 379 1097 814 1097 814 1098 379 1098 378 1098 814 1099 378 1099 815 1099 815 1100 378 1100 376 1100 815 1101 376 1101 816 1101 816 1102 376 1102 812 1102 376 1103 375 1103 812 1103 812 1104 375 1104 811 1104 811 483 375 483 820 483 820 484 375 484 389 484 820 485 389 485 821 485 821 486 389 486 391 486 821 487 391 487 822 487 822 488 391 488 823 488 823 489 391 489 824 489 824 490 391 490 394 490 824 1105 394 1105 825 1105 825 1106 394 1106 826 1106 394 493 415 493 826 493 826 494 415 494 827 494 827 495 415 495 828 495 828 496 415 496 416 496 828 497 416 497 829 497 829 498 416 498 830 498 416 499 413 499 830 499 830 500 413 500 810 500 413 501 402 501 810 501 810 502 402 502 809 502 809 503 402 503 817 503 817 504 402 504 404 504 817 505 404 505 818 505 818 506 404 506 819 506 404 507 406 507 819 507 819 1107 406 1107 775 1107 810 425 811 425 830 425 830 1108 811 1108 820 1108 830 1108 820 1108 829 1108 829 1109 820 1109 821 1109 829 1109 821 1109 828 1109 828 332 821 332 822 332 828 332 822 332 827 332 827 332 822 332 823 332 827 332 823 332 826 332 826 1110 823 1110 824 1110 826 1110 824 1110 825 1110 379 1111 813 1111 380 1111 380 1112 813 1112 802 1112 807 1113 806 1113 831 1113 831 1114 806 1114 781 1114 831 1115 781 1115 783 1115 831 1116 832 1116 807 1116 832 225 831 225 833 225 833 225 831 225 834 225 833 1117 834 1117 808 1117 808 1118 834 1118 805 1118 796 71 795 71 834 71 834 71 795 71 805 71 783 1119 782 1119 831 1119 831 454 782 454 834 454 782 1120 784 1120 834 1120 834 1121 784 1121 794 1121 834 1122 794 1122 796 1122 794 1123 784 1123 793 1123 793 1124 784 1124 785 1124 793 1125 785 1125 789 1125 789 1126 785 1126 786 1126 789 1127 786 1127 790 1127 790 1128 786 1128 787 1128 790 1129 787 1129 791 1129 791 1130 787 1130 788 1130 791 1131 788 1131 792 1131 807 1132 832 1132 808 1132 808 1133 832 1133 833 1133 254 1134 449 1134 255 1134 255 1135 449 1135 835 1135 255 1136 835 1136 467 1136 313 1137 835 1137 312 1137 312 1138 835 1138 448 1138 835 1139 449 1139 448 1139 315 1140 473 1140 313 1140 313 1141 473 1141 474 1141 313 1142 474 1142 475 1142 475 1143 368 1143 313 1143 313 1144 368 1144 199 1144 313 1145 199 1145 835 1145 835 1146 199 1146 203 1146 835 1147 203 1147 204 1147 199 1148 201 1148 203 1148 204 1149 206 1149 835 1149 835 1150 206 1150 467 1150 206 1151 207 1151 467 1151 467 1152 207 1152 209 1152 648 1153 484 1153 836 1153 836 1154 484 1154 485 1154 836 1155 485 1155 837 1155 837 1156 485 1156 486 1156 837 1157 486 1157 487 1157 488 1158 838 1158 487 1158 487 1159 838 1159 839 1159 487 1160 839 1160 837 1160 488 1161 489 1161 838 1161 838 1162 489 1162 840 1162 489 1163 490 1163 840 1163 840 1164 490 1164 841 1164 490 1165 491 1165 841 1165 841 1166 491 1166 650 1166 837 1167 839 1167 300 1167 300 1168 839 1168 842 1168 300 1169 842 1169 301 1169 301 1170 842 1170 438 1170 301 1171 438 1171 843 1171 843 1172 438 1172 844 1172 300 1173 483 1173 837 1173 837 1174 483 1174 845 1174 837 1175 845 1175 836 1175 836 1176 845 1176 846 1176 836 1177 846 1177 648 1177 648 1178 846 1178 647 1178 839 1179 838 1179 842 1179 842 1180 838 1180 840 1180 842 1181 840 1181 847 1181 847 1182 840 1182 848 1182 840 1183 841 1183 848 1183 848 1184 841 1184 849 1184 841 1185 650 1185 849 1185 849 1186 650 1186 649 1186 438 1187 440 1187 844 1187 843 1187 651 1187 301 1187 846 1188 850 1188 647 1188 647 1189 850 1189 646 1189 850 1190 851 1190 646 1190 646 1191 851 1191 852 1191 646 1192 852 1192 853 1192 850 1193 854 1193 851 1193 851 1194 854 1194 855 1194 851 1195 855 1195 856 1195 856 1196 855 1196 857 1196 856 1197 857 1197 645 1197 856 1198 645 1198 853 1198 853 1199 645 1199 646 1199 304 1200 305 1200 845 1200 845 1201 305 1201 846 1201 305 1202 858 1202 846 1202 846 1203 858 1203 850 1203 858 1204 854 1204 850 1204 845 1205 483 1205 304 1205 304 1205 483 1205 302 1205 447 1206 859 1206 446 1206 446 1207 859 1207 860 1207 446 21 860 21 303 21 651 1208 843 1208 303 1208 303 1209 843 1209 446 1209 445 1210 330 1210 447 1210 447 1210 330 1210 328 1210 447 1211 328 1211 861 1211 861 1211 859 1211 447 1211 862 1212 439 1212 863 1212 863 1213 439 1213 438 1213 863 1214 438 1214 842 1214 862 1215 864 1215 439 1215 857 1216 865 1216 849 1216 849 1217 865 1217 864 1217 849 1218 864 1218 848 1218 848 1219 864 1219 862 1219 857 1220 855 1220 865 1220 645 1221 857 1221 649 1221 649 1222 857 1222 849 1222 842 539 847 539 863 539 445 1223 444 1223 330 1223 330 1223 444 1223 329 1223 446 1224 843 1224 444 1224 444 242 843 242 844 242 444 242 844 242 329 242 329 1225 844 1225 327 1225 848 1226 862 1226 847 1226 847 1226 862 1226 863 1226 865 1227 855 1227 866 1227 866 1228 855 1228 854 1228 866 1229 854 1229 867 1229 867 1230 854 1230 858 1230 328 1231 327 1231 861 1231 861 1232 327 1232 868 1232 868 1233 327 1233 439 1233 439 1234 327 1234 844 1234 439 1235 844 1235 440 1235 861 1236 868 1236 859 1236 859 1237 868 1237 860 1237 868 1238 869 1238 860 1238 860 1239 869 1239 870 1239 870 1240 869 1240 867 1240 867 1240 869 1240 866 1240 852 1241 851 1241 871 1241 871 1242 851 1242 872 1242 871 1243 873 1243 852 1243 852 1244 873 1244 853 1244 853 1245 873 1245 856 1245 856 1246 873 1246 874 1246 851 1247 856 1247 872 1247 872 1248 856 1248 874 1248 872 1249 874 1249 871 1249 871 1250 874 1250 873 1250 472 856 463 856 875 856 875 1251 463 1251 464 1251 876 1252 470 1252 877 1252 877 1252 470 1252 469 1252 878 1253 877 1253 471 1253 471 1253 877 1253 469 1253 471 1254 472 1254 878 1254 878 1254 472 1254 875 1254 465 1255 466 1255 876 1255 876 1240 466 1240 470 1240 465 1256 876 1256 464 1256 464 1257 876 1257 875 1257 876 1258 877 1258 875 1258 875 1259 877 1259 878 1259 352 1260 350 1260 879 1260 879 1261 350 1261 441 1261 880 1262 356 1262 881 1262 881 1262 356 1262 358 1262 441 1263 443 1263 879 1263 879 1263 443 1263 880 1263 879 1263 880 1263 882 1263 882 1263 880 1263 881 1263 443 1264 357 1264 880 1264 880 1071 357 1071 356 1071 881 1265 358 1265 882 1265 882 1266 358 1266 353 1266 353 1267 352 1267 882 1267 882 1268 352 1268 879 1268 860 21 870 21 303 21 303 21 870 21 305 21 867 21 858 21 870 21 870 21 858 21 305 21 868 1269 439 1269 869 1269 869 1270 439 1270 864 1270 869 1271 864 1271 865 1271 865 1272 866 1272 869 1272 618 1273 642 1273 599 1273 599 1274 642 1274 600 1274 642 1275 641 1275 600 1275 600 1276 641 1276 601 1276 641 1277 640 1277 601 1277 601 1278 640 1278 592 1278 640 1279 639 1279 592 1279 592 1280 639 1280 593 1280 639 1281 638 1281 593 1281 593 1282 638 1282 594 1282 638 1283 637 1283 594 1283 594 1284 637 1284 595 1284 637 1285 636 1285 595 1285 595 1286 636 1286 596 1286 636 1287 635 1287 596 1287 596 1288 635 1288 609 1288 635 1289 634 1289 609 1289 609 1290 634 1290 610 1290 633 1291 632 1291 634 1291 634 1292 632 1292 610 1292 632 1293 631 1293 610 1293 610 1294 631 1294 630 1294 610 1295 630 1295 587 1295 587 1296 630 1296 643 1296 587 1297 643 1297 588 1297 588 1298 643 1298 644 1298 588 1299 644 1299 589 1299 589 1300 644 1300 628 1300 631 1301 629 1301 630 1301</p>
        </triangles>
      </mesh>
    </geometry>
  </library_geometries>
  <library_visual_scenes>
    <visual_scene id="DefaultScene">
      <node id="node_0988a401_bb00_41ed_b1bb_9208ec017a5a" type="NODE">
        <matrix>1 0 0 0 0 1 0 0 0 0 1 0 0 0 0 1</matrix>
        <node id="node_74853b15_e91f_48e0_ab9a_e43ef9515963" type="NODE">
          <matrix>1 0 0 0 0 1 0 0 0 0 1 0 0 0 0 1</matrix>
          <node id="node_74853b15_e91f_48e0_ab9a_e43ef9515963_mesh0" type="NODE">
            <matrix>1 0 0 0 0 1 0 0 0 0 1 0 0 0 0 1</matrix>
            <instance_geometry url="#geometry_44396713_4080_4bec_b897_0ff81bb9068e">
              <bind_material>
                <technique_common>
                  <instance_material symbol="mat_0" target="#mat_0"/>
                </technique_common>
              </bind_material>
            </instance_geometry>
          </node>
        </node>
      </node>
    </visual_scene>
  </library_visual_scenes>
  <scene>
    <instance_visual_scene url="#DefaultScene"/>
  </scene>
</COLLADA>
