<?xml version="1.0" encoding="UTF-8"?>
<COLLADA xmlns="http://www.collada.org/2005/11/COLLADASchema" version="1.4.1">
<!--
# File generated by ImageToStl.com - Free Image and 3D model conversion tools
-->
  <asset>
    <contributor>
      <author>ImageToStl.com</author>
      <authoring_tool>ImageToStl.com</authoring_tool>
    </contributor>
    <created>2025-04-01T10:05:06</created>
    <modified>2025-04-01T10:05:06</modified>
    <up_axis>Z_UP</up_axis>
  </asset>
  <library_effects>
    <effect id="effect_0">
        <profile_COMMON>
          <technique sid="common">
            <phong>
              <diffuse>
                <color>0.56078 0.58824 0.6 1</color>
              </diffuse>
              <specular>
                <color>0.05 0.05 0.05 1</color>
              </specular>
              <shininess>
                <float>64</float>
              </shininess>
              <transparency>
                <float>1</float>
              </transparency>
            </phong>
          </technique>
        </profile_COMMON>
    </effect>
    <effect id="effect_1">
        <profile_COMMON>
          <technique sid="common">
            <phong>
              <diffuse>
                <color>0.82353 0.82353 0.78431 1</color>
              </diffuse>
              <specular>
                <color>0.05 0.05 0.05 1</color>
              </specular>
              <shininess>
                <float>64</float>
              </shininess>
              <transparency>
                <float>1</float>
              </transparency>
            </phong>
          </technique>
        </profile_COMMON>
    </effect>
  </library_effects>
  <library_materials>
    <material id="mat_0">
      <instance_effect url="#effect_0"/>
    </material>
    <material id="mat_1">
      <instance_effect url="#effect_1"/>
    </material>
  </library_materials>
  <library_geometries>
    <geometry id="geometry_4171c503_1b9f_4fa1_9d1e_0884198eb544">
      <mesh>
        <source id="pos_0">
          <float_array id="pos_0-array" count="2469">9.5 47.56515884 0 9.5 45.03152847 0.36940709 9.5 45.28205109 0 9.5 44.79863358 0.75017375 9.5 44.58387756 1.14145935 9.5 44.38774109 1.54240024 9.5 44.92310715 4.9000001 9.5 54.59999847 7.19999981 9.5 44.2106514 1.95211136 9.5 44.0530014 2.36968827 9.5 43.91514206 2.794209 9.5 43.79737473 3.22473669 9.5 43.69995499 3.66032076 9.5 43.62310791 4.0999999 9.5 43.62310791 4.55166626 9.5 53.95941544 12.8569746 9.5 44.92310715 6 9.5 54.02388763 12.16411877 9.5 54.12042618 11.47499943 9.5 54.24881744 10.79109764 9.5 54.40879059 10.11388683 9.5 54.59999847 9.44482327 9.5 41.98660278 5.80000019 9.5 40.24019241 6 9.5 40.98660278 5.80000019 9.5 54.59999847 20.60000038 9.5 50.87182617 20.60000038 9.5 54.59999847 18.35517693 9.5 54.40879059 17.68611336 9.5 54.24881744 17.0089016 9.5 49.37479782 19.96331596 9.5 54.12042618 16.32500076 9.5 54.02388763 15.63588047 9.5 53.95941544 14.94302464 9.5 53.9271431 14.2479248 9.5 50.30683899 21.07408142 9.5 48.87085342 20.77779961 9.5 48.54584885 21.05051041 9.5 48.67801666 20.54798508 9.5 46.9284935 19.7315464 9.5 53.9271431 13.55207539 9.5 47.60342026 20.53589439 9.5 47.1370163 20.92725372 9.5 30.29999924 7.30000019 9.5 30.29999924 6 9.5 30.29999924 8.10000038 9.5 39.77590179 19.39999962 9.5 30.29999924 10.60000038 9.5 42.83015442 23.17046165 9.5 30.29999924 11.39999962 9.5 43.06905746 25.78512955 9.5 42.5643425 25.67796516 9.5 43.25365448 23.67516708 9.5 42.65426636 25.78512955 9.5 30.29999924 13.89999962 9.5 24.29999924 8.10000038 9.5 24.29999924 7.30000019 9.5 41.86756134 26.26263428 9.5 30.29999924 14.69999981 9.5 42.87730408 27.30820084 9.5 42.38179398 26.87547112 9.5 42.80814743 26.51771736 9.5 41.93199158 28.10141373 9.5 41.56844711 28.42178917 9.5 30.29999924 17.20000076 9.5 24.29999924 11.39999962 9.5 24.29999924 10.60000038 9.5 41.2208519 28.75939751 9.5 31.29999924 19.39999962 9.5 30.29999924 18 9.5 30.29999924 20.5 9.5 24.29999924 14.69999981 9.5 24.29999924 13.89999962 9.5 30.29999924 21.29999924 9.5 14.90602207 6 9.5 24.29999924 6 9.5 31.29999924 22.60000038 9.5 33.90000153 24.50192451 9.5 33.90000153 22.60000038 9.5 40.89001465 29.1134491 9.5 37.15000153 29.20000076 9.5 40.57672119 29.48311043 9.5 40.28170395 29.86751556 9.5 40.00564957 30.26576042 9.5 39.74921417 30.6769104 9.5 13.1596117 5.80000019 9.5 14.1596117 5.80000019 9.5 24.29999924 17.20000076 9.5 30.29999924 23.79999924 9.5 24.29999924 18 9.5 37.15000153 31.10000038 9.5 39.51299667 31.10000038 9.5 30.29999924 24.60000038 9.5 11.32310772 4.60525608 9.5 10.22310734 4.9000001 9.5 11.32310772 3.12353849 9.5 11.20448112 2.7067976 9.5 11.06697559 2.29589939 9.5 10.91087627 1.89169836 9.5 10.73650932 1.49503577 9.5 10.54423618 1.10673654 9.5 10.3344574 0.72760844 9.5 30.29999924 27.10000038 9.5 24.29999924 21.29999924 9.5 24.29999924 20.5 9.5 30.45000076 27.89999962 9.5 13.70379639 13.01882648 9.5 11.86217594 6.14580679 9.5 13.71193695 13.05252457 9.5 13.71839905 13.08658409 9.5 13.72316742 13.12092209 9.5 13.72622967 13.15545368 9.5 13.72757816 13.19009399 9.5 9.8641634 0 9.5 3.25806403 2.72985506 9.5 3.20763326 1.5 9.5 10.1076088 0.35844031 9.5 13.72721004 13.22476006 9.5 13.72512627 13.25936413 9.5 13.7213316 13.29382324 9.5 13.71583652 13.32805157 9.5 13.7086525 13.36196613 9.5 13.69979858 13.39548397 9.5 13.68929577 13.42852211 9.5 13.67717075 13.46099949 9.5 13.66345215 13.49283695 9.5 13.64817429 13.5239563 9.5 13.63137436 13.55428028 9.5 13.61309338 13.58373642 9.5 0 0 9.5 1.5 1.5 9.5 13.59337711 13.61225033 9.5 13.57227325 13.6397543 9.5 13.5498333 13.6661787 9.5 13.52611256 13.69145966 9.5 13.5011692 13.71553612 9.5 13.47506523 13.73834801 9.5 24.29999924 24.60000038 9.5 24.29999924 23.79999924 9.5 13.44786263 13.75983906 9.5 3.35560846 3.9568727 9.5 30.45000076 28.97999954 9.5 31.13531876 31.79999924 9.5 29.93814468 28.97999954 9.5 31.94448662 31.79999924 9.5 1.56370938 2.49214315 9.5 1.5 2.42917967 9.5 1.53263843 2.45986843 9.5 1.59313571 2.52592421 9.5 1.62084448 2.5611279 9.5 1.64676714 2.59766674 9.5 1.67083943 2.63545012 9.5 1.71319902 2.71437407 9.5 1.69300163 2.67438483 9.5 1.74750352 2.79711747 9.5 1.7313813 2.75531864 9.5 1.7734133 2.88286114 9.5 1.76152575 2.83966684 9.5 1.79067159 2.97075582 9.5 1.78313661 2.92659354 9.5 1.79599965 3.01523805 9.5 1.79910755 3.05993056 9.5 1.79998755 3.10472226 9.5 1.79863763 3.14950204 9.5 1.79506087 3.19415951 9.5 1.78926635 3.23858333 9.5 1.78126836 3.28266406 9.5 1.77108669 3.32629204 9.5 1.7587465 3.36935925 9.5 1.74427855 3.41175914 9.5 3.50012302 5.17924833 9.5 1.72771859 3.45338655 9.5 1.70910764 3.49413824 9.5 1.68849182 3.53391314 9.5 1.66592216 3.572613 9.5 1.64145482 3.61014199 9.5 1.61515009 3.64640665 9.5 1.55729425 3.71478796 9.5 1.52588642 3.7467351 9.5 1.58707345 3.68131757 9.5 1.49292767 3.77707958 9.5 1.45849979 3.80574632 9.5 1.42268801 3.83266449 9.5 1.38558102 3.85776711 9.5 1.34727085 3.88099217 9.5 1.30785251 3.902282 9.5 3.69139504 6.39518499 9.5 10.22310734 6 9.5 1.26742351 3.92158389 9.5 1.1839366 3.95403743 9.5 1.22608399 3.93884993 9.5 1.14108562 3.96710873 9.5 1.09763718 3.97803164 9.5 1.05369914 3.98677874 9.5 1.00938022 3.99332857 9.5 3.75104809 6.78909111 9.5 0.96479023 3.99766493 9.5 0.92003971 3.99977684 9.5 0 3.0999999 9.5 0.87523955 3.9996593 9.5 0.00111504 3.14478636 9.5 0.78593415 3.9927423 9.5 0.83050078 3.99731255 9.5 0.01001877 3.23391557 9.5 0.00445739 3.18946195 9.5 0.74165022 3.98596001 9.5 0.0177854 3.27803755 9.5 0.03985202 3.36484981 9.5 0.02773804 3.32171845 9.5 0.69775862 3.97698259 9.5 0.61158633 3.95253587 9.5 0.65436816 3.965832 9.5 0.05409733 3.40732503 9.5 0.07043868 3.44903874 9.5 0.5282709 3.91964483 9.5 0.56951916 3.93712759 9.5 3.79101658 7.18547869 9.5 0.08883555 3.48988748 9.5 0.48794368 3.90013099 9.5 0.44863752 3.87863469 9.5 0.13160861 3.56858802 9.5 0.10924238 3.52977014 9.5 0.41044974 3.85520887 9.5 0.15587878 3.60624456 9.5 0.37347504 3.82991195 9.5 0.18199281 3.64264703 9.5 0.23948909 3.71133089 9.5 0.20988594 3.67770457 9.5 0.33780497 3.80280638 9.5 0.27072889 3.7434423 9.5 0.30352795 3.77395916 9.5 3.81120181 7.58336401 9.5 3.81155348 7.98176146 9.5 3.79207087 8.37968159 9.5 3.75280237 8.77613926 9.5 3.69384527 9.1701498 9.5 24.14999962 27.89999962 9.5 21.3961525 27.10000038 9.5 24.29999924 27.10000038 9.5 12.18102646 13.30705547 9.5 3.61534548 9.56073666 9.5 3.51749825 9.94693184 9.5 3.40054584 10.32777596 9.5 3.26477838 10.70232582 9.5 23.67452621 30.10000038 9.5 22.20000076 30.10000038 9.5 24.14999962 28.97999954 9.5 3.11053252 11.06965256 9.5 2.93819094 11.42884445 9.5 2.7481811 11.77901077 9.5 12.19196892 13.34426117 9.5 2.5409739 12.11928368 9.5 16.88730621 27.10000038 9.5 13.39043617 13.79865265 9.5 12.53588963 23.81324768 9.5 13.36035252 13.81587982 9.5 13.41963005 13.77995682 9.5 13.09687614 13.8965683 9.5 13.0623045 13.89914131 9.5 13.13127804 13.8922863 9.5 13.1654253 13.88630676 9.5 13.19923496 13.87864399 9.5 13.23262405 13.86931705 9.5 13.26551056 13.85834789 9.5 13.29781246 13.84576416 9.5 13.32945251 13.83159637 9.5 13.02764797 13.89999962 9.5 8.4375515 20.37433434 9.5 12.95376778 13.89999962 9.5 12.23541355 13.45209026 9.5 12.21919441 13.41686344 9.5 12.25332069 13.48649025 9.5 12.27287388 13.51998138 9.5 12.29402733 13.55248547 9.5 12.31673145 13.5839262 9.5 12.34093189 13.61423016 9.5 12.36657238 13.64332581 9.5 12.39359379 13.67114353 9.5 12.42193031 13.69762039 9.5 12.45151806 13.72269154 9.5 12.4822855 13.7463007 9.5 12.51416016 13.76839066 9.5 12.5470686 13.78890896 9.5 12.58093262 13.80780983 9.5 12.61567307 13.82504654 9.5 12.65120792 13.84057903 9.5 12.68745327 13.85437202 9.5 12.72432518 13.86639118 9.5 12.76173592 13.87661076 9.5 12.79959774 13.88500404 9.5 12.83782196 13.89155293 9.5 12.87631893 13.89624214 9.5 12.9149971 13.89906025 9.5 12.73243809 26.26263428 9.5 12.03565598 25.67796516 9.5 11.86096287 24.61759567 9.5 11.53094387 25.78512955 9.5 11.39455795 24.22623634 9.5 11.94573498 25.78512955 9.5 8.01405239 20.87904167 9.5 5.92198372 20.54798508 9.5 5.22520256 19.96331596 9.5 12.20470142 13.38089275 9.5 0.96818423 13.90787125 9.5 0.65720069 14.15688896 9.5 1.26638508 13.64368057 9.5 1.55106366 13.36497211 9.5 1.82151389 13.07243633 9.5 2.07706499 12.76679993 9.5 2.3170836 12.44881916 9.5 6.05415297 21.05051041 9.5 5.72914743 20.77779961 9.5 13.37914944 28.75939751 9.5 13.03155327 28.42178917 9.5 13.70998383 29.1134491 9.5 12.66800976 28.10141373 9.5 14.02327824 29.48311043 9.5 17.45000076 29.20000076 9.5 14.31829739 29.86751556 9.5 11.80039597 27.37339973 9.5 14.59434891 30.26576042 9.5 17.45000076 31.10000038 9.5 14.8507843 30.6769104 9.5 15.0870018 31.10000038 9.5 5.13732719 20.93390656 9.5 4.37086153 21.13928032 9.5 4.71097231 20.5761528 9.5 3.72817278 20.60000038 9.5 0.33420557 14.39011478 9.5 0 14.60697269 9.5 0 20.60000038 0 45.03152847 0.36940709 0 47.56515884 0 0 45.28205109 0 0 44.79863358 0.75017375 0 44.58387756 1.14145935 0 44.38774109 1.54240024 0 44.92310715 4.9000001 0 54.59999847 7.19999981 0 44.2106514 1.95211136 0 44.0530014 2.36968827 0 43.91514206 2.794209 0 43.79737473 3.22473669 0 43.69995499 3.66032076 0 43.62310791 4.0999999 0 43.62310791 4.55166626 0 44.92310715 6 0 53.9271431 13.55207539 0 53.95941544 12.8569746 0 54.02388763 12.16411877 0 54.12042618 11.47499943 0 54.24881744 10.79109764 0 54.40879059 10.11388683 0 54.59999847 9.44482327 0 40.24019241 6 0 41.98660278 5.80000019 0 40.98660278 5.80000019 0 50.87182617 20.60000038 0 54.59999847 20.60000038 0 54.59999847 18.35517693 0 54.40879059 17.68611336 0 54.24881744 17.0089016 0 49.37479782 19.96331596 0 54.12042618 16.32500076 0 54.02388763 15.63588047 0 53.95941544 14.94302464 0 53.9271431 14.2479248 0 49.88902664 20.5761528 0 50.22913742 21.13928032 0 49.46267319 20.93390656 0 48.54584885 21.05051041 0 48.87085342 20.77779961 0 48.67801666 20.54798508 0 46.16244888 20.37433434 0 46.58594894 20.87904167 0 30.29999924 7.30000019 0 30.29999924 6 0 30.29999924 8.10000038 0 30.29999924 10.60000038 0 30.29999924 11.39999962 0 43.06905746 25.78512955 0 43.20544052 24.22623634 0 42.73903656 24.61759567 0 42.5643425 25.67796516 0 42.0641098 23.81324768 0 42.65426636 25.78512955 0 30.29999924 13.89999962 0 24.29999924 8.10000038 0 24.29999924 7.30000019 0 41.86756134 26.26263428 0 30.29999924 14.69999981 0 41.93199158 28.10141373 0 42.79960251 27.37339973 0 41.56844711 28.42178917 0 30.29999924 17.20000076 0 24.29999924 11.39999962 0 24.29999924 10.60000038 0 41.2208519 28.75939751 0 30.29999924 18 0 37.71269226 27.10000038 0 40.89001465 29.1134491 0 40.57672119 29.48311043 0 40.28170395 29.86751556 0 30.29999924 20.5 0 24.29999924 14.69999981 0 24.29999924 13.89999962 0 30.29999924 21.29999924 0 14.90602207 6 0 24.29999924 6 0 37.15000153 29.20000076 0 40.00564957 30.26576042 0 39.74921417 30.6769104 0 13.1596117 5.80000019 0 14.1596117 5.80000019 0 24.29999924 17.20000076 0 24.29999924 18 0 33.20384598 27.10000038 0 30.29999924 23.79999924 0 37.15000153 31.10000038 0 39.51299667 31.10000038 0 30.29999924 24.60000038 0 10.22310734 4.9000001 0 11.32310772 4.60525608 0 11.32310772 3.12353849 0 11.20448112 2.7067976 0 11.06697559 2.29589939 0 10.91087627 1.89169836 0 10.73650932 1.49503577 0 10.54423618 1.10673654 0 10.3344574 0.72760844 0 23.29999924 19.39999962 0 24.29999924 20.5 0 30.29999924 27.10000038 0 24.29999924 21.29999924 0 30.45000076 27.89999962 0 32.40000153 30.10000038 0 30.45000076 28.97999954 0 30.92547226 30.10000038 0 23.29999924 22.60000038 0 13.70379639 13.01882648 0 11.86217594 6.14580679 0 13.71193695 13.05252457 0 13.71839905 13.08658409 0 13.72316742 13.12092209 0 13.72622967 13.15545368 0 13.72757816 13.19009399 0 13.72721004 13.22476006 0 24.29999924 23.79999924 0 13.72512627 13.25936413 0 13.7213316 13.29382324 0 13.71583652 13.32805157 0 13.7086525 13.36196613 0 13.69979858 13.39548397 0 3.2755239 3.00066614 0 10.1076088 0.35844031 0 9.8641634 0 0 13.68929577 13.42852211 0 13.67717075 13.46099949 0 0 0 0 24.29999924 24.60000038 0 2.2721262 3.00066614 0 3.3739078 4.13686037 0 3.51258993 5.26884317 0 1.43612933 3.82288671 0 1.47095394 3.79570937 0 1.50440311 3.76685596 0 1.36269248 3.87195563 0 1.40001321 3.84832263 0 1.32425702 3.89372921 0 1.28479958 3.91359043 0 3.69139504 6.39518499 0 10.22310734 6 0 1.20320082 3.9473896 0 1.24441504 3.93149161 0 1.16125619 3.96124625 0 1.11868215 3.97302818 0 1.0320574 3.99025893 0 1.07558131 3.98270679 0 3.75104809 6.78909111 0 0.89999998 4 0 0.98821545 3.99566627 0 0.94416088 3.99891591 0 0 3.0999999 0 1.53639615 3.73639607 0 0.85583907 3.99891591 0 0.76794255 3.99025893 0 0.81178457 3.99566627 0 0.7244187 3.98270679 0 0.01729325 3.27558136 0 0.00433375 3.18821549 0 0.00974114 3.23205733 0 0.00108409 3.14416099 0 0.68131787 3.97302818 0 0.0387537 3.36125612 0 0.02697187 3.31868219 0 0.59679914 3.9473896 0 0.63874382 3.96124625 0 0.05261034 3.40320086 0 0.55558491 3.93149161 0 0.06850842 3.44441509 0 3.79101658 7.18547869 0 0.08640964 3.48479962 0 0.12804425 3.5626924 0 0.10627086 3.52425694 0 0.3999868 3.84832263 0 0.51520044 3.91359043 0 0.47574294 3.89372921 0 0.43730754 3.87195563 0 0.15167736 3.60001326 0 0.2042906 3.67095399 0 0.17711322 3.63612938 0 0.29559693 3.76685596 0 0.36387062 3.82288671 0 0.32904604 3.79570937 0 0.23314399 3.70440316 0 0.2636039 3.73639607 0 3.81120181 7.58336401 0 20.70000076 24.50192451 0 20.70000076 22.60000038 0 24.14999962 27.89999962 0 24.29999924 27.10000038 0 3.81155348 7.98176146 0 14.82409763 19.39999962 0 13.39043617 13.79865265 0 13.36035252 13.81587982 0 13.41963005 13.77995682 0 13.44786263 13.75983906 0 13.47506523 13.73834801 0 13.5011692 13.71553612 0 13.52611256 13.69145966 0 13.5498333 13.6661787 0 13.57227325 13.6397543 0 13.59337711 13.61225033 0 13.61309338 13.58373642 0 13.63137436 13.55428028 0 13.64817429 13.5239563 0 13.66345215 13.49283695 0 13.02764797 13.89999962 0 12.95376778 13.89999962 0 12.68745327 13.85437202 0 12.65120792 13.84057903 0 12.72432518 13.86639118 0 12.76173592 13.87661076 0 12.79959774 13.88500404 0 12.83782196 13.89155293 0 12.87631893 13.89624214 0 12.9149971 13.89906025 0 13.0623045 13.89914131 0 13.09687614 13.8965683 0 13.13127804 13.8922863 0 13.1654253 13.88630676 0 13.19923496 13.87864399 0 13.23262405 13.86931705 0 13.26551056 13.85834789 0 13.29781246 13.84576416 0 13.32945251 13.83159637 0 3.79207087 8.37968159 0 3.75280237 8.77613926 0 3.69384527 9.1701498 0 3.61534548 9.56073666 0 12.18102646 13.30705547 0 3.51749825 9.94693184 0 3.40054584 10.32777596 0 3.26477838 10.70232582 0 3.11053252 11.06965256 0 23.46468163 31.79999924 0 24.6618557 28.97999954 0 24.14999962 28.97999954 0 2.93819094 11.42884445 0 2.7481811 11.77901077 0 22.65551376 31.79999924 0 7.67150736 19.7315464 0 11.76984501 23.17046165 0 12.19196892 13.34426117 0 12.20470142 13.38089275 0 2.5409739 12.11928368 0 2.3170836 12.44881916 0 12.21919441 13.41686344 0 12.23541355 13.45209026 0 12.25332069 13.48649025 0 12.27287388 13.51998138 0 12.29402733 13.55248547 0 12.31673145 13.5839262 0 12.34093189 13.61423016 0 12.36657238 13.64332581 0 12.39359379 13.67114353 0 12.42193031 13.69762039 0 12.45151806 13.72269154 0 12.4822855 13.7463007 0 12.51416016 13.76839066 0 12.5470686 13.78890896 0 12.58093262 13.80780983 0 12.61567307 13.82504654 0 12.73243809 26.26263428 0 12.03565598 25.67796516 0 11.3463459 23.67516708 0 11.53094387 25.78512955 0 11.94573498 25.78512955 0 5.92198372 20.54798508 0 6.99658012 20.53589439 0 5.22520256 19.96331596 0 0.96818423 13.90787125 0 0.65720069 14.15688896 0 1.26638508 13.64368057 0 1.55106366 13.36497211 0 1.82151389 13.07243633 0 2.07706499 12.76679993 0 6.05415297 21.05051041 0 7.46298456 20.92725372 0 5.72914743 20.77779961 0 13.37914944 28.75939751 0 17.45000076 29.20000076 0 13.03155327 28.42178917 0 13.70998383 29.1134491 0 12.66800976 28.10141373 0 12.21820736 26.87547112 0 14.02327824 29.48311043 0 14.31829739 29.86751556 0 11.7226944 27.30820084 0 11.79185295 26.51771736 0 14.59434891 30.26576042 0 14.8507843 30.6769104 0 17.45000076 31.10000038 0 15.0870018 31.10000038 0 3.72817278 20.60000038 0 0.33420557 14.39011478 0 0 14.60697269 0 4.29316044 21.07408142 0 0 20.60000038 0.91283554 37.71269226 27.10000038 0.91283554 33.20384598 27.10000038 8.5 30.83814812 31.10000038 8.5 32.13204956 31.10000038 1.79999995 32.13204956 31.10000038 1.79999995 30.83814812 31.10000038 1.79999995 32.40000153 30.10000038 8.73093987 31.94448662 31.79999924 8.5 32.05166626 31.39999962 1.85845792 33.90000153 24.50192451 8.5 30.96550751 31.39999962 8.73093987 31.13531876 31.79999924 1.79999995 29.93814468 28.97999954 1.79999995 30.92547226 30.10000038 1.79999995 30.45000076 28.97999954 2.55070162 33.90000153 22.60000038 2.55070162 31.29999924 22.60000038 3.71540642 31.29999924 19.39999962 3.71540642 39.77590179 19.39999962 8.69999981 42.38179398 26.87547112 8.69999981 42.79960251 27.37339973 8.69999981 42.87730408 27.30820084 8.69999981 42.80814743 26.51771736 0.80000001 46.58594894 20.87904167 0.80000001 46.16244888 20.37433434 8.69999981 42.0641098 23.81324768 8.69999981 42.83015442 23.17046165 0.80000001 46.9284935 19.7315464 8.69999981 43.20544052 24.22623634 8.69999981 43.25365448 23.67516708 8.69999981 42.73903656 24.61759567 0.80000001 50.30683899 21.07408142 0.80000001 50.22913742 21.13928032 0.80000001 49.88902664 20.5761528 0.80000001 49.46267319 20.93390656 5.11494446 43.92310715 4.63205099 5.067698 44.92310715 4.9000001 4.70877409 43.92310715 4.63205099 4.66152716 44.92310715 4.9000001 5.02255106 44.92310715 5.15603924 4.62862825 44.92310715 5.0865798 5.05006552 10.22310734 4.9000001 5.00545073 10.22310734 5.1530242 4.8676548 10.22310734 5.93450212 4.8561058 10.22310734 6 4.61152744 10.22310734 5.08356476 4.47373199 10.22310734 5.86504269 4.64389515 10.22310734 4.9000001 4.44993544 10.22310734 6 4.54490948 10.69600582 7.76488113 4.14842939 10.68128014 7.70992422 5.09731245 11.22310734 4.63205099 4.69114161 11.22310734 4.63205099 1 1.5 2.42917967 1 1.53232062 2.45955443 1 1.56310558 2.49148464 1 1.59228003 2.52489281 1 1.61977315 2.55969763 1 1.64551806 2.5958147 1 1.66945243 2.6331563 1 1.69151795 2.67163181 1 1.71166122 2.71114779 1 1.72983313 2.75160789 1 1.74598956 2.79291439 1 1.76009142 2.83496642 1 1.77210438 2.87766242 1 1.78199923 2.92089844 1 1.78975189 2.96456909 1 1.79534376 3.008569 1 1.79876101 3.05279088 1 1.79999542 3.09712744 1 1.79904401 3.14147091 1 1.79590917 3.18571353 1 1.79059839 3.22974825 1 1.78312457 3.27346778 1 1.77350593 3.31676579 1 1.76176572 3.3595376 1 1.74793267 3.40167904 1 1.73204017 3.44308758 1 1.71412694 3.48366308 1 1.6942364 3.52330661 1 1.67241693 3.56192231 1 1.64872146 3.59941602 1 1.62320745 3.63569665 1 1.59593713 3.67067623 1 1.56697655 3.70427012 1 1.53639615 3.73639607 8.69999981 4.29316044 21.07408142 8.69999981 4.37086153 21.13928032 8.69999981 4.71097231 20.5761528 8.69999981 5.13732719 20.93390656 8.69999981 8.01405239 20.87904167 8.69999981 7.46298456 20.92725372 8.69999981 8.4375515 20.37433434 8.69999981 6.99658012 20.53589439 8.69999981 7.67150736 19.7315464 0.80000001 11.3463459 23.67516708 0.80000001 11.76984501 23.17046165 0.80000001 11.80039597 27.37339973 0.80000001 12.21820736 26.87547112 0.80000001 11.7226944 27.30820084 0.80000001 11.79185295 26.51771736 6.94929838 20.70000076 22.60000038 6.94929838 23.29999924 22.60000038 5.78459358 23.29999924 19.39999962 5.78459358 14.82409763 19.39999962 8.58716488 16.88730621 27.10000038 8.58716488 21.3961525 27.10000038 7.64154196 20.70000076 24.50192451 7.69999981 22.20000076 30.10000038 7.69999981 22.46794891 31.10000038 1 22.46794891 31.10000038 1 22.65551376 31.79999924 1 23.46468163 31.79999924 1 23.76185226 31.10000038 7.69999981 23.76185226 31.10000038 7.69999981 24.6618557 28.97999954 7.69999981 24.14999962 28.97999954 3 25.57500076 27.89999962 3 29.02499962 27.89999962 6.5 29.02499962 27.89999962 6.5 25.57500076 27.89999962 7.69999981 30.29999924 6 1.79999995 30.29999924 6 3 29.02499962 6 6.5 29.02499962 6 1.79999995 24.29999924 6 3 25.57500076 6 6.5 25.57500076 6 7.69999981 24.29999924 6 7.69999981 23.67452621 30.10000038 1.79999995 30.29999924 18 1.79999995 24.29999924 18 0.80000001 12.53588963 23.81324768 0.80000001 11.86096287 24.61759567 0.80000001 11.39455795 24.22623634 1 1.5 1.5 1 3.2755239 3.00066614 1 3.24509048 2.5008173 1 3.2224586 2.0005548 1 3.20763326 1.5 1 2.2721262 3.00066614 0.80000001 47.60342026 20.53589439 0.80000001 47.1370163 20.92725372 7.69999981 24.29999924 7.30000019 7.69999981 30.29999924 7.30000019 7.69999981 30.29999924 23.79999924 7.69999981 24.29999924 21.29999924 7.69999981 30.29999924 21.29999924 7.69999981 24.29999924 23.79999924 7.69999981 30.29999924 13.89999962 7.69999981 24.29999924 13.89999962 7.69999981 24.29999924 11.39999962 7.69999981 30.29999924 11.39999962 7.69999981 30.29999924 20.5 7.69999981 24.29999924 18 7.69999981 30.29999924 18 7.69999981 24.29999924 20.5 7.69999981 30.29999924 27.10000038 7.69999981 24.29999924 24.60000038 7.69999981 30.29999924 24.60000038 7.69999981 24.29999924 27.10000038 7.69999981 30.29999924 10.60000038 7.69999981 24.29999924 10.60000038 7.69999981 24.29999924 8.10000038 7.69999981 30.29999924 8.10000038 7.69999981 30.29999924 17.20000076 7.69999981 24.29999924 14.69999981 7.69999981 30.29999924 14.69999981 7.69999981 24.29999924 17.20000076 1.79999995 24.29999924 7.30000019 1.79999995 30.29999924 7.30000019 1.79999995 24.29999924 21.29999924 1.79999995 30.29999924 23.79999924 1.79999995 30.29999924 21.29999924 1.79999995 24.29999924 23.79999924 1.79999995 24.29999924 14.69999981 1.79999995 30.29999924 17.20000076 1.79999995 30.29999924 14.69999981 1.79999995 24.29999924 17.20000076 1.79999995 24.29999924 24.60000038 1.79999995 30.29999924 27.10000038 1.79999995 30.29999924 24.60000038 1.79999995 24.29999924 27.10000038 1.79999995 24.29999924 13.89999962 1.79999995 30.29999924 13.89999962 1.79999995 24.29999924 11.39999962 1.79999995 30.29999924 11.39999962 1.79999995 24.29999924 10.60000038 1.79999995 30.29999924 10.60000038 1.79999995 24.29999924 8.10000038 1.79999995 30.29999924 8.10000038 1.79999995 30.29999924 20.5 1.79999995 24.29999924 20.5</float_array>
          <technique_common>
            <accessor source="#pos_0-array" count="2469" stride="3">
              <param name="X" type="float"/>
              <param name="Y" type="float"/>
              <param name="Z" type="float"/>
            </accessor>
          </technique_common>
        </source>
        <source id="uvs_0">
          <float_array id="uvs_0-array" count="0"></float_array>
          <technique_common>
            <accessor source="#uvs_0-array" count="0" stride="2">
              <param name="S" type="float"/>
              <param name="T" type="float"/>
            </accessor>
          </technique_common>
        </source>
        <vertices id="vert_0">
          <input semantic="POSITION" source="#pos_0"/>
        </vertices>
        <triangles count="1634" material="mat_0">
          <input semantic="VERTEX" source="#vert_0" offset="0"/>
          <p>0 1 2 0 3 1 0 4 3 0 5 4 0 6 5 7 6 0 5 6 8 8 6 9 9 6 10 10 6 11 11 6 12 6 13 12 6 14 13 15 16 17 17 16 18 18 16 19 19 16 20 20 16 21 7 16 6 21 16 7 22 23 24 25 26 27 27 26 28 28 26 29 29 30 31 31 30 32 32 30 33 33 30 34 26 30 29 26 35 30 36 37 38 38 39 30 34 39 40 40 39 15 15 39 16 30 39 34 37 41 38 38 41 39 37 42 41 23 43 44 23 45 43 39 46 16 22 46 23 16 46 22 23 47 45 39 48 46 46 49 23 23 49 47 50 51 52 52 51 48 50 53 51 46 54 49 45 55 43 43 55 56 48 57 46 51 57 48 46 58 54 59 60 61 60 62 57 59 62 60 62 63 57 46 64 58 47 65 66 49 65 47 63 67 57 64 68 69 46 68 64 68 70 69 54 71 72 58 71 54 68 73 70 66 74 55 55 74 56 56 74 75 68 76 73 77 76 78 79 80 67 81 80 79 82 80 81 83 80 82 84 80 83 67 80 57 74 85 86 69 87 64 76 88 73 69 89 87 84 90 80 91 90 84 77 92 76 76 92 88 93 94 95 95 94 96 96 94 97 97 94 98 98 94 99 99 94 100 100 94 101 77 102 92 70 103 104 73 103 70 77 105 102 74 106 85 66 106 74 65 106 66 85 106 107 65 108 106 65 109 108 72 110 65 65 110 109 72 111 110 72 112 111 113 114 115 94 114 101 101 114 116 116 114 113 72 117 112 72 118 117 72 119 118 72 120 119 71 120 72 71 121 120 71 122 121 71 123 122 71 124 123 87 125 71 71 125 124 87 126 125 87 127 126 87 128 127 115 129 113 115 130 129 87 131 128 87 132 131 89 132 87 89 133 132 89 134 133 89 135 134 89 136 135 88 137 138 92 137 88 89 139 136 94 140 114 141 142 143 144 142 141 145 146 147 145 148 146 148 149 146 149 150 146 150 151 146 151 152 146 153 152 151 152 154 146 155 154 152 154 156 146 157 156 154 156 158 146 159 158 156 160 161 158 158 161 146 161 162 146 162 163 146 163 164 146 164 165 146 165 166 146 166 167 146 168 169 167 94 170 140 167 171 146 169 171 167 172 173 171 173 174 171 171 175 146 174 175 171 175 176 146 177 178 179 176 180 146 178 180 179 179 180 176 181 182 180 182 183 180 180 184 146 183 184 180 184 185 146 94 186 170 187 186 94 188 189 185 190 189 188 185 189 146 189 191 146 191 192 146 193 194 192 192 194 146 187 195 186 196 197 194 130 198 129 146 198 130 194 199 146 197 199 194 146 200 198 199 201 146 202 201 199 146 203 200 200 203 204 201 205 146 206 207 208 203 207 206 209 210 205 211 210 209 203 212 207 203 213 212 205 214 146 215 214 210 210 214 205 187 216 195 146 217 203 203 217 213 218 219 214 214 219 146 217 220 221 219 222 146 217 223 220 224 225 222 146 225 217 222 225 146 217 225 223 225 226 227 228 229 224 230 229 228 224 229 225 225 229 226 187 231 216 187 232 231 187 233 232 187 234 233 187 235 234 236 237 238 238 237 137 138 237 103 137 237 138 239 240 187 187 240 235 239 241 240 239 242 241 239 243 242 244 245 246 246 245 236 236 245 237 239 247 243 239 248 247 239 249 248 250 251 239 239 251 249 237 252 103 253 254 255 256 254 253 139 254 256 104 254 89 252 254 103 89 254 139 103 254 104 257 254 258 259 254 257 260 254 259 261 254 260 262 254 261 263 254 262 264 254 263 265 254 264 255 254 265 266 267 268 269 267 270 271 267 269 272 267 271 273 267 272 274 267 273 275 267 274 276 267 275 277 267 276 278 267 277 279 267 278 280 267 279 281 267 280 282 267 281 283 267 282 284 267 283 285 267 284 286 267 285 287 267 286 288 267 287 289 267 288 290 267 289 291 267 290 292 267 291 268 267 292 254 267 258 258 267 266 252 293 254 293 294 254 254 294 295 294 296 295 295 296 297 298 296 294 299 300 267 300 301 267 302 301 250 270 301 302 250 301 251 267 301 270 303 301 304 305 301 303 306 301 305 307 301 306 308 301 307 309 301 308 251 301 309 299 310 300 310 311 300 252 312 293 312 313 293 252 314 312 313 315 293 252 316 314 317 318 252 252 318 316 315 319 293 317 320 318 321 322 317 317 322 320 321 323 322 324 325 326 325 327 326 301 327 304 328 327 329 304 327 328 326 327 301 327 330 329 105 236 102 102 236 238 77 144 141 77 141 105 80 46 57 331 332 333 334 332 331 335 332 334 336 332 335 337 332 336 337 338 332 337 336 339 337 339 340 337 340 341 337 341 342 337 342 343 344 337 343 345 337 344 346 338 337 346 347 348 346 348 349 346 349 350 346 350 351 346 351 352 346 352 353 346 353 338 354 355 356 357 358 359 357 359 360 357 360 361 362 357 361 362 361 363 362 363 364 362 364 365 362 365 366 362 366 347 367 357 362 368 357 367 369 368 367 370 371 372 373 347 346 373 355 354 373 372 362 373 362 347 373 346 355 374 370 372 374 372 373 375 354 376 377 354 375 378 354 377 379 354 378 380 381 382 383 382 384 383 380 382 385 380 383 386 354 379 387 375 388 387 377 375 389 383 384 390 354 386 390 384 373 390 373 354 391 392 389 393 391 389 394 384 390 395 378 396 395 379 378 397 393 389 398 384 394 399 389 384 399 400 397 399 401 400 399 397 389 402 401 399 403 384 398 404 386 405 404 390 386 406 399 384 406 384 403 407 388 408 407 396 387 407 387 388 409 410 402 409 411 410 409 402 399 412 407 413 414 398 394 415 398 414 416 399 406 416 406 417 418 419 411 418 411 409 420 416 417 421 422 423 421 423 424 421 424 425 421 425 426 421 426 427 421 427 428 421 428 429 430 415 414 431 415 430 431 406 403 432 416 420 433 431 430 433 406 431 434 416 432 435 416 434 436 435 434 437 435 436 438 433 430 439 396 407 439 407 412 439 412 440 439 395 396 441 395 439 442 395 441 443 395 442 443 405 395 444 405 443 445 405 444 446 405 445 447 420 417 447 433 438 448 405 446 449 405 448 450 404 405 450 405 449 451 404 450 452 404 451 453 421 429 453 429 454 453 454 455 456 404 452 457 404 456 458 453 455 459 447 438 459 420 447 460 453 458 461 421 453 462 421 461 463 464 465 466 467 463 466 463 465 468 466 465 469 468 465 470 421 462 470 471 421 472 473 469 472 469 465 474 472 465 475 474 465 476 477 475 476 475 465 478 471 470 479 476 465 479 480 476 479 481 480 482 460 458 482 483 460 482 465 483 484 465 482 484 479 465 485 486 484 487 485 484 488 489 490 488 491 489 488 482 491 492 487 484 493 488 494 495 496 492 497 482 488 497 488 493 498 492 484 498 495 492 499 482 497 500 471 478 501 482 499 502 501 503 504 505 498 504 506 505 504 507 506 508 498 484 508 501 502 508 482 501 508 484 482 509 508 510 511 504 498 511 512 504 511 513 512 514 498 508 514 508 509 515 511 498 515 498 514 516 471 500 517 438 518 517 519 520 517 459 438 517 520 459 521 471 516 522 523 524 522 525 523 522 526 525 522 527 526 522 528 527 522 529 528 522 530 529 522 531 530 522 532 531 522 430 414 522 533 532 522 534 533 522 535 534 522 536 535 522 457 536 522 537 538 522 539 540 522 541 539 522 542 541 522 543 542 522 544 543 522 545 544 522 546 545 522 538 546 522 404 457 522 414 404 522 547 537 522 548 547 522 549 548 522 550 549 522 551 550 522 552 551 522 553 552 522 554 553 522 555 554 522 524 555 556 471 521 557 471 556 558 471 557 559 560 471 559 471 558 561 560 559 562 560 561 563 560 562 564 560 563 565 566 567 568 560 564 569 560 568 570 565 567 571 572 522 571 573 560 571 574 573 571 575 576 571 569 575 571 577 574 571 578 577 571 579 578 571 580 579 571 581 580 571 582 581 571 583 582 571 584 583 571 585 584 571 586 585 571 587 586 571 588 587 571 589 588 571 590 589 571 591 590 571 592 591 571 540 592 571 522 540 571 560 569 593 522 572 594 593 572 594 572 595 596 594 595 596 597 594 598 599 571 600 571 576 600 601 602 600 603 601 600 604 603 600 605 604 600 606 605 600 576 606 600 598 571 607 608 599 607 599 598 609 607 598 610 611 593 612 610 593 613 611 610 614 593 615 614 612 593 616 611 613 617 611 616 618 615 619 618 614 615 620 611 617 621 622 611 621 611 620 623 622 621 624 625 626 624 602 625 624 600 602 624 627 600 628 624 626 611 522 593 517 570 567 517 567 519 519 434 432 519 432 520 416 629 399 630 629 416 418 80 90 418 409 80 631 632 633 631 633 634 635 630 435 435 630 416 633 632 635 635 632 630 636 144 637 637 144 632 630 77 638 632 77 630 144 77 632 639 637 632 639 632 631 637 639 640 636 637 640 631 634 641 142 640 639 142 639 631 143 631 641 143 142 631 642 633 635 642 643 641 634 642 641 634 633 642 643 642 436 436 642 437 642 635 437 437 635 435 644 645 646 647 644 646 629 630 638 629 638 644 629 644 647 648 649 650 651 648 650 60 648 651 61 60 651 649 648 392 392 648 389 60 57 648 648 57 389 61 651 650 59 61 650 57 51 389 389 51 383 383 53 385 51 53 383 374 373 652 652 373 653 384 653 373 654 655 384 384 655 653 653 39 656 48 39 655 655 39 653 385 50 380 53 50 385 50 657 380 380 657 381 657 52 658 50 52 657 655 658 48 48 658 52 657 659 381 381 659 382 654 658 655 659 657 654 654 657 658 659 654 382 382 654 384 372 38 362 38 30 362 660 661 662 661 663 662 663 369 367 662 663 367 362 662 367 35 660 662 30 35 662 30 662 362 661 368 369 663 661 369 359 358 27 27 358 25 338 353 7 7 353 21 332 7 0 332 338 7 333 0 2 333 332 0 356 355 24 24 355 22 354 356 23 23 356 24 22 355 16 355 346 16 664 14 6 665 664 6 337 666 667 337 345 666 345 14 664 345 664 666 668 6 16 668 665 6 337 667 669 346 669 668 346 337 669 16 346 668 13 14 345 13 345 344 333 2 1 331 1 3 331 333 1 334 3 4 334 331 3 335 334 4 336 4 5 336 335 4 339 5 8 339 8 9 339 336 5 340 339 9 341 9 10 341 10 11 341 340 9 342 11 12 342 341 11 343 342 12 344 12 13 344 343 12 74 86 407 407 86 413 412 413 85 85 413 86 537 547 266 266 547 258 258 548 257 547 548 258 257 549 259 548 549 257 259 550 260 260 550 261 549 550 259 550 551 261 551 552 261 261 552 262 552 553 262 262 553 263 553 554 263 263 554 264 554 555 264 264 555 265 265 555 255 555 524 255 255 524 253 524 523 253 523 525 253 253 525 256 256 525 139 525 526 139 526 527 139 139 527 136 136 527 135 527 528 135 528 529 135 135 529 134 529 530 134 134 530 133 530 531 133 133 531 132 531 532 132 132 532 131 131 533 128 532 533 131 128 534 127 533 534 128 127 535 126 534 535 127 126 536 125 125 536 124 535 536 126 536 457 124 124 456 123 457 456 124 123 452 122 122 452 121 456 452 123 452 451 121 121 450 120 120 450 119 451 450 121 450 449 119 449 448 119 119 448 118 118 448 117 448 446 117 117 445 112 446 445 117 445 444 112 112 444 111 444 443 111 111 443 110 443 442 110 110 442 109 442 441 109 109 441 108 108 441 106 441 439 106 107 440 85 440 412 85 440 107 106 439 440 106 537 268 538 266 268 537 239 560 250 560 573 250 250 574 302 573 574 250 302 577 270 574 577 302 270 578 269 577 578 270 269 579 271 578 579 269 271 580 272 579 580 271 272 581 273 580 581 272 273 582 274 274 582 275 581 582 273 582 583 275 583 584 275 275 584 276 584 585 276 276 585 277 277 585 278 585 586 278 586 587 278 278 587 279 279 587 280 587 588 280 588 589 280 280 589 281 589 590 281 281 590 282 282 590 283 590 591 283 283 591 284 591 592 284 592 540 284 284 540 285 285 540 286 540 539 286 539 541 286 286 541 287 287 541 288 541 542 288 288 543 289 542 543 288 289 543 290 543 544 290 290 545 291 544 545 290 291 546 292 545 546 291 292 538 268 546 538 292 670 671 94 94 671 187 671 672 187 672 673 187 674 675 671 671 675 672 676 421 674 674 421 675 675 471 677 421 471 675 673 678 187 678 239 187 677 471 679 679 560 678 471 560 679 678 560 239 680 670 94 680 94 93 422 421 676 422 676 681 93 422 680 680 422 681 423 422 93 423 93 95 458 455 113 458 113 129 146 682 683 147 683 684 147 146 683 145 684 685 145 147 684 148 685 686 148 145 685 149 686 687 149 148 686 150 687 688 150 149 687 151 688 689 151 150 688 153 689 690 153 151 689 152 690 691 152 153 690 155 152 691 155 691 692 154 155 692 154 692 693 157 154 693 157 693 694 156 157 694 156 694 695 159 156 695 159 695 696 158 159 696 158 696 697 160 158 697 160 697 698 161 160 698 161 698 699 162 161 699 162 699 700 163 162 700 163 700 701 164 163 701 164 701 702 165 702 703 165 164 702 166 703 704 166 165 703 167 704 705 167 166 704 168 705 706 168 167 705 169 706 707 169 168 706 171 707 708 171 169 707 172 708 709 172 171 708 173 709 710 173 172 709 174 710 711 174 173 710 175 711 712 175 174 711 176 712 713 176 175 712 179 713 714 179 176 713 465 715 483 177 714 715 177 179 714 178 177 715 178 715 465 180 178 465 180 465 464 181 180 464 181 464 463 182 463 467 182 181 463 183 467 466 183 182 467 184 466 468 184 183 466 185 468 469 185 184 468 188 469 473 188 185 469 190 473 472 190 188 473 189 472 474 189 190 472 191 474 475 191 189 474 192 475 477 192 191 475 193 477 476 193 192 477 194 476 480 194 193 476 196 480 481 196 194 480 197 481 479 197 196 481 199 479 484 199 197 479 202 484 486 202 199 484 201 486 485 201 202 486 205 485 487 205 201 485 209 487 492 209 205 487 211 492 496 211 209 492 210 496 495 210 211 496 215 495 498 215 210 495 214 498 505 214 215 498 218 505 506 218 214 505 219 218 506 219 506 507 222 219 507 222 507 504 224 222 504 224 504 512 228 224 512 228 512 513 230 228 513 230 513 511 229 230 511 229 511 515 226 229 515 226 515 514 227 514 509 227 226 514 225 227 509 225 509 510 223 510 508 223 225 510 220 508 502 220 223 508 221 502 503 221 220 502 217 503 501 217 221 503 213 501 499 213 217 501 212 499 497 212 213 499 207 497 493 207 212 497 208 493 494 208 207 493 206 494 488 206 208 494 203 488 490 203 206 488 204 490 489 204 203 490 200 489 491 200 204 489 198 200 491 198 491 482 626 329 628 329 330 628 626 625 329 329 625 328 328 602 304 625 602 328 304 601 303 303 601 305 602 601 304 305 603 306 601 603 305 603 604 306 306 605 307 307 605 308 604 605 306 605 606 308 308 576 309 606 576 308 309 575 251 576 575 309 251 569 249 575 569 251 249 568 248 248 568 247 569 568 249 568 564 247 564 563 247 247 563 243 243 563 242 563 562 242 562 561 242 242 561 241 241 561 240 561 559 240 559 558 240 240 558 235 558 557 235 235 557 234 557 556 234 234 556 233 233 556 232 556 521 232 521 516 232 232 516 231 516 500 231 231 500 216 216 500 195 195 478 186 500 478 195 478 470 186 330 327 628 628 327 624 716 717 718 717 719 718 719 324 326 718 719 326 311 598 300 609 598 311 301 718 326 627 716 718 600 627 718 600 718 301 598 600 300 300 600 301 310 607 311 607 609 311 720 721 299 721 310 299 608 607 721 721 607 310 267 722 299 722 720 299 723 721 724 724 720 722 721 720 724 725 572 726 595 572 725 727 728 319 319 728 293 615 593 728 728 593 293 728 727 729 730 728 729 619 615 728 619 728 730 618 619 730 618 730 729 315 727 319 614 727 315 727 618 729 614 618 727 321 611 622 321 317 611 622 623 323 622 323 321 731 732 733 734 731 733 735 736 737 735 737 731 735 731 734 252 237 735 735 237 736 738 736 245 245 736 237 739 740 738 738 740 736 741 570 740 736 517 737 740 517 736 570 517 740 742 743 565 743 566 565 744 745 743 743 745 566 741 742 570 570 742 565 745 746 566 566 746 567 567 746 519 246 236 746 236 519 746 747 434 519 747 748 434 105 748 749 105 434 748 750 747 519 236 749 750 236 750 519 236 105 749 751 23 44 752 354 23 752 23 751 753 751 754 753 752 751 376 354 752 755 756 757 755 757 758 74 758 75 74 755 758 407 408 755 407 755 74 755 752 753 755 753 756 751 758 757 751 757 754 757 747 750 757 756 747 757 750 749 754 757 749 753 749 748 753 754 749 753 748 747 756 753 747 141 643 105 436 434 643 434 105 643 141 143 641 141 641 643 759 738 244 244 738 245 759 739 738 759 746 745 744 759 745 744 739 759 746 759 246 246 759 244 743 740 739 743 739 744 742 741 740 742 740 743 611 734 522 735 734 611 317 252 735 317 735 611 645 78 76 645 644 78 315 313 614 614 313 612 612 312 610 313 312 612 610 314 613 312 314 610 613 316 616 314 316 613 616 318 617 316 318 616 617 320 620 318 320 617 620 322 621 320 322 620 621 323 623 322 323 621 398 415 760 760 415 761 762 725 726 763 764 762 762 764 725 596 764 296 296 764 297 764 595 725 596 595 764 596 298 597 296 298 596 597 294 594 298 294 597 593 594 293 293 594 294 254 722 267 762 726 254 254 726 722 722 571 724 572 571 726 726 571 722 763 762 295 295 762 254 764 763 297 297 763 295 571 599 724 724 599 723 599 721 723 599 608 721 719 325 324 719 717 325 325 716 327 717 716 325 627 624 716 716 624 327 765 146 130 765 682 146 186 470 462 766 461 453 170 462 461 170 186 462 140 461 766 140 170 461 114 766 767 114 767 768 114 140 766 115 768 769 115 114 768 769 130 115 769 765 130 460 766 453 770 766 460 768 765 769 766 770 767 767 770 768 765 684 683 683 682 765 768 685 765 765 685 684 768 686 685 770 687 768 768 687 686 770 688 687 770 689 688 770 690 689 770 691 690 770 692 691 770 693 692 770 694 693 770 695 694 770 696 695 770 697 696 770 698 697 770 699 698 770 700 699 770 701 700 770 702 701 770 703 702 770 704 703 770 705 704 770 706 705 770 707 706 770 708 707 770 709 708 770 715 714 770 714 713 770 713 712 770 712 711 770 711 710 770 710 709 483 770 460 715 770 483 482 458 129 482 129 198 116 113 455 116 455 454 101 454 429 101 116 454 100 429 428 100 101 429 99 428 427 99 100 428 98 427 426 98 99 427 97 425 424 97 426 425 97 98 426 96 97 424 95 424 423 95 96 424 27 28 359 359 28 360 360 28 361 361 29 363 28 29 361 29 31 363 363 32 364 31 32 363 364 33 365 365 33 366 32 33 364 33 34 366 366 40 347 34 40 366 347 15 348 40 15 347 348 17 349 349 17 350 15 17 348 17 18 350 350 19 351 351 19 352 18 19 350 352 20 353 19 20 352 20 21 353 661 660 368 368 660 357 35 26 660 660 26 357 25 358 26 358 357 26 36 370 37 371 370 36 38 371 36 372 371 38 771 772 656 656 652 653 772 652 656 652 772 374 772 370 374 42 37 772 772 37 370 39 41 656 656 41 771 41 42 772 41 772 771 391 393 62 62 393 63 63 397 67 393 397 63 67 400 79 79 400 81 397 400 67 400 401 81 81 402 82 82 402 83 401 402 81 402 410 83 83 411 84 410 411 83 84 419 91 411 419 84 649 62 59 650 649 59 391 62 649 392 391 649 419 418 90 419 90 91 80 647 46 629 647 80 409 399 629 409 629 80 636 640 144 144 640 142 644 77 78 644 638 77 647 68 46 647 646 68 646 76 68 646 645 76 731 517 518 731 737 517 734 430 522 734 733 430 733 438 430 733 732 438 732 518 438 732 731 518 758 56 75 758 773 56 774 758 751 774 773 758 774 751 44 774 44 43 773 43 56 773 774 43 775 776 777 775 778 776 778 88 138 778 775 88 776 138 103 776 778 138 777 103 73 777 776 103 775 73 88 775 777 73 779 780 781 779 781 782 780 54 72 780 779 54 781 72 65 781 780 72 782 65 49 782 781 65 779 49 54 779 782 49 783 784 785 783 786 784 786 70 104 786 783 70 784 104 89 784 786 104 785 89 69 785 784 89 783 69 70 783 785 69 787 788 789 787 790 788 787 92 102 787 789 92 790 102 238 790 787 102 788 238 137 788 790 238 789 137 92 789 788 137 791 792 793 791 793 794 794 55 45 794 793 55 791 45 47 791 794 45 792 47 66 792 791 47 793 66 55 793 792 66 795 796 797 795 798 796 796 87 71 796 798 87 797 71 58 797 796 71 795 58 64 795 797 58 798 64 87 798 795 64 408 388 755 755 388 799 755 800 752 799 800 755 375 376 800 800 376 752 388 375 799 799 375 800 801 802 803 804 802 801 447 417 804 804 417 802 433 447 801 801 447 804 406 433 803 803 433 801 417 406 802 802 406 803 805 806 807 808 806 805 394 390 806 806 390 807 414 394 808 808 394 806 404 414 805 805 414 808 390 404 807 807 404 805 809 810 811 812 810 809 459 520 809 809 520 812 520 432 812 812 432 810 432 420 810 810 420 811 420 459 811 811 459 809 813 814 815 815 814 816 405 386 813 813 386 814 386 379 814 814 379 816 379 395 816 816 395 815 395 405 815 815 405 813 817 818 819 819 818 820 396 378 817 817 378 818 378 377 818 818 377 820 377 387 820 820 387 819 387 396 819 819 396 817 761 821 760 822 821 761 415 431 761 761 431 822 431 403 822 822 403 821 403 398 821 821 398 760</p>
        </triangles>
      </mesh>
    </geometry>
    <geometry id="geometry_2b3ca16f_b14b_4a3e_b4eb_d096734253e3">
      <mesh>
        <source id="pos_1">
          <float_array id="pos_1-array" count="84">5.067698 44.92310715 4.9000001 5.06104803 43.92310715 4.93771267 5.11494446 43.92310715 4.63205099 5.02255106 44.92310715 5.15603924 4.66712523 43.92310715 4.86825323 4.62862825 44.92310715 5.0865798 4.66152716 44.92310715 4.9000001 4.70877409 43.92310715 4.63205099 5.0439477 11.22310734 4.93469715 5.05006552 10.22310734 4.9000001 5.09731245 11.22310734 4.63205099 5.00545073 10.22310734 5.1530242 4.69114161 11.22310734 4.63205099 4.65002441 11.22310734 4.86523819 4.64389515 10.22310734 4.9000001 4.61152744 10.22310734 5.08356476 4.44993544 10.22310734 6 4.44411898 10.99233818 6.03298664 4.47373199 10.22310734 5.86504269 4.24251699 11.22310734 7.17632818 4.46725464 11.22310734 5.90177631 4.14842939 10.68128014 7.70992422 4.54490948 10.69600582 7.76488113 4.6364398 11.22310734 7.24578762 4.83804178 10.99233818 6.1024456 4.8561058 10.22310734 6 4.8676548 10.22310734 5.93450212 4.86117792 11.22310734 5.97123575</float_array>
          <technique_common>
            <accessor source="#pos_1-array" count="84" stride="3">
              <param name="X" type="float"/>
              <param name="Y" type="float"/>
              <param name="Z" type="float"/>
            </accessor>
          </technique_common>
        </source>
        <source id="uvs_1">
          <float_array id="uvs_1-array" count="0"></float_array>
          <technique_common>
            <accessor source="#uvs_1-array" count="0" stride="2">
              <param name="S" type="float"/>
              <param name="T" type="float"/>
            </accessor>
          </technique_common>
        </source>
        <vertices id="vert_1">
          <input semantic="POSITION" source="#pos_1"/>
        </vertices>
        <triangles count="32" material="mat_1">
          <input semantic="VERTEX" source="#vert_1" offset="0"/>
          <p>0 1 2 3 1 0 1 3 4 4 3 5 4 6 7 4 5 6 2 1 7 7 1 4 8 9 10 8 11 9 10 12 8 12 13 8 14 13 12 15 13 14 13 15 8 8 15 11 16 17 18 19 20 17 19 17 16 21 19 16 19 22 23 19 21 22 24 25 26 27 23 24 24 23 25 23 22 25 18 17 26 26 17 24 20 19 27 27 19 23 24 17 27 17 20 27</p>
        </triangles>
      </mesh>
    </geometry>
  </library_geometries>
  <library_visual_scenes>
    <visual_scene id="DefaultScene">
      <node id="node_2d3400ea_7dd2_4a1e_bea1_1966ebe7c33f" type="NODE">
        <matrix>1 0 0 0 0 1 0 0 0 0 1 0 0 0 0 1</matrix>
        <node id="node_444e340d_4840_41b6_882f_1cfc1051e497" type="NODE">
          <matrix>1 0 0 0 0 1 0 0 0 0 1 0 0 0 0 1</matrix>
          <node id="node_444e340d_4840_41b6_882f_1cfc1051e497_mesh0" type="NODE">
            <matrix>1 0 0 0 0 1 0 0 0 0 1 0 0 0 0 1</matrix>
            <instance_geometry url="#geometry_4171c503_1b9f_4fa1_9d1e_0884198eb544">
              <bind_material>
                <technique_common>
                  <instance_material symbol="mat_0" target="#mat_0"/>
                </technique_common>
              </bind_material>
            </instance_geometry>
          </node>
          <node id="node_444e340d_4840_41b6_882f_1cfc1051e497_mesh1" type="NODE">
            <matrix>1 0 0 0 0 1 0 0 0 0 1 0 0 0 0 1</matrix>
            <instance_geometry url="#geometry_2b3ca16f_b14b_4a3e_b4eb_d096734253e3">
              <bind_material>
                <technique_common>
                  <instance_material symbol="mat_1" target="#mat_1"/>
                </technique_common>
              </bind_material>
            </instance_geometry>
          </node>
        </node>
      </node>
    </visual_scene>
  </library_visual_scenes>
  <scene>
    <instance_visual_scene url="#DefaultScene"/>
  </scene>
</COLLADA>
