<?xml version="1.0" encoding="UTF-8"?>
<COLLADA xmlns="http://www.collada.org/2005/11/COLLADASchema" version="1.4.1">
<!--
# File generated by ImageToStl.com - Free Image and 3D model conversion tools
-->
  <asset>
    <contributor>
      <author>ImageToStl.com</author>
      <authoring_tool>ImageToStl.com</authoring_tool>
    </contributor>
    <created>2025-04-01T10:05:05</created>
    <modified>2025-04-01T10:05:05</modified>
    <up_axis>Z_UP</up_axis>
  </asset>
  <library_effects>
    <effect id="effect_0">
        <profile_COMMON>
          <technique sid="common">
            <phong>
              <diffuse>
                <color>0.56078 0.58824 0.6 1</color>
              </diffuse>
              <specular>
                <color>0.05 0.05 0.05 1</color>
              </specular>
              <shininess>
                <float>64</float>
              </shininess>
              <transparency>
                <float>1</float>
              </transparency>
            </phong>
          </technique>
        </profile_COMMON>
    </effect>
    <effect id="effect_1">
        <profile_COMMON>
          <technique sid="common">
            <phong>
              <diffuse>
                <color>0.82353 0.82353 0.78431 1</color>
              </diffuse>
              <specular>
                <color>0.05 0.05 0.05 1</color>
              </specular>
              <shininess>
                <float>64</float>
              </shininess>
              <transparency>
                <float>1</float>
              </transparency>
            </phong>
          </technique>
        </profile_COMMON>
    </effect>
  </library_effects>
  <library_materials>
    <material id="mat_0">
      <instance_effect url="#effect_0"/>
    </material>
    <material id="mat_1">
      <instance_effect url="#effect_1"/>
    </material>
  </library_materials>
  <library_geometries>
    <geometry id="geometry_068667ea_932a_43fb_b939_506e2abda40f">
      <mesh>
        <source id="pos_0">
          <float_array id="pos_0-array" count="1866">5.1500001 44.65657806 0 5.1500001 41.09397125 0.40723583 5.1500001 41.34835434 0 5.1500001 40.85942841 0.82621312 5.1500001 40.64526749 1.25596595 5.1500001 48.59999847 6.85246134 5.1500001 42 4.80000019 5.1500001 40.28002167 2.14381242 5.1500001 40.129776 2.599859 5.1500001 40.45198441 1.69550347 5.1500001 40.00159454 3.06259179 5.1500001 39.89577484 3.53094435 5.1500001 39.81255722 4.00383663 5.1500001 48.08433914 12.55718327 5.1500001 42 7.07250738 5.1500001 48.32574081 11.87234974 5.1500001 48.59999847 11.19999981 5.1500001 47.87636185 13.25289822 5.1500001 47.70230103 13.9578619 5.1500001 47.56255722 14.67042446 5.1500001 47.45746231 15.38891411 5.1500001 47.38726425 16.11164856 5.1500001 47.35212326 16.83693314 5.1500001 47.35212326 17.56306839 5.1500001 31.54999924 6 5.1500001 39.05664825 5.69999981 5.1500001 32.06961441 5.69999981 5.1500001 48.59999847 23.20000076 5.1500001 48.59999847 24.75263977 5.1500001 48.32574081 22.52765083 5.1500001 42.43159103 28.00808525 5.1500001 48.08433914 21.84281731 5.1500001 42.33462906 28.36995316 5.1500001 41.39805222 27.73114967 5.1500001 47.87636185 21.14710236 5.1500001 47.70230103 20.44213867 5.1500001 47.56255722 19.72957611 5.1500001 47.45746231 19.01108551 5.1500001 47.38726425 18.28835297 5.1500001 41.2977829 34.28728104 5.1500001 40.79456329 34.11756516 5.1500001 40.86503983 33.85453796 5.1500001 41.03982544 35.25 5.1500001 39.76102066 33.84062958 5.1500001 8.30000019 4.45166588 5.1500001 7 4.80000019 5.1500001 8.30000019 4.0999999 5.1500001 7.87010431 2.36968827 5.1500001 7.71245527 1.95211136 5.1500001 8.00796509 2.794209 5.1500001 8.12573433 3.22473669 5.1500001 8.22315025 3.66032076 5.1500001 3.5999999 1.5 5.1500001 6.89157963 0.36940712 5.1500001 6.64105654 0 5.1500001 7.12447548 0.75017375 5.1500001 7.33922911 1.14145935 5.1500001 7.53536654 1.54240024 5.1500001 32.41249847 32.07500076 5.1500001 0 0 5.1500001 1.5 1.5 5.1500001 32.41249847 33.14500046 5.1500001 1.56370938 2.49214315 5.1500001 1.5 2.42917967 5.1500001 1.53263843 2.45986843 5.1500001 1.59313571 2.52592421 5.1500001 1.62084448 2.5611279 5.1500001 1.64676714 2.5976665 5.1500001 1.67083943 2.63545012 5.1500001 1.69300163 2.67438483 5.1500001 1.71319902 2.71437407 5.1500001 1.7313813 2.75531864 5.1500001 1.74750352 2.79711747 5.1500001 1.76152575 2.83966684 5.1500001 1.7734133 2.88286114 5.1500001 1.78313661 2.92659354 5.1500001 1.79067159 2.97075582 5.1500001 1.79599965 3.01523805 5.1500001 1.79910755 3.05993056 5.1500001 1.79998755 3.10472226 5.1500001 1.79863763 3.14950204 5.1500001 31.98936462 33.38339615 5.1500001 31.98936462 33.14500046 5.1500001 1.79506087 3.19415951 5.1500001 18.38038445 5.69999981 5.1500001 10.26037788 11.66789722 5.1500001 8.6612854 5.69999981 5.1500001 10.2684412 11.70123577 5.1500001 1.78926635 3.23858333 5.1500001 10.27486134 11.73493004 5.1500001 18.89999962 6 5.1500001 10.27962399 11.76889801 5.1500001 1.78126836 3.28266406 5.1500001 10.2827158 11.80305862 5.1500001 10.284132 11.83732891 5.1500001 1.77108669 3.32629204 5.1500001 10.28386688 11.87162876 5.1500001 1.7587465 3.36935925 5.1500001 10.28192139 11.9058733 5.1500001 10.27830124 11.93998146 5.1500001 1.74427855 3.41175914 5.1500001 10.27301502 11.97387218 5.1500001 1.72771859 3.45338655 5.1500001 10.26607418 12.0074625 5.1500001 10.25749683 12.04067326 5.1500001 1.70910764 3.49413824 5.1500001 10.24730301 12.07342339 5.1500001 1.68849182 3.53391314 5.1500001 10.23551655 12.10563564 5.1500001 1.66592216 3.572613 5.1500001 10.22216702 12.13723087 5.1500001 10.20728588 12.16813469 5.1500001 1.64145482 3.61014199 5.1500001 1.61515009 3.64640665 5.1500001 1.58707345 3.68131757 5.1500001 1.55729425 3.71478796 5.1500001 1.52588642 3.7467351 5.1500001 1.49292767 3.77707958 5.1500001 1.45849979 3.80574632 5.1500001 1.42268801 3.83266449 5.1500001 32.80965424 35.25 5.1500001 1.38558102 3.85776711 5.1500001 1.34727085 3.88099217 5.1500001 1.30785251 3.902282 5.1500001 1.26742351 3.92158389 5.1500001 1.22608399 3.93884993 5.1500001 1.1839366 3.95403743 5.1500001 1.14108562 3.96710873 5.1500001 9.73386478 12.53289032 5.1500001 9.67119312 12.54966354 5.1500001 9.70018768 12.53939915 5.1500001 9.76718235 12.52473927 5.1500001 9.64177513 12.55864525 5.1500001 1.09763718 3.97803164 5.1500001 1.05369914 3.98677874 5.1500001 9.57457638 12.57655621 5.1500001 9.61199093 12.56632519 5.1500001 1.00938022 3.99332857 5.1500001 0.96479023 3.99766493 5.1500001 0 3.0999999 5.1500001 0.92003971 3.99977684 5.1500001 0.87523955 3.9996593 5.1500001 0.00111504 3.14478636 5.1500001 0.83050078 3.99731255 5.1500001 0.01001877 3.23391557 5.1500001 0.00445739 3.18946195 5.1500001 0.78593415 3.9927423 5.1500001 0.74165022 3.98596001 5.1500001 0.0177854 3.27803755 5.1500001 7 6 5.1500001 3.5999999 6.86158991 5.1500001 0.69775862 3.97698259 5.1500001 0.02773804 3.32171845 5.1500001 0.65436816 3.965832 5.1500001 0.61158633 3.95253587 5.1500001 0.05409733 3.40732503 5.1500001 0.03985202 3.36484981 5.1500001 0.07043868 3.44903874 5.1500001 0.5282709 3.91964483 5.1500001 0.56951916 3.93712759 5.1500001 0.08883555 3.48988748 5.1500001 0.48794368 3.90013099 5.1500001 0.10924239 3.52977014 5.1500001 0.44863752 3.87863469 5.1500001 0.41044974 3.85520887 5.1500001 0.1558788 3.60624456 5.1500001 0.13160861 3.56858802 5.1500001 0.37347504 3.82991195 5.1500001 0.33780497 3.80280638 5.1500001 0.20988595 3.67770457 5.1500001 0.18199281 3.64264679 5.1500001 0.30352795 3.77395916 5.1500001 0.23948909 3.71133089 5.1500001 0.27072889 3.7434423 5.1500001 10.17307377 12.22757149 5.1500001 23.29999924 29.25 5.1500001 10.15382576 12.25596142 5.1500001 10.19090748 12.19827175 5.1500001 26.08749962 32.07500076 5.1500001 4.61183643 12.60000038 5.1500001 9.11614513 12.55441856 5.1500001 9.07989025 12.54062939 5.1500001 9.04434681 12.52509975 5.1500001 9.00959682 12.50786495 5.1500001 8.97572422 12.48896694 5.1500001 8.9428072 12.46844864 5.1500001 8.910923 12.44635868 5.1500001 8.88014793 12.42274952 5.1500001 8.85055256 12.39767647 5.1500001 8.82220745 12.3711977 5.1500001 8.79517937 12.34337711 5.1500001 8.76953125 12.3142786 5.1500001 8.74532413 12.28397083 5.1500001 8.72261429 12.25252628 5.1500001 8.70145512 12.22001743 5.1500001 8.68189621 12.18652058 5.1500001 8.66398525 12.15211582 5.1500001 8.64776134 12.11688328 5.1500001 8.6332655 12.08090591 5.1500001 8.62053013 12.04426765 5.1500001 8.60958576 12.00705528 5.1500001 26.61539841 33.14500046 5.1500001 25.69034576 35.25 5.1500001 26.08749962 33.14500046 5.1500001 23.29999924 33.54999924 5.1500001 24.01849937 35.25 5.1500001 9.83242035 12.5035944 5.1500001 15.30000019 29.25 5.1500001 9.80006027 12.51496601 5.1500001 9.86418533 12.49065018 5.1500001 9.89527702 12.47616673 5.1500001 9.92562199 12.46017647 5.1500001 9.95514774 12.44272041 5.1500001 9.98378277 12.42383766 5.1500001 10.0114584 12.40357494 5.1500001 10.03810787 12.38198185 5.1500001 10.06366825 12.35910892 5.1500001 10.08807755 12.33501053 5.1500001 10.11127663 12.30974579 5.1500001 10.13321018 12.28337574 5.1500001 0 14.19999981 5.1500001 0 12.60000038 5.1500001 0.19514574 14.87544727 5.1500001 0.35842657 15.55929661 5.1500001 0.4894838 16.25004578 5.1500001 0.5880295 16.94617844 5.1500001 0.65384716 17.64616394 5.1500001 0.68679214 18.34846306 5.1500001 9.15302467 12.56643391 5.1500001 9.22831535 12.58503532 5.1500001 0.68679214 19.05153656 5.1500001 9.19044495 12.57664776 5.1500001 9.26654816 12.59157753 5.1500001 0.65384716 19.75383568 5.1500001 7.20196629 27.73114967 5.1500001 9.53670979 12.58496189 5.1500001 9.4984808 12.59152317 5.1500001 9.4599781 12.59622288 5.1500001 9.42129326 12.59905052 5.1500001 9.38251591 12.60000038 5.1500001 9.34373856 12.59906864 5.1500001 9.30505276 12.59625912 5.1500001 0.5880295 20.45382118 5.1500001 0.4894838 21.14995384 5.1500001 0.35842657 21.84070206 5.1500001 6.16842556 28.00808525 5.1500001 0.19514574 22.5245533 5.1500001 0 24.75262833 5.1500001 0 23.20000076 5.1500001 6.26538754 28.36995316 5.1500001 8.83899689 33.84062958 5.1500001 14.58150005 35.25 5.1500001 15.30000019 33.54999924 5.1500001 7.80545568 34.11756516 5.1500001 7.30223417 34.28728104 5.1500001 7.73497772 33.85453796 5.1500001 7.56019402 35.25 0 9.73386478 12.53289032 0 9.70018768 12.53939915 0 9.76718235 12.52473927 0 9.80006027 12.51496601 0 9.83242035 12.5035944 0 9.86418533 12.49065018 0 9.89527702 12.47616673 0 9.92562199 12.46017647 0 9.95514774 12.44272041 0 9.98378277 12.42383766 0 10.0114584 12.40357494 0 10.03810787 12.38198185 0 10.06366825 12.35910892 0 10.08807755 12.33501053 0 10.11127663 12.30974579 0 10.13321018 12.28337574 0 10.15382576 12.25596142 0 10.17307377 12.22757149 0 10.19090748 12.19827175 0 10.20728588 12.16813469 0 10.22216702 12.13723087 0 10.23551655 12.10563564 0 10.24730301 12.07342339 0 10.25749683 12.04067326 0 10.26607418 12.0074625 0 10.27301502 11.97387218 0 10.27830124 11.93998146 0 10.28192139 11.9058733 0 10.28386688 11.87162876 0 10.284132 11.83732891 0 10.2827158 11.80305862 0 10.27962399 11.76889801 0 10.27486134 11.73493004 0 10.2684412 11.70123577 0 10.26037788 11.66789722 0 9.67119312 12.54966354 0 9.64177513 12.55864525 0 9.61199093 12.56632519 0 41.09397125 0.40723583 0 44.65657806 0 0 41.34835434 0 0 40.85942841 0.82621312 0 40.64526749 1.25596595 0 42 4.80000019 0 48.59999847 6.85246134 0 40.28002167 2.14381242 0 40.129776 2.599859 0 40.45198441 1.69550347 0 40.00159454 3.06259179 0 39.89577484 3.53094435 0 39.81255722 4.00383663 0 42 7.07250738 0 48.08433914 12.55718327 0 48.32574081 11.87234974 0 48.59999847 11.19999981 0 47.87636185 13.25289822 0 47.70230103 13.9578619 0 47.56255722 14.67042446 0 47.45746231 15.38891411 0 47.38726425 16.11164856 0 47.35212326 16.83693314 0 31.54999924 6 0 39.05664825 5.69999981 0 32.06961441 5.69999981 0 47.35212326 17.56306839 0 48.59999847 24.75263977 0 48.59999847 23.20000076 0 48.32574081 22.52765083 0 42.43159103 28.00808525 0 48.08433914 21.84281731 0 42.33462906 28.36995316 0 41.39805222 27.73114967 0 47.87636185 21.14710236 0 47.70230103 20.44213867 0 47.56255722 19.72957611 0 47.45746231 19.01108551 0 47.38726425 18.28835297 0 40.79456329 34.11756516 0 41.2977829 34.28728104 0 40.86503983 33.85453796 0 41.03982544 35.25 0 39.76102066 33.84062958 0 7 4.80000019 0 8.30000019 4.45166588 0 8.30000019 4.0999999 0 7.87010431 2.36968827 0 7.71245527 1.95211136 0 8.00796509 2.794209 0 8.12573433 3.22473669 0 8.22315025 3.66032076 0 32.41249847 32.07500076 0 3.5999999 4 0 7 6 0 6.89157963 0.36940712 0 6.64105654 0 0 7.12447548 0.75017375 0 7.33922911 1.14145935 0 7.53536654 1.54240024 0 0 0 0 32.41249847 33.14500046 0 31.98936462 33.38339615 0 31.98936462 33.14500046 0 18.38038445 5.69999981 0 8.6612854 5.69999981 0 18.89999962 6 0 32.80965424 35.25 0 9.57457638 12.57655621 0 0 3.0999999 0 0.89999998 4 0 0.00108409 3.14416099 0 0.81178457 3.99566627 0 0.85583907 3.99891591 0 0.00433375 3.18821549 0 0.76794255 3.99025893 0 0.00974114 3.23205733 0 0.7244187 3.98270679 0 3.5999999 6.86158991 0 0.68131787 3.97302818 0 0.02697187 3.31868219 0 0.01729325 3.27558136 0 0.63874382 3.96124625 0 0.0387537 3.36125612 0 0.59679914 3.9473896 0 0.55558491 3.93149161 0 0.51520044 3.91359043 0 0.08640964 3.48479962 0 0.05261034 3.40320086 0 0.06850842 3.44441509 0 0.47574294 3.89372921 0 0.10627086 3.52425694 0 0.43730754 3.87195563 0 0.12804425 3.5626924 0 0.3999868 3.84832263 0 0.36387062 3.82288671 0 0.17711322 3.63612938 0 0.15167736 3.60001326 0 0.32904604 3.79570937 0 0.29559693 3.76685596 0 0.23314399 3.70440316 0 0.2042906 3.67095399 0 0.2636039 3.73639607 0 23.29999924 29.25 0 26.08749962 32.07500076 0 4.61183643 12.60000038 0 9.11614513 12.55441856 0 9.07989025 12.54062939 0 9.04434681 12.52509975 0 9.00959682 12.50786495 0 8.97572422 12.48896694 0 8.9428072 12.46844864 0 8.910923 12.44635868 0 8.88014793 12.42274952 0 8.85055256 12.39767647 0 8.82220745 12.3711977 0 8.79517937 12.34337711 0 8.76953125 12.3142786 0 8.74532413 12.28397083 0 8.72261429 12.25252628 0 8.70145512 12.22001743 0 8.68189621 12.18652058 0 8.66398525 12.15211582 0 8.64776134 12.11688328 0 8.6332655 12.08090591 0 8.62053013 12.04426765 0 8.60958576 12.00705528 0 25.69034576 35.25 0 26.61539841 33.14500046 0 26.08749962 33.14500046 0 23.29999924 33.54999924 0 24.01849937 35.25 0 15.30000019 29.25 0 0 14.19999981 0 0 12.60000038 0 0.19514574 14.87544727 0 0.35842657 15.55929661 0 0.4894838 16.25004578 0 0.5880295 16.94617844 0 0.65384716 17.64616394 0 0.68679214 18.34846306 0 9.15302467 12.56643391 0 0.68679214 19.05153656 0 9.22831535 12.58503532 0 9.19044495 12.57664776 0 0.65384716 19.75383568 0 9.26654816 12.59157753 0 7.20196629 27.73114967 0 0.5880295 20.45382118 0 9.53670979 12.58496189 0 9.4984808 12.59152317 0 9.4599781 12.59622288 0 9.42129326 12.59905052 0 9.38251591 12.60000038 0 9.34373856 12.59906864 0 9.30505276 12.59625912 0 0.4894838 21.14995384 0 0.35842657 21.84070206 0 6.16842556 28.00808525 0 0.19514574 22.5245533 0 0 24.75262833 0 0 23.20000076 0 6.26538754 28.36995316 0 8.83899689 33.84062958 0 14.58150005 35.25 0 15.30000019 33.54999924 0 7.30223417 34.28728104 0 7.80545568 34.11756516 0 7.73497772 33.85453796 0 7.56019402 35.25 2.7750001 9.6166687 9.26554203 2.375 9.6166687 9.26554203 2.7750001 10.13998508 11.21858311 2.375 10.13998508 11.21858311 2.375 8.35650635 11.06254959 2.7750001 8.35650635 11.06254959 2.7750001 7.83318996 9.10950756 2.375 7.83318996 9.10950756 2.7750001 7.1353035 6.50495958 2.375 7.1353035 6.50495958 2.7750001 7 6 2.375 7 6 4.32499981 27.52499962 6 4.32499981 30.97500038 6 0.82499999 30.97500038 6 0.82499999 27.52499962 6 2.7750001 26.39492226 6 2.375 26.39492226 6 2.7750001 23.37568474 6 2.375 23.37568474 6 0.82499999 30.97500038 32.07500076 0.82499999 27.52499962 32.07500076 4.32499981 30.97500038 32.07500076 4.32499981 27.52499962 32.07500076 1.72500002 35.75 35.25 3.42499995 35.75 35.25 3.42499995 38.45000076 35.25 1.72500002 38.45000076 35.25 1.72500002 38.45000076 25.25 1.72500002 35.75 25.25 3.42499995 38.45000076 25.25 3.42499995 35.75 25.25 1.72500002 46.54999924 25.93620682 3.42499995 46.54999924 25.93620682 1.72500002 43.84999847 27.49505424 3.42499995 43.84999847 27.49505424 2.7750001 44.8853035 13.44999981 2.7750001 43.84999847 13.44999981 3.42499995 43.84999847 13.44999981 2.375 44.8853035 13.44999981 1.72500002 43.84999847 13.44999981 2.375 43.84999847 13.44999981 3.42499995 46.54999924 13.44999981 1.72500002 46.54999924 13.44999981 2.375 43.84999847 16.54997444 2.7750001 43.84999847 16.54997444 2.7750001 40.0103035 4.07580948 2.7750001 42 4.80000019 2.375 40.0103035 4.07580948 2.375 42 4.80000019 2.7750001 40.32384872 6.29090643 2.7750001 42 7.07250738 2.375 40.32384872 6.29090643 2.375 42 7.07250738 4.57499981 18.45000076 29.25 4.57499981 15.30000019 29.25 0.57499999 18.45000076 29.25 0.57499999 15.30000019 29.25 4.57499981 20.14999962 29.25 4.57499981 23.29999924 29.25 0.57499999 20.14999962 29.25 0.57499999 23.29999924 29.25 4.57499981 23.29999924 23.64999962 0.57499999 23.29999924 23.64999962 0.57499999 20.14999962 23.64999962 4.57499981 20.14999962 23.64999962 4.57499981 15.30000019 23.64999962 0.57499999 15.30000019 23.64999962 0.57499999 18.45000076 23.64999962 4.57499981 18.45000076 23.64999962 1 3.5999999 4 1 3.5999999 1.5 1 0.89999998 4 1 1.5 2.42917967 1 1.5322789 2.45951319 1 1.56302631 2.4913981 1 1.59216762 2.52475739 1 1.61963224 2.55950999 1 1.64535379 2.59557199 1 1.66926992 2.63285565 1 1.69132257 2.67127085 1 1.71145844 2.71072483 1 1.72962868 2.75112152 1 1.74578941 2.79236341 1 1.75990129 2.83435035 1 1.77193034 2.87698078 1 1.78184724 2.92015147 1 1.78962803 2.96375775 1 1.79525399 3.00769424 1 1.7987113 3.05185413 1 1.79999173 3.09613085 1 1.79909205 3.14041662 1 1.79601455 3.18460464 1 1.7907666 3.22858787 1 1.78336096 3.27225947 1 1.77381563 3.31551385 1 1.76215363 3.35824633 1 1.74840319 3.40035295 1 1.73259783 3.44173217 1 1.71477556 3.48228383 1 1.69497967 3.52190924 1 1.67325807 3.56051278 1 1.64966345 3.59800076 1 1.62425292 3.63428235 1 1.5970881 3.6692698 1 1.56823468 3.70287848 1 1.53776264 3.7350266 1 1.50574565 3.76563668 1 1.47226155 3.79463434 1 1.43739116 3.82194924 1 1.40121901 3.84751558 1 1.36383283 3.87127113 1 1.3253231 3.89315844 1 1.28578305 3.91312456 1 1.24530852 3.93112087 1 1.20399761 3.94710422 1 1.16195035 3.96103549 1 1.11926854 3.97288108 1 1.07605565 3.98261237 1 1.03241622 3.99020553 1 0.98845607 3.99564242 1 0.9442817 3.99890995 2.7750001 7.13516712 4.76378202 2.7750001 7 4.80000019 2.375 7 4.80000019 2.375 7.13516712 4.76378202 1.72500002 5.80000019 28.10126114 3.42499995 5.80000019 28.10126114 1.72500002 2.9000001 26.42694473 3.42499995 2.9000001 26.42694473 1.72500002 5.80000019 13.44999981 1.72500002 2.9000001 13.44999981 2.375 5.80000019 16.3646698 2.7750001 5.80000019 16.3646698 2.375 5.80000019 13.44999981 2.7750001 5.80000019 13.44999981 3.42499995 5.80000019 13.44999981 2.7750001 5.15479612 13.44999981 3.42499995 2.9000001 13.44999981 2.375 5.15479612 13.44999981 1.72500002 10.14999962 35.25 3.42499995 10.14999962 35.25 3.42499995 12.85000038 35.25 1.72500002 12.85000038 35.25 1.72500002 12.85000038 25.25 3.42499995 12.85000038 25.25 3.42499995 10.14999962 25.25 1.72500002 10.14999962 25.25 2.7750001 30.97500038 16.54997444 2.375 30.97500038 16.54997444 2.375 30.97500038 9.84314156 2.7750001 30.97500038 9.84314156 2.375 27.52499962 16.54997444 2.7750001 27.52499962 16.54997444 2.7750001 27.52499962 6.94824743 2.375 27.52499962 6.94824743 1 1.5 1.5</float_array>
          <technique_common>
            <accessor source="#pos_0-array" count="1866" stride="3">
              <param name="X" type="float"/>
              <param name="Y" type="float"/>
              <param name="Z" type="float"/>
            </accessor>
          </technique_common>
        </source>
        <source id="uvs_0">
          <float_array id="uvs_0-array" count="0"></float_array>
          <technique_common>
            <accessor source="#uvs_0-array" count="0" stride="2">
              <param name="S" type="float"/>
              <param name="T" type="float"/>
            </accessor>
          </technique_common>
        </source>
        <vertices id="vert_0">
          <input semantic="POSITION" source="#pos_0"/>
        </vertices>
        <triangles count="1214" material="mat_0">
          <input semantic="VERTEX" source="#vert_0" offset="0"/>
          <p>0 1 2 0 3 1 0 4 3 5 6 0 7 6 8 9 6 7 4 6 9 0 6 4 6 10 8 6 11 10 6 12 11 13 14 15 15 14 16 16 14 5 5 14 6 13 17 14 17 18 14 18 19 14 19 20 14 20 21 14 21 22 14 23 24 22 14 24 25 25 24 26 22 24 14 27 28 29 29 30 31 28 30 29 28 32 30 31 33 34 34 33 35 35 33 36 36 33 37 37 33 38 38 33 23 30 33 31 23 33 24 39 40 41 40 42 43 39 42 40 44 45 46 47 45 48 49 45 47 50 45 49 51 45 50 46 45 51 45 52 48 53 52 54 55 52 53 56 52 55 57 52 56 48 52 57 43 58 33 33 58 24 52 59 54 60 59 52 43 61 58 62 63 64 62 65 63 65 66 63 66 67 63 67 68 63 68 69 63 69 70 63 70 71 63 71 72 63 72 73 63 73 74 63 74 75 63 75 76 63 76 77 63 77 78 63 78 79 63 79 80 63 61 81 82 80 83 63 84 85 86 84 87 85 83 88 63 84 89 87 90 89 84 90 91 89 88 92 63 90 93 91 90 94 93 92 95 63 90 96 94 95 97 63 90 98 96 90 99 98 97 100 63 90 101 99 100 102 63 90 103 101 90 104 103 102 105 63 90 106 104 105 107 63 90 108 106 107 109 63 90 110 108 90 111 110 109 112 63 112 113 63 113 114 63 114 115 63 115 116 63 116 117 63 117 118 63 118 119 63 43 120 61 42 120 43 61 120 81 119 121 63 121 122 63 122 123 63 123 124 63 125 126 124 124 126 63 126 127 63 128 129 130 131 132 128 128 132 129 133 134 127 127 134 63 132 135 136 137 138 134 134 138 63 63 139 60 60 139 59 140 141 138 138 141 63 63 142 139 141 143 63 142 144 145 63 144 142 146 147 143 143 147 63 63 148 144 149 150 45 147 151 63 63 152 148 153 154 151 151 154 63 152 155 156 63 155 152 63 157 155 154 158 63 159 158 154 63 160 157 158 161 63 63 162 160 163 164 161 63 165 162 162 165 166 161 167 63 164 167 161 167 168 63 63 169 165 165 169 170 168 171 63 63 172 169 171 173 63 63 173 172 174 175 176 177 175 174 111 175 177 58 175 24 24 175 90 90 175 111 58 178 175 149 179 150 180 179 181 181 179 182 182 179 183 183 179 184 184 179 185 185 179 186 186 179 187 187 179 188 188 179 189 189 179 190 190 179 191 191 179 192 192 179 193 193 179 194 194 179 195 195 179 196 196 179 197 197 179 198 198 179 199 199 179 200 200 179 149 201 202 203 178 204 175 203 204 178 203 205 204 202 205 203 206 207 208 209 207 206 210 207 209 211 207 210 212 207 211 213 207 212 214 207 213 215 207 214 216 207 215 217 207 216 218 207 217 219 207 218 176 207 219 175 207 176 179 220 221 179 222 220 179 223 222 179 224 223 179 225 224 179 226 225 179 227 226 228 227 180 180 227 179 229 230 231 231 230 228 228 230 227 232 233 229 229 233 230 208 234 131 207 234 208 135 234 235 235 234 236 236 234 237 237 234 238 238 234 239 239 234 240 240 234 241 241 234 232 131 234 132 132 234 135 233 234 242 232 234 233 234 243 242 234 244 243 234 245 244 245 246 244 245 247 246 246 247 248 249 247 245 207 250 234 251 250 252 252 250 207 253 254 255 251 256 250 253 256 254 250 256 253 150 52 45 130 257 128 258 257 130 128 259 131 257 259 128 131 260 208 259 260 131 208 261 206 260 261 208 206 262 209 261 262 206 209 263 210 262 263 209 210 264 211 263 264 210 264 265 211 211 265 212 212 266 213 265 266 212 266 267 213 213 267 214 214 268 215 267 268 214 215 269 216 268 269 215 216 270 217 217 270 218 269 270 216 270 271 218 218 272 219 219 272 176 271 272 218 272 273 176 176 274 174 174 274 177 273 274 176 274 275 177 177 276 111 275 276 177 111 277 110 110 277 108 276 277 111 277 278 108 108 279 106 106 279 104 278 279 108 279 280 104 104 281 103 280 281 104 103 282 101 281 282 103 101 283 99 282 283 101 99 284 98 283 284 99 98 285 96 284 285 98 96 286 94 285 286 96 94 287 93 93 287 91 286 287 94 287 288 91 288 289 91 91 289 89 289 290 89 89 290 87 87 290 85 290 291 85 130 129 258 258 129 292 292 132 293 129 132 292 293 136 294 132 136 293 295 296 297 298 296 295 299 296 298 300 296 299 300 301 296 300 302 303 300 304 302 300 299 304 305 300 303 306 300 305 307 300 306 308 301 300 308 309 310 308 310 311 308 311 301 312 309 308 313 312 308 314 313 308 315 314 308 316 315 308 317 316 308 318 308 319 318 319 320 318 317 308 318 321 317 322 323 324 325 324 326 325 322 324 327 322 325 328 325 326 328 326 329 328 329 330 328 330 331 328 331 332 328 332 333 328 333 321 328 321 318 334 335 336 337 334 338 337 335 334 339 340 341 339 342 343 339 344 342 339 345 344 339 346 345 339 341 346 347 338 328 347 328 318 348 339 343 348 349 339 348 350 351 348 352 350 348 353 352 348 354 353 348 343 354 348 351 355 356 338 347 357 356 358 291 359 360 290 359 291 289 361 359 289 359 290 288 361 289 287 361 288 286 361 287 285 361 286 284 361 285 283 361 284 282 361 283 281 361 282 280 361 281 279 361 280 278 361 279 277 361 278 276 361 277 362 337 338 362 356 357 362 338 356 292 257 258 293 259 257 293 257 292 363 293 294 364 348 355 364 365 348 366 365 364 367 368 365 369 365 366 370 367 365 371 365 369 372 370 365 373 349 348 374 372 365 375 371 376 375 365 371 377 374 365 378 365 375 379 377 365 380 379 365 381 380 365 382 383 384 382 378 383 382 365 378 385 381 365 386 365 382 387 385 365 388 365 386 389 387 365 390 389 365 391 388 392 391 365 388 393 390 365 394 393 365 395 391 396 395 365 391 397 394 365 397 365 395 398 318 361 398 274 273 398 275 274 398 276 275 398 347 318 398 361 276 399 347 398 400 349 373 400 401 402 400 402 403 400 403 404 400 404 405 400 405 406 400 406 407 400 407 408 400 408 409 400 409 410 400 410 411 400 411 412 400 412 413 400 413 414 400 414 415 400 415 416 400 416 417 400 417 418 400 418 419 400 419 420 400 420 421 400 421 349 422 423 424 425 424 399 425 399 398 426 422 424 426 424 425 427 261 260 427 262 261 427 263 262 427 264 263 427 265 264 427 266 265 427 267 266 427 268 267 427 269 268 427 270 269 427 271 270 427 272 271 427 273 272 427 398 273 428 400 429 430 400 428 431 400 430 432 400 431 433 400 432 434 400 433 435 436 401 435 401 400 435 400 434 437 438 439 437 439 436 437 436 435 440 438 437 440 441 438 442 260 259 442 259 293 442 293 363 442 440 443 442 363 444 442 444 445 442 445 446 442 446 447 442 447 448 442 448 449 442 449 450 442 450 441 442 427 260 442 441 440 451 442 443 452 442 451 453 442 452 454 453 452 455 453 454 455 454 456 455 457 453 458 459 460 458 460 427 458 427 442 461 462 463 464 462 461 464 458 462 464 459 458 85 465 86 466 360 86 466 86 465 467 465 85 468 467 85 291 466 468 291 360 466 291 468 85 469 200 470 421 200 469 471 470 200 472 421 469 149 471 200 473 471 149 474 472 471 474 471 473 475 473 149 349 474 476 349 421 472 349 472 474 86 359 84 360 359 86 361 90 84 359 361 84 477 478 24 479 24 478 318 24 479 480 481 482 480 318 479 480 477 481 483 481 477 484 480 482 90 477 24 90 483 477 361 484 483 361 483 90 361 480 484 361 318 480 320 26 24 318 320 24 58 347 485 486 485 347 487 58 485 399 486 347 488 486 399 178 488 399 178 58 487 178 487 488 358 82 357 357 82 81 357 81 120 362 357 120 39 335 337 42 39 337 489 362 120 489 120 490 42 491 490 42 490 120 492 491 42 337 489 492 337 492 42 337 362 489 493 494 495 495 494 496 496 494 490 490 494 489 494 493 489 489 493 492 492 493 491 493 495 491 491 495 490 495 496 490 41 336 335 39 41 335 334 336 40 40 336 41 338 334 43 43 334 40 338 33 328 43 33 338 28 322 497 498 28 497 327 499 497 327 497 322 32 500 499 32 498 500 32 28 498 32 499 327 501 502 503 504 505 506 507 504 501 507 501 503 508 504 507 508 505 504 507 503 498 498 503 500 508 507 497 497 507 498 499 505 497 505 508 497 500 509 499 510 509 500 503 502 510 506 505 509 505 499 509 500 503 510 323 322 27 27 322 28 27 29 323 323 29 324 324 31 326 29 31 324 326 34 329 31 34 326 329 35 330 34 35 329 330 36 331 331 36 332 35 36 330 36 37 332 332 38 333 37 38 332 333 23 321 38 23 333 321 22 317 317 22 316 23 22 321 22 21 316 316 20 315 21 20 316 315 19 314 20 19 315 314 18 313 313 18 312 19 18 314 312 17 309 18 17 312 17 13 309 13 15 309 309 15 310 310 15 311 15 16 311 0 301 5 296 301 0 301 311 16 301 16 5 11 12 307 11 307 306 10 306 305 10 11 306 8 305 303 8 10 305 7 303 302 7 302 304 7 8 303 9 7 304 4 304 299 4 9 304 3 299 298 3 4 299 1 298 295 1 3 298 2 295 297 2 1 295 511 12 6 512 511 6 300 513 514 300 307 513 307 12 511 307 511 513 515 14 25 515 516 14 517 515 25 308 518 517 319 308 517 319 517 25 516 512 6 516 6 14 320 25 26 320 319 25 308 514 518 308 300 514 297 0 2 297 296 0 30 325 33 325 328 33 32 327 30 327 325 30 347 58 61 356 347 61 358 356 61 358 61 82 422 202 201 423 422 201 422 426 205 422 205 202 519 520 207 521 427 522 521 519 523 175 519 207 175 523 519 524 523 175 525 521 523 398 525 526 398 427 525 525 427 521 426 425 204 426 204 205 204 524 175 526 527 524 526 528 527 425 398 526 425 524 204 425 526 524 529 528 525 525 528 526 530 529 523 523 529 525 524 527 523 527 530 523 530 527 528 530 528 529 207 520 252 520 460 252 520 522 460 522 427 460 531 532 520 520 532 522 532 533 522 522 533 521 531 534 533 531 533 532 519 534 520 534 531 520 521 534 519 533 534 521 459 251 252 460 459 252 255 463 253 463 462 253 462 458 253 253 458 250 461 463 255 461 255 254 234 442 245 442 453 245 453 457 245 245 457 249 234 458 442 234 250 458 400 150 179 400 373 150 535 536 52 535 52 150 373 348 535 373 535 150 348 365 535 535 365 537 63 538 539 64 539 540 64 63 539 62 540 541 62 64 540 65 541 542 65 62 541 66 542 543 66 65 542 67 543 544 67 66 543 68 544 545 68 67 544 69 545 546 69 68 545 70 546 547 70 69 546 71 70 547 71 547 548 72 71 548 72 548 549 73 72 549 73 549 550 74 73 550 74 550 551 75 74 551 75 551 552 76 75 552 76 552 553 77 76 553 77 553 554 78 554 555 78 77 554 79 555 556 79 78 555 80 556 557 80 79 556 83 557 558 83 80 557 88 558 559 88 83 558 92 559 560 92 88 559 95 560 561 95 92 560 97 561 562 97 95 561 100 562 563 100 97 562 102 563 564 102 100 563 105 564 565 105 102 564 107 565 566 107 105 565 109 566 567 109 107 566 112 567 568 112 109 567 113 568 569 113 112 568 114 569 570 114 113 569 115 570 571 115 114 570 116 571 572 116 115 571 117 116 572 117 572 573 118 117 573 118 573 574 119 118 574 119 574 575 121 119 575 121 575 576 122 121 576 122 576 577 123 122 577 123 577 578 124 123 578 124 578 579 125 124 579 125 579 580 126 125 580 126 580 581 127 126 581 127 581 582 133 127 582 133 582 583 134 133 583 134 583 584 137 134 584 137 584 585 138 137 585 138 585 586 368 537 365 140 586 537 140 138 586 141 537 368 141 140 537 143 368 367 143 141 368 146 367 370 146 143 367 147 370 372 147 146 370 151 372 374 151 147 372 153 374 377 153 151 374 154 377 379 154 153 377 159 379 380 159 154 379 158 380 381 158 159 380 161 381 385 161 158 381 163 161 385 163 385 387 164 163 387 164 387 389 167 164 389 167 389 390 168 167 390 168 390 393 171 393 394 171 168 393 173 394 397 173 171 394 172 397 395 172 173 397 169 395 396 169 172 395 170 396 391 170 169 396 165 391 392 165 170 391 166 392 388 166 165 392 162 388 386 162 166 388 160 386 382 160 162 386 157 382 384 157 160 382 155 384 383 155 157 384 156 383 378 156 155 383 152 378 375 152 156 378 148 375 376 148 152 375 144 376 371 144 148 376 145 371 369 145 144 371 142 369 366 142 145 369 139 142 366 139 366 364 59 351 54 355 351 59 136 135 294 294 135 363 363 235 444 135 235 363 444 236 445 235 236 444 445 237 446 446 237 447 236 237 445 237 238 447 447 239 448 238 239 447 239 240 448 448 240 449 240 241 449 449 241 450 450 241 441 241 232 441 441 229 438 232 229 441 438 231 439 229 231 438 439 228 436 231 228 439 436 180 401 228 180 436 401 181 402 402 181 403 180 181 401 181 182 403 403 183 404 182 183 403 404 184 405 405 184 406 183 184 404 406 185 407 184 185 406 185 186 407 407 187 408 408 187 409 186 187 407 187 188 409 409 189 410 188 189 409 410 190 411 189 190 410 411 191 412 190 191 411 412 192 413 413 192 414 191 192 412 414 193 415 192 193 414 193 194 415 415 195 416 194 195 415 416 196 417 417 196 418 195 196 416 196 197 418 418 198 419 197 198 418 419 199 420 420 199 421 198 199 419 199 200 421 587 588 45 587 45 44 339 589 590 340 590 587 340 587 44 340 339 590 339 349 476 339 476 589 475 149 45 588 475 45 341 340 44 341 44 46 54 351 350 53 54 350 55 350 352 55 53 350 56 352 353 56 55 352 57 353 354 57 56 353 48 354 343 48 57 354 47 343 342 47 48 343 49 342 344 49 47 342 50 344 345 50 345 346 50 49 344 51 50 346 46 346 341 46 51 346 364 355 139 139 355 59 179 221 429 179 429 400 220 429 221 428 429 220 455 456 247 247 456 248 220 222 428 428 222 430 430 223 431 222 223 430 431 224 432 223 224 431 432 225 433 224 225 432 433 226 434 225 226 433 434 227 435 435 227 437 226 227 434 227 230 437 437 233 440 230 233 437 440 242 443 233 242 440 443 243 451 451 243 452 242 243 443 243 244 452 452 246 454 244 246 452 454 248 456 246 248 454 249 591 592 249 457 591 593 591 457 455 593 457 594 249 592 247 594 593 247 593 455 247 249 594 595 591 593 596 595 593 591 597 592 597 598 592 595 599 597 600 601 598 591 595 597 601 592 598 602 603 601 604 596 603 604 603 602 600 602 601 595 604 599 595 596 604 596 593 594 603 596 594 601 603 594 601 594 592 461 254 256 464 461 256 605 464 256 605 256 606 251 607 606 251 606 256 608 607 251 459 605 608 459 464 605 459 608 251 608 609 607 609 610 607 607 610 606 610 611 606 611 612 606 606 612 605 612 609 605 605 609 608 609 612 610 610 612 611 424 203 178 399 424 178 424 201 203 424 423 201 480 479 486 486 479 485 485 613 487 614 613 485 615 479 616 614 479 615 616 478 613 479 478 616 485 479 614 478 487 613 478 477 487 487 477 488 488 617 486 618 617 488 477 619 618 619 480 620 620 480 617 477 480 619 488 477 618 480 486 617 536 60 52 536 621 60 621 540 539 539 538 621 621 541 540 536 542 621 621 542 541 536 543 542 536 544 543 536 545 544 536 546 545 536 547 546 536 548 547 536 549 548 536 550 549 536 551 550 535 552 536 536 552 551 535 553 552 535 554 553 535 555 554 535 556 555 535 557 556 535 558 557 535 559 558 535 560 559 535 561 560 535 562 561 535 563 562 535 564 563 535 565 564 535 566 565 535 567 566 535 568 567 535 569 568 535 570 569 535 571 570 535 572 571 535 573 572 535 574 573 535 537 586 535 586 585 535 585 584 535 584 583 535 583 582 535 582 581 535 581 580 535 580 579 535 579 578 535 578 577 535 577 576 535 576 575 535 575 574 621 63 60 621 538 63</p>
        </triangles>
      </mesh>
    </geometry>
    <geometry id="geometry_f6c05d2d_f9e7_449b_a8eb_d673a5126122">
      <mesh>
        <source id="pos_1">
          <float_array id="pos_1-array" count="216">2.375 23.43530273 5.94997358 2.375 26.33530426 5.94997358 2.7750001 26.33530426 5.94997358 2.7750001 23.43530273 5.94997358 2.7750001 26.39492226 6 2.7750001 23.37568474 6 2.375 26.39492226 6 2.375 23.37568474 6 2.7750001 8.35650635 11.06254959 2.7750001 7.83318996 9.10950756 2.7750001 9.6166687 9.26554203 2.7750001 10.13998508 11.21858311 2.375 10.13998508 11.21858311 2.375 8.35650635 11.06254959 2.375 7.83318996 9.10950756 2.375 9.6166687 9.26554203 2.375 43.84999847 13.44999981 2.375 44.8853035 15.84997368 2.375 44.8853035 13.44999981 2.375 43.84999847 16.54997444 2.375 44.18530273 16.54997444 2.7750001 44.18530273 16.54997444 2.7750001 43.84999847 16.54997444 2.7750001 44.8853035 15.84997368 2.7750001 43.84999847 13.44999981 2.7750001 44.8853035 13.44999981 2.7750001 41.53530502 5.29997349 2.7750001 40.0103035 4.74491882 2.7750001 40.0103035 4.07580948 2.7750001 42 4.80000019 2.7750001 41.53530502 5.84997368 2.7750001 42 7.07250738 2.7750001 40.32384872 6.29090643 2.375 40.0103035 4.74491882 2.375 40.0103035 4.07580948 2.375 41.53530502 5.29997349 2.375 42 4.80000019 2.375 41.53530502 5.84997368 2.375 40.32384872 6.29090643 2.375 42 7.07250738 2.375 7 4.80000019 2.375 7.13524294 4.77964401 2.375 7.13516712 4.76378202 2.375 7.13528824 4.79550648 2.375 7.1353035 4.81136894 2.375 7 6 2.375 7.1353035 6.50495958 2.7750001 7.13524294 4.77964401 2.7750001 7.13516712 4.76378202 2.7750001 7.13528824 4.79550648 2.7750001 7.1353035 4.81136894 2.7750001 7 4.80000019 2.7750001 7 6 2.7750001 7.1353035 6.50495958 2.375 5.15479612 13.44999981 2.375 5.28530359 15.54997349 2.375 5.80000019 13.44999981 2.375 5.28530359 15.84997368 2.375 5.80000019 16.3646698 2.7750001 5.28530359 15.54997349 2.7750001 5.28530359 15.84997368 2.7750001 5.15479612 13.44999981 2.7750001 5.80000019 13.44999981 2.7750001 5.80000019 16.3646698 2.375 30.97500038 16.54997444 2.375 27.52499962 16.54997444 2.7750001 30.97500038 16.54997444 2.7750001 27.52499962 16.54997444 2.375 27.52499962 6.94824743 2.375 30.97500038 9.84314156 2.7750001 30.97500038 9.84314156 2.7750001 27.52499962 6.94824743</float_array>
          <technique_common>
            <accessor source="#pos_1-array" count="216" stride="3">
              <param name="X" type="float"/>
              <param name="Y" type="float"/>
              <param name="Z" type="float"/>
            </accessor>
          </technique_common>
        </source>
        <source id="uvs_1">
          <float_array id="uvs_1-array" count="0"></float_array>
          <technique_common>
            <accessor source="#uvs_1-array" count="0" stride="2">
              <param name="S" type="float"/>
              <param name="T" type="float"/>
            </accessor>
          </technique_common>
        </source>
        <vertices id="vert_1">
          <input semantic="POSITION" source="#pos_1"/>
        </vertices>
        <triangles count="86" material="mat_1">
          <input semantic="VERTEX" source="#vert_1" offset="0"/>
          <p>0 1 2 0 2 3 4 5 2 2 5 3 2 1 4 1 6 4 7 6 0 0 6 1 7 3 5 7 0 3 8 9 10 11 8 10 12 8 11 12 13 8 14 13 15 13 12 15 14 15 10 14 10 9 16 17 18 19 17 16 19 20 17 21 19 22 20 19 21 23 22 24 23 24 25 21 22 23 25 17 23 18 17 25 17 21 23 17 20 21 26 27 28 26 28 29 30 26 29 31 32 30 31 30 29 33 34 28 33 28 27 33 35 34 34 35 36 35 37 36 38 39 37 37 39 36 38 37 32 32 37 30 37 35 30 30 35 26 35 33 26 26 33 27 40 41 42 40 43 41 40 44 43 40 45 44 46 44 45 47 48 42 47 42 41 49 41 43 49 47 41 50 43 44 50 49 43 47 51 48 49 51 47 50 51 49 52 51 50 50 53 52 44 46 50 50 46 53 54 55 56 57 58 55 55 58 56 57 55 59 57 59 60 59 61 62 63 60 59 63 59 62 63 57 60 58 57 63 59 54 61 55 54 59 64 65 66 66 65 67 68 65 69 65 64 69 68 70 71 68 69 70 67 71 70 66 67 70</p>
        </triangles>
      </mesh>
    </geometry>
  </library_geometries>
  <library_visual_scenes>
    <visual_scene id="DefaultScene">
      <node id="node_1ed2408d_f142_4b38_bdfa_844fc271db52" type="NODE">
        <matrix>1 0 0 0 0 1 0 0 0 0 1 0 0 0 0 1</matrix>
        <node id="node_d650dee7_0245_48ea_ab63_21488ff25ee4" type="NODE">
          <matrix>1 0 0 0 0 1 0 0 0 0 1 0 0 0 0 1</matrix>
          <node id="node_d650dee7_0245_48ea_ab63_21488ff25ee4_mesh0" type="NODE">
            <matrix>1 0 0 0 0 1 0 0 0 0 1 0 0 0 0 1</matrix>
            <instance_geometry url="#geometry_068667ea_932a_43fb_b939_506e2abda40f">
              <bind_material>
                <technique_common>
                  <instance_material symbol="mat_0" target="#mat_0"/>
                </technique_common>
              </bind_material>
            </instance_geometry>
          </node>
          <node id="node_d650dee7_0245_48ea_ab63_21488ff25ee4_mesh1" type="NODE">
            <matrix>1 0 0 0 0 1 0 0 0 0 1 0 0 0 0 1</matrix>
            <instance_geometry url="#geometry_f6c05d2d_f9e7_449b_a8eb_d673a5126122">
              <bind_material>
                <technique_common>
                  <instance_material symbol="mat_1" target="#mat_1"/>
                </technique_common>
              </bind_material>
            </instance_geometry>
          </node>
        </node>
      </node>
    </visual_scene>
  </library_visual_scenes>
  <scene>
    <instance_visual_scene url="#DefaultScene"/>
  </scene>
</COLLADA>
