<?xml version="1.0" encoding="UTF-8"?>
<COLLADA xmlns="http://www.collada.org/2005/11/COLLADASchema" version="1.4.1">
<!--
# File generated by ImageToStl.com - Free Image and 3D model conversion tools
-->
  <asset>
    <contributor>
      <author>ImageToStl.com</author>
      <authoring_tool>ImageToStl.com</authoring_tool>
    </contributor>
    <created>2025-07-02T08:54:07</created>
    <modified>2025-07-02T08:54:07</modified>
    <up_axis>Z_UP</up_axis>
  </asset>
  <library_effects>
    <effect id="effect_0">
        <profile_COMMON>
          <technique sid="common">
            <phong>
              <diffuse>
                <color>0.85 0.85 0.85 1</color>
              </diffuse>
              <specular>
                <color>0.05 0.05 0.05 1</color>
              </specular>
              <shininess>
                <float>64</float>
              </shininess>
            </phong>
          </technique>
        </profile_COMMON>
    </effect>
  </library_effects>
  <library_materials>
    <material id="mat_0">
      <instance_effect url="#effect_0"/>
    </material>
  </library_materials>
  <library_geometries>
    <geometry id="geometry_090702df_ef84_4af9_a753_879a965f462f">
      <mesh>
        <source id="pos_0">
          <float_array id="pos_0-array" count="1419">4.1500001 -0 5.15710688 0 -0 5.15710688 4.1500001 -0 -0 0 -0 -0 0 0.68284273 5.43994951 0 0.60000002 5.50351715 4.1500001 0.68284273 5.43994951 4.1500001 0.60000002 5.50351715 0 0.50352764 5.54347706 4.1500001 0.50352764 5.54347706 4.1500001 0.40000001 5.55710697 0 0.40000001 5.55710697 0 0.29647237 5.54347706 4.1500001 0.29647237 5.54347706 0 0.2 5.50351715 4.1500001 0.2 5.50351715 4.1500001 0.11715729 5.43994951 0 0.11715729 5.43994951 0 0.05358984 5.35710669 4.1500001 0.05358984 5.35710669 0 0.01362967 5.26063442 4.1500001 0.01362967 5.26063442 4.1500001 5.66593933 -0 0 5.66593933 -0 1.10000002 2.05245614 4.07033587 0 2.05245614 4.07033587 1.10000002 1.53639615 4.58639622 4.1500001 1.53639615 4.58639622 4.1500001 6.51958942 1.10308611 0 6.51958942 1.10308611 0 7.20251656 2.31927991 0 7.69999981 3.62236357 4.1500001 7.69999981 3.62236357 4.1500001 7.20251656 2.31927991 1.10000002 1.5 3.27917957 4.1500001 1.5 3.27917957 1.10000002 1.5 2.3499999 4.1500001 1.5 2.3499999 4.1500001 7.69999981 5.55000019 0 7.69999981 5.55000019 4.1500001 1.63834453 3.43536663 1.10000002 1.63834453 3.43536663 1.10000002 1.73700655 3.61921287 4.1500001 1.73700655 3.61921287 1.10000002 1.79068339 3.82083726 4.1500001 1.79068339 3.82083726 4.1500001 1.79649043 4.02940369 1.10000002 1.79649043 4.02940369 1.10000002 1.75411534 4.23370218 4.1500001 1.75411534 4.23370218 1.10000002 1.66583574 4.42275333 4.1500001 1.66583574 4.42275333 4.1500001 6.80000019 5.47126007 0 6.80000019 5.47126007 1.39999998 13.28016663 27.35000038 1.39999998 13.28016663 24.64999962 1.39999998 13.77499962 27.35000038 1.39999998 13.77499962 24.64999962 4.1500001 6.80000019 6.55000019 0 6.80000019 6.55000019 4.1500001 6.90910721 7.8913703 0 6.90910721 7.8913703 0 7.23356009 9.19747448 0 7.76482821 10.43397427 4.1500001 7.76482821 10.43397427 4.1500001 7.23356009 9.19747448 0 7.84044218 10.54036808 4.1500001 7.84044218 10.54036808 4.1500001 7.94101572 10.62356663 0 7.94101572 10.62356663 0 8.0596962 10.67789936 4.1500001 8.0596962 10.67789936 0 8.18839455 10.69966412 4.1500001 8.18839455 10.69966412 4.1500001 8.31834126 10.68737793 0 8.31834126 10.68737793 0 8.4406805 10.64187813 4.1500001 8.4406805 10.64187813 0 8.54707432 10.56626415 4.1500001 8.54707432 10.56626415 4.1500001 8.63027287 10.46569061 0 8.63027287 10.46569061 0 8.6846056 10.34700966 4.1500001 8.6846056 10.34700966 0 8.70637035 10.21831131 4.1500001 8.70637035 10.21831131 0 8.69408417 10.0883646 4.1500001 8.69408417 10.0883646 4.1500001 8.64858437 9.96602535 0 8.64858437 9.96602535 4.1500001 8.21387863 8.9730835 0 8.21387863 8.9730835 0 7.93099403 7.92671824 0 7.80616713 6.8499999 4.1500001 7.80616713 6.8499999 4.1500001 7.93099403 7.92671824 4.1500001 3.20763326 2.3499999 1.10000002 3.20763326 2.3499999 0 33.59999847 6.8499999 4.1500001 33.59999847 6.8499999 0 33.65176392 6.85681486 4.1500001 33.65176392 6.85681486 0 33.70000076 6.87679482 4.1500001 33.70000076 6.87679482 4.1500001 33.74142075 6.90857887 0 33.74142075 6.90857887 0 33.7732048 6.94999981 4.1500001 33.7732048 6.94999981 0 33.79318619 6.99823618 4.1500001 33.79318619 6.99823618 4.1500001 33.79999924 7.05000019 0 33.79999924 7.05000019 0 39.21398926 7.05000019 4.1500001 39.21398926 7.05000019 4.1500001 41.5 6.8499999 0 41.5 6.8499999 0 41.5 5.75 4.1500001 41.5 5.75 4.1500001 40.20227432 5.40227604 0 40.20227432 5.40227604 4.1500001 1 16.62370682 0 1 16.62370682 4.1500001 1 12.85000038 0 1 12.85000038 4.1500001 38.84999847 4.05000019 0 38.84999847 4.05000019 0 4.17272711 9.49237823 0 3.80539107 7.85480499 4.1500001 4.17272711 9.49237823 4.1500001 3.67260408 7.13797045 0 3.52414393 6.20027113 1.10000002 3.32975459 4.53329945 4.1500001 3.35030198 4.75270748 1.10000002 3.27252078 3.80651999 1.10000002 3.23180676 3.07862854 0 3.32975459 4.53329945 0 38.84999847 2.4000001 4.1500001 38.84999847 2.4000001 0.5 11.72132111 23.7133503 3.6500001 11.56387997 23.61874962 0.5 1.51533961 17.58097839 3.6500001 1.51533961 17.58097839 3.4000001 13.28016663 24.64999962 4.1500001 40.5304985 -0 0 40.5304985 -0 1.10000002 2.56030369 3.85100317 1.10000002 2.74779367 3.86904287 1.10000002 2.92487621 3.9332273 1.10000002 3.28941369 4.34931421 1.10000002 3.20450449 4.18118238 1.10000002 3.08038259 4.03950834 1.10000002 2.37423205 3.88024592 1.10000002 2.20131397 3.95492697 0 41.59999847 -0 4.1500001 41.59999847 -0 0 4.24326134 12.85000038 4.1500001 4.24326134 12.85000038 4.1500001 48 6.4000001 0 48 6.4000001 4.1500001 45.79999924 36.45000076 0 45.79999924 36.45000076 4.1500001 45.79999924 37.65000153 0 45.79999924 37.65000153 3.32500005 23.14999962 40.34999847 0.82499999 23.14999962 40.34999847 3.32500005 23.14999962 28.35000038 0.82499999 23.14999962 28.35000038 3.6500001 2.44343925 36.10233307 0.5 2.44343925 36.10233307 3.6500001 11.56387997 28.1740551 0.5 11.72132111 28.0371933 0.79036862 12.22425461 27.60000038 3.55380774 12.22425461 27.60000038 0 45.01593399 35.33023834 0.5 45.01593399 35.33023834 0 44.32248688 34.08776474 0.5 44.32248688 34.08776474 0 43.89461517 32.73072815 0.5 43.89461517 32.73072815 0 43.75 31.31520462 0.5 43.75 31.31520462 4.1500001 46.40496063 17.73843384 4.1500001 48 15.00591564 3.6500001 46.4846611 17.58097839 0 48 15.00591564 0.5 46.4846611 17.58097839 0 46.49885559 17.55321693 0 45.30895233 20.25993156 3.6500001 45.5830574 19.55357742 4.1500001 45.16782761 20.65052986 3.6500001 44.8558197 21.59689903 4.1500001 44.30841827 23.69556236 3.6500001 44.30841827 23.69556236 0.5 45.30083466 20.28186226 0 44.44692993 23.08819771 0.5 44.44327927 23.10335541 0 43.92484283 25.99845695 0.5 43.92392349 26.00619698 0 43.75 28.95000076 0.5 43.75 28.95000076 3.6500001 4.25 28.95480919 3.6500001 4.25 31.31520462 3.6500001 8 27.95000076 3.6500001 4.10538435 32.73072815 3.6500001 3.67751265 34.08776474 3.6500001 2.98406434 35.33023834 3.6500001 8 24.85000038 3.6500001 3.14418125 21.59689903 3.6500001 2.41694307 19.55357742 3.6500001 3.69158101 23.69556236 1.39999998 34.71983337 27.35000038 1.39999998 34.71983337 24.64999962 1.33928192 34.82500076 27.35000038 0.94271767 35.51186752 27.60000038 0.79036862 35.77574539 27.60000038 0.5 36.27867889 23.7133503 0.5 36.27867889 28.0371933 3.6500001 40 24.85000038 3.6500001 36.43611908 23.61874962 3.6500001 36.43611908 28.1740551 3.6500001 45.55656052 36.10233307 3.6500001 45.01593399 35.33023834 3.6500001 44.32248688 34.08776474 3.6500001 43.89461517 32.73072815 3.6500001 40 27.95000076 3.6500001 43.75 31.31520462 3.6500001 43.75 28.95480919 3.4000001 34.71983337 24.64999962 3.4000001 13.28016663 27.35000038 3.41531897 13.17500019 27.35000038 3.51537061 12.48813057 27.60000038 0.5 2.6991663 20.28186226 0.5 3.55672216 23.10335541 0.5 4.07607555 26.00619698 0.5 4.25 28.95000076 0.5 4.25 31.31520462 0.5 2.98406434 35.33023834 0.5 3.67751265 34.08776474 0.5 4.10538435 32.73072815 0 4.36527061 10.6037817 4.1500001 4.36527061 10.6037817 4.1500001 4.38896036 11.73149109 0 4.38896036 11.73149109 4.1500001 45.01593399 35.33023834 0.5 45.55656052 36.10233307 1.39999998 34.22499847 27.35000038 1.39999998 34.22499847 24.64999962 1.39999998 29.125 24.64999962 1.39999998 29.125 27.35000038 3.4000001 29.125 24.64999962 3.4000001 29.125 27.35000038 0 44.20822525 39.24177551 4.1500001 44.20822525 39.24177551 4.1500001 42.06565475 38.40742493 0 42.06565475 38.40742493 3.4000001 34.71983337 27.35000038 3.41531897 34.82500076 27.35000038 3.55380774 35.77574539 27.60000038 3.51537061 35.51186752 27.60000038 4.1500001 42.43893433 38.03414536 0 42.43893433 38.03414536 4.1500001 41.68233109 37.27754211 0 41.68233109 37.27754211 0 37.20988083 41.74999237 4.1500001 37.20988083 41.74999237 4.1500001 37.96648407 42.50659561 0 37.96648407 42.50659561 4.1500001 38.33976364 42.13331604 0 38.33976364 42.13331604 3.4000001 34.22499847 27.35000038 3.4000001 34.22499847 24.64999962 4.1500001 39.17411423 44.27588654 0 39.17411423 44.27588654 4.1500001 43.75 31.31520462 4.1500001 43.75 28.95480919 0 36.59999847 46.84999847 4.1500001 36.59999847 46.84999847 4.1500001 40 27.95000076 4.1500001 40 24.85000038 1.60077047 33.4943428 46.84999847 1.94282293 33.65363312 46.84999847 2.31380415 33.72252274 46.84999847 2.69023943 33.69665146 46.84999847 3.04830933 33.57766342 46.84999847 1.0868274 31.50003242 46.84999847 0.94745761 31.85067368 46.84999847 0 29.20000076 46.84999847 0.89999998 32.22499847 46.84999847 0.94745761 32.59932709 46.84999847 1.0868274 32.94996643 46.84999847 3.04830933 30.87233734 46.84999847 2.69023943 30.7533474 46.84999847 4.1500001 29.20000076 46.84999847 2.31380415 30.72747803 46.84999847 1.94282293 30.79636765 46.84999847 1.60077047 30.95565605 46.84999847 3.36535645 33.37308121 46.84999847 3.62131882 33.0958519 46.84999847 3.79999995 32.76351547 46.84999847 3.79999995 31.68648338 46.84999847 3.62131882 31.35414886 46.84999847 3.36535645 31.07691956 46.84999847 1.30929065 31.19526482 46.84999847 1.30929065 33.25473404 46.84999847 4.1500001 28 43.55302811 0 28 43.55302811 0.82499999 28 40.34999847 3.32500005 28 40.34999847 4.1500001 28 40.34999847 0 28 40.34999847 0.82499999 28 28.35000038 3.32500005 28 28.35000038 0.82499999 24.85000038 40.34999847 0 20 40.34999847 0.82499999 20 40.34999847 3.32500005 24.85000038 40.34999847 3.32500005 20 40.34999847 4.1500001 20 40.34999847 0 20 43.55302811 3.32500005 20 28.35000038 4.1500001 20 43.55302811 0.82499999 20 28.35000038 0 18.79999924 46.84999847 4.1500001 18.79999924 46.84999847 1.60077047 17.04434395 46.84999847 1.94282293 17.20363235 46.84999847 2.31380415 17.27252197 46.84999847 2.69023943 17.2466526 46.84999847 3.04830933 17.12766266 46.84999847 1.0868274 15.05003262 46.84999847 0.94745761 15.40067291 46.84999847 0 11.39999962 46.84999847 0.89999998 15.77499962 46.84999847 0.94745761 16.14932632 46.84999847 1.0868274 16.49996758 46.84999847 3.04830933 14.42233753 46.84999847 2.69023943 14.30334759 46.84999847 4.1500001 11.39999962 46.84999847 2.31380415 14.27747822 46.84999847 1.94282293 14.34636784 46.84999847 1.60077047 14.5056572 46.84999847 3.62131882 16.64585114 46.84999847 3.79999995 16.31351662 46.84999847 3.79999995 15.23648357 46.84999847 3.62131882 14.90415001 46.84999847 3.36535645 14.6269207 46.84999847 1.30929065 14.74526596 46.84999847 1.30929065 16.80473518 46.84999847 3.36535645 16.92308044 46.84999847 4.1500001 8.82588673 44.27588654 0 8.82588673 44.27588654 3.4000001 18.875 24.64999962 1.39999998 18.875 24.64999962 3.4000001 13.77499962 24.64999962 4.1500001 9.6602354 42.13331604 0 9.6602354 42.13331604 3.4000001 18.875 27.35000038 1.39999998 18.875 27.35000038 4.1500001 10.03351593 42.50659561 0 10.03351593 42.50659561 4.1500001 10.79012012 41.74999237 0 10.79012012 41.74999237 4.1500001 6.31766987 37.27754211 0 6.31766987 37.27754211 0 5.56106567 38.03414536 4.1500001 5.56106567 38.03414536 4.1500001 5.9343462 38.40742493 0 5.9343462 38.40742493 3.4000001 13.77499962 27.35000038 4.1500001 3.79177547 39.24177551 0 3.79177547 39.24177551 1.33928192 13.17500019 27.35000038 4.1500001 2.20000005 37.65000153 0 2.20000005 37.65000153 0.94271767 12.48813057 27.60000038 0 2.20000005 36.35362244 4.1500001 2.20000005 36.35362244 0 3.28941369 4.34931421 0 3.20450449 4.18118238 0 3.08038259 4.03950834 0 2.92487621 3.9332273 0 2.74779367 3.86904287 0 2.56030369 3.85100317 0 2.37423205 3.88024592 0 2.20131397 3.95492697 4.1500001 44.32248688 34.08776474 4.1500001 43.89461517 32.73072815 0.82499999 24.85000038 28.35000038 3.32500005 24.85000038 28.35000038 3.75015569 31.57148743 38.09999847 3.79999995 31.68648338 38.09999847 3.62260175 31.35595131 38.09999847 3.79999995 32.76351547 38.09999847 3.61431026 33.10559845 38.09999847 3.34685755 33.38838196 38.09999847 1.53095162 33.44760132 38.09999847 3.0156498 33.59283447 38.09999847 1.87477624 33.63003922 38.09999847 2.64298844 33.70518875 38.09999847 2.25396585 33.71787262 38.09999847 3.69088507 31.46105194 38.09999847 1.4001627 33.3431778 37.5 1.28182054 33.22483826 37.5 1.17739832 33.09404755 38.09999847 0.99763763 32.75733566 38.09999847 0.90868163 32.38615036 38.09999847 0.9162904 32.00453186 38.09999847 1.01997113 31.63718987 38.09999847 1.21301055 31.30790901 38.09999847 1.48290896 31.03800964 38.09999847 1.81219006 30.8449707 38.09999847 2.17953277 30.74129105 38.09999847 2.56115079 30.73368073 38.09999847 2.93233418 30.82263756 38.09999847 3.26904845 31.00239754 38.09999847 3.39983726 31.10682106 37.5 3.51817942 31.22516251 37.5 3.62260175 31.35595131 37.5 3.26904845 31.00239754 37.5 1.17739832 33.09404755 37.5 1.53095162 33.44760132 37.5 3.69088507 15.01105213 38.09999847 3.75015569 15.12148666 38.09999847 3.62260175 14.9059515 38.09999847 3.79999995 15.23648357 38.09999847 3.79999995 16.31351662 38.09999847 3.61431026 16.65559578 38.09999847 3.34685755 16.9383831 38.09999847 1.53095162 16.99760246 38.09999847 3.0156498 17.14283562 38.09999847 1.87477624 17.18004036 38.09999847 2.64298844 17.25518799 38.09999847 2.25396585 17.26787376 38.09999847 1.28182054 16.77483749 37.5 1.17739832 16.64404869 38.09999847 0.99763763 16.3073349 38.09999847 0.90868163 15.93615055 38.09999847 0.9162904 15.554533 38.09999847 1.01997113 15.18719006 38.09999847 1.21301055 14.8579092 38.09999847 1.48290896 14.58801079 38.09999847 1.81219006 14.39497089 38.09999847 2.17953277 14.29129028 38.09999847 2.56115079 14.28368187 38.09999847 2.93233418 14.37263775 38.09999847 3.26904845 14.55239868 38.09999847 3.39983726 14.6568203 37.5 3.51817942 14.7751627 37.5 1.17739832 16.64404869 37.5 1.4001627 16.89317894 37.5 1.53095162 16.99760246 37.5 3.62260175 14.9059515 37.5 3.26904845 14.55239868 37.5 4.1500001 8 24.85000038 4.1500001 8 27.95000076 4.1500001 4.25 28.95480919 4.1500001 3.69158101 23.69556236 0 4.04260206 25.73645401 0 4.25 28.95000076 0 4.25 31.31520462 0 4.10538435 32.73072815 0 3.67751265 34.08776474 0 2.98406434 35.33023834 0 2.38084793 36.19172287 0 3.42384958 22.57622528 0 2.40400839 19.5217514 4.1500001 2.38084793 36.19172287 4.1500001 2.98406434 35.33023834 4.1500001 3.67751265 34.08776474 4.1500001 4.10538435 32.73072815 4.1500001 4.25 31.31520462 4.1500001 2.13480878 18.88592911 4.1500001 3.03507805 21.25129509</float_array>
          <technique_common>
            <accessor source="#pos_0-array" count="1419" stride="3">
              <param name="X" type="float"/>
              <param name="Y" type="float"/>
              <param name="Z" type="float"/>
            </accessor>
          </technique_common>
        </source>
        <source id="norm_0">
          <float_array id="norm_0-array" count="1542">-0 -1 -0 -0 0.60876 0.79335 -0 0.38268 0.92388 0 0.13053 0.99144 0 -0.13053 0.99144 0 -0.38268 0.92388 0 -0.60876 0.79335 0 -0.79335 0.60876 0 -0.92388 0.38268 0 -0.99144 0.13053 0 -0 -1 -0 0.70711 0.70711 -0 0.70711 0.70711 0 0.70711 0.70711 -0 0.70711 0.70711 0 0.79085 -0.61202 0 0.79085 -0.61202 0 0.87194 -0.48962 0 0.93423 -0.35667 -0 1 0 -0 1 0 0 1 -0 -0 0.74857 -0.66305 0 0.74857 -0.66305 -0 0.88113 -0.47287 0 0.88113 -0.47287 -0 0.96634 -0.25726 0 0.96634 -0.25726 -0 0.99961 -0.02783 0 0.99961 -0.02783 -0 0.97916 0.20309 0 0.97916 0.20309 -0 0.90608 0.42311 0 0.90608 0.42311 -0 0.7843 0.62038 -0 0.7843 0.62038 0 -0.08716 0.99619 1 -0 0 0 0.99671 -0.08107 -0 0.99671 -0.08107 0 0.9705 -0.24109 0 0.91878 -0.39476 0 0.91878 -0.39476 -0 0.9705 -0.24109 0 0.81512 -0.5793 0 0.63741 -0.77053 0 0.41626 -0.90925 0 0.16675 -0.986 -0 -0.09413 -0.99556 -0 -0.34859 -0.93727 -0 -0.5793 -0.81512 -0 -0.77053 -0.63741 -0 -0.90925 -0.41626 -0 -0.986 -0.16675 0 -0.99556 0.09413 0 -0.93727 0.34859 0 -0.91606 0.40105 0 -0.96534 0.26098 0 -0.99335 0.11516 0 0 1 0 0 -1 0 0.13053 -0.99144 0 0.38268 -0.92388 0 0.60876 -0.79335 0 0.79335 -0.60876 0 0.92388 -0.38268 0 0.99144 -0.13053 0 0 -1 -0 -0 -1 -0 -0.08716 -0.99619 0 -0.08716 -0.99619 0 -0.25882 0.96593 0 -1 -0 -0 -1 -0 0 -0.70711 0.70711 0 -0.97575 0.21888 0.00459 -0.97816 0.20778 -0.0026 -0.98585 0.16758 0.00814 -0.9926 0.12112 -0.00296 -0.99099 0.1339 0.00107 -0.99691 0.07851 0.00707 -0.99822 0.05927 0.00543 -0.99842 0.05585 0 -0.99945 0.03316 0 -0.99327 0.11583 0 -0.51504 0.85717 0 -0.51504 0.85717 -0 -0.51504 0.85717 0 -0.51504 0.85717 -0 -0.81915 -0.57358 0 -0.81915 -0.57358 1 -0 -0 1 0 -0 1 0 -0 1 0 -0 1 0 -0 1 0 -0 1 0 -0 1 0 -0 1 0 -0 1 0 -0 1 0 -0 1 -0 0 1 0 -0 1 0 0 1 0 0 1 0 0 0 0 -1 0 0 -1 0 0.70711 -0.70711 0 0.70711 -0.70711 -0 -1 -0 -0 -1 -0 -0 -0.65606 -0.75471 -0 -0.65606 -0.75471 -0 -0.65606 -0.75471 0 0.87321 -0.48735 0 0.95372 -0.30071 0 0.99482 -0.10164 -0.02109 0.86344 0.50401 0 0.86185 0.50717 -0.00373 0.86152 0.5077 0.00365 0.91544 0.40244 0.01406 0.90941 0.41566 -0.09308 0.91639 0.38931 0.0467 0.94108 0.33494 -0.08613 0.95883 0.27061 0 0.96763 0.25239 -0.00274 0.91588 0.40144 0.00274 0.95655 0.29155 -0.00183 0.95678 0.2908 0.00183 0.98429 0.17658 -0.00092 0.98437 0.17612 0.00092 0.99825 0.05913 0 0.99826 0.05898 -1 0 0 -1 0 0 -1 -0 0 -1 -0 -0 -1 -0 -0 -1 -0 -0 -1 -0 0 -1 -0 -0 -1 0 -0 0.86603 0.5 -0 0.86603 0.5 0 0.86603 0.5 -0 0.86603 0.5 0 0.86603 0.5 -0 -1 0 0 -1 -0 0 -1 -0 -0 -1 -0 -0 -1 -0 0 -1 -0 -0 -1 -0 -0 -1 0 -0 0 0.51504 0.85717 0 0.51504 0.85717 0 0.51504 0.85717 0 0.51504 0.85717 -0.98956 -0.14414 -0 -0.98956 -0.14414 -0 -0.98956 -0.14414 0 -0.98956 -0.14414 -0 -0.98956 -0.14414 0 1 0 -0 1 0 -0 1 0 -0 1 0 0 1 0 0 1 0 0 1 0 0 1 0 0 1 0 0 1 -0 -0 0 -0.98532 0.1707 0 -0.99978 0.021 -0 -0.99162 -0.12917 0 0.81915 -0.57358 -0 0.81915 -0.57358 0 0.81915 -0.57358 1 0 -0 0 1 0 1 0 -0 1 0 0 1 0 -0 1 0 -0 1 0 -0 1 0 0 1 0 -0 1 0 0 1 0 0 1 0 0 0 -0.36287 0.93184 -0.98956 0.14414 0 -0.98956 0.14414 -0 -0.98956 0.14414 0 -0.98956 0.14414 -0 -0 -0.70711 -0.70711 -0 0.70711 -0.70711 -0 -0.70711 -0.70711 0 0.93184 -0.36287 -0 0.93184 -0.36287 -0 1 0 -0 0.70711 0.70711 0 -0 1 0 0 1 0 -0.93969 0.34202 0 0.25882 -0.96593 -0 0.25882 -0.96593 0 -1 -0 -0 -1 -0 0 1 0 -0 1 -0 -0 1 -0 0 1 -0 -0 1 0 -0 1 -0 -0 0.25882 0.96593 -0 0.93969 0.34202 0 0.65606 -0.75471 -0 0.65606 -0.75471 -0 0.65606 -0.75471 0 -0.70711 0.70711 0 -0.70711 0.70711 0 -0.93184 -0.36287 -0 -0.93184 -0.36287 0 0.70711 -0.70711 0 0.70711 -0.70711 -0 -0.70711 -0.70711 -0 -0.70711 0.70711 0 0.70711 0.70711 0 0.70711 0.70711 0 0.70711 -0.70711 0 0.36287 0.93184 0 0.36287 0.93184 0 0 -1 -0 -0.70711 0.70711 0.86603 -0.5 0 0.86603 -0.5 -0 0.86603 -0.5 0 0.86603 -0.5 0 0.86603 -0.5 0 0 -0.9768 0.21417 -0 -0.9768 0.21417 -0 -0.89263 0.45079 0 -0.89263 0.45079 -0 -0.75216 0.65898 -0 -0.75216 0.65898 -0 -0.56426 0.8256 -0 -0.56426 0.8256 -0 -0.34076 0.94015 -0 -0.34076 0.94015 -0 -0.09577 0.9954 0 -0.09577 0.9954 -0 0.15525 0.98787 -0 0.15525 0.98787 -0 0.39649 0.91804 0 0.39649 0.91804 -0 0.61272 0.7903 -0 0.61272 0.7903 0 0.87321 -0.48735 -0 0.95372 -0.30071 0 0.95372 -0.30071 -0 0.99482 -0.10164 -0 0.99482 -0.10164 -0 1 0 -0 1 -0 1 -0 0 1 -0 0 -1 -0 -0 -1 -0 -0 1 -0 0 -1 0 -0 -0.87887 -0.47707 0 -0.88077 -0.47355 0.00018 -0.73473 -0.67836 -0.00017 -0.72653 -0.68713 0.00033 -0.54219 -0.84025 -0.00032 -0.52528 -0.85093 0.00048 -0.31535 -0.94897 -0.00047 -0.28865 -0.95743 0.00062 -0.06856 -0.99765 -0.0006 -0.03259 -0.99947 0.00075 0.18257 -0.98319 -0.00073 0.22566 -0.97421 0.00087 0.42215 -0.90652 -0.00084 0.46872 -0.88335 0.00098 0.63502 -0.77249 -0.00094 0.62748 -0.77863 -0.00127 0.70711 -0.70711 0.00018 0.78081 -0.62476 -0.0003 0.80771 -0.58958 -0.00135 0.88216 -0.47095 0.00138 0.92928 -0.36936 -0.00134 0.97246 -0.23306 0.00137 0.99206 -0.12577 -0.00133 0.9998 0.01993 0.00136 0.99206 0.12577 -0.00132 0.9624 0.27163 0.00135 0.92928 0.36936 -0.00131 0.86268 0.50574 0.00134 0.80771 0.58958 -0.0013 0.70711 0.70711 0.00132 0.63502 0.77249 -0.00128 0.50574 0.86268 0.00131 0.42215 0.90652 -0.00127 0.27163 0.9624 0.00129 0.18257 0.98319 -0.00125 0.01993 0.9998 0.00127 -0.06856 0.99765 -0.00123 -0.23306 0.97246 0.00125 -0.31535 0.94897 -0.00121 -0.47095 0.88216 0.00123 -0.54219 0.84025 -0.00119 -0.62337 0.78193 0.0002 -0.70711 0.70711 -0.00035 -0.73473 0.67836 -0.00125 -0.78151 0.62389 1E-05 -0.78148 0.62393 0 -0.83856 0.54481 -1E-05 -0.88077 0.47355 -0.00122 -0.88112 0.4729 -0.0012 -0.91752 0.39769 0 -0.62393 0.78148 0 0.78148 -0.62393 0 0.62393 -0.78148 0 -0.87887 -0.47707 0.00017 -0.88077 -0.47355 0 -0.88077 0.47355 -0.00121 -0.88112 0.4729 -0.00123 -0.83856 0.54481 -1E-05 -0.70711 -0.70711 -0 0.70711 0.70711 -0 0 -0 1 -0 -0.25882 -0.96593 0 -0.25882 -0.96593 0 -0.34202 -0.93969 0 -0.34202 -0.93969 0 0.34202 -0.93969 -0 0.34202 -0.93969 -1 0 -0 -1 0 -0 -1 0 -0 -1 0 -0 -1 0 -0 -1 0 -0 -1 0 -0 -1 0 0 -1 0 -0 -1 0 -0 -1 0 -0 -1 0 -0 -1 0 -0 -1 0 -0 -1 0 -0 -1 0 -0 -1 0 -0 -1 0 -0 -1 0 -0 -1 0 -0 -1 0 -0 -1 0 -0 -1 0 -0 -1 0 -0 -1 0 -0 -1 0 -0 -1 0 -0 -1 0 0 -1 0 -0 -1 0 -0 -1 -0 -0 -1 0 -0 -1 0 -0 -1 0 0 -1 0 -0 -1 0 -0 -1 0 -0 -1 0 -0 -1 0 -0 -1 0 -0 -1 0 -0 -1 0 0 -1 0 -0 -1 0 -0 -1 0 -0 -1 0 -0 -1 0 -0 -1 0 -0 -1 0 -0 -1 0 -0 -1 0 -0 -1 0 -0 -1 0 -0 -1 0 0 -1 0 -0 -1 -0 0 -1 -0 0 -1 0 -0 -1 0 -0 -1 0 -0 -1 0 -0 -1 0 -0 -1 0 -0 -1 0 -0 -1 0 -0 -1 0 -0 -1 0 -0 -1 -0 -0 -1 0 -0 -1 -0 -0 -1 0 -0 -1 0 -0 -1 0 0 -1 0 -0 -1 0 -0 -1 0 0 -1 0 -0 -1 0 0 -1 0 -0 -1 0 -0 -1 0 0 -1 0 -0 -1 0 -0 -1 0 -0 -1 0 -0 -1 0 -0 -1 0 -0 -1 0 -0 -1 0 -0 -1 0 -0 -1 0 -0 -1 0 0 -1 0 -0 -1 -0 -0 -1 0 -0 -1 0 -0 -1 0 -0 -1 0 -0 -1 0 0 -1 0 -0 -1 0 0 -1 -0 -0 -0 -0.667 -0.74506 0 -1 0 0 -0.99482 -0.10164 0 -0.95372 -0.30071 0 -0.87321 -0.48735 -0 -0.81915 -0.57358 0 -0.81915 -0.57358 0 -1 -0 0.09243 -0.8961 0.43413 0 -0.88051 0.47402 -0 -0.88051 0.47402 -0.06269 -0.89208 0.4475 0.04184 -0.90871 0.41534 -0.05231 -0.93332 0.35522 0.02618 -0.94179 0.33519 -0.03143 -0.96529 0.25927 0 -0.96763 0.25239 -0.06945 -0.91367 0.40047 0.07824 -0.94562 0.31573 -0.05225 -0.95548 0.2904 0.05812 -0.97971 0.19182 -0.0291 -0.98395 0.17604 0.03205 -0.99741 0.06437 0 -0.99826 0.05898 1 0 -0 1 0 -0 1 0 0 1 0 -0 1 0 0 1 -0 -0 1 -0 0 1 -0 0 1 -0 -0 1 0 0 1 0 -0 1 0 0 1 -0 -0 1 -0 0 1 -0 -0 1 0 0 1 -0 0 1 0 -0 1 -0 -0 1 -0 0 1 -0 -0 1 -0 0 1 -0 0 1 -0 0 1 -0 0 1 -0 0 1 -0 -0 1 -0 0 1 -0 0 1 0 -0 1 -0 0 1 0 -0 1 -0 -0 1 0 0 1 0 0 1 -0 0 1 -0 0 1 0 -0 1 0 0 1 -0 -0 1 0 0 1 -0 -0 1 -0 0 1 -0 0 1 -0 0 1 0 0</float_array>
          <technique_common>
            <accessor source="#norm_0-array" count="1542" stride="3">
              <param name="X" type="float"/>
              <param name="Y" type="float"/>
              <param name="Z" type="float"/>
            </accessor>
          </technique_common>
        </source>
        <source id="uvs_0">
          <float_array id="uvs_0-array" count="0"></float_array>
          <technique_common>
            <accessor source="#uvs_0-array" count="0" stride="2">
              <param name="S" type="float"/>
              <param name="T" type="float"/>
            </accessor>
          </technique_common>
        </source>
        <vertices id="vert_0">
          <input semantic="POSITION" source="#pos_0"/>
        </vertices>
        <triangles count="942" material="mat_0">
          <input semantic="VERTEX" source="#vert_0" offset="0"/>
          <input semantic="NORMAL" source="#norm_0" offset="1"/>
          <p>0 0 1 0 2 0 2 0 1 0 3 0 4 1 5 1 6 1 6 1 5 1 7 1 5 2 8 2 7 2 7 2 8 2 9 2 9 3 8 3 10 3 10 3 8 3 11 3 10 4 11 4 12 4 10 4 12 4 13 4 13 5 12 5 14 5 13 5 14 5 15 5 15 6 14 6 16 6 14 6 17 6 16 6 16 7 17 7 18 7 16 7 18 7 19 7 19 8 18 8 20 8 19 8 20 8 21 8 21 9 20 9 0 9 20 9 1 9 0 9 2 10 3 10 22 10 22 10 3 10 23 10 24 11 25 11 26 11 26 12 25 12 4 12 26 13 4 13 6 13 6 14 27 14 26 14 22 15 23 15 28 15 28 16 23 16 29 16 28 17 29 17 30 17 31 18 32 18 30 18 30 18 32 18 33 18 30 17 33 17 28 17 34 19 35 19 36 19 36 20 35 20 37 20 32 21 31 21 38 21 38 21 31 21 39 21 35 22 34 22 40 22 40 23 34 23 41 23 40 24 41 24 42 24 40 25 42 25 43 25 43 26 42 26 44 26 43 27 44 27 45 27 45 28 44 28 46 28 44 29 47 29 46 29 46 30 47 30 48 30 46 31 48 31 49 31 49 32 48 32 50 32 49 33 50 33 51 33 51 34 50 34 27 34 50 35 26 35 27 35 38 36 39 36 52 36 52 36 39 36 53 36 54 37 55 37 56 37 56 37 55 37 57 37 52 21 53 21 58 21 58 21 53 21 59 21 58 38 59 38 60 38 60 39 59 39 61 39 60 40 61 40 62 40 63 41 64 41 62 41 62 42 64 42 65 42 62 43 65 43 60 43 63 44 66 44 64 44 64 44 66 44 67 44 67 45 66 45 68 45 68 45 66 45 69 45 68 46 69 46 70 46 68 46 70 46 71 46 71 47 70 47 72 47 71 47 72 47 73 47 73 48 72 48 74 48 72 48 75 48 74 48 74 49 75 49 76 49 74 49 76 49 77 49 77 50 76 50 78 50 77 50 78 50 79 50 79 51 78 51 80 51 78 51 81 51 80 51 80 52 81 52 82 52 80 52 82 52 83 52 83 53 82 53 84 53 83 53 84 53 85 53 85 54 84 54 86 54 85 54 86 54 87 54 87 55 86 55 88 55 86 55 89 55 88 55 88 56 89 56 90 56 90 56 89 56 91 56 90 57 91 57 92 57 93 58 94 58 92 58 92 58 94 58 95 58 92 57 95 57 90 57 96 59 97 59 37 59 37 59 97 59 36 59 93 60 98 60 94 60 94 60 98 60 99 60 98 61 100 61 99 61 99 61 100 61 101 61 100 62 102 62 101 62 101 62 102 62 103 62 103 63 102 63 104 63 104 63 102 63 105 63 104 64 105 64 106 64 104 64 106 64 107 64 107 65 106 65 108 65 107 65 108 65 109 65 109 66 108 66 110 66 108 66 111 66 110 66 111 67 112 67 110 67 110 68 112 68 113 68 113 69 112 69 114 69 114 70 112 70 115 70 115 0 116 0 114 0 114 0 116 0 117 0 117 71 116 71 118 71 118 71 116 71 119 71 120 72 121 72 122 72 122 73 121 73 123 73 118 74 119 74 124 74 124 74 119 74 125 74 126 75 127 75 128 75 128 76 127 76 129 76 127 77 130 77 129 77 129 78 130 78 131 78 129 79 131 79 132 79 132 80 131 80 133 80 132 81 133 81 96 81 96 82 133 82 134 82 96 83 134 83 97 83 130 84 135 84 131 84 125 0 136 0 124 0 124 0 136 0 137 0 55 85 138 85 139 85 139 86 138 86 140 86 139 87 140 87 141 87 139 88 142 88 55 88 137 89 136 89 143 89 143 90 136 90 144 90 34 91 36 91 41 91 41 92 36 92 134 92 41 93 134 93 145 93 145 94 134 94 146 94 36 95 97 95 134 95 134 96 133 96 146 96 146 97 133 97 147 97 131 98 148 98 133 98 133 99 148 99 149 99 133 100 149 100 150 100 150 101 147 101 133 101 145 37 151 37 41 37 41 37 151 37 42 37 151 37 152 37 42 37 42 37 152 37 44 37 152 102 24 102 44 102 44 103 24 103 47 103 26 104 50 104 24 104 24 105 50 105 48 105 24 106 48 106 47 106 144 107 153 107 143 107 143 107 153 107 154 107 123 108 155 108 122 108 122 108 155 108 156 108 154 109 153 109 157 109 157 110 153 110 158 110 159 21 160 21 161 21 161 21 160 21 162 21 163 111 164 111 165 111 165 112 164 112 166 112 167 113 168 113 169 113 169 114 168 114 170 114 169 115 170 115 171 115 171 113 172 113 169 113 173 116 174 116 175 116 175 116 174 116 176 116 175 117 176 117 177 117 177 117 176 117 178 117 177 118 178 118 179 118 179 118 178 118 180 118 181 119 182 119 183 119 183 120 182 120 184 120 183 120 184 120 185 120 185 121 184 121 186 121 185 122 186 122 187 122 183 123 188 123 181 123 181 124 188 124 189 124 188 125 190 125 189 125 189 126 190 126 191 126 190 127 192 127 191 127 185 128 187 128 193 128 193 129 187 129 194 129 193 130 194 130 195 130 195 131 194 131 196 131 195 132 196 132 197 132 197 133 196 133 198 133 197 134 198 134 199 134 200 135 201 135 202 135 202 136 201 136 203 136 202 137 203 137 169 137 169 138 203 138 204 138 169 139 204 139 205 139 205 135 167 135 169 135 202 135 169 135 206 135 206 135 169 135 139 135 206 140 139 140 207 140 207 141 139 141 208 141 139 142 141 142 208 142 207 143 209 143 206 143 210 144 211 144 212 144 212 145 211 145 213 145 213 146 211 146 214 146 214 147 211 147 215 147 214 148 215 148 216 148 192 149 190 149 217 149 217 150 190 150 218 150 217 135 218 135 219 135 190 151 188 151 218 151 218 152 188 152 183 152 220 135 221 135 219 135 219 153 221 153 222 153 219 154 222 154 223 154 219 155 223 155 224 155 224 156 223 156 225 156 224 135 225 135 226 135 224 135 217 135 219 135 183 157 185 157 218 157 218 158 185 158 215 158 218 159 215 159 211 159 211 160 227 160 218 160 228 161 142 161 229 161 229 162 142 162 172 162 229 163 172 163 230 163 142 164 139 164 172 164 172 165 139 165 169 165 184 21 182 21 158 21 158 21 182 21 157 21 140 166 138 166 231 166 231 167 138 167 232 167 232 168 138 168 233 168 233 169 138 169 170 169 233 170 170 170 234 170 234 171 170 171 235 171 168 172 236 172 170 172 170 173 236 173 237 173 170 174 237 174 238 174 238 175 235 175 170 175 126 176 128 176 239 176 239 176 128 176 240 176 239 177 240 177 241 177 156 178 155 178 241 178 241 178 155 178 242 178 241 177 242 177 239 177 221 179 220 179 243 179 243 180 220 180 159 180 220 179 244 179 159 179 159 179 244 179 160 179 174 179 173 179 244 179 244 181 173 181 160 181 245 37 246 37 210 37 210 182 246 182 211 182 199 183 198 183 180 183 180 183 198 183 179 183 247 21 248 21 249 21 249 21 248 21 250 21 162 13 251 13 161 13 161 13 251 13 252 13 199 184 180 184 216 184 216 185 180 185 178 185 216 186 178 186 176 186 176 187 174 187 216 187 216 188 174 188 244 188 199 189 216 189 197 189 197 190 216 190 215 190 197 191 215 191 195 191 195 192 215 192 193 192 215 193 185 193 193 193 252 194 251 194 253 194 253 194 251 194 254 194 255 195 256 195 227 195 227 196 256 196 257 196 227 197 257 197 218 197 218 195 257 195 219 195 256 198 258 198 257 198 253 199 254 199 259 199 259 199 254 199 260 199 259 74 260 74 261 74 261 74 260 74 262 74 262 13 263 13 261 13 261 13 263 13 264 13 264 110 263 110 265 110 265 200 263 200 266 200 265 201 266 201 267 201 267 199 266 199 268 199 255 135 227 135 269 135 269 135 227 135 270 135 267 202 268 202 271 202 271 203 268 203 272 203 273 204 274 204 225 204 225 204 274 204 226 204 272 205 275 205 271 205 271 13 275 13 276 13 277 21 278 21 224 21 224 21 278 21 217 21 279 59 280 59 275 59 275 59 280 59 281 59 275 59 281 59 276 59 276 59 281 59 282 59 276 59 282 59 283 59 284 59 285 59 286 59 286 59 285 59 287 59 286 59 287 59 275 59 275 59 287 59 288 59 275 59 288 59 289 59 290 59 291 59 292 59 292 59 291 59 293 59 292 59 293 59 286 59 286 59 293 59 294 59 286 59 294 59 295 59 296 59 297 59 276 59 276 59 297 59 298 59 276 59 298 59 292 59 292 59 298 59 299 59 292 59 299 59 300 59 300 59 301 59 292 59 292 59 301 59 290 59 295 59 302 59 286 59 286 59 302 59 284 59 289 59 303 59 275 59 275 59 303 59 279 59 283 59 296 59 276 59 270 206 227 206 246 206 246 207 227 207 211 207 292 208 286 208 304 208 304 208 286 208 305 208 277 209 224 209 274 209 274 210 224 210 226 210 305 0 306 0 304 0 304 0 306 0 307 0 304 0 307 0 308 0 305 0 309 0 306 0 306 211 310 211 307 211 307 212 310 212 311 212 306 59 309 59 312 59 312 59 309 59 313 59 312 59 313 59 164 59 164 59 313 59 314 59 164 59 163 59 312 59 312 59 163 59 315 59 316 59 317 59 163 59 163 59 317 59 315 59 317 59 308 59 315 59 315 59 308 59 307 59 313 213 318 213 314 213 314 214 318 214 316 214 314 215 316 215 319 215 318 216 320 216 316 216 316 217 320 217 317 217 319 218 321 218 314 218 192 219 217 219 191 219 191 219 217 219 278 219 318 220 322 220 320 220 320 220 322 220 323 220 256 108 255 108 210 108 210 108 255 108 269 108 210 108 269 108 245 108 245 108 269 108 250 108 245 108 250 108 248 108 210 108 212 108 256 108 324 59 325 59 322 59 322 59 325 59 326 59 322 59 326 59 323 59 323 59 326 59 327 59 323 59 327 59 328 59 329 59 330 59 331 59 331 59 330 59 332 59 331 59 332 59 322 59 322 59 332 59 333 59 322 59 333 59 334 59 335 59 336 59 337 59 337 59 336 59 338 59 337 59 338 59 331 59 331 59 338 59 339 59 331 59 339 59 340 59 341 59 342 59 323 59 323 59 342 59 343 59 323 59 343 59 337 59 337 59 343 59 344 59 337 59 344 59 345 59 345 59 335 59 337 59 340 59 346 59 331 59 331 59 346 59 329 59 334 59 347 59 322 59 322 59 347 59 324 59 328 59 348 59 323 59 323 59 348 59 341 59 220 221 219 221 244 221 244 222 219 222 216 222 257 221 214 221 219 221 219 223 214 223 216 223 337 224 331 224 349 224 349 225 331 225 350 225 351 59 352 59 353 59 353 59 352 59 57 59 349 226 350 226 354 226 354 227 350 227 355 227 351 0 356 0 352 0 352 0 356 0 357 0 354 228 355 228 358 228 358 229 355 229 359 229 358 230 359 230 360 230 360 199 359 199 361 199 360 74 361 74 362 74 362 231 361 231 363 231 363 232 364 232 362 232 362 233 364 233 365 233 365 234 364 234 366 234 366 110 364 110 367 110 368 135 353 135 228 135 228 135 353 135 142 135 369 235 366 235 370 235 370 236 366 236 367 236 371 237 54 237 229 237 229 108 54 108 228 108 228 108 54 108 368 108 368 108 54 108 56 108 368 108 56 108 356 108 356 108 56 108 357 108 369 238 370 238 372 238 372 74 370 74 373 74 170 239 138 239 171 239 171 240 138 240 55 240 171 241 55 241 374 241 374 242 55 242 371 242 55 243 54 243 371 243 373 0 375 0 372 0 372 0 375 0 376 0 131 244 135 244 148 244 148 245 135 245 377 245 148 246 377 246 378 246 148 247 378 247 149 247 149 248 378 248 379 248 149 249 379 249 150 249 150 250 379 250 147 250 379 251 380 251 147 251 147 252 380 252 381 252 147 253 381 253 146 253 146 254 381 254 382 254 146 255 382 255 145 255 145 256 382 256 151 256 382 257 383 257 151 257 151 258 383 258 384 258 151 259 384 259 152 259 152 260 384 260 25 260 152 261 25 261 24 261 221 116 243 116 222 116 222 262 243 262 385 262 222 263 385 263 223 263 223 264 385 264 386 264 223 265 386 265 225 265 225 266 386 266 273 266 387 59 388 59 310 59 310 59 388 59 311 59 315 267 388 267 312 267 312 268 388 268 387 268 312 269 387 269 306 269 306 270 387 270 310 270 315 271 307 271 388 271 388 272 307 272 311 272 314 273 321 273 164 273 164 273 321 273 166 273 321 59 319 59 166 59 166 59 319 59 165 59 316 274 163 274 319 274 319 274 163 274 165 274 389 59 390 59 391 59 391 59 390 59 392 59 391 59 392 59 393 59 393 59 394 59 391 59 391 59 394 59 395 59 394 59 396 59 395 59 395 59 396 59 397 59 396 59 398 59 397 59 397 59 398 59 399 59 391 59 400 59 389 59 392 275 298 275 393 275 393 276 298 276 297 276 393 277 297 277 296 277 393 278 296 278 394 278 394 279 296 279 283 279 394 280 283 280 396 280 396 281 283 281 282 281 396 282 282 282 398 282 398 283 282 283 281 283 398 284 281 284 399 284 399 285 281 285 280 285 399 286 280 286 397 286 397 287 280 287 279 287 397 288 279 288 395 288 395 289 279 289 303 289 395 290 303 290 401 290 401 291 303 291 402 291 402 292 303 292 403 292 403 293 303 293 289 293 403 294 289 294 404 294 404 295 289 295 288 295 404 296 288 296 405 296 405 297 288 297 287 297 405 298 287 298 406 298 406 299 287 299 285 299 406 300 285 300 407 300 407 301 285 301 284 301 407 302 284 302 408 302 408 303 284 303 302 303 408 304 302 304 409 304 409 305 302 305 295 305 409 306 295 306 410 306 410 307 295 307 294 307 410 308 294 308 411 308 411 309 294 309 293 309 411 310 293 310 412 310 412 311 293 311 291 311 412 312 291 312 413 312 413 313 291 313 290 313 413 314 290 314 414 314 414 315 290 315 301 315 414 316 301 316 415 316 415 317 301 317 416 317 301 318 300 318 416 318 416 319 300 319 391 319 416 320 391 320 417 320 391 321 300 321 400 321 400 322 300 322 299 322 400 323 299 323 389 323 389 324 299 324 390 324 415 325 418 325 414 325 403 326 419 326 402 326 401 327 420 327 395 327 299 135 298 135 390 135 390 135 298 135 392 135 421 59 422 59 423 59 423 59 422 59 424 59 423 59 424 59 425 59 425 59 426 59 423 59 423 59 426 59 427 59 423 59 427 59 428 59 428 59 427 59 429 59 428 59 429 59 430 59 430 59 429 59 431 59 430 59 431 59 432 59 433 292 347 292 434 292 434 293 347 293 334 293 434 294 334 294 435 294 435 295 334 295 333 295 435 296 333 296 436 296 436 297 333 297 332 297 436 298 332 298 437 298 437 299 332 299 330 299 437 300 330 300 438 300 438 301 330 301 329 301 438 302 329 302 439 302 439 303 329 303 346 303 439 304 346 304 440 304 440 305 346 305 340 305 440 306 340 306 441 306 441 307 340 307 339 307 441 308 339 308 442 308 442 309 339 309 338 309 442 310 338 310 443 310 443 311 338 311 336 311 443 312 336 312 444 312 444 313 336 313 335 313 444 314 335 314 445 314 445 315 335 315 345 315 445 316 345 316 446 316 446 317 345 317 447 317 434 326 448 326 433 326 433 291 449 291 347 291 347 290 449 290 428 290 347 289 428 289 324 289 324 288 428 288 430 288 324 287 430 287 325 287 325 286 430 286 432 286 325 285 432 285 326 285 326 284 432 284 431 284 326 283 431 283 327 283 327 282 431 282 429 282 327 281 429 281 328 281 328 280 429 280 427 280 328 279 427 279 348 279 348 278 427 278 426 278 348 277 426 277 341 277 341 328 426 328 425 328 341 329 425 329 342 329 449 327 450 327 428 327 345 318 344 318 447 318 447 319 344 319 423 319 447 320 423 320 451 320 343 330 422 330 344 330 344 331 422 331 421 331 344 332 421 332 423 332 343 324 424 324 422 324 446 325 452 325 445 325 343 135 342 135 424 135 424 135 342 135 425 135 428 333 450 333 423 333 423 333 450 333 451 333 403 59 404 59 414 59 414 59 404 59 405 59 414 59 405 59 406 59 406 59 407 59 414 59 414 59 407 59 408 59 414 59 408 59 409 59 409 59 410 59 414 59 414 59 410 59 413 59 410 59 411 59 413 59 413 59 411 59 412 59 452 334 448 334 445 334 445 334 448 334 434 334 395 333 420 333 391 333 391 333 420 333 417 333 434 59 435 59 445 59 445 59 435 59 436 59 445 59 436 59 437 59 437 59 438 59 445 59 445 59 438 59 439 59 445 59 439 59 440 59 440 59 441 59 445 59 445 59 441 59 444 59 441 59 442 59 444 59 444 59 442 59 443 59 415 59 416 59 418 59 418 59 416 59 417 59 418 59 417 59 419 59 419 59 417 59 402 59 420 59 401 59 417 59 417 59 401 59 402 59 403 334 414 334 419 334 419 334 414 334 418 334 446 59 447 59 452 59 452 59 447 59 451 59 452 59 451 59 448 59 448 59 451 59 433 59 450 59 449 59 451 59 451 59 449 59 433 59 353 59 57 59 142 59 142 59 57 59 55 59 353 135 368 135 351 135 351 135 368 135 356 135 56 37 57 37 357 37 357 37 57 37 352 37 246 335 247 335 270 335 270 59 247 59 249 59 246 37 245 37 247 37 247 37 245 37 248 37 269 135 270 135 250 135 250 135 270 135 249 135 453 0 454 0 206 0 206 0 454 0 202 0 454 336 455 336 202 336 202 337 455 337 200 337 453 71 206 71 456 71 456 71 206 71 209 71 230 108 172 108 374 108 374 108 172 108 171 108 229 338 230 338 371 338 371 339 230 339 374 339 214 108 257 108 213 108 213 108 257 108 258 108 213 340 258 340 212 340 212 341 258 341 256 341 457 342 458 342 313 342 313 343 458 343 459 343 313 344 459 344 363 344 363 345 459 345 460 345 363 346 460 346 461 346 461 347 462 347 363 347 363 135 462 135 364 135 462 348 463 348 364 348 364 349 463 349 373 349 364 350 373 350 370 350 463 135 375 135 373 135 370 350 367 350 364 350 363 351 361 351 313 351 313 352 361 352 318 352 355 135 350 135 359 135 359 135 350 135 331 135 359 353 331 353 361 353 361 354 331 354 322 354 361 355 322 355 318 355 198 356 196 356 309 356 309 357 196 357 111 357 309 358 111 358 313 358 313 359 111 359 81 359 313 360 81 360 78 360 305 361 263 361 309 361 309 362 263 362 262 362 309 363 262 363 179 363 179 364 262 364 177 364 305 365 286 365 263 365 263 366 286 366 275 366 263 367 275 367 266 367 266 368 275 368 272 368 266 135 272 135 268 135 162 369 160 369 260 369 260 370 160 370 173 370 260 371 173 371 262 371 262 372 173 372 175 372 262 373 175 373 177 373 254 135 251 135 260 135 260 374 251 374 162 374 179 375 198 375 309 375 196 376 194 376 111 376 111 377 194 377 187 377 111 378 187 378 112 378 112 379 187 379 186 379 112 380 186 380 115 380 115 381 186 381 184 381 115 382 184 382 158 382 115 383 158 383 116 383 116 384 158 384 153 384 116 385 153 385 136 385 136 386 153 386 144 386 125 135 119 135 136 135 136 135 119 135 116 135 108 387 106 387 111 387 111 388 106 388 105 388 111 389 105 389 102 389 102 390 100 390 111 390 111 391 100 391 98 391 111 392 98 392 81 392 81 393 98 393 82 393 93 394 89 394 98 394 98 395 89 395 86 395 98 396 86 396 84 396 93 397 92 397 89 397 89 398 92 398 91 398 84 399 82 399 98 399 76 400 464 400 78 400 78 401 464 401 457 401 78 402 457 402 313 402 76 403 75 403 464 403 464 404 75 404 465 404 465 405 75 405 155 405 155 406 75 406 72 406 155 407 72 407 70 407 70 408 69 408 155 408 155 409 69 409 242 409 69 410 66 410 242 410 242 411 66 411 63 411 242 412 63 412 239 412 239 413 63 413 62 413 239 414 62 414 126 414 126 415 62 415 61 415 126 416 61 416 127 416 127 417 61 417 59 417 127 418 59 418 130 418 130 419 59 419 53 419 130 420 53 420 135 420 135 421 53 421 377 421 39 422 31 422 53 422 53 423 31 423 30 423 53 424 30 424 377 424 377 425 30 425 378 425 30 426 29 426 378 426 378 427 29 427 379 427 379 428 29 428 380 428 380 429 29 429 23 429 380 430 23 430 381 430 381 431 23 431 382 431 23 432 3 432 382 432 382 433 3 433 383 433 20 434 4 434 1 434 1 135 4 135 25 135 1 435 25 435 3 435 3 436 25 436 384 436 3 437 384 437 383 437 20 438 18 438 4 438 4 439 18 439 17 439 4 440 17 440 5 440 5 441 17 441 14 441 5 441 14 441 8 441 8 441 14 441 12 441 8 441 12 441 11 441 123 442 121 442 155 442 155 443 121 443 465 443 376 444 375 444 466 444 466 444 375 444 463 444 234 445 235 445 458 445 458 445 235 445 459 445 459 446 235 446 460 446 460 446 235 446 238 446 460 447 238 447 461 447 461 447 238 447 237 447 461 448 237 448 462 448 462 448 237 448 236 448 205 89 467 89 167 89 167 449 467 449 466 449 167 89 466 89 463 89 167 89 463 89 168 89 168 450 463 450 462 450 168 89 462 89 236 89 467 448 205 448 468 448 468 448 205 448 204 448 468 447 204 447 469 447 469 447 204 447 203 447 469 446 203 446 470 446 470 446 203 446 201 446 201 0 200 0 470 0 470 451 200 451 455 451 465 452 121 452 140 452 140 453 121 453 120 453 140 454 120 454 141 454 141 455 120 455 471 455 141 456 471 456 208 456 208 457 471 457 472 457 208 458 472 458 207 458 207 459 472 459 456 459 207 460 456 460 209 460 140 461 231 461 465 461 465 462 231 462 464 462 231 463 232 463 464 463 464 464 232 464 457 464 232 465 233 465 457 465 457 466 233 466 458 466 233 467 234 467 458 467 64 468 67 468 241 468 241 469 67 469 68 469 241 470 68 470 156 470 156 37 68 37 71 37 156 37 71 37 73 37 241 471 240 471 64 471 64 472 240 472 65 472 240 473 128 473 65 473 65 474 128 474 60 474 128 475 129 475 60 475 60 476 129 476 58 476 58 477 129 477 52 477 52 478 129 478 132 478 52 479 132 479 33 479 33 480 132 480 96 480 33 481 96 481 28 481 28 482 96 482 22 482 22 37 96 37 2 37 2 37 96 37 37 37 2 37 37 37 0 37 0 37 37 37 35 37 0 37 35 37 27 37 27 37 35 37 40 37 27 37 40 37 43 37 43 37 45 37 27 37 27 37 45 37 46 37 27 37 46 37 49 37 49 37 51 37 27 37 27 37 6 37 0 37 0 37 6 37 21 37 9 37 13 37 7 37 7 37 13 37 15 37 7 37 15 37 6 37 6 37 15 37 16 37 6 37 16 37 19 37 9 37 10 37 13 37 19 37 21 37 6 37 33 483 32 483 52 483 52 37 32 37 38 37 73 37 74 37 156 37 156 37 74 37 453 37 156 484 453 484 472 484 472 485 453 485 456 485 74 37 77 37 453 37 453 37 77 37 79 37 453 37 79 37 80 37 83 486 99 486 80 486 80 487 99 487 110 487 80 488 110 488 453 488 453 489 110 489 278 489 453 490 278 490 308 490 308 491 278 491 277 491 308 492 277 492 264 492 264 493 277 493 261 493 83 494 85 494 99 494 99 495 85 495 87 495 99 496 87 496 88 496 90 497 95 497 88 497 88 497 95 497 94 497 88 498 94 498 99 498 99 37 101 37 110 37 110 37 101 37 103 37 110 37 103 37 104 37 104 37 107 37 110 37 110 37 107 37 109 37 110 37 113 37 278 37 278 499 113 499 189 499 278 500 189 500 191 500 189 501 113 501 181 501 181 502 113 502 114 502 181 503 114 503 182 503 182 37 114 37 157 37 114 37 117 37 157 37 157 37 117 37 154 37 154 37 117 37 137 37 137 37 117 37 118 37 137 37 118 37 124 37 137 37 143 37 154 37 274 37 273 37 277 37 277 504 273 504 386 504 277 505 386 505 261 505 261 506 386 506 385 506 261 507 385 507 243 507 261 37 243 37 259 37 259 37 243 37 159 37 259 37 159 37 161 37 161 37 252 37 259 37 259 37 252 37 253 37 267 37 271 37 265 37 265 37 271 37 276 37 265 37 276 37 264 37 264 37 276 37 292 37 264 37 292 37 304 37 304 37 308 37 264 37 308 37 317 37 453 37 453 37 317 37 454 37 454 37 317 37 360 37 360 37 317 37 320 37 360 37 320 37 323 37 323 37 337 37 360 37 360 37 337 37 358 37 337 37 349 37 358 37 358 37 349 37 354 37 360 37 362 37 454 37 454 508 362 508 469 508 454 509 469 509 470 509 372 37 466 37 365 37 365 37 466 37 467 37 365 37 467 37 362 37 362 510 467 510 468 510 362 511 468 511 469 511 366 37 369 37 365 37 365 37 369 37 372 37 372 37 376 37 466 37 470 37 455 37 454 37 472 512 471 512 156 512 156 513 471 513 120 513 156 37 120 37 122 37</p>
        </triangles>
      </mesh>
    </geometry>
  </library_geometries>
  <library_visual_scenes>
    <visual_scene id="DefaultScene">
      <node id="node_91b6c0af_055d_4c3a_af88_8e9480c843ff" type="NODE">
        <matrix>1 0 0 0 0 1 0 0 0 0 1 0 0 0 0 1</matrix>
        <node id="node_38409f3b_e09d_4cdf_9cf4_6d0bee0885e2" type="NODE">
          <matrix>1 0 0 0 0 1 0 0 0 0 1 0 0 0 0 1</matrix>
          <node id="node_38409f3b_e09d_4cdf_9cf4_6d0bee0885e2_mesh0" type="NODE">
            <matrix>1 0 0 0 0 1 0 0 0 0 1 0 0 0 0 1</matrix>
            <instance_geometry url="#geometry_090702df_ef84_4af9_a753_879a965f462f">
              <bind_material>
                <technique_common>
                  <instance_material symbol="mat_0" target="#mat_0"/>
                </technique_common>
              </bind_material>
            </instance_geometry>
          </node>
        </node>
      </node>
    </visual_scene>
  </library_visual_scenes>
  <scene>
    <instance_visual_scene url="#DefaultScene"/>
  </scene>
</COLLADA>
