<?xml version="1.0" encoding="UTF-8"?>
<COLLADA xmlns="http://www.collada.org/2005/11/COLLADASchema" version="1.4.1">
<!--
# File generated by ImageToStl.com - Free Image and 3D model conversion tools
-->
  <asset>
    <contributor>
      <author>ImageToStl.com</author>
      <authoring_tool>ImageToStl.com</authoring_tool>
    </contributor>
    <created>2025-07-02T08:54:06</created>
    <modified>2025-07-02T08:54:06</modified>
    <up_axis>Z_UP</up_axis>
  </asset>
  <library_effects>
    <effect id="effect_0">
        <profile_COMMON>
          <technique sid="common">
            <phong>
              <diffuse>
                <color>0.85 0.85 0.85 1</color>
              </diffuse>
              <specular>
                <color>0.05 0.05 0.05 1</color>
              </specular>
              <shininess>
                <float>64</float>
              </shininess>
            </phong>
          </technique>
        </profile_COMMON>
    </effect>
  </library_effects>
  <library_materials>
    <material id="mat_0">
      <instance_effect url="#effect_0"/>
    </material>
  </library_materials>
  <library_geometries>
    <geometry id="geometry_b3bfbdc1_f113_423f_bdc8_f35d996293a1">
      <mesh>
        <source id="pos_0">
          <float_array id="pos_0-array" count="1395">4.1500001 -0 5.15710688 0 -0 5.15710688 4.1500001 -0 -0 0 -0 -0 0 0.68284273 5.43994951 0 0.60000002 5.50351715 4.1500001 0.68284273 5.43994951 4.1500001 0.60000002 5.50351715 0 0.50352764 5.54347706 4.1500001 0.50352764 5.54347706 4.1500001 0.40000001 5.55710697 0 0.40000001 5.55710697 0 0.29647237 5.54347706 4.1500001 0.29647237 5.54347706 0 0.2 5.50351715 4.1500001 0.2 5.50351715 4.1500001 0.11715729 5.43994951 0 0.11715729 5.43994951 0 0.05358984 5.35710669 4.1500001 0.05358984 5.35710669 0 0.01362967 5.26063442 4.1500001 0.01362967 5.26063442 4.1500001 5.66593933 -0 0 5.66593933 -0 1.10000002 2.05245614 4.07033587 0 2.05245614 4.07033587 1.10000002 1.53639615 4.58639622 4.1500001 1.53639615 4.58639622 4.1500001 6.51958942 1.10308611 0 6.51958942 1.10308611 0 7.20251656 2.31927991 0 7.69999981 3.62236357 4.1500001 7.69999981 3.62236357 4.1500001 7.20251656 2.31927991 1.10000002 1.5 3.27917957 4.1500001 1.5 3.27917957 1.10000002 1.5 2.3499999 4.1500001 1.5 2.3499999 4.1500001 7.69999981 5.55000019 0 7.69999981 5.55000019 4.1500001 1.63834453 3.43536663 1.10000002 1.63834453 3.43536663 1.10000002 1.73700655 3.61921287 4.1500001 1.73700655 3.61921287 1.10000002 1.79068339 3.82083726 4.1500001 1.79068339 3.82083726 4.1500001 1.79649043 4.02940369 1.10000002 1.79649043 4.02940369 1.10000002 1.75411534 4.23370218 4.1500001 1.75411534 4.23370218 1.10000002 1.66583574 4.42275333 4.1500001 1.66583574 4.42275333 4.1500001 6.80000019 5.47126007 0 6.80000019 5.47126007 1.39999998 13.28016663 27.35000038 1.39999998 13.28016663 24.64999962 1.39999998 13.77499962 27.35000038 1.39999998 13.77499962 24.64999962 4.1500001 6.80000019 6.55000019 0 6.80000019 6.55000019 4.1500001 6.90910721 7.8913703 0 6.90910721 7.8913703 0 7.23356009 9.19747448 0 7.76482821 10.43397427 4.1500001 7.76482821 10.43397427 4.1500001 7.23356009 9.19747448 0 7.84044218 10.54036808 4.1500001 7.84044218 10.54036808 4.1500001 7.94101572 10.62356663 0 7.94101572 10.62356663 0 8.0596962 10.67789936 4.1500001 8.0596962 10.67789936 0 8.18839455 10.69966412 4.1500001 8.18839455 10.69966412 4.1500001 8.31834126 10.68737793 0 8.31834126 10.68737793 0 8.4406805 10.64187813 4.1500001 8.4406805 10.64187813 0 8.54707432 10.56626415 4.1500001 8.54707432 10.56626415 4.1500001 8.63027287 10.46569061 0 8.63027287 10.46569061 0 8.6846056 10.34700966 4.1500001 8.6846056 10.34700966 0 8.70637035 10.21831131 4.1500001 8.70637035 10.21831131 0 8.69408417 10.0883646 4.1500001 8.69408417 10.0883646 4.1500001 8.64858437 9.96602535 0 8.64858437 9.96602535 4.1500001 8.21387863 8.9730835 0 8.21387863 8.9730835 0 7.93099403 7.92671824 0 7.80616713 6.8499999 4.1500001 7.80616713 6.8499999 4.1500001 7.93099403 7.92671824 4.1500001 3.20763326 2.3499999 1.10000002 3.20763326 2.3499999 0 33.59999847 6.8499999 4.1500001 33.59999847 6.8499999 0 33.65176392 6.85681486 4.1500001 33.65176392 6.85681486 0 33.70000076 6.87679482 4.1500001 33.70000076 6.87679482 4.1500001 33.74142075 6.90857887 0 33.74142075 6.90857887 0 33.7732048 6.94999981 4.1500001 33.7732048 6.94999981 0 33.79318619 6.99823618 4.1500001 33.79318619 6.99823618 4.1500001 33.79999924 7.05000019 0 33.79999924 7.05000019 0 39.21398926 7.05000019 4.1500001 39.21398926 7.05000019 4.1500001 41.5 6.8499999 0 41.5 6.8499999 0 41.5 5.75 4.1500001 41.5 5.75 4.1500001 40.20227432 5.40227604 0 40.20227432 5.40227604 4.1500001 1 16.62370682 0 1 16.62370682 4.1500001 1 12.85000038 0 1 12.85000038 4.1500001 38.84999847 4.05000019 0 38.84999847 4.05000019 0 4.17272711 9.49237823 0 3.80539107 7.85480499 4.1500001 4.17272711 9.49237823 4.1500001 3.67260408 7.13797045 0 3.52414393 6.20027113 1.10000002 3.32975459 4.53329945 4.1500001 3.35030198 4.75270748 1.10000002 3.27252078 3.80651999 1.10000002 3.23180676 3.07862854 0 3.32975459 4.53329945 0 38.84999847 2.4000001 4.1500001 38.84999847 2.4000001 0.5 11.72132111 23.7133503 3.6500001 11.56387997 23.61874962 0.5 1.51533961 17.58097839 3.6500001 1.51533961 17.58097839 3.4000001 13.28016663 24.64999962 4.1500001 40.5304985 -0 0 40.5304985 -0 1.10000002 2.56030369 3.85100317 1.10000002 2.74779367 3.86904287 1.10000002 2.92487621 3.9332273 1.10000002 3.28941369 4.34931421 1.10000002 3.20450449 4.18118238 1.10000002 3.08038259 4.03950834 1.10000002 2.37423205 3.88024592 1.10000002 2.20131397 3.95492697 0 41.59999847 -0 4.1500001 41.59999847 -0 0 4.24326134 12.85000038 4.1500001 4.24326134 12.85000038 4.1500001 48 6.4000001 0 48 6.4000001 4.1500001 45.79999924 36.45000076 0 45.79999924 36.45000076 4.1500001 45.79999924 37.65000153 0 45.79999924 37.65000153 3.32500005 23.14999962 40.34999847 0.82499999 23.14999962 40.34999847 3.32500005 23.14999962 28.35000038 0.82499999 23.14999962 28.35000038 3.6500001 2.44343925 36.10233307 0.5 2.44343925 36.10233307 3.6500001 11.56387997 28.1740551 0.5 11.72132111 28.0371933 0.95640999 12.51184654 27.35000038 3.51191616 12.51184654 27.35000038 0 45.01593399 35.33023834 0.5 45.01593399 35.33023834 0 44.32248688 34.08776474 0.5 44.32248688 34.08776474 0 43.89461517 32.73072815 0.5 43.89461517 32.73072815 0 43.75 31.31520462 0.5 43.75 31.31520462 4.1500001 46.40496063 17.73843384 4.1500001 48 15.00591564 3.6500001 46.4846611 17.58097839 0 48 15.00591564 0.5 46.4846611 17.58097839 0 46.49885559 17.55321693 0 45.30895233 20.25993156 3.6500001 45.5830574 19.55357742 4.1500001 45.16782761 20.65052986 3.6500001 44.8558197 21.59689903 4.1500001 44.30841827 23.69556236 3.6500001 44.30841827 23.69556236 0.5 45.30083466 20.28186226 0 44.44692993 23.08819771 0.5 44.44327927 23.10335541 0 43.92484283 25.99845695 0.5 43.92392349 26.00619698 0 43.75 28.95000076 0.5 43.75 28.95000076 3.6500001 4.25 28.95480919 3.6500001 4.25 31.31520462 3.6500001 8 27.95000076 3.6500001 4.10538435 32.73072815 3.6500001 3.67751265 34.08776474 3.6500001 2.98406434 35.33023834 3.6500001 8 24.85000038 3.6500001 3.14418125 21.59689903 3.6500001 2.41694307 19.55357742 3.6500001 3.69158101 23.69556236 1.39999998 34.71983337 27.35000038 1.39999998 34.71983337 24.64999962 0.95640999 35.48815536 27.35000038 0.5 36.27867889 23.7133503 0.5 36.27867889 28.0371933 3.6500001 40 24.85000038 3.6500001 36.43611908 23.61874962 3.6500001 36.43611908 28.1740551 3.6500001 45.55656052 36.10233307 3.6500001 45.01593399 35.33023834 3.6500001 44.32248688 34.08776474 3.6500001 43.89461517 32.73072815 3.6500001 40 27.95000076 3.6500001 43.75 31.31520462 3.6500001 43.75 28.95480919 3.4000001 34.71983337 24.64999962 3.4000001 13.28016663 27.35000038 0.5 2.6991663 20.28186226 0.5 3.55672216 23.10335541 0.5 4.07607555 26.00619698 0.5 4.25 28.95000076 0.5 4.25 31.31520462 0.5 2.98406434 35.33023834 0.5 3.67751265 34.08776474 0.5 4.10538435 32.73072815 0 4.36527061 10.6037817 4.1500001 4.36527061 10.6037817 4.1500001 4.38896036 11.73149109 0 4.38896036 11.73149109 4.1500001 45.01593399 35.33023834 0.5 45.55656052 36.10233307 1.39999998 34.22499847 27.35000038 1.39999998 34.22499847 24.64999962 1.39999998 29.125 24.64999962 1.39999998 29.125 27.35000038 3.4000001 29.125 24.64999962 3.4000001 29.125 27.35000038 0 44.20822525 39.24177551 4.1500001 44.20822525 39.24177551 4.1500001 42.06565475 38.40742493 0 42.06565475 38.40742493 3.4000001 34.71983337 27.35000038 3.51191616 35.48815536 27.35000038 4.1500001 42.43893433 38.03414536 0 42.43893433 38.03414536 4.1500001 41.68233109 37.27754211 0 41.68233109 37.27754211 0 37.20988083 41.74999237 4.1500001 37.20988083 41.74999237 4.1500001 37.96648407 42.50659561 0 37.96648407 42.50659561 4.1500001 38.33976364 42.13331604 0 38.33976364 42.13331604 3.4000001 34.22499847 27.35000038 3.4000001 34.22499847 24.64999962 4.1500001 39.17411423 44.27588654 0 39.17411423 44.27588654 4.1500001 43.75 31.31520462 4.1500001 43.75 28.95480919 0 36.59999847 46.84999847 4.1500001 36.59999847 46.84999847 4.1500001 40 27.95000076 4.1500001 40 24.85000038 1.60077047 33.4943428 46.84999847 1.94282293 33.65363312 46.84999847 2.31380415 33.72252274 46.84999847 2.69023943 33.69665146 46.84999847 3.04830933 33.57766342 46.84999847 1.0868274 31.50003242 46.84999847 0.94745761 31.85067368 46.84999847 0 29.20000076 46.84999847 0.89999998 32.22499847 46.84999847 0.94745761 32.59932709 46.84999847 1.0868274 32.94996643 46.84999847 3.04830933 30.87233734 46.84999847 2.69023943 30.7533474 46.84999847 4.1500001 29.20000076 46.84999847 2.31380415 30.72747803 46.84999847 1.94282293 30.79636765 46.84999847 1.60077047 30.95565605 46.84999847 3.36535645 33.37308121 46.84999847 3.62131882 33.0958519 46.84999847 3.79999995 32.76351547 46.84999847 3.79999995 31.68648338 46.84999847 3.62131882 31.35414886 46.84999847 3.36535645 31.07691956 46.84999847 1.30929065 31.19526482 46.84999847 1.30929065 33.25473404 46.84999847 4.1500001 28 43.55302811 0 28 43.55302811 0.82499999 28 40.34999847 3.32500005 28 40.34999847 4.1500001 28 40.34999847 0 28 40.34999847 0.82499999 28 28.35000038 3.32500005 28 28.35000038 0.82499999 24.85000038 40.34999847 0 20 40.34999847 0.82499999 20 40.34999847 3.32500005 24.85000038 40.34999847 3.32500005 20 40.34999847 4.1500001 20 40.34999847 0 20 43.55302811 3.32500005 20 28.35000038 4.1500001 20 43.55302811 0.82499999 20 28.35000038 0 18.79999924 46.84999847 4.1500001 18.79999924 46.84999847 1.60077047 17.04434395 46.84999847 1.94282293 17.20363235 46.84999847 2.31380415 17.27252197 46.84999847 2.69023943 17.2466526 46.84999847 3.04830933 17.12766266 46.84999847 1.0868274 15.05003262 46.84999847 0.94745761 15.40067291 46.84999847 0 11.39999962 46.84999847 0.89999998 15.77499962 46.84999847 0.94745761 16.14932632 46.84999847 1.0868274 16.49996758 46.84999847 3.04830933 14.42233753 46.84999847 2.69023943 14.30334759 46.84999847 4.1500001 11.39999962 46.84999847 2.31380415 14.27747822 46.84999847 1.94282293 14.34636784 46.84999847 1.60077047 14.5056572 46.84999847 3.62131882 16.64585114 46.84999847 3.79999995 16.31351662 46.84999847 3.79999995 15.23648357 46.84999847 3.62131882 14.90415001 46.84999847 3.36535645 14.6269207 46.84999847 1.30929065 14.74526596 46.84999847 1.30929065 16.80473518 46.84999847 3.36535645 16.92308044 46.84999847 4.1500001 8.82588673 44.27588654 0 8.82588673 44.27588654 3.4000001 18.875 24.64999962 1.39999998 18.875 24.64999962 3.4000001 13.77499962 24.64999962 4.1500001 9.6602354 42.13331604 0 9.6602354 42.13331604 3.4000001 18.875 27.35000038 1.39999998 18.875 27.35000038 4.1500001 10.03351593 42.50659561 0 10.03351593 42.50659561 4.1500001 10.79012012 41.74999237 0 10.79012012 41.74999237 4.1500001 6.31766987 37.27754211 0 6.31766987 37.27754211 0 5.56106567 38.03414536 4.1500001 5.56106567 38.03414536 4.1500001 5.9343462 38.40742493 0 5.9343462 38.40742493 3.4000001 13.77499962 27.35000038 4.1500001 3.79177547 39.24177551 0 3.79177547 39.24177551 4.1500001 2.20000005 37.65000153 0 2.20000005 37.65000153 0 2.20000005 36.35362244 4.1500001 2.20000005 36.35362244 0 3.28941369 4.34931421 0 3.20450449 4.18118238 0 3.08038259 4.03950834 0 2.92487621 3.9332273 0 2.74779367 3.86904287 0 2.56030369 3.85100317 0 2.37423205 3.88024592 0 2.20131397 3.95492697 4.1500001 44.32248688 34.08776474 4.1500001 43.89461517 32.73072815 0.82499999 24.85000038 28.35000038 3.32500005 24.85000038 28.35000038 3.75015569 31.57148743 38.09999847 3.79999995 31.68648338 38.09999847 3.62260175 31.35595131 38.09999847 3.79999995 32.76351547 38.09999847 3.61431026 33.10559845 38.09999847 3.34685755 33.38838196 38.09999847 1.53095162 33.44760132 38.09999847 3.0156498 33.59283447 38.09999847 1.87477624 33.63003922 38.09999847 2.64298844 33.70518875 38.09999847 2.25396585 33.71787262 38.09999847 3.69088507 31.46105194 38.09999847 1.4001627 33.3431778 37.5 1.28182054 33.22483826 37.5 1.17739832 33.09404755 38.09999847 0.99763763 32.75733566 38.09999847 0.90868163 32.38615036 38.09999847 0.9162904 32.00453186 38.09999847 1.01997113 31.63718987 38.09999847 1.21301055 31.30790901 38.09999847 1.48290896 31.03800964 38.09999847 1.81219006 30.8449707 38.09999847 2.17953277 30.74129105 38.09999847 2.56115079 30.73368073 38.09999847 2.93233418 30.82263756 38.09999847 3.26904845 31.00239754 38.09999847 3.39983726 31.10682106 37.5 3.51817942 31.22516251 37.5 3.62260175 31.35595131 37.5 3.26904845 31.00239754 37.5 1.17739832 33.09404755 37.5 1.53095162 33.44760132 37.5 3.69088507 15.01105213 38.09999847 3.75015569 15.12148666 38.09999847 3.62260175 14.9059515 38.09999847 3.79999995 15.23648357 38.09999847 3.79999995 16.31351662 38.09999847 3.61431026 16.65559578 38.09999847 3.34685755 16.9383831 38.09999847 1.53095162 16.99760246 38.09999847 3.0156498 17.14283562 38.09999847 1.87477624 17.18004036 38.09999847 2.64298844 17.25518799 38.09999847 2.25396585 17.26787376 38.09999847 1.28182054 16.77483749 37.5 1.17739832 16.64404869 38.09999847 0.99763763 16.3073349 38.09999847 0.90868163 15.93615055 38.09999847 0.9162904 15.554533 38.09999847 1.01997113 15.18719006 38.09999847 1.21301055 14.8579092 38.09999847 1.48290896 14.58801079 38.09999847 1.81219006 14.39497089 38.09999847 2.17953277 14.29129028 38.09999847 2.56115079 14.28368187 38.09999847 2.93233418 14.37263775 38.09999847 3.26904845 14.55239868 38.09999847 3.39983726 14.6568203 37.5 3.51817942 14.7751627 37.5 1.17739832 16.64404869 37.5 1.4001627 16.89317894 37.5 1.53095162 16.99760246 37.5 3.62260175 14.9059515 37.5 3.26904845 14.55239868 37.5 4.1500001 8 24.85000038 4.1500001 8 27.95000076 4.1500001 4.25 28.95480919 4.1500001 3.69158101 23.69556236 0 4.04260206 25.73645401 0 4.25 28.95000076 0 4.25 31.31520462 0 4.10538435 32.73072815 0 3.67751265 34.08776474 0 2.98406434 35.33023834 0 2.38084793 36.19172287 0 3.42384958 22.57622528 0 2.40400839 19.5217514 4.1500001 2.38084793 36.19172287 4.1500001 2.98406434 35.33023834 4.1500001 3.67751265 34.08776474 4.1500001 4.10538435 32.73072815 4.1500001 4.25 31.31520462 4.1500001 2.13480878 18.88592911 4.1500001 3.03507805 21.25129509</float_array>
          <technique_common>
            <accessor source="#pos_0-array" count="1395" stride="3">
              <param name="X" type="float"/>
              <param name="Y" type="float"/>
              <param name="Z" type="float"/>
            </accessor>
          </technique_common>
        </source>
        <source id="norm_0">
          <float_array id="norm_0-array" count="1515">-0 -1 -0 -0 0.60876 0.79335 -0 0.38268 0.92388 0 0.13053 0.99144 0 -0.13053 0.99144 0 -0.38268 0.92388 0 -0.60876 0.79335 0 -0.79335 0.60876 0 -0.92388 0.38268 0 -0.99144 0.13053 0 -0 -1 -0 0.70711 0.70711 -0 0.70711 0.70711 0 0.70711 0.70711 -0 0.70711 0.70711 0 0.79085 -0.61202 0 0.79085 -0.61202 0 0.87194 -0.48962 0 0.93423 -0.35667 -0 1 0 -0 1 0 0 1 -0 -0 0.74857 -0.66305 0 0.74857 -0.66305 -0 0.88113 -0.47287 0 0.88113 -0.47287 -0 0.96634 -0.25726 0 0.96634 -0.25726 -0 0.99961 -0.02783 0 0.99961 -0.02783 -0 0.97916 0.20309 0 0.97916 0.20309 -0 0.90608 0.42311 0 0.90608 0.42311 -0 0.7843 0.62038 -0 0.7843 0.62038 0 -0.08716 0.99619 1 -0 0 0 0.99671 -0.08107 -0 0.99671 -0.08107 0 0.9705 -0.24109 0 0.91878 -0.39476 0 0.91878 -0.39476 -0 0.9705 -0.24109 0 0.81512 -0.5793 0 0.63741 -0.77053 0 0.41626 -0.90925 0 0.16675 -0.986 -0 -0.09413 -0.99556 -0 -0.34859 -0.93727 -0 -0.5793 -0.81512 -0 -0.77053 -0.63741 -0 -0.90925 -0.41626 -0 -0.986 -0.16675 0 -0.99556 0.09413 0 -0.93727 0.34859 0 -0.91606 0.40105 0 -0.96534 0.26098 0 -0.99335 0.11516 0 0 1 0 0 -1 0 0.13053 -0.99144 0 0.38268 -0.92388 0 0.60876 -0.79335 0 0.79335 -0.60876 0 0.92388 -0.38268 0 0.99144 -0.13053 0 0 -1 -0 -0 -1 -0 -0.08716 -0.99619 0 -0.08716 -0.99619 0 -0.25882 0.96593 0 -1 -0 -0 -1 -0 0 -0.70711 0.70711 0 -0.97575 0.21888 0.00459 -0.97816 0.20778 -0.0026 -0.98585 0.16758 0.00814 -0.9926 0.12112 -0.00296 -0.99099 0.1339 0.00107 -0.99691 0.07851 0.00707 -0.99822 0.05927 0.00543 -0.99842 0.05585 0 -0.99945 0.03316 0 -0.99327 0.11583 0 -0.51504 0.85717 0 -0.51504 0.85717 -0 -0.51504 0.85717 -0 -0.51504 0.85717 -0 -0.81915 -0.57358 0 -0.81915 -0.57358 1 -0 -0 1 0 -0 1 0 -0 1 0 -0 1 0 -0 1 0 -0 1 0 -0 1 0 -0 1 0 -0 1 0 -0 1 0 -0 1 -0 0 1 0 -0 1 0 0 1 0 0 1 0 0 0 0 -1 0 0 -1 0 0.70711 -0.70711 0 0.70711 -0.70711 -0 -1 -0 -0 -1 -0 -0 -0.65606 -0.75471 -0 -0.65606 -0.75471 -0 -0.65606 -0.75471 0 -0.65606 -0.75471 0 0.87321 -0.48735 0 0.95372 -0.30071 0 0.99482 -0.10164 -0.02109 0.86344 0.50401 0 0.86185 0.50717 -0.00373 0.86152 0.5077 0.00365 0.91544 0.40244 0.01406 0.90941 0.41566 -0.09308 0.91639 0.38931 0.0467 0.94108 0.33494 -0.08613 0.95883 0.27061 0 0.96763 0.25239 -0.00274 0.91588 0.40144 0.00274 0.95655 0.29155 -0.00183 0.95678 0.2908 0.00183 0.98429 0.17658 -0.00092 0.98437 0.17612 0.00092 0.99825 0.05913 0 0.99826 0.05898 -1 0 0 -1 0 0 -1 -0 0 -1 -0 -0 -1 -0 -0 -1 -0 -0 -1 -0 0 -1 -0 -0 -1 0 -0 0.86603 0.5 0 0.86603 0.5 -0 -1 0 0 -1 -0 0 -1 -0 -0 -1 -0 -0 -1 -0 0 -1 -0 -0 -1 -0 -0 -1 0 -0 0 0.51504 0.85717 0 0.51504 0.85717 0 0.51504 0.85717 -0.98956 -0.14414 -0 -0.98956 -0.14414 -0 -0.98956 -0.14414 0 1 0 -0 1 0 -0 1 0 -0 1 0 0 1 0 0 1 0 0 1 0 0 1 0 0 1 0 0 1 -0 -0 0 -0.98532 0.1707 0 -0.99978 0.021 -0 -0.99162 -0.12917 0 0.81915 -0.57358 -0 0.81915 -0.57358 0 0.81915 -0.57358 0 1 0 1 0 -0 1 -0 0 1 0 -0 1 0 -0 1 0 -0 1 0 0 1 0 0 1 0 0 1 0 0 1 0 0 0 -0.36287 0.93184 -0.98956 0.14414 0 -0.98956 0.14414 0 -0.98956 0.14414 0 -0 -0.70711 -0.70711 -0 0.70711 -0.70711 -0 -0.70711 -0.70711 0 0.93184 -0.36287 -0 0.93184 -0.36287 -0 1 0 -0 0.70711 0.70711 0 -0 1 0 0 1 0 -0.93969 0.34202 0 0.25882 -0.96593 -0 0.25882 -0.96593 0 -1 -0 -0 -1 -0 0 1 0 -0 1 -0 -0 1 -0 0 1 -0 -0 1 0 -0 1 -0 -0 0.25882 0.96593 -0 0.93969 0.34202 0 0.65606 -0.75471 -0 0.65606 -0.75471 -0 0.65606 -0.75471 0 -0.70711 0.70711 0 -0.70711 0.70711 0 -0.93184 -0.36287 -0 -0.93184 -0.36287 0 0.70711 -0.70711 0 0.70711 -0.70711 -0 -0.70711 -0.70711 -0 -0.70711 0.70711 0 0.70711 0.70711 0 0.70711 0.70711 0 0.70711 -0.70711 0 0.36287 0.93184 0 0.36287 0.93184 0 0 -1 0 0 -1 0 -0 -1 0 0 -1 -0 -0.70711 0.70711 0.86603 -0.5 0 0.86603 -0.5 -0 0.86603 -0.5 0 0 -0.9768 0.21417 -0 -0.9768 0.21417 -0 -0.89263 0.45079 0 -0.89263 0.45079 -0 -0.75216 0.65898 -0 -0.75216 0.65898 -0 -0.56426 0.8256 -0 -0.56426 0.8256 -0 -0.34076 0.94015 -0 -0.34076 0.94015 -0 -0.09577 0.9954 0 -0.09577 0.9954 -0 0.15525 0.98787 -0 0.15525 0.98787 -0 0.39649 0.91804 0 0.39649 0.91804 -0 0.61272 0.7903 -0 0.61272 0.7903 0 0.87321 -0.48735 -0 0.95372 -0.30071 0 0.95372 -0.30071 -0 0.99482 -0.10164 -0 0.99482 -0.10164 -0 1 0 -0 1 -0 1 -0 0 1 -0 0 -1 -0 -0 -1 -0 -0 1 -0 0 -1 0 -0 -0.87887 -0.47707 0 -0.88077 -0.47355 0.00018 -0.73473 -0.67836 -0.00017 -0.72653 -0.68713 0.00033 -0.54219 -0.84025 -0.00032 -0.52528 -0.85093 0.00048 -0.31535 -0.94897 -0.00047 -0.28865 -0.95743 0.00062 -0.06856 -0.99765 -0.0006 -0.03259 -0.99947 0.00075 0.18257 -0.98319 -0.00073 0.22566 -0.97421 0.00087 0.42215 -0.90652 -0.00084 0.46872 -0.88335 0.00098 0.63502 -0.77249 -0.00094 0.62748 -0.77863 -0.00127 0.70711 -0.70711 0.00018 0.78081 -0.62476 -0.0003 0.80771 -0.58958 -0.00135 0.88216 -0.47095 0.00138 0.92928 -0.36936 -0.00134 0.97246 -0.23306 0.00137 0.99206 -0.12577 -0.00133 0.9998 0.01993 0.00136 0.99206 0.12577 -0.00132 0.9624 0.27163 0.00135 0.92928 0.36936 -0.00131 0.86268 0.50574 0.00134 0.80771 0.58958 -0.0013 0.70711 0.70711 0.00132 0.63502 0.77249 -0.00128 0.50574 0.86268 0.00131 0.42215 0.90652 -0.00127 0.27163 0.9624 0.00129 0.18257 0.98319 -0.00125 0.01993 0.9998 0.00127 -0.06856 0.99765 -0.00123 -0.23306 0.97246 0.00125 -0.31535 0.94897 -0.00121 -0.47095 0.88216 0.00123 -0.54219 0.84025 -0.00119 -0.62337 0.78193 0.0002 -0.70711 0.70711 -0.00035 -0.73473 0.67836 -0.00125 -0.78151 0.62389 1E-05 -0.78148 0.62393 0 -0.83856 0.54481 -1E-05 -0.88077 0.47355 -0.00122 -0.88112 0.4729 -0.0012 -0.91752 0.39769 0 -0.62393 0.78148 0 0.78148 -0.62393 0 0.62393 -0.78148 0 -0.87887 -0.47707 0.00017 -0.88077 -0.47355 0 -0.88077 0.47355 -0.00121 -0.88112 0.4729 -0.00123 -0.83856 0.54481 -1E-05 -0.70711 -0.70711 -0 0.70711 0.70711 -0 -0 0 1 0 -0 1 -0 -0.25882 -0.96593 0 -0.25882 -0.96593 -1 0 -0 -1 0 -0 -1 0 -0 -1 0 -0 -1 0 -0 -1 0 -0 -1 0 -0 -1 0 0 -1 0 -0 -1 0 -0 -1 0 -0 -1 0 -0 -1 0 -0 -1 0 -0 -1 0 -0 -1 0 -0 -1 0 -0 -1 0 -0 -1 0 -0 -1 0 -0 -1 0 -0 -1 0 -0 -1 0 -0 -1 0 -0 -1 0 -0 -1 0 -0 -1 0 -0 -1 0 0 -1 0 -0 -1 0 -0 -1 -0 -0 -1 0 -0 -1 0 -0 -1 0 0 -1 0 -0 -1 0 -0 -1 0 -0 -1 0 -0 -1 0 -0 -1 0 -0 -1 0 -0 -1 0 0 -1 0 -0 -1 0 -0 -1 0 -0 -1 0 -0 -1 0 -0 -1 0 -0 -1 0 -0 -1 0 -0 -1 0 -0 -1 0 -0 -1 0 -0 -1 0 0 -1 0 -0 -1 -0 0 -1 -0 0 -1 0 -0 -1 0 -0 -1 0 -0 -1 0 -0 -1 0 -0 -1 0 -0 -1 0 -0 -1 0 -0 -1 0 -0 -1 0 -0 -1 -0 -0 -1 0 -0 -1 -0 -0 -1 0 -0 -1 0 -0 -1 0 0 -1 0 -0 -1 0 -0 -1 0 0 -1 0 -0 -1 0 0 -1 0 -0 -1 0 -0 -1 0 0 -1 0 -0 -1 0 -0 -1 0 -0 -1 0 -0 -1 0 -0 -1 0 -0 -1 0 -0 -1 0 -0 -1 0 -0 -1 0 -0 -1 0 0 -1 0 -0 -1 -0 -0 -1 0 -0 -1 0 -0 -1 0 -0 -1 0 -0 -1 0 0 -1 0 -0 -1 0 0 -1 -0 -0 -0 -0.667 -0.74506 0 -1 0 0 -0.99482 -0.10164 0 -0.95372 -0.30071 0 -0.87321 -0.48735 0 -0.81915 -0.57358 -0 -0.81915 -0.57358 0 -1 -0 0.09243 -0.8961 0.43413 0 -0.88051 0.47402 -0 -0.88051 0.47402 -0.06269 -0.89208 0.4475 0.04184 -0.90871 0.41534 -0.05231 -0.93332 0.35522 0.02618 -0.94179 0.33519 -0.03143 -0.96529 0.25927 0 -0.96763 0.25239 -0.06945 -0.91367 0.40047 0.07824 -0.94562 0.31573 -0.05225 -0.95548 0.2904 0.05812 -0.97971 0.19182 -0.0291 -0.98395 0.17604 0.03205 -0.99741 0.06437 0 -0.99826 0.05898 1 0 -0 1 0 -0 1 0 0 1 0 -0 1 0 0 1 -0 -0 1 -0 0 1 -0 0 1 -0 -0 1 0 0 1 0 -0 1 0 0 1 -0 -0 1 -0 0 1 -0 -0 1 0 0 1 -0 0 1 0 -0 1 -0 -0 1 -0 0 1 -0 -0 1 -0 0 1 -0 0 1 -0 0 1 -0 0 1 -0 0 1 -0 -0 1 -0 0 1 -0 0 1 0 -0 1 -0 0 1 0 -0 1 -0 -0 1 0 0 1 0 0 1 -0 0 1 -0 0 1 0 -0 1 0 0 1 -0 -0 1 0 0 1 -0 -0 1 -0 0 1 -0 0 1 -0 0 1 0 0</float_array>
          <technique_common>
            <accessor source="#norm_0-array" count="1515" stride="3">
              <param name="X" type="float"/>
              <param name="Y" type="float"/>
              <param name="Z" type="float"/>
            </accessor>
          </technique_common>
        </source>
        <source id="uvs_0">
          <float_array id="uvs_0-array" count="0"></float_array>
          <technique_common>
            <accessor source="#uvs_0-array" count="0" stride="2">
              <param name="S" type="float"/>
              <param name="T" type="float"/>
            </accessor>
          </technique_common>
        </source>
        <vertices id="vert_0">
          <input semantic="POSITION" source="#pos_0"/>
        </vertices>
        <triangles count="926" material="mat_0">
          <input semantic="VERTEX" source="#vert_0" offset="0"/>
          <input semantic="NORMAL" source="#norm_0" offset="1"/>
          <p>0 0 1 0 2 0 2 0 1 0 3 0 4 1 5 1 6 1 6 1 5 1 7 1 5 2 8 2 7 2 7 2 8 2 9 2 9 3 8 3 10 3 10 3 8 3 11 3 10 4 11 4 12 4 10 4 12 4 13 4 13 5 12 5 14 5 13 5 14 5 15 5 15 6 14 6 16 6 14 6 17 6 16 6 16 7 17 7 18 7 16 7 18 7 19 7 19 8 18 8 20 8 19 8 20 8 21 8 21 9 20 9 0 9 20 9 1 9 0 9 2 10 3 10 22 10 22 10 3 10 23 10 24 11 25 11 26 11 26 12 25 12 4 12 26 13 4 13 6 13 6 14 27 14 26 14 22 15 23 15 28 15 28 16 23 16 29 16 28 17 29 17 30 17 31 18 32 18 30 18 30 18 32 18 33 18 30 17 33 17 28 17 34 19 35 19 36 19 36 20 35 20 37 20 32 21 31 21 38 21 38 21 31 21 39 21 35 22 34 22 40 22 40 23 34 23 41 23 40 24 41 24 42 24 40 25 42 25 43 25 43 26 42 26 44 26 43 27 44 27 45 27 45 28 44 28 46 28 44 29 47 29 46 29 46 30 47 30 48 30 46 31 48 31 49 31 49 32 48 32 50 32 49 33 50 33 51 33 51 34 50 34 27 34 50 35 26 35 27 35 38 36 39 36 52 36 52 36 39 36 53 36 54 37 55 37 56 37 56 37 55 37 57 37 52 21 53 21 58 21 58 21 53 21 59 21 58 38 59 38 60 38 60 39 59 39 61 39 60 40 61 40 62 40 63 41 64 41 62 41 62 42 64 42 65 42 62 43 65 43 60 43 63 44 66 44 64 44 64 44 66 44 67 44 67 45 66 45 68 45 68 45 66 45 69 45 68 46 69 46 70 46 68 46 70 46 71 46 71 47 70 47 72 47 71 47 72 47 73 47 73 48 72 48 74 48 72 48 75 48 74 48 74 49 75 49 76 49 74 49 76 49 77 49 77 50 76 50 78 50 77 50 78 50 79 50 79 51 78 51 80 51 78 51 81 51 80 51 80 52 81 52 82 52 80 52 82 52 83 52 83 53 82 53 84 53 83 53 84 53 85 53 85 54 84 54 86 54 85 54 86 54 87 54 87 55 86 55 88 55 86 55 89 55 88 55 88 56 89 56 90 56 90 56 89 56 91 56 90 57 91 57 92 57 93 58 94 58 92 58 92 58 94 58 95 58 92 57 95 57 90 57 96 59 97 59 37 59 37 59 97 59 36 59 93 60 98 60 94 60 94 60 98 60 99 60 98 61 100 61 99 61 99 61 100 61 101 61 100 62 102 62 101 62 101 62 102 62 103 62 103 63 102 63 104 63 104 63 102 63 105 63 104 64 105 64 106 64 104 64 106 64 107 64 107 65 106 65 108 65 107 65 108 65 109 65 109 66 108 66 110 66 108 66 111 66 110 66 111 67 112 67 110 67 110 68 112 68 113 68 113 69 112 69 114 69 114 70 112 70 115 70 115 0 116 0 114 0 114 0 116 0 117 0 117 71 116 71 118 71 118 71 116 71 119 71 120 72 121 72 122 72 122 73 121 73 123 73 118 74 119 74 124 74 124 74 119 74 125 74 126 75 127 75 128 75 128 76 127 76 129 76 127 77 130 77 129 77 129 78 130 78 131 78 129 79 131 79 132 79 132 80 131 80 133 80 132 81 133 81 96 81 96 82 133 82 134 82 96 83 134 83 97 83 130 84 135 84 131 84 125 0 136 0 124 0 124 0 136 0 137 0 55 85 138 85 139 85 139 86 138 86 140 86 139 87 140 87 141 87 139 88 142 88 55 88 137 89 136 89 143 89 143 90 136 90 144 90 34 91 36 91 41 91 41 92 36 92 134 92 41 93 134 93 145 93 145 94 134 94 146 94 36 95 97 95 134 95 134 96 133 96 146 96 146 97 133 97 147 97 131 98 148 98 133 98 133 99 148 99 149 99 133 100 149 100 150 100 150 101 147 101 133 101 145 37 151 37 41 37 41 37 151 37 42 37 151 37 152 37 42 37 42 37 152 37 44 37 152 102 24 102 44 102 44 103 24 103 47 103 26 104 50 104 24 104 24 105 50 105 48 105 24 106 48 106 47 106 144 107 153 107 143 107 143 107 153 107 154 107 123 108 155 108 122 108 122 108 155 108 156 108 154 109 153 109 157 109 157 110 153 110 158 110 159 21 160 21 161 21 161 21 160 21 162 21 163 111 164 111 165 111 165 112 164 112 166 112 167 113 168 113 169 113 169 114 168 114 170 114 169 115 170 115 171 115 171 116 172 116 169 116 173 117 174 117 175 117 175 117 174 117 176 117 175 118 176 118 177 118 177 118 176 118 178 118 177 119 178 119 179 119 179 119 178 119 180 119 181 120 182 120 183 120 183 121 182 121 184 121 183 121 184 121 185 121 185 122 184 122 186 122 185 123 186 123 187 123 183 124 188 124 181 124 181 125 188 125 189 125 188 126 190 126 189 126 189 127 190 127 191 127 190 128 192 128 191 128 185 129 187 129 193 129 193 130 187 130 194 130 193 131 194 131 195 131 195 132 194 132 196 132 195 133 196 133 197 133 197 134 196 134 198 134 197 135 198 135 199 135 200 136 201 136 202 136 202 137 201 137 203 137 202 138 203 138 169 138 169 139 203 139 204 139 169 140 204 140 205 140 205 136 167 136 169 136 202 136 169 136 206 136 206 136 169 136 139 136 206 141 139 141 207 141 207 142 139 142 208 142 139 143 141 143 208 143 207 144 209 144 206 144 210 145 211 145 212 145 212 146 211 146 213 146 212 145 213 145 214 145 192 147 190 147 215 147 215 148 190 148 216 148 215 136 216 136 217 136 190 149 188 149 216 149 216 150 188 150 183 150 218 136 219 136 217 136 217 151 219 151 220 151 217 152 220 152 221 152 217 153 221 153 222 153 222 154 221 154 223 154 222 136 223 136 224 136 222 136 215 136 217 136 183 155 185 155 216 155 216 156 185 156 213 156 216 157 213 157 211 157 211 155 225 155 216 155 226 158 142 158 172 158 172 159 142 159 139 159 172 160 139 160 169 160 184 21 182 21 158 21 158 21 182 21 157 21 140 161 138 161 227 161 227 162 138 162 228 162 228 163 138 163 229 163 229 164 138 164 170 164 229 165 170 165 230 165 230 166 170 166 231 166 168 167 232 167 170 167 170 168 232 168 233 168 170 169 233 169 234 169 234 170 231 170 170 170 126 171 128 171 235 171 235 171 128 171 236 171 235 172 236 172 237 172 156 173 155 173 237 173 237 173 155 173 238 173 237 172 238 172 235 172 219 174 218 174 239 174 239 175 218 175 159 175 218 174 240 174 159 174 159 174 240 174 160 174 174 174 173 174 240 174 240 176 173 176 160 176 241 37 242 37 210 37 210 37 242 37 211 37 199 177 198 177 180 177 180 177 198 177 179 177 243 21 244 21 245 21 245 21 244 21 246 21 162 13 247 13 161 13 161 13 247 13 248 13 199 178 180 178 214 178 214 179 180 179 178 179 214 180 178 180 176 180 176 181 174 181 214 181 214 182 174 182 240 182 199 183 214 183 197 183 197 184 214 184 213 184 197 185 213 185 195 185 195 186 213 186 193 186 213 187 185 187 193 187 248 188 247 188 249 188 249 188 247 188 250 188 251 189 252 189 225 189 225 190 252 190 216 190 252 191 217 191 216 191 249 192 250 192 253 192 253 192 250 192 254 192 253 74 254 74 255 74 255 74 254 74 256 74 256 13 257 13 255 13 255 13 257 13 258 13 258 110 257 110 259 110 259 193 257 193 260 193 259 194 260 194 261 194 261 192 260 192 262 192 251 136 225 136 263 136 263 136 225 136 264 136 261 195 262 195 265 195 265 196 262 196 266 196 267 197 268 197 223 197 223 197 268 197 224 197 266 198 269 198 265 198 265 13 269 13 270 13 271 21 272 21 222 21 222 21 272 21 215 21 273 59 274 59 269 59 269 59 274 59 275 59 269 59 275 59 270 59 270 59 275 59 276 59 270 59 276 59 277 59 278 59 279 59 280 59 280 59 279 59 281 59 280 59 281 59 269 59 269 59 281 59 282 59 269 59 282 59 283 59 284 59 285 59 286 59 286 59 285 59 287 59 286 59 287 59 280 59 280 59 287 59 288 59 280 59 288 59 289 59 290 59 291 59 270 59 270 59 291 59 292 59 270 59 292 59 286 59 286 59 292 59 293 59 286 59 293 59 294 59 294 59 295 59 286 59 286 59 295 59 284 59 289 59 296 59 280 59 280 59 296 59 278 59 283 59 297 59 269 59 269 59 297 59 273 59 277 59 290 59 270 59 264 199 225 199 242 199 242 200 225 200 211 200 286 201 280 201 298 201 298 201 280 201 299 201 271 202 222 202 268 202 268 203 222 203 224 203 299 0 300 0 298 0 298 0 300 0 301 0 298 0 301 0 302 0 299 0 303 0 300 0 300 204 304 204 301 204 301 205 304 205 305 205 300 59 303 59 306 59 306 59 303 59 307 59 306 59 307 59 164 59 164 59 307 59 308 59 164 59 163 59 306 59 306 59 163 59 309 59 310 59 311 59 163 59 163 59 311 59 309 59 311 59 302 59 309 59 309 59 302 59 301 59 307 206 312 206 308 206 308 207 312 207 310 207 308 208 310 208 313 208 312 209 314 209 310 209 310 210 314 210 311 210 313 211 315 211 308 211 192 212 215 212 191 212 191 212 215 212 272 212 312 213 316 213 314 213 314 213 316 213 317 213 252 108 251 108 210 108 210 108 251 108 263 108 210 108 263 108 241 108 241 108 263 108 246 108 241 108 246 108 244 108 210 108 212 108 252 108 318 59 319 59 316 59 316 59 319 59 320 59 316 59 320 59 317 59 317 59 320 59 321 59 317 59 321 59 322 59 323 59 324 59 325 59 325 59 324 59 326 59 325 59 326 59 316 59 316 59 326 59 327 59 316 59 327 59 328 59 329 59 330 59 331 59 331 59 330 59 332 59 331 59 332 59 325 59 325 59 332 59 333 59 325 59 333 59 334 59 335 59 336 59 317 59 317 59 336 59 337 59 317 59 337 59 331 59 331 59 337 59 338 59 331 59 338 59 339 59 339 59 329 59 331 59 334 59 340 59 325 59 325 59 340 59 323 59 328 59 341 59 316 59 316 59 341 59 318 59 322 59 342 59 317 59 317 59 342 59 335 59 218 214 217 214 240 214 240 215 217 215 214 215 252 214 212 214 217 214 217 216 212 216 214 216 331 217 325 217 343 217 343 218 325 218 344 218 345 59 346 59 347 59 347 59 346 59 57 59 343 219 344 219 348 219 348 220 344 220 349 220 345 0 350 0 346 0 346 0 350 0 351 0 348 221 349 221 352 221 352 222 349 222 353 222 352 223 353 223 354 223 354 192 353 192 355 192 354 74 355 74 356 74 356 224 355 224 357 224 357 225 358 225 356 225 356 226 358 226 359 226 359 227 358 227 360 227 360 110 358 110 361 110 362 136 347 136 226 136 226 136 347 136 142 136 363 228 360 228 364 228 364 229 360 229 361 229 362 230 226 230 54 230 54 231 226 231 172 231 54 232 172 232 171 232 54 233 56 233 362 233 362 108 56 108 350 108 56 108 351 108 350 108 363 234 364 234 365 234 365 74 364 74 366 74 170 235 138 235 171 235 171 236 138 236 55 236 171 237 55 237 54 237 366 0 367 0 365 0 365 0 367 0 368 0 131 238 135 238 148 238 148 239 135 239 369 239 148 240 369 240 370 240 148 241 370 241 149 241 149 242 370 242 371 242 149 243 371 243 150 243 150 244 371 244 147 244 371 245 372 245 147 245 147 246 372 246 373 246 147 247 373 247 146 247 146 248 373 248 374 248 146 249 374 249 145 249 145 250 374 250 151 250 374 251 375 251 151 251 151 252 375 252 376 252 151 253 376 253 152 253 152 254 376 254 25 254 152 255 25 255 24 255 219 117 239 117 220 117 220 256 239 256 377 256 220 257 377 257 221 257 221 258 377 258 378 258 221 259 378 259 223 259 223 260 378 260 267 260 379 59 380 59 304 59 304 59 380 59 305 59 309 261 380 261 306 261 306 262 380 262 379 262 306 263 379 263 300 263 300 264 379 264 304 264 309 265 301 265 380 265 380 266 301 266 305 266 308 267 315 267 164 267 164 267 315 267 166 267 315 59 313 59 166 59 166 59 313 59 165 59 310 268 163 268 313 268 313 268 163 268 165 268 381 59 382 59 383 59 383 59 382 59 384 59 383 59 384 59 385 59 385 59 386 59 383 59 383 59 386 59 387 59 386 59 388 59 387 59 387 59 388 59 389 59 388 59 390 59 389 59 389 59 390 59 391 59 383 59 392 59 381 59 384 269 292 269 385 269 385 270 292 270 291 270 385 271 291 271 290 271 385 272 290 272 386 272 386 273 290 273 277 273 386 274 277 274 388 274 388 275 277 275 276 275 388 276 276 276 390 276 390 277 276 277 275 277 390 278 275 278 391 278 391 279 275 279 274 279 391 280 274 280 389 280 389 281 274 281 273 281 389 282 273 282 387 282 387 283 273 283 297 283 387 284 297 284 393 284 393 285 297 285 394 285 394 286 297 286 395 286 395 287 297 287 283 287 395 288 283 288 396 288 396 289 283 289 282 289 396 290 282 290 397 290 397 291 282 291 281 291 397 292 281 292 398 292 398 293 281 293 279 293 398 294 279 294 399 294 399 295 279 295 278 295 399 296 278 296 400 296 400 297 278 297 296 297 400 298 296 298 401 298 401 299 296 299 289 299 401 300 289 300 402 300 402 301 289 301 288 301 402 302 288 302 403 302 403 303 288 303 287 303 403 304 287 304 404 304 404 305 287 305 285 305 404 306 285 306 405 306 405 307 285 307 284 307 405 308 284 308 406 308 406 309 284 309 295 309 406 310 295 310 407 310 407 311 295 311 408 311 295 312 294 312 408 312 408 313 294 313 383 313 408 314 383 314 409 314 383 315 294 315 392 315 392 316 294 316 293 316 392 317 293 317 381 317 381 318 293 318 382 318 407 319 410 319 406 319 395 320 411 320 394 320 393 321 412 321 387 321 293 136 292 136 382 136 382 136 292 136 384 136 413 59 414 59 415 59 415 59 414 59 416 59 415 59 416 59 417 59 417 59 418 59 415 59 415 59 418 59 419 59 415 59 419 59 420 59 420 59 419 59 421 59 420 59 421 59 422 59 422 59 421 59 423 59 422 59 423 59 424 59 425 286 341 286 426 286 426 287 341 287 328 287 426 288 328 288 427 288 427 289 328 289 327 289 427 290 327 290 428 290 428 291 327 291 326 291 428 292 326 292 429 292 429 293 326 293 324 293 429 294 324 294 430 294 430 295 324 295 323 295 430 296 323 296 431 296 431 297 323 297 340 297 431 298 340 298 432 298 432 299 340 299 334 299 432 300 334 300 433 300 433 301 334 301 333 301 433 302 333 302 434 302 434 303 333 303 332 303 434 304 332 304 435 304 435 305 332 305 330 305 435 306 330 306 436 306 436 307 330 307 329 307 436 308 329 308 437 308 437 309 329 309 339 309 437 310 339 310 438 310 438 311 339 311 439 311 426 320 440 320 425 320 425 285 441 285 341 285 341 284 441 284 420 284 341 283 420 283 318 283 318 282 420 282 422 282 318 281 422 281 319 281 319 280 422 280 424 280 319 279 424 279 320 279 320 278 424 278 423 278 320 277 423 277 321 277 321 276 423 276 421 276 321 275 421 275 322 275 322 274 421 274 419 274 322 273 419 273 342 273 342 272 419 272 418 272 342 271 418 271 335 271 335 322 418 322 417 322 335 323 417 323 336 323 441 321 442 321 420 321 339 312 338 312 439 312 439 313 338 313 415 313 439 314 415 314 443 314 337 324 414 324 338 324 338 325 414 325 413 325 338 326 413 326 415 326 337 318 416 318 414 318 438 319 444 319 437 319 337 136 336 136 416 136 416 136 336 136 417 136 420 327 442 327 415 327 415 327 442 327 443 327 395 59 396 59 406 59 406 59 396 59 397 59 406 59 397 59 398 59 398 59 399 59 406 59 406 59 399 59 400 59 406 59 400 59 401 59 401 59 402 59 406 59 406 59 402 59 405 59 402 59 403 59 405 59 405 59 403 59 404 59 444 328 440 328 437 328 437 328 440 328 426 328 387 327 412 327 383 327 383 327 412 327 409 327 426 59 427 59 437 59 437 59 427 59 428 59 437 59 428 59 429 59 429 59 430 59 437 59 437 59 430 59 431 59 437 59 431 59 432 59 432 59 433 59 437 59 437 59 433 59 436 59 433 59 434 59 436 59 436 59 434 59 435 59 407 59 408 59 410 59 410 59 408 59 409 59 410 59 409 59 411 59 411 59 409 59 394 59 412 59 393 59 409 59 409 59 393 59 394 59 395 328 406 328 411 328 411 328 406 328 410 328 438 59 439 59 444 59 444 59 439 59 443 59 444 59 443 59 440 59 440 59 443 59 425 59 442 59 441 59 443 59 443 59 441 59 425 59 347 200 57 200 142 200 142 329 57 329 55 329 347 136 362 136 345 136 345 136 362 136 350 136 56 37 57 37 351 37 351 37 57 37 346 37 242 330 243 330 264 330 264 59 243 59 245 59 242 37 241 37 243 37 243 37 241 37 244 37 263 136 264 136 246 136 246 136 264 136 245 136 445 0 446 0 206 0 206 0 446 0 202 0 446 331 447 331 202 331 202 332 447 332 200 332 445 71 206 71 448 71 448 71 206 71 209 71 449 333 450 333 307 333 307 334 450 334 451 334 307 335 451 335 357 335 357 336 451 336 452 336 357 337 452 337 453 337 453 338 454 338 357 338 357 136 454 136 358 136 454 339 455 339 358 339 358 340 455 340 366 340 358 341 366 341 364 341 455 136 367 136 366 136 364 341 361 341 358 341 357 342 355 342 307 342 307 343 355 343 312 343 349 136 344 136 353 136 353 136 344 136 325 136 353 344 325 344 355 344 355 345 325 345 316 345 355 346 316 346 312 346 198 347 196 347 303 347 303 348 196 348 111 348 303 349 111 349 307 349 307 350 111 350 81 350 307 351 81 351 78 351 299 352 257 352 303 352 303 353 257 353 256 353 303 354 256 354 179 354 179 355 256 355 177 355 299 356 280 356 257 356 257 357 280 357 269 357 257 358 269 358 260 358 260 359 269 359 266 359 260 136 266 136 262 136 162 360 160 360 254 360 254 361 160 361 173 361 254 362 173 362 256 362 256 363 173 363 175 363 256 364 175 364 177 364 250 136 247 136 254 136 254 365 247 365 162 365 179 366 198 366 303 366 196 367 194 367 111 367 111 368 194 368 187 368 111 369 187 369 112 369 112 370 187 370 186 370 112 371 186 371 115 371 115 372 186 372 184 372 115 373 184 373 158 373 115 374 158 374 116 374 116 375 158 375 153 375 116 376 153 376 136 376 136 377 153 377 144 377 125 136 119 136 136 136 136 136 119 136 116 136 108 378 106 378 111 378 111 379 106 379 105 379 111 380 105 380 102 380 102 381 100 381 111 381 111 382 100 382 98 382 111 383 98 383 81 383 81 384 98 384 82 384 93 385 89 385 98 385 98 386 89 386 86 386 98 387 86 387 84 387 93 388 92 388 89 388 89 389 92 389 91 389 84 390 82 390 98 390 76 391 456 391 78 391 78 392 456 392 449 392 78 393 449 393 307 393 76 394 75 394 456 394 456 395 75 395 457 395 457 396 75 396 155 396 155 397 75 397 72 397 155 398 72 398 70 398 70 399 69 399 155 399 155 400 69 400 238 400 69 401 66 401 238 401 238 402 66 402 63 402 238 403 63 403 235 403 235 404 63 404 62 404 235 405 62 405 126 405 126 406 62 406 61 406 126 407 61 407 127 407 127 408 61 408 59 408 127 409 59 409 130 409 130 410 59 410 53 410 130 411 53 411 135 411 135 412 53 412 369 412 39 413 31 413 53 413 53 414 31 414 30 414 53 415 30 415 369 415 369 416 30 416 370 416 30 417 29 417 370 417 370 418 29 418 371 418 371 419 29 419 372 419 372 420 29 420 23 420 372 421 23 421 373 421 373 422 23 422 374 422 23 423 3 423 374 423 374 424 3 424 375 424 20 425 4 425 1 425 1 136 4 136 25 136 1 426 25 426 3 426 3 427 25 427 376 427 3 428 376 428 375 428 20 429 18 429 4 429 4 430 18 430 17 430 4 431 17 431 5 431 5 432 17 432 14 432 5 432 14 432 8 432 8 432 14 432 12 432 8 432 12 432 11 432 123 433 121 433 155 433 155 434 121 434 457 434 368 435 367 435 458 435 458 435 367 435 455 435 230 436 231 436 450 436 450 436 231 436 451 436 451 437 231 437 452 437 452 437 231 437 234 437 452 438 234 438 453 438 453 438 234 438 233 438 453 439 233 439 454 439 454 439 233 439 232 439 205 89 459 89 167 89 167 440 459 440 458 440 167 89 458 89 455 89 167 89 455 89 168 89 168 441 455 441 454 441 168 89 454 89 232 89 459 439 205 439 460 439 460 439 205 439 204 439 460 438 204 438 461 438 461 438 204 438 203 438 461 437 203 437 462 437 462 437 203 437 201 437 201 0 200 0 462 0 462 442 200 442 447 442 457 443 121 443 140 443 140 444 121 444 120 444 140 445 120 445 141 445 141 446 120 446 463 446 141 447 463 447 208 447 208 448 463 448 464 448 208 449 464 449 207 449 207 450 464 450 448 450 207 451 448 451 209 451 140 452 227 452 457 452 457 453 227 453 456 453 227 454 228 454 456 454 456 455 228 455 449 455 228 456 229 456 449 456 449 457 229 457 450 457 229 458 230 458 450 458 64 459 67 459 237 459 237 460 67 460 68 460 237 461 68 461 156 461 156 37 68 37 71 37 156 37 71 37 73 37 237 462 236 462 64 462 64 463 236 463 65 463 236 464 128 464 65 464 65 465 128 465 60 465 128 466 129 466 60 466 60 467 129 467 58 467 58 468 129 468 52 468 52 469 129 469 132 469 52 470 132 470 33 470 33 471 132 471 96 471 33 472 96 472 28 472 28 473 96 473 22 473 22 37 96 37 2 37 2 37 96 37 37 37 2 37 37 37 0 37 0 37 37 37 35 37 0 37 35 37 27 37 27 37 35 37 40 37 27 37 40 37 43 37 43 37 45 37 27 37 27 37 45 37 46 37 27 37 46 37 49 37 49 37 51 37 27 37 27 37 6 37 0 37 0 37 6 37 21 37 9 37 13 37 7 37 7 37 13 37 15 37 7 37 15 37 6 37 6 37 15 37 16 37 6 37 16 37 19 37 9 37 10 37 13 37 19 37 21 37 6 37 33 474 32 474 52 474 52 37 32 37 38 37 73 37 74 37 156 37 156 37 74 37 445 37 156 475 445 475 464 475 464 476 445 476 448 476 74 37 77 37 445 37 445 37 77 37 79 37 445 37 79 37 80 37 83 477 99 477 80 477 80 478 99 478 110 478 80 479 110 479 445 479 445 480 110 480 272 480 445 481 272 481 302 481 302 482 272 482 271 482 302 483 271 483 258 483 258 484 271 484 255 484 83 485 85 485 99 485 99 486 85 486 87 486 99 487 87 487 88 487 90 488 95 488 88 488 88 488 95 488 94 488 88 489 94 489 99 489 99 37 101 37 110 37 110 37 101 37 103 37 110 37 103 37 104 37 104 37 107 37 110 37 110 37 107 37 109 37 110 37 113 37 272 37 272 490 113 490 189 490 272 491 189 491 191 491 189 492 113 492 181 492 181 493 113 493 114 493 181 494 114 494 182 494 182 37 114 37 157 37 114 37 117 37 157 37 157 37 117 37 154 37 154 37 117 37 137 37 137 37 117 37 118 37 137 37 118 37 124 37 137 37 143 37 154 37 268 37 267 37 271 37 271 495 267 495 378 495 271 496 378 496 255 496 255 497 378 497 377 497 255 498 377 498 239 498 255 37 239 37 253 37 253 37 239 37 159 37 253 37 159 37 161 37 161 37 248 37 253 37 253 37 248 37 249 37 261 37 265 37 259 37 259 37 265 37 270 37 259 37 270 37 258 37 258 37 270 37 286 37 258 37 286 37 298 37 298 37 302 37 258 37 302 37 311 37 445 37 445 37 311 37 446 37 446 37 311 37 354 37 354 37 311 37 314 37 354 37 314 37 317 37 317 37 331 37 354 37 354 37 331 37 352 37 331 37 343 37 352 37 352 37 343 37 348 37 354 37 356 37 446 37 446 499 356 499 461 499 446 500 461 500 462 500 365 37 458 37 359 37 359 37 458 37 459 37 359 37 459 37 356 37 356 501 459 501 460 501 356 502 460 502 461 502 360 37 363 37 359 37 359 37 363 37 365 37 365 37 368 37 458 37 462 37 447 37 446 37 464 503 463 503 156 503 156 504 463 504 120 504 156 37 120 37 122 37</p>
        </triangles>
      </mesh>
    </geometry>
  </library_geometries>
  <library_visual_scenes>
    <visual_scene id="DefaultScene">
      <node id="node_8fc1f695_6264_402d_a6f6_d075b6cefa59" type="NODE">
        <matrix>1 0 0 0 0 1 0 0 0 0 1 0 0 0 0 1</matrix>
        <node id="node_73dbbe9a_2724_45c8_b4b1_032f0151afd4" type="NODE">
          <matrix>1 0 0 0 0 1 0 0 0 0 1 0 0 0 0 1</matrix>
          <node id="node_73dbbe9a_2724_45c8_b4b1_032f0151afd4_mesh0" type="NODE">
            <matrix>1 0 0 0 0 1 0 0 0 0 1 0 0 0 0 1</matrix>
            <instance_geometry url="#geometry_b3bfbdc1_f113_423f_bdc8_f35d996293a1">
              <bind_material>
                <technique_common>
                  <instance_material symbol="mat_0" target="#mat_0"/>
                </technique_common>
              </bind_material>
            </instance_geometry>
          </node>
        </node>
      </node>
    </visual_scene>
  </library_visual_scenes>
  <scene>
    <instance_visual_scene url="#DefaultScene"/>
  </scene>
</COLLADA>
